<svg width="268" height="184" viewBox="0 0 268 184" fill="none" xmlns="http://www.w3.org/2000/svg">
<path d="M240.647 176.038C243.21 176.038 248.854 156.985 249.501 155.019C255.269 137.458 257.633 118.839 256.451 100.282C254.875 77.3976 251.967 52.4992 236.816 34.8138C206.136 -1.07409 149.05 3.44423 120.042 38.8422C111.477 49.2874 102.47 60.0252 90.99 66.932C77.8891 74.8118 62.4692 73.7367 48.4074 78.6224C27.0425 86.0395 10.4502 111.884 11.0139 135.918C11.4688 155.386 25.3961 175.072 44.6149 176.494C62.9753 177.855 240.57 176.038 240.647 176.038Z" fill="#2C87A4"/>
<path opacity="0.8" d="M240.647 176.038C243.21 176.038 248.854 156.985 249.501 155.019C255.269 137.458 257.633 118.839 256.451 100.282C254.875 77.3976 251.967 52.4992 236.816 34.8138C206.136 -1.07409 149.05 3.44423 120.042 38.8422C111.477 49.2874 102.47 60.0252 90.99 66.932C77.8891 74.8118 62.4692 73.7367 48.4074 78.6224C27.0425 86.0395 10.4502 111.884 11.0139 135.918C11.4688 155.386 25.3961 175.072 44.6149 176.494C62.9753 177.855 240.57 176.038 240.647 176.038Z" fill="white"/>
<path d="M134.898 115.085C134.898 115.085 148.356 96.6442 141.788 92.3222C134.957 87.8137 131.745 101.458 130.305 108.161C127.22 122.458 128.093 125.492 130.161 122.348L134.898 115.085Z" fill="#2C87A4"/>
<path d="M139.966 126.415C139.966 126.415 158.686 113.356 153.881 107.127C148.881 100.644 141.415 112.509 137.873 118.373C130.313 130.899 130.152 134.051 133.127 131.754L139.966 126.415Z" fill="#2C87A4"/>
<path d="M140.347 141.61C140.347 141.61 156.551 134.331 153.779 128.899C150.898 123.221 143.466 131.204 139.906 135.178C132.279 143.653 131.737 146.051 134.347 144.721L140.347 141.61Z" fill="#2C87A4"/>
<path d="M141.313 156.78C141.313 156.78 157.517 149.509 154.746 144.068C151.856 138.39 144.432 146.373 140.873 150.348C133.246 158.822 132.695 161.221 135.305 159.89L141.313 156.78Z" fill="#2C87A4"/>
<path d="M122.279 122.788C122.279 122.788 104.483 108.492 99.8556 114.856C95.042 121.475 108.525 125.305 115.11 127.06C129.254 130.797 132.33 130.06 129.279 127.848L122.279 122.788Z" fill="#2C87A4"/>
<path d="M122.847 134.721C122.847 134.721 102.559 124.255 99.2877 131.407C95.8979 138.848 109.864 139.924 116.711 140.322C131.313 141.17 134.178 139.848 130.754 138.28L122.847 134.721Z" fill="#2C87A4"/>
<path d="M125.296 148.11C125.296 148.11 107.872 139.72 105.33 145.848C102.627 152.22 114.465 152.805 120.262 152.992C132.635 153.364 135.025 152.144 132.127 150.941L125.296 148.11Z" fill="#2C87A4"/>
<path d="M126.127 158.924C126.127 158.924 109.72 148.754 106.482 154.551C103.093 160.602 114.83 162.441 120.576 163.237C132.838 164.932 135.347 164 132.559 162.449L126.127 158.924Z" fill="#2C87A4"/>
<path d="M124.593 104.678C124.593 104.678 121.508 77.9069 111.407 80.6442C100.898 83.4917 109.712 97.0425 114.135 103.576C123.618 117.509 127.102 119.051 126.356 114.695L124.593 104.678Z" fill="#2C87A4"/>
<path opacity="0.5" d="M134.898 115.085C134.898 115.085 148.356 96.6442 141.788 92.3222C134.957 87.8137 131.745 101.458 130.305 108.161C127.22 122.458 128.093 125.492 130.161 122.348L134.898 115.085Z" fill="white"/>
<path opacity="0.5" d="M139.966 126.415C139.966 126.415 158.686 113.356 153.881 107.127C148.881 100.644 141.415 112.509 137.873 118.373C130.313 130.899 130.152 134.051 133.127 131.754L139.966 126.415Z" fill="white"/>
<path opacity="0.5" d="M140.347 141.61C140.347 141.61 156.551 134.331 153.779 128.899C150.898 123.221 143.466 131.204 139.906 135.178C132.279 143.653 131.737 146.051 134.347 144.721L140.347 141.61Z" fill="white"/>
<path opacity="0.5" d="M141.313 156.78C141.313 156.78 157.517 149.509 154.746 144.068C151.856 138.39 144.432 146.373 140.873 150.348C133.246 158.822 132.695 161.221 135.305 159.89L141.313 156.78Z" fill="white"/>
<path opacity="0.5" d="M122.279 122.788C122.279 122.788 104.483 108.492 99.8556 114.856C95.042 121.475 108.525 125.305 115.11 127.06C129.254 130.797 132.33 130.06 129.279 127.848L122.279 122.788Z" fill="white"/>
<path opacity="0.5" d="M122.847 134.721C122.847 134.721 102.559 124.255 99.2877 131.407C95.8979 138.848 109.864 139.924 116.711 140.322C131.313 141.17 134.178 139.848 130.754 138.28L122.847 134.721Z" fill="white"/>
<path opacity="0.5" d="M125.296 148.11C125.296 148.11 107.872 139.72 105.33 145.848C102.627 152.22 114.465 152.805 120.262 152.992C132.635 153.364 135.025 152.144 132.127 150.941L125.296 148.11Z" fill="white"/>
<path opacity="0.5" d="M126.127 158.924C126.127 158.924 109.72 148.754 106.482 154.551C103.093 160.602 114.83 162.441 120.576 163.237C132.838 164.932 135.347 164 132.559 162.449L126.127 158.924Z" fill="white"/>
<path opacity="0.5" d="M124.593 104.678C124.593 104.678 121.508 77.9069 111.407 80.6442C100.898 83.4917 109.712 97.0425 114.135 103.576C123.618 117.509 127.102 119.051 126.356 114.695L124.593 104.678Z" fill="white"/>
<path d="M113.466 90.373C113.466 90.373 128.856 119.187 131.262 132.619C134.008 148 134.457 165.17 132.559 178.636" stroke="#0E3C47" stroke-width="0.75" stroke-linecap="round" stroke-linejoin="round"/>
<path d="M128.813 123.712L136.356 100.619" stroke="#0E3C47" stroke-width="0.75" stroke-linecap="round" stroke-linejoin="round"/>
<path d="M131.245 132.619L145.44 114.771" stroke="#0E3C47" stroke-width="0.75" stroke-linecap="round" stroke-linejoin="round"/>
<path d="M130.339 129.373L109.788 120.737" stroke="#0E3C47" stroke-width="0.75" stroke-linecap="round" stroke-linejoin="round"/>
<path d="M133.025 144.703L148.475 132.856" stroke="#0E3C47" stroke-width="0.75" stroke-linecap="round" stroke-linejoin="round"/>
<path d="M132.203 139.619L116.059 136.263" stroke="#0E3C47" stroke-width="0.75" stroke-linecap="round" stroke-linejoin="round"/>
<path d="M132.982 151.983L120.482 150" stroke="#0E3C47" stroke-width="0.75" stroke-linecap="round" stroke-linejoin="round"/>
<path d="M134.033 159.983L142.44 152.458" stroke="#0E3C47" stroke-width="0.75" stroke-linecap="round" stroke-linejoin="round"/>
<path d="M133.864 163.373L119.5 159.763" stroke="#0E3C47" stroke-width="0.75" stroke-linecap="round" stroke-linejoin="round"/>
<path d="M161.991 147.051C161.991 147.051 161.195 132.025 166.381 132C171.779 132 168.635 140.661 167.017 144.881C163.568 153.89 161.991 155.254 161.983 152.771L161.991 147.051Z" fill="#2C87A4"/>
<path d="M155.109 151.483C155.109 151.483 149.474 137.526 154.372 135.822C159.457 134.043 159.313 143.28 159.16 147.797C158.821 157.433 157.77 159.238 156.957 156.89L155.109 151.483Z" fill="#2C87A4"/>
<path d="M149.441 159.712C149.441 159.712 143.119 149.856 146.61 147.847C150.246 145.754 151.475 152.839 152.008 156.322C153.144 163.737 152.602 165.263 151.644 163.593L149.441 159.712Z" fill="#2C87A4"/>
<path d="M143.466 167.763C143.466 167.763 137.144 157.907 140.636 155.899C144.28 153.797 145.5 160.882 146.034 164.373C147.169 171.788 146.636 173.314 145.669 171.636L143.466 167.763Z" fill="#2C87A4"/>
<path d="M166.161 155.839C166.161 155.839 181.135 154.356 181.415 159.534C181.686 164.924 172.864 162.187 168.576 160.763C159.415 157.729 157.983 156.221 160.466 156.094L166.161 155.839Z" fill="#2C87A4"/>
<path d="M161.567 162.237C161.567 162.237 176.542 163.763 175.762 168.89C174.965 174.22 166.864 169.788 162.94 167.542C154.567 162.746 153.465 160.983 155.923 161.356L161.567 162.237Z" fill="#2C87A4"/>
<path d="M155.389 168.729C155.389 168.729 168.016 170.365 167.253 174.661C166.448 179.153 159.703 175.212 156.431 173.229C149.465 168.992 148.576 167.458 150.643 167.831L155.389 168.729Z" fill="#2C87A4"/>
<path d="M151.042 174.416C151.042 174.416 163.754 174.704 163.458 179.077C163.136 183.627 156.009 180.424 152.551 178.797C145.17 175.314 144.076 173.899 146.212 174.043L151.042 174.416Z" fill="#2C87A4"/>
<path d="M171.432 145C171.432 145 182.779 131.331 187.373 136.526C192.144 141.882 182.415 146.195 177.61 148.204C167.347 152.483 164.898 152.077 166.847 149.941L171.432 145Z" fill="#2C87A4"/>
<path opacity="0.5" d="M161.991 147.051C161.991 147.051 161.195 132.025 166.381 132C171.779 132 168.635 140.661 167.017 144.881C163.568 153.89 161.991 155.254 161.983 152.771L161.991 147.051Z" fill="white"/>
<path opacity="0.5" d="M155.109 151.483C155.109 151.483 149.474 137.526 154.372 135.822C159.457 134.043 159.313 143.28 159.16 147.797C158.821 157.433 157.77 159.238 156.957 156.89L155.109 151.483Z" fill="white"/>
<path opacity="0.5" d="M149.441 159.712C149.441 159.712 143.119 149.856 146.61 147.847C150.246 145.754 151.475 152.839 152.008 156.322C153.144 163.737 152.602 165.263 151.644 163.593L149.441 159.712Z" fill="white"/>
<path opacity="0.5" d="M143.466 167.763C143.466 167.763 137.144 157.907 140.636 155.899C144.28 153.797 145.5 160.882 146.034 164.373C147.169 171.788 146.636 173.314 145.669 171.636L143.466 167.763Z" fill="white"/>
<path opacity="0.5" d="M166.161 155.839C166.161 155.839 181.135 154.356 181.415 159.534C181.686 164.924 172.864 162.187 168.576 160.763C159.415 157.729 157.983 156.221 160.466 156.094L166.161 155.839Z" fill="white"/>
<path opacity="0.5" d="M161.567 162.237C161.567 162.237 176.542 163.763 175.762 168.89C174.965 174.22 166.864 169.788 162.94 167.542C154.567 162.746 153.465 160.983 155.923 161.356L161.567 162.237Z" fill="white"/>
<path opacity="0.5" d="M155.389 168.729C155.389 168.729 168.016 170.365 167.253 174.661C166.448 179.153 159.703 175.212 156.431 173.229C149.465 168.992 148.576 167.458 150.643 167.831L155.389 168.729Z" fill="white"/>
<path opacity="0.5" d="M151.042 174.416C151.042 174.416 163.754 174.704 163.458 179.077C163.136 183.627 156.009 180.424 152.551 178.797C145.17 175.314 144.076 173.899 146.212 174.043L151.042 174.416Z" fill="white"/>
<path opacity="0.5" d="M171.432 145C171.432 145 182.779 131.331 187.373 136.526C192.144 141.882 182.415 146.195 177.61 148.204C167.347 152.483 164.898 152.077 166.847 149.941L171.432 145Z" fill="white"/>
<path d="M182.719 141.127C182.719 141.127 163.83 151.517 157.686 158.077C150.711 165.481 144.884 173.888 140.397 183.017" stroke="#0E3C47" stroke-width="0.75" stroke-linecap="round" stroke-linejoin="round"/>
<path d="M162.236 154.009L166.397 138.542" stroke="#0E3C47" stroke-width="0.75" stroke-linecap="round" stroke-linejoin="round"/>
<path d="M157.686 158.043L156.279 143.085" stroke="#0E3C47" stroke-width="0.75" stroke-linecap="round" stroke-linejoin="round"/>
<path d="M159.355 156.585L173.813 159.221" stroke="#0E3C47" stroke-width="0.75" stroke-linecap="round" stroke-linejoin="round"/>
<path d="M152.355 164.076L148.084 151.975" stroke="#0E3C47" stroke-width="0.75" stroke-linecap="round" stroke-linejoin="round"/>
<path d="M154.635 161.568L164.753 165.526" stroke="#0E3C47" stroke-width="0.75" stroke-linecap="round" stroke-linejoin="round"/>
<path d="M149.754 168.119L157.373 171.525" stroke="#0E3C47" stroke-width="0.75" stroke-linecap="round" stroke-linejoin="round"/>
<path d="M146.288 172.153L144.364 164.966" stroke="#0E3C47" stroke-width="0.75" stroke-linecap="round" stroke-linejoin="round"/>
<path d="M145.16 174.085L154.389 177.263" stroke="#0E3C47" stroke-width="0.75" stroke-linecap="round" stroke-linejoin="round"/>
<path d="M246.076 157.584L243.245 149.847L244.754 151.542V148.898L247.957 153.805L245.126 136.254L248.906 145.881L249.279 137.389L249.847 140.22L250.601 130.593L251.923 145.313L253.813 140.22L253.432 146.822L258.525 131.728L256.076 150.601L259.66 147.957L257.584 151.355L260.228 149.466L257.211 158.144L246.262 158.339" fill="#2C87A4"/>
<path d="M258.178 176.636H246.381L243.203 156.195H261.356L258.178 176.636Z" fill="#0E3C47" stroke="#0E3C47" stroke-linecap="round" stroke-linejoin="round"/>
<path d="M106.169 1.80017C123.118 4.70338 134.504 20.7967 131.601 37.7455C128.698 54.6944 112.604 66.0806 95.6555 63.1774C78.7067 60.2742 67.3204 44.1809 70.2236 27.2321C73.1268 10.2832 89.2201 -1.10304 106.169 1.80017Z" fill="#0E3C47" stroke="#0E3C47"/>
<path d="M100.915 57.9153C114.956 57.9153 126.339 46.5327 126.339 32.4916C126.339 18.4505 114.956 7.06787 100.915 7.06787C86.8738 7.06787 75.4912 18.4505 75.4912 32.4916C75.4912 46.5327 86.8738 57.9153 100.915 57.9153Z" fill="white" stroke="#0E3C47" stroke-linecap="round" stroke-linejoin="round"/>
<path d="M102.678 32.4927C102.678 32.841 102.574 33.1814 102.381 33.471C102.187 33.7609 101.912 33.9868 101.59 34.1202C101.268 34.2537 100.913 34.2886 100.571 34.2206C100.229 34.1525 99.9151 33.9847 99.6686 33.7381C99.4221 33.4916 99.2542 33.1775 99.1862 32.8356C99.1182 32.4937 99.1531 32.1392 99.2865 31.8171C99.4199 31.495 99.6459 31.2198 99.9357 31.0261C100.225 30.8326 100.566 30.7292 100.914 30.729C101.381 30.731 101.829 30.9174 102.159 31.2478C102.489 31.5781 102.676 32.0255 102.678 32.4927Z" fill="#0E3C47" stroke="#0E3C47"/>
<path d="M93.3389 43.9663L100.915 32.4917L113.712 43.0764" stroke="#0E3C47" stroke-linecap="round" stroke-linejoin="round"/>
<path d="M157.465 66.8814C157.465 66.8814 156.863 62.0509 151.626 53.8051C146.389 45.5593 151.431 42.9407 156.863 36.3051C162.296 29.6695 170.736 31.0763 175.363 32.0678C179.991 33.0593 187.838 35.0848 189.643 41.322C191.448 47.5593 192.058 61.2373 192.262 62.4492C192.465 63.661 190.253 64.0509 189.245 63.8559C188.236 63.661 186.024 52.3898 183.211 49.9746C180.397 47.5593 167.957 49.1695 164.499 53.3644C161.041 57.5593 162.092 63.6271 162.287 66.2458C162.482 68.8644 161.287 69.6356 160.075 69.8644C158.863 70.0932 157.465 66.8814 157.465 66.8814Z" fill="#0E3C47" stroke="#0E3C47" stroke-linecap="round" stroke-linejoin="round"/>
<path d="M175.05 80.8135C175.05 80.8135 156.406 85.0508 150.685 86.7457C144.965 88.4406 139.669 89.7118 140.728 92.2541C141.787 94.7965 135.008 115.983 135.008 115.983L125.474 139.068L139.033 149.661L149.838 128.686L159.584 176.356H225.05C225.05 176.356 223.143 96.9067 219.965 92.8813C216.787 88.8558 191.575 80.1694 185.431 79.5338C181.918 79.1158 178.356 79.5549 175.05 80.8135Z" fill="#2C87A4" stroke="#0E3C47" stroke-linecap="round" stroke-linejoin="round"/>
<path d="M205.915 126.492C203.096 120.45 200.701 114.221 198.745 107.848" stroke="#0E3C47" stroke-linecap="round" stroke-linejoin="round"/>
<path d="M199.796 124.763C201.951 127.423 205.01 129.197 208.389 129.746" stroke="#0E3C47" stroke-linecap="round" stroke-linejoin="round"/>
<path d="M197.271 120.424C197.592 121.313 198.007 122.165 198.508 122.966" stroke="#0E3C47" stroke-linecap="round" stroke-linejoin="round"/>
<path d="M146.211 108.966L149.838 128.695L143.22 108.958" stroke="#0E3C47" stroke-linecap="round" stroke-linejoin="round"/>
<path d="M144.94 102.068L145.703 106.22" stroke="#0E3C47" stroke-linecap="round" stroke-linejoin="round"/>
<path d="M160.279 69.0932C160.279 69.0932 158.271 64.2627 156.457 64.2627C154.644 64.2627 155.05 66.8813 155.855 69.8983C156.66 72.9152 159.076 76.3305 160.881 76.3305H162.694L160.279 69.0932Z" fill="white" stroke="#0E3C47" stroke-linecap="round" stroke-linejoin="round"/>
<path d="M189.448 61.0423C189.448 61.0423 191.457 55.2118 192.465 58.2287C193.432 61.5726 193.502 65.1119 192.669 68.4915C191.863 71.7033 191.66 72.9152 190.855 72.7287C190.05 72.5423 189.448 61.0423 189.448 61.0423Z" fill="white" stroke="#0E3C47" stroke-linecap="round" stroke-linejoin="round"/>
<path d="M170.042 109.958L170.703 110.687L172.237 112.365L175.644 119.763L173.644 165.983L180.246 176.187L186.042 163.381L177.441 119.568L179.246 111.559L181.042 106.161L179.847 105.161L177.839 109.161L171.839 108.966L169.042 106.763L167.839 109.365L170.042 109.958Z" fill="#0E3C47" stroke="#0E3C47" stroke-linecap="round" stroke-linejoin="round"/>
<path d="M166.441 79.5509C166.441 79.5509 161.635 85.356 161.237 90.9577C160.839 96.5594 165.474 113.559 165.474 113.559C165.474 113.559 171.678 108.958 175.644 108.958C179.61 108.958 188.847 116.763 188.847 116.763C188.847 116.763 195.051 96.7543 191.847 84.9492C188.644 73.1441 174.839 70.1441 166.441 79.5509Z" fill="white" stroke="#0E3C47" stroke-linecap="round" stroke-linejoin="round"/>
<path d="M166.839 81.5507C166.839 81.5507 168.441 88.9574 169.635 93.7541C170.83 98.5507 174.042 109.763 175.644 108.957C177.246 108.152 184.246 91.5507 184.449 87.3558C184.652 83.1608 171.042 72.1185 166.839 81.5507Z" fill="#2C87A4"/>
<path opacity="0.5" d="M166.839 81.5507C166.839 81.5507 168.441 88.9574 169.635 93.7541C170.83 98.5507 174.042 109.763 175.644 108.957C177.246 108.152 184.246 91.5507 184.449 87.3558C184.652 83.1608 171.042 72.1185 166.839 81.5507Z" fill="white" stroke="#0E3C47" stroke-linecap="round" stroke-linejoin="round"/>
<path d="M166.839 81.5507C166.839 81.5507 168.441 88.9574 169.635 93.7541C170.83 98.5507 174.042 109.763 175.644 108.957C177.246 108.152 184.246 91.5507 184.449 87.3558C184.652 83.1608 171.042 72.1185 166.839 81.5507Z" stroke="#0E3C47" stroke-linecap="round" stroke-linejoin="round"/>
<path d="M161.44 51.127C161.44 51.127 158.711 55.8813 159.126 59.5423C159.541 63.2033 160.033 70.4999 162.024 75.9237C164.016 81.3474 170.397 87.1016 175.168 91.7372C179.94 96.3728 184.228 93.3813 185.753 91.1779C187.279 88.9745 189.558 80.8982 190.685 74.7033C191.812 68.5084 189.507 53.5169 187.397 49.7118C185.287 45.9067 171.77 39.9914 161.44 51.127Z" fill="white"/>
<path d="M161.44 51.1272C160.707 52.4755 160.113 53.8953 159.669 55.3644C160.177 55.6272 165.457 58.3306 167.788 58.3306C170.118 58.3306 161.245 59.695 163.974 62.9661C166.703 66.2373 179.771 63.2373 183.855 60.2373C187.94 57.2373 188.22 58.0594 188.22 58.0594C188.22 58.0594 190.127 71.678 188.762 79.034C187.398 86.3899 185.22 90.7458 181.677 91.839C178.135 92.9322 173.093 88.4492 169.966 85.0594C168.309 83.3331 166.474 81.7877 164.491 80.4492C167.355 84.4577 171.686 88.4322 175.169 91.8136C179.932 96.4492 184.228 93.4577 185.754 91.2543C187.279 89.0509 189.559 80.9746 190.686 74.7797C191.813 68.5848 189.508 53.5933 187.398 49.7882C185.288 45.9831 171.771 39.9916 161.44 51.1272Z" fill="#2C87A4"/>
<path opacity="0.5" d="M161.44 51.1272C160.707 52.4755 160.113 53.8953 159.669 55.3644C160.177 55.6272 165.457 58.3306 167.788 58.3306C170.118 58.3306 161.245 59.695 163.974 62.9661C166.703 66.2373 179.771 63.2373 183.855 60.2373C187.94 57.2373 188.22 58.0594 188.22 58.0594C188.22 58.0594 190.127 71.678 188.762 79.034C187.398 86.3899 185.22 90.7458 181.677 91.839C178.135 92.9322 173.093 88.4492 169.966 85.0594C168.309 83.3331 166.474 81.7877 164.491 80.4492C167.355 84.4577 171.686 88.4322 175.169 91.8136C179.932 96.4492 184.228 93.4577 185.754 91.2543C187.279 89.0509 189.559 80.9746 190.686 74.7797C191.813 68.5848 189.508 53.5933 187.398 49.7882C185.288 45.9831 171.771 39.9916 161.44 51.1272Z" fill="white"/>
<path d="M171.431 71.4689L171.431 71.4696C171.522 71.9772 171.496 72.4328 171.402 72.7508C171.356 72.9097 171.298 73.0144 171.248 73.0748C171.201 73.1316 171.175 73.1349 171.174 73.135L171.174 73.135L171.174 73.135C171.173 73.1353 171.146 73.1407 171.083 73.1043C171.015 73.0651 170.925 72.9872 170.825 72.8547C170.627 72.5894 170.442 72.1714 170.347 71.6626C170.253 71.1573 170.279 70.7008 170.373 70.3811C170.42 70.2213 170.479 70.1152 170.53 70.0538C170.554 70.0242 170.574 70.0086 170.586 70.001C170.597 69.9938 170.603 69.9926 170.605 69.9922C170.605 69.9922 170.605 69.9922 170.605 69.9922C170.606 69.9919 170.634 69.9865 170.698 70.0234C170.766 70.0628 170.857 70.1411 170.957 70.2738C171.156 70.5393 171.34 70.958 171.431 71.4689Z" fill="#0E3C47" stroke="#0E3C47"/>
<path d="M181.779 69.1725L181.779 69.1732C181.87 69.6822 181.846 70.1381 181.753 70.4556C181.651 70.8042 181.523 70.8383 181.523 70.8384C181.52 70.839 181.387 70.8488 181.171 70.5591C180.973 70.2943 180.79 69.8764 180.695 69.3662C180.6 68.8609 180.626 68.4044 180.721 68.0847C180.768 67.9249 180.827 67.8189 180.877 67.7574C180.902 67.7278 180.921 67.7122 180.933 67.7046C180.944 67.6975 180.95 67.6962 180.952 67.6958C180.952 67.6958 180.952 67.6958 180.952 67.6958C180.954 67.6955 180.981 67.6901 181.045 67.727C181.114 67.7665 181.205 67.8447 181.304 67.9774C181.504 68.2429 181.688 68.6616 181.779 69.1725Z" fill="#0E3C47" stroke="#0E3C47"/>
<path d="M164.923 68.3388C164.923 68.3388 165.389 65.7964 172.152 65.7964" stroke="#0E3C47" stroke-linecap="round" stroke-linejoin="round"/>
<path d="M177.948 64.8392C177.948 64.8392 180.05 59.9409 184.245 62.746" stroke="#0E3C47" stroke-linecap="round" stroke-linejoin="round"/>
<path d="M178.44 68.5679C178.44 68.5679 178.677 72.7628 180.541 74.6272C182.406 76.4916 182.168 77.1696 180.541 78.5933C180.021 78.9995 179.411 79.2746 178.762 79.3955C178.113 79.5165 177.444 79.4797 176.812 79.2882" stroke="#0E3C47" stroke-linecap="round" stroke-linejoin="round"/>
<path d="M177.948 84.4152C177.948 84.4152 181.677 83.9491 183.313 82.5508" stroke="#0E3C47" stroke-linecap="round" stroke-linejoin="round"/>
<path d="M161.44 51.127C161.44 51.127 158.711 55.8813 159.126 59.5423C159.541 63.2033 160.033 70.4999 162.024 75.9237C164.016 81.3474 170.397 87.1016 175.168 91.7372C179.94 96.3728 184.228 93.3813 185.753 91.1779C187.279 88.9745 189.558 80.8982 190.685 74.7033C191.812 68.5084 189.507 53.5169 187.397 49.7118C185.287 45.9067 171.77 39.9914 161.44 51.127Z" stroke="#0E3C47" stroke-linecap="round" stroke-linejoin="round"/>
<path d="M154.347 51.4321C154.347 51.4321 162.253 54.5338 166.033 54.5338C169.813 54.5338 167.728 55.2202 165.347 57.2795C162.965 59.3389 162.601 62.0931 171.542 62.0931C180.482 62.0931 188.381 52.466 191.135 44.2202C193.889 35.9745 195.262 37.3389 190.448 34.8982C185.635 32.4575 173.253 38.6778 173.253 38.6778" fill="#0E3C47"/>
<path d="M154.347 51.4321C154.347 51.4321 162.253 54.5338 166.033 54.5338C169.813 54.5338 167.728 55.2202 165.347 57.2795C162.965 59.3389 162.601 62.0931 171.542 62.0931C180.482 62.0931 188.381 52.466 191.135 44.2202C193.889 35.9745 195.262 37.3389 190.448 34.8982C185.635 32.4575 173.253 38.6778 173.253 38.6778" stroke="#0E3C47" stroke-linecap="round" stroke-linejoin="round"/>
<path d="M186.873 41.1694C186.873 41.1694 189.025 54.0762 176.839 57.661" stroke="white" stroke-linecap="round" stroke-linejoin="round"/>
<path d="M184.364 41.1694C184.364 41.1694 179.33 49.144 170.389 50.1355C161.449 51.1271 156.406 45.8304 156.406 45.8304" stroke="white" stroke-linecap="round" stroke-linejoin="round"/>
<path d="M159.991 54.0761C159.991 54.0761 154.974 54.432 152.466 51.5337" stroke="white" stroke-linecap="round" stroke-linejoin="round"/>
<path d="M141.787 144.373C141.787 144.373 140.516 139.288 133.313 136.534C126.109 133.78 125.262 135.051 124.203 137.169C123.143 139.288 119.965 142.466 120.601 144.585C121.236 146.703 123.779 151.788 133.101 153.695C142.423 155.602 140.516 150.941 141.575 149.669C142.635 148.398 143.694 149.034 141.787 144.373Z" fill="white" stroke="#0E3C47" stroke-linecap="round" stroke-linejoin="round"/>
<path d="M73.3553 162.17C73.3553 162.17 63.8214 165.348 64.2452 167.466C64.6689 169.585 73.5672 164.924 73.5672 164.924C73.5672 164.924 75.0502 167.678 77.8045 166.619C80.5587 165.559 78.2282 161.322 76.7452 161.534C75.2621 161.746 73.3553 162.17 73.3553 162.17Z" fill="white" stroke="#0E3C47" stroke-linecap="round" stroke-linejoin="round"/>
<path d="M124.414 160.474C124.414 160.474 137.338 153.474 137.338 150.085C137.338 146.695 127.592 142.246 125.05 142.457C122.508 142.669 121.448 143.517 119.542 146.695C117.635 149.873 102.169 164.28 102.169 164.28C102.169 164.28 91.9992 157.076 89.0331 157.076C86.067 157.076 79.2874 164.915 78.8636 168.093C78.4399 171.271 92.8467 172.754 98.567 172.754C105.609 172.763 124.414 160.474 124.414 160.474Z" fill="white"/>
<path d="M137.339 150.085C137.339 146.695 127.593 142.246 125.051 142.457C124.392 142.462 123.742 142.596 123.135 142.852C122.529 143.107 121.979 143.48 121.517 143.949C124.369 143.562 127.269 144.131 129.763 145.568C134.974 148.695 130.542 153.127 127.152 155.466C123.762 157.805 104.754 170.059 100.585 170.576C96.415 171.093 92.4744 168.178 89.8811 165.339C87.2879 162.5 85.4744 160.415 82.3472 162.237L82.1523 162.381C81.0273 163.695 80.0707 165.144 79.3049 166.695C79.1256 167.299 78.9952 167.917 78.915 168.542C79.8303 171.407 93.1269 172.78 98.5676 172.78C105.61 172.78 124.415 160.491 124.415 160.491C124.415 160.491 137.339 153.474 137.339 150.085Z" fill="#2C87A4"/>
<path opacity="0.5" d="M137.339 150.085C137.339 146.695 127.593 142.246 125.051 142.457C124.392 142.462 123.742 142.596 123.135 142.852C122.529 143.107 121.979 143.48 121.517 143.949C124.369 143.562 127.269 144.131 129.763 145.568C134.974 148.695 130.542 153.127 127.152 155.466C123.762 157.805 104.754 170.059 100.585 170.576C96.415 171.093 92.4744 168.178 89.8811 165.339C87.2879 162.5 85.4744 160.415 82.3472 162.237L82.1523 162.381C81.0273 163.695 80.0707 165.144 79.3049 166.695C79.1256 167.299 78.9952 167.917 78.915 168.542C79.8303 171.407 93.1269 172.78 98.5676 172.78C105.61 172.78 124.415 160.491 124.415 160.491C124.415 160.491 137.339 153.474 137.339 150.085Z" fill="white"/>
<path d="M124.414 160.474C124.414 160.474 137.338 153.474 137.338 150.085C137.338 146.695 127.592 142.246 125.05 142.457C122.508 142.669 121.448 143.517 119.542 146.695C117.635 149.873 102.169 164.28 102.169 164.28C102.169 164.28 91.9992 157.076 89.0331 157.076C86.067 157.076 79.2874 164.915 78.8636 168.093C78.4399 171.271 92.8467 172.754 98.567 172.754C105.609 172.763 124.414 160.474 124.414 160.474Z" stroke="#0E3C47" stroke-linecap="round" stroke-linejoin="round"/>
<path d="M77.169 157.508C77.169 157.508 73.1435 159.415 72.7198 160.686C72.2961 161.957 69.5419 169.373 71.4486 170.22C73.3554 171.068 75.8978 162.381 76.7452 161.534C77.5927 160.686 78.8639 158.779 77.169 157.508Z" fill="white" stroke="#0E3C47" stroke-linecap="round" stroke-linejoin="round"/>
<path d="M81.4059 157.297C81.4059 157.297 78.8636 155.178 77.1687 157.509C75.4737 159.839 74.2026 168.102 75.05 169.797C75.8975 171.492 78.0161 169.797 78.8636 168.102C79.711 166.407 81.4059 157.297 81.4059 157.297Z" fill="white" stroke="#0E3C47" stroke-linecap="round" stroke-linejoin="round"/>
<path d="M90.3043 158.356C90.3043 158.356 86.2789 154.966 83.9484 154.754C81.6179 154.542 80.7704 156.237 80.5585 158.144C80.3467 160.051 77.3806 168.737 78.228 169.161C79.0755 169.585 80.7704 169.373 81.8297 167.466C83.0258 164.839 84.0866 162.151 85.0077 159.415L86.7026 160.686" fill="white"/>
<path d="M90.3043 158.356C90.3043 158.356 86.2789 154.966 83.9484 154.754C81.6179 154.542 80.7704 156.237 80.5585 158.144C80.3467 160.051 77.3806 168.737 78.228 169.161C79.0755 169.585 80.7704 169.373 81.8297 167.466C83.0258 164.839 84.0866 162.151 85.0077 159.415L86.7026 160.686" stroke="#0E3C47" stroke-linecap="round" stroke-linejoin="round"/>
<path d="M101.321 168.729C101.321 168.729 102.169 163.644 100.686 161.525C99.2028 159.407 95.6011 159.618 92.8469 156.44C90.0926 153.263 87.974 155.169 88.6096 157.924C89.2452 160.678 95.3893 162.373 95.3893 162.373C95.3893 162.373 90.3045 162.796 89.8808 165.339C89.4571 167.881 95.1096 169.017 95.1096 169.017" fill="white"/>
<path d="M101.321 168.729C101.321 168.729 102.169 163.644 100.686 161.525C99.2028 159.407 95.6011 159.618 92.8469 156.44C90.0926 153.263 87.974 155.169 88.6096 157.924C89.2452 160.678 95.3893 162.373 95.3893 162.373C95.3893 162.373 90.3045 162.796 89.8808 165.339C89.4571 167.881 95.1096 169.017 95.1096 169.017" stroke="#0E3C47" stroke-linecap="round" stroke-linejoin="round"/>
<path d="M86.8896 150.652C89.9157 150.938 92.8443 151.875 95.4744 153.398" stroke="#0E3C47" stroke-linecap="round" stroke-linejoin="round"/>
<path d="M90.3213 149.28C90.3213 149.28 94.7874 150.653 96.8467 152.373" stroke="#0E3C47" stroke-linecap="round" stroke-linejoin="round"/>
<path d="M208.525 102C207.229 104.246 206.096 106.583 205.135 108.991C204.287 111.534 206.618 142.89 206.618 142.89C209.43 142.009 212.42 141.863 215.304 142.466C219.753 143.525 228.652 148.398 228.652 148.398C228.652 148.398 229.499 139.288 228.016 132.508C226.533 125.729 223.779 98.3981 221.872 95.6439C219.965 92.8897 220.601 91.4066 216.575 92.8897" fill="#2C87A4"/>
<path d="M208.525 102C207.229 104.246 206.096 106.583 205.135 108.991C204.287 111.534 206.618 142.89 206.618 142.89C209.43 142.009 212.42 141.863 215.304 142.466C219.753 143.525 228.652 148.398 228.652 148.398C228.652 148.398 229.499 139.288 228.016 132.508C226.533 125.729 223.779 98.3981 221.872 95.6439C219.965 92.8897 220.601 91.4066 216.575 92.8897" stroke="#0E3C47" stroke-linecap="round" stroke-linejoin="round"/>
<path d="M231.618 143.102C231.618 143.102 225.898 138.229 221.449 137.169C217 136.11 208.525 137.169 207.254 137.593C205.983 138.017 205.135 139.5 204.923 141.619C204.712 143.737 203.229 145.22 204.288 146.491C205.347 147.763 211.279 151.788 216.152 153.059C221.025 154.33 228.44 153.907 229.5 150.729C230.559 147.551 232.678 145.432 231.618 143.102Z" fill="white" stroke="#0E3C47" stroke-linecap="round" stroke-linejoin="round"/>
<path d="M118.16 160.254C118.16 160.254 111.38 163.178 109.143 163.907C106.906 164.635 106.211 166.652 108.169 167.297C110.126 167.941 119.024 164.619 119.863 164.864C120.702 165.11 129.855 168.034 132.779 168.254C134.705 168.315 136.594 167.717 138.135 166.559C138.135 166.559 124.245 157.797 118.16 160.254Z" fill="white" stroke="#0E3C47" stroke-linecap="round" stroke-linejoin="round"/>
<path d="M222.516 156.678C223.624 156.308 224.602 155.626 225.333 154.715C226.064 153.804 226.517 152.702 226.638 151.54C226.76 150.379 226.545 149.207 226.018 148.164C225.492 147.122 224.676 146.253 223.669 145.661C222.176 144.815 220.573 144.179 218.906 143.771C213.847 142.567 208.547 142.862 203.652 144.619C201.533 145.466 153.974 160.025 150.559 160.508C147.144 160.991 124.737 153.449 121.322 153.203C116.805 152.881 111.584 164.814 110.118 168C109.841 168.505 109.687 169.068 109.669 169.644C109.667 169.932 109.758 170.212 109.929 170.443C110.1 170.674 110.342 170.843 110.618 170.924C111.271 171.034 111.83 170.5 112.237 169.983C115.254 166.229 116.906 161.33 120.711 158.373L115.44 168.542C115.115 169.074 114.907 169.669 114.83 170.288C114.796 170.598 114.86 170.91 115.012 171.182C115.164 171.454 115.396 171.671 115.677 171.805C116.525 172.11 117.372 171.373 117.838 170.644C118.915 168.872 119.874 167.032 120.711 165.136C121.561 163.226 123.002 161.639 124.822 160.61C122.745 164.171 121.063 167.948 119.805 171.873C119.697 172.173 119.703 172.501 119.82 172.797C119.937 173.094 120.157 173.337 120.44 173.483C121.288 173.847 121.881 173.042 122.279 172.356L127.949 162.441C126.449 165.83 125.101 169.322 123.898 172.839C123.792 173.072 123.76 173.332 123.805 173.585C123.845 173.707 123.912 173.819 124.001 173.911C124.091 174.004 124.2 174.075 124.322 174.119C124.644 174.232 124.992 174.252 125.325 174.175C125.658 174.099 125.962 173.929 126.203 173.686C126.677 173.2 127.049 172.624 127.296 171.992C128.313 169.763 129.033 167.381 130.084 165.212C133.008 165.839 135.449 168.602 138.644 169.059C141.838 169.517 147.652 168.085 147.652 168.085C147.652 168.085 205.788 160.102 213.415 158.619C216.479 158.125 219.517 157.477 222.516 156.678Z" fill="white"/>
<path d="M221.466 148.441C220.161 151.831 185.771 160.17 170.924 162.771C156.076 165.373 147.737 168.246 142.008 166.161C136.28 164.077 131.068 161.212 129.763 163.034C128.703 164.509 126.788 170.449 126.102 173.754L126.186 173.687C126.66 173.2 127.032 172.624 127.28 171.992C128.296 169.763 129.017 167.382 130.068 165.212C132.991 165.839 135.432 168.602 138.627 169.06C141.822 169.517 147.635 168.085 147.635 168.085C147.635 168.085 205.771 160.102 213.398 158.619C216.467 158.142 219.511 157.512 222.517 156.729C223.624 156.359 224.602 155.677 225.333 154.766C226.064 153.855 226.517 152.753 226.639 151.592C226.76 150.43 226.545 149.258 226.018 148.215C225.492 147.173 224.676 146.304 223.669 145.712C222.176 144.866 220.574 144.23 218.907 143.822C218.907 143.822 222.771 145.06 221.466 148.441Z" fill="#2C87A4"/>
<path opacity="0.5" d="M221.466 148.441C220.161 151.831 185.771 160.17 170.924 162.771C156.076 165.373 147.737 168.246 142.008 166.161C136.28 164.077 131.068 161.212 129.763 163.034C128.703 164.509 126.788 170.449 126.102 173.754L126.186 173.687C126.66 173.2 127.032 172.624 127.28 171.992C128.296 169.763 129.017 167.382 130.068 165.212C132.991 165.839 135.432 168.602 138.627 169.06C141.822 169.517 147.635 168.085 147.635 168.085C147.635 168.085 205.771 160.102 213.398 158.619C216.467 158.142 219.511 157.512 222.517 156.729C223.624 156.359 224.602 155.677 225.333 154.766C226.064 153.855 226.517 152.753 226.639 151.592C226.76 150.43 226.545 149.258 226.018 148.215C225.492 147.173 224.676 146.304 223.669 145.712C222.176 144.866 220.574 144.23 218.907 143.822C218.907 143.822 222.771 145.06 221.466 148.441Z" fill="white"/>
<path d="M222.516 156.678C223.624 156.308 224.602 155.626 225.333 154.715C226.064 153.804 226.517 152.702 226.638 151.54C226.76 150.379 226.545 149.207 226.018 148.164C225.492 147.122 224.676 146.253 223.669 145.661C222.176 144.815 220.573 144.179 218.906 143.771C213.847 142.567 208.547 142.862 203.652 144.619C201.533 145.466 153.974 160.025 150.559 160.508C147.144 160.991 124.737 153.449 121.322 153.203C116.805 152.881 111.584 164.814 110.118 168C109.841 168.505 109.687 169.068 109.669 169.644C109.667 169.932 109.758 170.212 109.929 170.443C110.1 170.674 110.342 170.843 110.618 170.924C111.271 171.034 111.83 170.5 112.237 169.983C115.254 166.229 116.906 161.33 120.711 158.373L115.44 168.542C115.115 169.074 114.907 169.669 114.83 170.288C114.796 170.598 114.86 170.91 115.012 171.182C115.164 171.454 115.396 171.671 115.677 171.805C116.525 172.11 117.372 171.373 117.838 170.644C118.915 168.872 119.874 167.032 120.711 165.136C121.561 163.226 123.002 161.639 124.822 160.61C122.745 164.171 121.063 167.948 119.805 171.873C119.697 172.173 119.703 172.501 119.82 172.797C119.937 173.094 120.157 173.337 120.44 173.483C121.288 173.847 121.881 173.042 122.279 172.356L127.949 162.441C126.449 165.83 125.101 169.322 123.898 172.839C123.792 173.072 123.76 173.332 123.805 173.585C123.845 173.707 123.912 173.819 124.001 173.911C124.091 174.004 124.2 174.075 124.322 174.119C124.644 174.232 124.992 174.252 125.325 174.175C125.658 174.099 125.962 173.929 126.203 173.686C126.677 173.2 127.049 172.624 127.296 171.992C128.313 169.763 129.033 167.381 130.084 165.212C133.008 165.839 135.449 168.602 138.644 169.059C141.838 169.517 147.652 168.085 147.652 168.085C147.652 168.085 205.788 160.102 213.415 158.619C216.479 158.125 219.517 157.477 222.516 156.678V156.678Z" stroke="#0E3C47" stroke-linecap="round" stroke-linejoin="round"/>
<path d="M30.2372 175.882H67.8389V174.128H30.2372V175.882Z" fill="white" stroke="#0E3C47" stroke-linecap="round" stroke-linejoin="round"/>
<path d="M1.32219 164.305H82.373V112.034H1.32219V164.305Z" fill="white" stroke="#0E3C47" stroke-linecap="round" stroke-linejoin="round"/>
<path d="M1.3221 164.305H77.9492V112.034H1.3221V164.305Z" fill="#0E3C47" stroke="#0E3C47" stroke-linecap="round" stroke-linejoin="round"/>
<path d="M29.3643 176.678H47.1016L47.1016 136.322H29.3643L29.3643 176.678Z" fill="white" stroke="#0E3C47" stroke-linecap="round" stroke-linejoin="round"/>
<path d="M27.7295 176.678H45.4668L45.4668 136.322H27.7295L27.7295 176.678Z" fill="#0E3C47" stroke="#0E3C47" stroke-linecap="round" stroke-linejoin="round"/>
<path d="M46.644 136.805H27.3135V164.432" stroke="white" stroke-linecap="round" stroke-linejoin="round"/>
<path d="M82.9329 176.034H137.229V173.195H82.9329V176.034Z" fill="white" stroke="#0E3C47" stroke-linecap="round" stroke-linejoin="round"/>
<path d="M55.2546 176.034H123.195V173.195H55.2546V176.034Z" fill="white" stroke="#0E3C47" stroke-linecap="round" stroke-linejoin="round"/>
<path d="M186.051 176.06H213.72L213.288 172.145L186.051 173.653V176.06Z" fill="white" stroke="#0E3C47" stroke-linecap="round" stroke-linejoin="round"/>
<path d="M166.652 176.263H194.322L193.89 172.348L166.652 173.856V176.263Z" fill="white" stroke="#0E3C47" stroke-linecap="round" stroke-linejoin="round"/>
<path d="M238.178 173.653C238.178 173.653 231.661 173.983 229.381 173.983C227.102 173.983 217 171.703 212.763 172.348C210.067 172.859 207.545 174.046 205.432 175.797C203.319 174.046 200.797 172.859 198.102 172.348C193.864 171.703 183.763 173.983 181.483 173.983C179.203 173.983 172.687 173.653 172.687 173.653V176.263L205.432 175.941L238.178 176.263V173.653Z" fill="white" stroke="#0E3C47" stroke-linecap="round" stroke-linejoin="round"/>
<path d="M172.687 173.653H145.018V176.06H172.687V173.653Z" fill="white" stroke="#0E3C47" stroke-linecap="round" stroke-linejoin="round"/>
<path d="M20.3225 182.288L266.933 182.288V176.356L20.3225 176.356V182.288Z" fill="white" stroke="#0E3C47" stroke-linecap="round" stroke-linejoin="round"/>
<path d="M10.9998 182.288L164.39 182.288V176.356L10.9998 176.356V182.288Z" fill="#0E3C47" stroke="#0E3C47" stroke-linecap="round" stroke-linejoin="round"/>
</svg>
