<svg width="263" height="238" viewBox="0 0 263 238" fill="none" xmlns="http://www.w3.org/2000/svg">
<path d="M249.609 160.493C255.029 116.253 228.783 57.4491 201.565 33.1738C152.442 -10.6668 111.631 -2.18855 79.8915 13.5143C48.1524 29.2172 43.6089 81.6303 21.6959 105.348C-0.217169 129.065 -12.6954 160.964 20.5654 192.725C53.8263 224.485 80.6452 208.34 115.413 206.333C150.181 204.326 196.276 220.174 221.21 206.384C238.638 196.761 247.218 180.051 249.609 160.493Z" fill="#2C87A4"/>
<path opacity="0.7" d="M249.609 160.493C255.029 116.253 228.783 57.4491 201.565 33.1738C152.442 -10.6668 111.631 -2.18855 79.8915 13.5143C48.1524 29.2172 43.6089 81.6303 21.6959 105.348C-0.217169 129.065 -12.6954 160.964 20.5654 192.725C53.8263 224.485 80.6452 208.34 115.413 206.333C150.181 204.326 196.276 220.174 221.21 206.384C238.638 196.761 247.218 180.051 249.609 160.493Z" fill="white"/>
<path d="M45.2966 156.725V157.225H45.7966H52.897C54.6036 157.228 56.2393 157.907 57.4467 159.113C58.6435 160.309 59.3229 161.926 59.3398 163.617C59.3267 163.663 59.2818 163.753 59.1362 163.88C58.9676 164.028 58.7045 164.19 58.3339 164.356C57.5946 164.688 56.5179 164.997 55.163 165.261C52.4599 165.788 48.7415 166.116 44.6227 166.116C40.5039 166.116 36.7855 165.788 34.0825 165.261C32.7276 164.997 31.6508 164.688 30.9115 164.356C30.541 164.19 30.2778 164.028 30.1092 163.88C29.9625 163.752 29.9181 163.662 29.9053 163.616V163.615V163.615V163.615V163.615V163.615V163.615V163.615V163.615V163.614V163.614V163.614V163.614V163.614V163.614V163.614V163.614V163.613V163.613V163.613V163.613V163.613V163.613V163.613V163.612V163.612V163.612V163.612V163.612V163.612V163.612V163.611V163.611V163.611V163.611V163.611V163.61V163.61V163.61V163.61V163.61V163.609V163.609V163.609V163.609V163.609V163.608V163.608V163.608V163.608V163.608V163.607V163.607V163.607V163.607V163.607V163.607V163.606V163.606V163.606V163.606V163.606V163.605V163.605V163.605V163.605V163.605V163.605V163.605V163.604V163.604V163.604V163.604V163.604V163.604V163.604V163.603V163.603V163.603V163.603V163.603V163.603V163.603V163.602V163.602V163.602V163.602V163.602V163.602V163.602V163.601V163.571V163.557V163.556C29.9382 161.867 30.6313 160.259 31.8362 159.075C33.0421 157.89 34.6646 157.226 36.355 157.225H43.4778H43.9778V156.725V39.2899V38.7899H43.4778H29.4757L35.5248 16.9565H53.7496L59.7987 38.7899H45.7966H45.2966V39.2899V156.725Z" fill="#0E3C47" stroke="#0E3C47"/>
<path d="M111.623 227.775C157.627 227.775 194.92 216.157 194.92 201.826C194.92 187.494 157.627 175.876 111.623 175.876C65.6195 175.876 28.3262 187.494 28.3262 201.826C28.3262 216.157 65.6195 227.775 111.623 227.775Z" fill="#2C87A4"/>
<path opacity="0.5" d="M111.623 227.775C157.627 227.775 194.92 216.157 194.92 201.826C194.92 187.494 157.627 175.876 111.623 175.876C65.6195 175.876 28.3262 187.494 28.3262 201.826C28.3262 216.157 65.6195 227.775 111.623 227.775Z" fill="white"/>
<path d="M104.587 87.4059C104.587 87.4059 85.7102 85.1667 73.2899 94.8552C60.8696 104.544 50.1885 145.029 50.4348 164.42C50.6812 183.812 57.8914 193.486 76.0218 201.428C94.1522 209.37 127.928 206.399 146.804 200.435C165.681 194.471 171.891 173.623 171.645 162.435C171.399 151.246 158.978 138.341 154.754 135.623C150.529 132.906 138.609 127.181 132.652 118.232C126.696 109.283 117.993 89.8914 104.587 87.4059Z" fill="#2C87A4"/>
<path opacity="0.13" d="M150.268 199.094C143.13 198.13 134.667 196.195 128.261 192.304C114.732 184.094 111.355 168.63 106.522 162.833C101.688 157.036 92.9928 157.521 89.1305 151.239C85.2682 144.956 91.5435 98.5866 80.4348 95.6881C78.1805 95.0369 75.8465 94.7028 73.5 94.6953C73.4348 94.7533 73.3551 94.7968 73.2899 94.8547C60.8696 104.543 50.1885 145.029 50.4348 164.42C50.6812 183.811 57.8914 193.485 76.0218 201.427C94.1522 209.369 127.928 206.398 146.804 200.434C147.986 200.06 149.143 199.612 150.268 199.094Z" fill="#0E3C47"/>
<path d="M104.587 87.4059C104.587 87.4059 85.7102 85.1667 73.2899 94.8552C60.8696 104.544 50.1885 145.029 50.4348 164.42C50.6812 183.812 57.8914 193.486 76.0218 201.428C94.1522 209.37 127.928 206.399 146.804 200.435C165.681 194.471 171.891 173.623 171.645 162.435C171.399 151.246 158.978 138.341 154.754 135.623C150.529 132.906 138.609 127.181 132.652 118.232C126.696 109.283 117.993 89.8914 104.587 87.4059Z" stroke="#0E3C47" stroke-linecap="round" stroke-linejoin="round"/>
<path d="M97.1524 96.1594C97.1524 96.1594 84.8335 98.5144 82.6596 100.688C80.4857 102.862 71.4277 136.92 71.4277 136.92C73.946 136.307 76.5878 136.433 79.0364 137.283C82.6596 138.732 83.0219 142.536 83.3843 144.348C83.6751 146.511 83.8565 148.688 83.9277 150.87C83.9277 150.87 120.544 147.601 128.334 145.797C136.123 143.993 147.978 143.152 147.978 143.152C147.978 143.152 127.949 97.9782 124.87 96.3478C121.79 94.7173 108.928 94.5362 107.116 94.8985C105.305 95.2608 97.1524 96.1594 97.1524 96.1594Z" fill="#0E3C47" stroke="#0E3C47" stroke-linecap="round" stroke-linejoin="round"/>
<path d="M85.0146 138.007L88.0943 112.826" stroke="white" stroke-linecap="round" stroke-linejoin="round"/>
<path d="M87.3691 119.529L91.5358 114.094" stroke="white" stroke-linecap="round" stroke-linejoin="round"/>
<path d="M99.8691 122.79C99.8691 122.79 111.644 118.985 119.434 118.985" stroke="white" stroke-linecap="round" stroke-linejoin="round"/>
<path d="M110.985 112.406L110.195 118.442C110.195 118.442 112.188 118.442 112.369 119.348C112.382 119.684 112.324 120.018 112.199 120.33C112.074 120.642 111.885 120.925 111.645 121.159C111.645 121.159 117.261 124.239 117.985 127.862" stroke="white" stroke-linecap="round" stroke-linejoin="round"/>
<path d="M103.913 89.4054C103.913 89.4054 97.1524 91.5793 96.1814 93.2677C95.2104 94.9561 95.9423 106.797 95.9423 108.246C95.9423 109.695 96.7901 107.398 97.5147 105.71C98.2394 104.021 100.776 101.478 101.616 101.724C102.457 101.971 102.95 102.927 102.95 104.5C102.95 106.072 104.877 108.246 106.573 109.449C108.268 110.652 109.834 111.869 109.834 111.869C109.834 111.869 113.334 106.797 114.181 105.463C115.029 104.13 114.906 101.362 115.022 100.391C115.138 99.4199 117.319 103.05 117.805 102.087C118.29 101.123 116.718 100.275 115.022 97.6155C113.326 94.9561 113.819 92.1807 111.283 90.246C108.747 88.3112 105.848 88.9126 103.913 89.4054Z" fill="white"/>
<path d="M96.1815 93.2608C95.5438 94.3913 95.6452 100.029 95.7902 104.13C97.3336 102.145 100.515 98.3913 102.355 99.1014C104.703 100.007 105.602 106.681 105.602 106.681L104.015 89.4058H103.913C103.913 89.4058 97.1525 91.5797 96.1815 93.2608Z" fill="#2C87A4"/>
<path opacity="0.5" d="M96.1815 93.2608C95.5438 94.3913 95.6452 100.029 95.7902 104.13C97.3336 102.145 100.515 98.3913 102.355 99.1014C104.703 100.007 105.602 106.681 105.602 106.681L104.015 89.4058H103.913C103.913 89.4058 97.1525 91.5797 96.1815 93.2608Z" fill="white"/>
<path d="M103.913 89.4054C103.913 89.4054 97.1524 91.5793 96.1814 93.2677C95.2104 94.9561 95.9423 106.797 95.9423 108.246C95.9423 109.695 96.7901 107.398 97.5147 105.71C98.2394 104.021 100.776 101.478 101.616 101.724C102.457 101.971 102.95 102.927 102.95 104.5C102.95 106.072 104.877 108.246 106.573 109.449C108.268 110.652 109.834 111.869 109.834 111.869C109.834 111.869 113.334 106.797 114.181 105.463C115.029 104.13 114.906 101.362 115.022 100.391C115.138 99.4199 117.319 103.05 117.805 102.087C118.29 101.123 116.718 100.275 115.022 97.6155C113.326 94.9561 113.819 92.1807 111.283 90.246C108.747 88.3112 105.848 88.9126 103.913 89.4054Z" stroke="#0E3C47" stroke-linecap="round" stroke-linejoin="round"/>
<path d="M87.9132 138.37C87.9132 138.37 83.7465 132.391 78.674 131.848C73.6016 131.304 67.4421 135.471 67.261 136.92C67.0798 138.37 65.8117 146.159 66.7175 147.246C67.6233 148.333 71.0653 149.239 77.7682 147.065C84.4711 144.891 87.1885 142.174 87.9132 138.37Z" fill="white"/>
<path d="M70.9639 147.058C70.9639 147.058 69.5146 142.913 70.2392 141.471C70.9639 140.029 73.8624 137.848 75.6523 135.674C77.4421 133.5 71.4276 136.898 71.1378 135.674C70.9131 134.688 74.3189 132.717 75.6595 131.985C71.4421 132.797 67.4059 135.732 67.261 136.898C67.0798 138.348 65.8117 146.138 66.7175 147.224C67.1813 147.782 68.3334 148.297 70.2537 148.362C70.6885 147.616 70.9639 147.058 70.9639 147.058Z" fill="#2C87A4"/>
<path opacity="0.5" d="M70.9639 147.058C70.9639 147.058 69.5146 142.913 70.2392 141.471C70.9639 140.029 73.8624 137.848 75.6523 135.674C77.4421 133.5 71.4276 136.898 71.1378 135.674C70.9131 134.688 74.3189 132.717 75.6595 131.985C71.4421 132.797 67.4059 135.732 67.261 136.898C67.0798 138.348 65.8117 146.138 66.7175 147.224C67.1813 147.782 68.3334 148.297 70.2537 148.362C70.6885 147.616 70.9639 147.058 70.9639 147.058Z" fill="white"/>
<path d="M87.9132 138.37C87.9132 138.37 83.7465 132.391 78.674 131.848C73.6016 131.304 67.4421 135.471 67.261 136.92C67.0798 138.37 65.8117 146.159 66.7175 147.246C67.6233 148.333 71.0653 149.239 77.7682 147.065C84.4711 144.891 87.1885 142.174 87.9132 138.37Z" stroke="#0E3C47" stroke-linecap="round" stroke-linejoin="round"/>
<path d="M73.7826 140C73.7826 140 66.9855 142.696 66.7173 147.971C66.5652 150.87 71.4275 152.138 76.5 152.138C81.5724 152.138 88.8188 145.797 93.5289 143.08C98.2391 140.362 109.109 134.022 110.377 133.478C111.645 132.935 115.993 134.384 117.804 134.928C119.531 135.297 121.292 135.48 123.058 135.471C123.058 135.471 125.594 139.456 126.862 139.456C128.13 139.456 124.145 133.478 123.601 132.21C123.058 130.942 114.181 128.043 113.094 128.043C112.007 128.043 86.6449 134.384 82.8405 135.833C79.0362 137.283 73.7826 140 73.7826 140Z" fill="white"/>
<path d="M87.9927 139.246C98.3478 134.065 113.094 128.043 113.094 128.043C112.007 128.043 86.6449 134.384 82.8405 135.833C79.0362 137.283 73.7826 140 73.7826 140C73.7826 140 66.9855 142.696 66.7173 147.971C66.5652 150.87 71.4275 152.138 76.5 152.138C81.5724 152.138 88.8188 145.797 93.5289 143.08L96.384 141.428C89.4637 142.304 80.2101 143.13 87.9927 139.246Z" fill="#2C87A4"/>
<path opacity="0.5" d="M87.9927 139.246C98.3478 134.065 113.094 128.043 113.094 128.043C112.007 128.043 86.6449 134.384 82.8405 135.833C79.0362 137.283 73.7826 140 73.7826 140C73.7826 140 66.9855 142.696 66.7173 147.971C66.5652 150.87 71.4275 152.138 76.5 152.138C81.5724 152.138 88.8188 145.797 93.5289 143.08L96.384 141.428C89.4637 142.304 80.2101 143.13 87.9927 139.246Z" fill="white"/>
<path d="M73.7826 140C73.7826 140 66.9855 142.696 66.7173 147.971C66.5652 150.87 71.4275 152.138 76.5 152.138C81.5724 152.138 88.8188 145.797 93.5289 143.08C98.2391 140.362 109.109 134.022 110.377 133.478C111.645 132.935 115.993 134.384 117.804 134.928C119.531 135.297 121.292 135.48 123.058 135.471C123.058 135.471 125.594 139.456 126.862 139.456C128.13 139.456 124.145 133.478 123.601 132.21C123.058 130.942 114.181 128.043 113.094 128.043C112.007 128.043 86.6449 134.384 82.8405 135.833C79.0362 137.283 73.7826 140 73.7826 140Z" stroke="#0E3C47" stroke-linecap="round" stroke-linejoin="round"/>
<path d="M126.768 99.71L121.246 130.761L161.101 130.942L167.029 101.493C167.078 101.233 167.07 100.965 167.007 100.709C166.943 100.452 166.824 100.212 166.659 100.006C166.494 99.7992 166.286 99.6309 166.05 99.5123C165.813 99.3937 165.554 99.3277 165.29 99.3187L128.623 98.2173C128.186 98.203 127.759 98.3458 127.419 98.6197C127.078 98.8936 126.847 99.2804 126.768 99.71V99.71Z" fill="white" stroke="#0E3C47" stroke-linecap="round" stroke-linejoin="round"/>
<path d="M121.247 130.761L101.841 144.485L146.225 143.217L161.102 130.942L121.247 130.761Z" fill="white"/>
<path d="M121.247 130.761L101.841 144.485L146.225 143.217L161.102 130.942L121.247 130.761Z" fill="#2C87A4"/>
<path opacity="0.5" d="M121.247 130.761L101.841 144.485L146.225 143.217L161.102 130.942L121.247 130.761Z" fill="white"/>
<path d="M121.247 130.761L101.841 144.485L146.225 143.217L161.102 130.942L121.247 130.761Z" stroke="#0E3C47" stroke-linecap="round" stroke-linejoin="round"/>
<path d="M135.92 144.348C135.92 144.348 151.862 130.399 167.623 125.688C183.384 120.978 186.645 121.703 186.282 128.768C185.92 135.833 178.311 172.79 173.239 182.21C168.166 191.63 161.826 208.841 162.007 212.101C162.188 215.362 168.347 224.964 173.782 228.406C179.217 231.848 178.674 236.015 175.232 236.739C171.789 237.464 167.804 238.732 156.029 231.123C144.253 223.515 139.362 212.645 140.087 209.928C140.811 207.21 148.42 203.587 151.5 198.152C154.579 192.717 159.652 172.428 160.014 163.188C160.308 157.355 161.531 151.607 163.637 146.159C163.637 146.159 143.71 149.783 137.913 153.406L135.92 144.348Z" fill="white"/>
<path d="M135.92 144.348C135.92 144.348 151.862 130.399 167.623 125.688C183.384 120.978 186.645 121.703 186.282 128.768C185.92 135.833 178.311 172.79 173.239 182.21C168.166 191.63 161.826 208.841 162.007 212.101C162.188 215.362 168.347 224.964 173.782 228.406C179.217 231.848 178.674 236.015 175.232 236.739C171.789 237.464 167.804 238.732 156.029 231.123C144.253 223.515 139.362 212.645 140.087 209.928C140.811 207.21 148.42 203.587 151.5 198.152C154.579 192.717 159.652 172.428 160.014 163.188C160.308 157.355 161.531 151.607 163.637 146.159C163.637 146.159 143.71 149.783 137.913 153.406L135.92 144.348Z" fill="#2C87A4"/>
<path opacity="0.5" d="M135.92 144.348C135.92 144.348 151.862 130.399 167.623 125.688C183.384 120.978 186.645 121.703 186.282 128.768C185.92 135.833 178.311 172.79 173.239 182.21C168.166 191.63 161.826 208.841 162.007 212.101C162.188 215.362 168.347 224.964 173.782 228.406C179.217 231.848 178.674 236.015 175.232 236.739C171.789 237.464 167.804 238.732 156.029 231.123C144.253 223.515 139.362 212.645 140.087 209.928C140.811 207.21 148.42 203.587 151.5 198.152C154.579 192.717 159.652 172.428 160.014 163.188C160.308 157.355 161.531 151.607 163.637 146.159C163.637 146.159 143.71 149.783 137.913 153.406L135.92 144.348Z" fill="white"/>
<path d="M135.92 144.348C135.92 144.348 151.862 130.399 167.623 125.688C183.384 120.978 186.645 121.703 186.282 128.768C185.92 135.833 178.311 172.79 173.239 182.21C168.166 191.63 161.826 208.841 162.007 212.101C162.188 215.362 168.347 224.964 173.782 228.406C179.217 231.848 178.674 236.015 175.232 236.739C171.789 237.464 167.804 238.732 156.029 231.123C144.253 223.515 139.362 212.645 140.087 209.928C140.811 207.21 148.42 203.587 151.5 198.152C154.579 192.717 159.652 172.428 160.014 163.188C160.308 157.355 161.531 151.607 163.637 146.159C163.637 146.159 143.71 149.783 137.913 153.406L135.92 144.348Z" stroke="#0E3C47" stroke-linecap="round" stroke-linejoin="round"/>
<path d="M151.5 198.152C151.268 198.558 151.007 198.949 150.732 199.341C154.479 199.693 158.031 201.174 160.92 203.587C161.789 204.341 162.616 205.142 163.398 205.985C166.028 197.807 169.319 189.855 173.239 182.21C178.311 172.79 185.92 135.833 186.282 128.768C186.645 121.703 183.384 120.978 167.623 125.688C151.862 130.399 135.92 144.348 135.92 144.348L137.913 153.406C143.71 149.783 163.637 146.159 163.637 146.159C161.531 151.607 160.308 157.355 160.014 163.188C159.652 172.428 154.579 192.717 151.5 198.152Z" fill="white" stroke="#0E3C47" stroke-linecap="round" stroke-linejoin="round"/>
<path d="M151.934 198.4L151.935 198.399C152.731 196.993 153.638 194.665 154.554 191.85C155.473 189.025 156.41 185.679 157.261 182.216C158.961 175.303 160.33 167.883 160.514 163.211C160.805 157.432 162.017 151.737 164.104 146.34L164.425 145.508L163.548 145.667L163.637 146.159C163.548 145.667 163.548 145.667 163.548 145.668L163.547 145.668L163.544 145.668L163.533 145.67L163.49 145.678L163.321 145.709C163.173 145.737 162.955 145.778 162.676 145.831C162.118 145.937 161.315 146.094 160.334 146.292C158.371 146.689 155.693 147.256 152.833 147.937C149.974 148.618 146.926 149.414 144.227 150.268C141.876 151.012 139.756 151.81 138.254 152.629L136.472 144.532C136.59 144.432 136.752 144.294 136.957 144.123C137.42 143.735 138.101 143.174 138.968 142.486C140.702 141.111 143.177 139.227 146.143 137.197C152.083 133.132 159.959 128.501 167.766 126.167C171.701 124.991 174.841 124.159 177.333 123.68C179.834 123.199 181.635 123.083 182.913 123.305C184.16 123.521 184.874 124.05 185.29 124.87C185.729 125.736 185.873 126.995 185.783 128.742C185.741 129.554 185.713 130.646 185.678 131.967C185.562 136.454 185.376 143.586 184.369 151.374C183.064 161.46 180.392 172.532 174.776 180.249L174.776 180.249C172.527 183.342 170.426 188.607 168.473 193.604C168.369 193.871 168.265 194.138 168.161 194.404C167.29 196.637 166.446 198.8 165.625 200.695C164.829 202.532 164.067 204.087 163.339 205.196C162.672 204.503 161.974 203.84 161.248 203.209L161.248 203.209L161.24 203.203C158.488 200.904 155.148 199.429 151.606 198.939C151.72 198.762 151.829 198.583 151.934 198.4Z" fill="#0E3C47" stroke="#0E3C47"/>
<path opacity="0.53" d="M151.5 198.152C151.268 198.558 151.007 198.949 150.732 199.341C154.479 199.693 158.031 201.174 160.92 203.587C161.789 204.341 162.616 205.142 163.398 205.985C166.869 201.319 170.775 186.601 175.181 180.543C186.565 164.899 185.92 135.833 186.282 128.768C186.645 121.703 183.384 120.978 167.623 125.688C151.862 130.399 135.92 144.348 135.92 144.348L137.913 153.406C143.71 149.783 163.637 146.159 163.637 146.159C161.531 151.607 160.308 157.355 160.014 163.188C159.652 172.428 154.579 192.717 151.5 198.152Z" fill="white"/>
<path opacity="0.14" d="M178.623 127.812C178.34 125.239 150.318 137.102 138.5 142.217C136.862 143.522 135.92 144.348 135.92 144.348L137.913 153.406C143.71 149.783 163.637 146.16 163.637 146.16C161.531 151.607 160.308 157.356 160.014 163.189C159.652 172.428 154.579 192.717 151.5 198.152C151.268 198.558 151.007 198.949 150.732 199.341C152.727 199.555 154.68 200.06 156.529 200.841C160.869 191.58 165.543 180.804 167.753 172.377C171.739 157.16 178.985 131.073 178.623 127.812Z" fill="#0E3C47"/>
<path d="M163.638 146.159C163.638 146.159 169.072 135.109 173.783 130.58" stroke="#0E3C47" stroke-linecap="round" stroke-linejoin="round"/>
<path d="M151.5 198.152C151.268 198.558 151.007 198.949 150.732 199.341C154.479 199.693 158.031 201.174 160.92 203.587C161.789 204.341 162.616 205.142 163.398 205.985C166.869 201.319 170.775 186.601 175.181 180.543C186.565 164.899 185.92 135.833 186.282 128.768C186.645 121.703 183.384 120.978 167.623 125.688C151.862 130.399 135.92 144.348 135.92 144.348L137.913 153.406C143.71 149.783 163.637 146.159 163.637 146.159C161.531 151.607 160.308 157.355 160.014 163.188C159.652 172.428 154.579 192.717 151.5 198.152Z" stroke="#0E3C47" stroke-linecap="round" stroke-linejoin="round"/>
<path d="M112.036 158.971C117.872 158.705 123.641 157.619 129.174 155.746C137.37 152.761 122.464 147.297 116.754 150.283C115.158 151.056 113.845 152.31 112.999 153.869C112.153 155.427 111.816 157.211 112.036 158.971V158.971Z" fill="#0E3C47" stroke="#0E3C47" stroke-linecap="round" stroke-linejoin="round"/>
<path d="M88.4568 147.246C88.4568 147.246 82.6597 150.507 80.667 154.13C78.6742 157.754 87.2467 163.79 96.3046 163.427C105.363 163.065 121.971 153.225 121.971 153.225C121.971 153.225 122.152 169.167 125.232 174.964C128.312 180.761 142.442 194.891 148.058 198.514C153.674 202.138 172.515 215.725 175.413 217.898C178.312 220.072 183.747 224.058 185.015 224.239C186.283 224.42 199.508 208.297 202.587 202.862C205.667 197.427 208.384 186.014 207.297 183.478C206.21 180.942 204.037 183.116 201.863 184.927C199.689 186.739 179.761 199.964 177.95 200.87C176.96 201.378 175.93 201.802 174.87 202.138C174.87 202.138 158.565 186.558 149.87 174.601C141.174 162.645 140.45 147.246 137.189 141.449C133.928 135.652 129.218 133.116 122.152 133.84C115.087 134.565 100.413 138.369 88.4568 147.246Z" fill="white"/>
<path d="M165.108 210.42C169.949 213.884 174.159 216.942 175.413 217.884C178.311 220.058 183.746 224.043 185.014 224.224C185.463 224.29 187.42 222.297 189.891 219.464L169.145 206.116L165.108 210.42Z" fill="#2C87A4"/>
<path opacity="0.5" d="M165.108 210.42C169.949 213.884 174.159 216.942 175.413 217.884C178.311 220.058 183.746 224.043 185.014 224.224C185.463 224.29 187.42 222.297 189.891 219.464L169.145 206.116L165.108 210.42Z" fill="white"/>
<path d="M88.4568 147.246C88.4568 147.246 82.6597 150.507 80.667 154.13C78.6742 157.754 87.2467 163.79 96.3046 163.427C105.363 163.065 121.971 153.225 121.971 153.225C121.971 153.225 122.152 169.167 125.232 174.964C128.312 180.761 142.442 194.891 148.058 198.514C153.674 202.138 172.515 215.725 175.413 217.898C178.312 220.072 183.747 224.058 185.015 224.239C186.283 224.42 199.508 208.297 202.587 202.862C205.667 197.427 208.384 186.014 207.297 183.478C206.21 180.942 204.037 183.116 201.863 184.927C199.689 186.739 179.761 199.964 177.95 200.87C176.96 201.378 175.93 201.802 174.87 202.138C174.87 202.138 158.565 186.558 149.87 174.601C141.174 162.645 140.45 147.246 137.189 141.449C133.928 135.652 129.218 133.116 122.152 133.84C115.087 134.565 100.413 138.369 88.4568 147.246Z" stroke="#0E3C47" stroke-linecap="round" stroke-linejoin="round"/>
<path d="M122 153.225L122.5 153.219L122.5 153.219L122.5 153.221L122.5 153.23L122.501 153.263L122.503 153.396C122.505 153.513 122.509 153.686 122.514 153.909C122.525 154.353 122.544 154.996 122.576 155.786C122.641 157.365 122.76 159.53 122.974 161.875C123.188 164.221 123.498 166.739 123.943 169.026C124.391 171.323 124.968 173.347 125.703 174.729C126.447 176.129 127.878 178.066 129.72 180.258C131.555 182.442 133.777 184.856 136.08 187.204C140.698 191.913 145.601 196.315 148.358 198.094L148.358 198.094C151.829 200.335 160.321 206.36 166.999 211.151C168.603 205.821 171.214 202.675 173.019 201.026C170.896 198.807 166.584 193.313 162.092 187.043C157.308 180.364 152.279 172.748 149.425 167.17L149.425 167.17C145.261 159.03 142.952 153.571 141.277 149.421C141.003 148.743 140.747 148.101 140.502 147.49C139.248 144.349 138.311 142.003 136.963 139.607C135.391 136.813 133.447 135.342 131.064 134.635C128.648 133.919 125.744 133.976 122.233 134.338C115.218 135.06 102.627 136.363 87.2108 145.109L87.2025 145.113L87.2024 145.113L87.2024 145.113L87.2017 145.114L87.1987 145.115L87.1858 145.122L87.133 145.152C87.0863 145.178 87.0169 145.216 86.9274 145.267C86.7485 145.369 86.4897 145.519 86.1726 145.711C85.5379 146.094 84.6716 146.643 83.7449 147.302C81.87 148.637 79.8286 150.37 78.8953 152.074C78.5052 152.786 78.5296 153.856 79.0964 155.133C79.6568 156.395 80.7174 157.78 82.2405 159.035C85.2807 161.542 90.1158 163.494 96.2882 162.93C100.706 162.525 107.05 160.012 112.343 157.562C114.977 156.343 117.332 155.149 119.027 154.26C119.875 153.815 120.558 153.447 121.028 153.19C121.263 153.062 121.445 152.961 121.569 152.893C121.63 152.859 121.677 152.833 121.708 152.815L121.743 152.795L121.752 152.791L121.754 152.789L121.755 152.789C121.755 152.789 121.755 152.789 122 153.225ZM122 153.225L122.5 153.219L122.491 152.374L121.755 152.789L122 153.225Z" fill="#0E3C47" stroke="#0E3C47"/>
<path opacity="0.53" d="M173.747 201.051C169.913 197.312 155.544 178.029 149.87 166.942C141.558 150.696 140.66 145.159 137.399 139.362C134.138 133.565 129.218 133.116 122.181 133.841C115.145 134.565 102.471 135.877 86.9641 144.674C86.9641 144.674 80.4424 148.21 78.4568 151.833C76.4713 155.456 83.725 164.58 96.3337 163.427C105.363 162.601 122 153.225 122 153.225C122 153.225 122.181 169.167 125.261 174.964C128.341 180.761 142.471 194.891 148.087 198.514C151.645 200.812 160.522 207.116 167.283 211.971C168.95 205.906 171.942 202.587 173.747 201.051Z" fill="white"/>
<path opacity="0.14" d="M137.319 175.275C131.884 161.507 135.145 133.971 119.928 137.594C108.841 140.232 88.5148 149.608 78.3047 154.5C79.5148 158.659 86.1815 164.355 96.3047 163.427C105.334 162.601 121.971 153.224 121.971 153.224C121.971 153.224 122.153 169.166 125.232 174.964C128.312 180.761 142.442 194.891 148.058 198.514C151.616 200.811 160.493 207.116 167.254 211.971C167.836 209.85 168.686 207.812 169.783 205.906C156.29 195.927 140.355 182.964 137.319 175.275Z" fill="#0E3C47"/>
<path d="M121.971 153.224L121.428 143.804" stroke="#0E3C47" stroke-linecap="round" stroke-linejoin="round"/>
<path d="M173.747 201.051C169.913 197.312 155.544 178.029 149.87 166.942C141.558 150.696 140.66 145.159 137.399 139.362C134.138 133.565 129.218 133.116 122.181 133.841C115.145 134.565 102.471 135.877 86.9641 144.674C86.9641 144.674 80.4424 148.21 78.4568 151.833C76.4713 155.456 83.725 164.58 96.3337 163.427C105.363 162.601 122 153.225 122 153.225C122 153.225 122.181 169.167 125.261 174.964C128.341 180.761 142.471 194.891 148.087 198.514C151.645 200.812 160.522 207.116 167.283 211.971C168.95 205.906 171.942 202.587 173.747 201.051Z" stroke="#0E3C47" stroke-linecap="round" stroke-linejoin="round"/>
<path d="M175.413 217.898C178.311 220.072 183.746 224.058 185.014 224.239C186.282 224.42 199.507 208.297 202.587 202.862C205.666 197.427 208.384 186.014 207.297 183.478C206.21 180.942 204.036 183.116 201.862 184.927C199.688 186.739 179.761 199.964 177.949 200.869C177.471 201.109 177.036 201.304 176.652 201.471C176.13 202.464 175.492 204 175.927 205.036C176.652 206.667 179.732 208.84 179.732 208.84L174.246 217.058L175.413 217.898Z" fill="#0E3C47" stroke="#0E3C47" stroke-linecap="round" stroke-linejoin="round"/>
<path d="M202.587 202.862C205.666 197.427 208.384 186.014 207.297 183.478C206.666 182.029 205.674 182.123 204.522 182.833C205.282 186.217 204.522 192.746 200.775 199.783C197.435 206.058 187.116 217.174 181.935 222.551C182.878 223.261 183.921 223.83 185.029 224.239C186.282 224.42 199.507 208.297 202.587 202.862Z" fill="white"/>
<path d="M185.196 224.188L185.355 224.109L185.399 224.072C185.486 224.022 185.569 223.964 185.645 223.898L185.732 223.826L185.942 223.652L186.058 223.543L186.341 223.282L186.515 223.116L186.754 222.884L186.957 222.681L187.16 222.478L187.674 221.935L187.761 221.848L188.08 221.5L188.21 221.362C188.587 220.949 188.993 220.5 189.413 220.022V219.985L189.863 219.478L186.696 217.442C184.899 219.398 183.225 221.167 181.892 222.551L182.377 222.869L182.45 222.913L182.899 223.196L183.623 223.609L183.826 223.724L184.029 223.833L184.261 223.949L184.413 224.022C184.486 224.058 184.561 224.089 184.638 224.116L184.747 224.159C184.83 224.194 184.918 224.218 185.008 224.232C185.053 224.243 185.1 224.243 185.145 224.232L185.196 224.188Z" fill="#2C87A4"/>
<path opacity="0.5" d="M185.196 224.188L185.355 224.109L185.399 224.072C185.486 224.022 185.569 223.964 185.645 223.898L185.732 223.826L185.942 223.652L186.058 223.543L186.341 223.282L186.515 223.116L186.754 222.884L186.957 222.681L187.16 222.478L187.674 221.935L187.761 221.848L188.08 221.5L188.21 221.362C188.587 220.949 188.993 220.5 189.413 220.022V219.985L189.863 219.478L186.696 217.442C184.899 219.398 183.225 221.167 181.892 222.551L182.377 222.869L182.45 222.913L182.899 223.196L183.623 223.609L183.826 223.724L184.029 223.833L184.261 223.949L184.413 224.022C184.486 224.058 184.561 224.089 184.638 224.116L184.747 224.159C184.83 224.194 184.918 224.218 185.008 224.232C185.053 224.243 185.1 224.243 185.145 224.232L185.196 224.188Z" fill="white"/>
<path d="M202.587 202.862C205.666 197.427 208.384 186.014 207.297 183.478C206.666 182.029 205.674 182.123 204.522 182.833C205.282 186.217 204.522 192.746 200.775 199.783C197.435 206.058 187.116 217.174 181.935 222.551C182.878 223.261 183.921 223.83 185.029 224.239C186.282 224.42 199.507 208.297 202.587 202.862Z" stroke="#0E3C47" stroke-linecap="round" stroke-linejoin="round"/>
<path d="M173.782 228.406C168.348 224.964 162.188 215.362 162.007 212.101C161.999 211.744 162.028 211.387 162.094 211.036C161.012 211.071 159.968 211.443 159.108 212.101C156.878 210.078 154.518 208.202 152.043 206.485C150.05 205.338 147.817 204.67 145.521 204.536C142.891 206.71 140.449 208.449 140.065 209.927C139.34 212.645 144.232 223.514 156.007 231.123C167.782 238.732 171.768 237.464 175.21 236.739C178.652 236.014 179.217 231.848 173.782 228.406Z" fill="#0E3C47" stroke="#0E3C47" stroke-linecap="round" stroke-linejoin="round"/>
<path d="M173.783 228.406C171.982 227.185 170.358 225.722 168.957 224.058C165.218 222.464 160.225 220.435 155.848 217.71C151.138 214.812 152.225 213 149.508 210.283C147.421 208.196 143.319 207.928 141.537 207.913C140.893 208.45 140.395 209.14 140.087 209.92C139.363 212.638 144.254 223.507 156.029 231.116C167.805 238.725 171.79 237.457 175.232 236.732C178.674 236.007 179.218 231.848 173.783 228.406Z" fill="white"/>
<path d="M173.783 228.406C171.982 227.185 170.358 225.722 168.957 224.058C165.218 222.464 160.225 220.435 155.848 217.71C151.138 214.812 152.225 213 149.508 210.283C147.421 208.196 143.319 207.928 141.537 207.913C140.893 208.45 140.395 209.14 140.087 209.92C139.363 212.638 144.254 223.507 156.029 231.116C167.805 238.725 171.79 237.457 175.232 236.732C178.674 236.007 179.218 231.848 173.783 228.406Z" fill="#2C87A4"/>
<path opacity="0.5" d="M173.783 228.406C171.982 227.185 170.358 225.722 168.957 224.058C165.218 222.464 160.225 220.435 155.848 217.71C151.138 214.812 152.225 213 149.508 210.283C147.421 208.196 143.319 207.928 141.537 207.913C140.893 208.45 140.395 209.14 140.087 209.92C139.363 212.638 144.254 223.507 156.029 231.116C167.805 238.725 171.79 237.457 175.232 236.732C178.674 236.007 179.218 231.848 173.783 228.406Z" fill="white"/>
<path d="M173.783 228.406C171.982 227.185 170.358 225.722 168.957 224.058C165.218 222.464 160.225 220.435 155.848 217.71C151.138 214.812 152.225 213 149.508 210.283C147.421 208.196 143.319 207.928 141.537 207.913C140.893 208.45 140.395 209.14 140.087 209.92C139.363 212.638 144.254 223.507 156.029 231.116C167.805 238.725 171.79 237.457 175.232 236.732C178.674 236.007 179.218 231.848 173.783 228.406Z" stroke="#0E3C47" stroke-linecap="round" stroke-linejoin="round"/>
<path d="M144.874 210.701L144.86 210.69C144.215 210.208 143.442 209.926 142.638 209.88C141.912 209.839 141.189 209.991 140.543 210.32C140.52 210.573 140.536 210.908 140.605 211.327C140.696 211.868 140.872 212.519 141.141 213.26C141.679 214.741 142.579 216.55 143.865 218.516C146.436 222.446 150.53 226.968 156.301 230.703C162.107 234.461 165.984 236.009 168.807 236.543C171.431 237.039 173.172 236.667 174.796 236.32C174.907 236.296 175.018 236.273 175.129 236.25L144.874 210.701ZM144.874 210.701L144.89 210.711M144.874 210.701L144.89 210.711M144.89 210.711C146.881 211.985 147.6 213.382 148.445 215.024C148.507 215.144 148.569 215.266 148.633 215.389C149.583 217.219 150.764 219.245 153.937 221.392C157.077 223.516 161.075 225.029 164.831 226.341M144.89 210.711L164.831 226.341M164.831 226.341C165.421 226.547 166.003 226.748 166.575 226.945M164.831 226.341L166.575 226.945M166.575 226.945C169.686 228.017 172.491 228.984 174.436 230.105M166.575 226.945L174.436 230.105M174.436 230.105C175.379 230.664 176.217 231.383 176.912 232.23C177.427 233.257 177.434 234.152 177.129 234.819C176.821 235.496 176.15 236.033 175.129 236.25L174.436 230.105Z" fill="#0E3C47" stroke="#0E3C47"/>
<path opacity="0.53" d="M174.688 229.674C169.978 226.956 160.377 225.145 154.217 220.978C148.058 216.811 149.688 213.188 145.159 210.29C144.436 209.749 143.569 209.433 142.667 209.381C141.765 209.329 140.867 209.545 140.087 210C139.456 212.826 144.362 223.572 156.029 231.123C167.696 238.674 171.79 237.463 175.232 236.739C177.522 236.253 178.514 234.253 177.333 231.956C176.594 231.044 175.698 230.271 174.688 229.674V229.674Z" fill="white"/>
<path d="M174.688 229.674C169.978 226.956 160.377 225.145 154.217 220.978C148.058 216.811 149.688 213.188 145.159 210.29C144.436 209.749 143.569 209.433 142.667 209.381C141.765 209.329 140.867 209.545 140.087 210C139.456 212.826 144.362 223.572 156.029 231.123C167.696 238.674 171.79 237.463 175.232 236.739C177.522 236.253 178.514 234.253 177.333 231.956C176.594 231.044 175.698 230.271 174.688 229.674V229.674Z" stroke="#0E3C47" stroke-linecap="round" stroke-linejoin="round"/>
<path d="M84.4132 195.022C84.4132 195.022 87.8915 190.797 88.3843 194.029C88.877 197.261 88.1379 203.218 85.6524 205.449C83.1669 207.681 81.9277 204.21 81.9277 204.21L83.4205 202.225C83.4205 202.225 84.6596 204.71 85.6524 200.732C86.6451 196.754 83.6669 197.254 83.6669 197.254L84.4132 195.022Z" fill="white" stroke="#0E3C47" stroke-linecap="round" stroke-linejoin="round"/>
<path d="M81.7539 210.92C79.696 212.442 72.9858 212.442 70.9351 210.92C66.5873 207.695 67.3119 192.116 67.3119 192.116H85.3264C85.3264 192.116 86.109 207.695 81.7539 210.92Z" fill="white" stroke="#0E3C47" stroke-linecap="round" stroke-linejoin="round"/>
<path d="M69.2832 189.058C69.2832 187.101 71.1021 187.101 71.1021 185.137C71.1021 183.174 69.2832 183.174 69.2832 181.217C69.2832 179.261 71.1021 179.253 71.1021 177.29C71.1021 175.326 69.2832 175.326 69.2832 173.362C69.2832 171.398 71.1021 171.398 71.1021 169.435" stroke="#0E3C47" stroke-linecap="round" stroke-linejoin="round"/>
<path d="M75.5068 189.058C75.5068 187.608 77.3257 187.608 77.3257 186.079C77.3257 184.551 75.5068 184.594 75.5068 183.101C75.5068 181.608 77.3257 181.616 77.3257 180.123C77.3257 178.63 75.5068 178.63 75.5068 177.137C75.5068 175.645 77.3257 175.652 77.3257 174.159" stroke="#0E3C47" stroke-linecap="round" stroke-linejoin="round"/>
<path d="M82.3555 189.058C82.3555 187.101 84.1671 187.101 84.1671 185.137C84.1671 183.174 82.3555 183.174 82.3555 181.217C82.3555 179.261 84.1671 179.253 84.1671 177.29C84.1671 175.326 82.3555 175.326 82.3555 173.362C82.3555 171.398 84.1671 171.398 84.1671 169.435" stroke="#0E3C47" stroke-linecap="round" stroke-linejoin="round"/>
<path d="M85.3407 192.116C85.3407 192.572 81.3117 192.935 76.3334 192.935C71.3552 192.935 67.3262 192.572 67.3262 192.116C67.3262 191.659 71.3552 191.297 76.3334 191.297C81.3117 191.297 85.3407 191.659 85.3407 192.116Z" fill="white" stroke="#0E3C47" stroke-linecap="round" stroke-linejoin="round"/>
<path d="M101.971 79.9855C101.971 79.9855 102.819 89.1377 103.174 92.029C103.529 94.9203 104.333 103.225 105.166 105.971C106 108.717 110.543 113.493 110.963 112.391C111.384 111.29 113.645 103.819 112.746 99.3478C111.848 94.8768 111.572 91.058 112.13 89.9275C112.688 88.7971 114.695 87.529 114.695 87.529C112.357 86.3315 110.086 85.0083 107.891 83.5652C104.688 81.4348 102.42 79.0217 101.971 79.9855Z" fill="white"/>
<path d="M113.601 88.0213L112.877 86.6155C111.543 85.8909 109.688 84.8184 107.927 83.6373C104.703 81.4633 102.435 79.0213 101.985 80.0141C101.985 80.0141 102.833 89.1662 103.188 92.0575C103.543 94.9489 104.348 103.253 105.181 106C105.465 106.803 105.858 107.563 106.348 108.26C105.471 102.797 106.42 92.9271 106.42 92.9271L113.601 88.0213Z" fill="#2C87A4"/>
<path opacity="0.5" d="M113.601 88.0213L112.877 86.6155C111.543 85.8909 109.688 84.8184 107.927 83.6373C104.703 81.4633 102.435 79.0213 101.985 80.0141C101.985 80.0141 102.833 89.1662 103.188 92.0575C103.543 94.9489 104.348 103.253 105.181 106C105.465 106.803 105.858 107.563 106.348 108.26C105.471 102.797 106.42 92.9271 106.42 92.9271L113.601 88.0213Z" fill="white"/>
<path d="M101.971 79.9855C101.971 79.9855 102.819 89.1377 103.174 92.029C103.529 94.9203 104.333 103.225 105.166 105.971C106 108.717 110.543 113.493 110.963 112.391C111.384 111.29 113.645 103.819 112.746 99.3478C111.848 94.8768 111.572 91.058 112.13 89.9275C112.688 88.7971 114.695 87.529 114.695 87.529C112.357 86.3315 110.086 85.0083 107.891 83.5652C104.688 81.4348 102.42 79.0217 101.971 79.9855Z" stroke="#0E3C47" stroke-linecap="round" stroke-linejoin="round"/>
<path d="M101.638 81.3113C101.638 81.3113 106.855 85.6591 110.855 87.2533C114.855 88.8475 121 88.7461 121.877 86.6663C122.754 84.5866 120.355 68.1156 118.29 63.7823C116.225 59.449 114.022 59.3765 110.377 59.0432C106.732 58.7098 99.4425 61.6808 98.1598 65.2026C96.8772 68.7243 98.341 73.7098 99.399 76.6663C99.9584 78.298 100.71 79.8573 101.638 81.3113V81.3113Z" fill="white"/>
<path d="M111.007 81.1156C109.159 75.6373 108.695 67.0141 108.695 64.717C108.695 62.9417 113.319 60.9924 115.427 60.1953C114.043 59.3402 112.434 59.2315 110.355 59.0431C106.732 58.7171 99.42 61.6808 98.1374 65.2026C96.8548 68.7243 98.3185 73.7098 99.3765 76.6663C99.936 78.298 100.688 79.8573 101.616 81.3113C101.616 81.3113 106.833 85.6591 110.833 87.2533C113.605 88.3023 116.608 88.5901 119.529 88.0866C116.666 87.0069 112.239 84.775 111.007 81.1156Z" fill="#2C87A4"/>
<path opacity="0.5" d="M111.007 81.1156C109.159 75.6373 108.695 67.0141 108.695 64.717C108.695 62.9417 113.319 60.9924 115.427 60.1953C114.043 59.3402 112.434 59.2315 110.355 59.0431C106.732 58.7171 99.42 61.6808 98.1374 65.2026C96.8548 68.7243 98.3185 73.7098 99.3765 76.6663C99.936 78.298 100.688 79.8573 101.616 81.3113C101.616 81.3113 106.833 85.6591 110.833 87.2533C113.605 88.3023 116.608 88.5901 119.529 88.0866C116.666 87.0069 112.239 84.775 111.007 81.1156Z" fill="white"/>
<path d="M101.638 81.3113C101.638 81.3113 106.855 85.6591 110.855 87.2533C114.855 88.8475 121 88.7461 121.877 86.6663C122.754 84.5866 120.355 68.1156 118.29 63.7823C116.225 59.449 114.022 59.3765 110.377 59.0432C106.732 58.7098 99.4425 61.6808 98.1598 65.2026C96.8772 68.7243 98.341 73.7098 99.399 76.6663C99.9584 78.298 100.71 79.8573 101.638 81.3113V81.3113Z" stroke="#0E3C47" stroke-linecap="round" stroke-linejoin="round"/>
<path d="M118.681 70.5649C118.768 72.6519 117.456 74.3983 115.782 74.4635C114.108 74.5287 112.645 72.8983 112.565 70.8403C112.485 68.7823 113.79 67.007 115.464 66.9345C117.137 66.862 118.601 68.4562 118.681 70.5649Z" stroke="#0E3C47" stroke-linecap="round" stroke-linejoin="round"/>
<path d="M122.782 69.7536C122.869 71.8406 122.195 73.558 121.282 73.5942C120.369 73.6304 119.558 71.971 119.478 69.884C119.398 67.7971 120.072 66.0725 120.985 66.0362C121.898 66 122.703 67.6667 122.782 69.7536Z" stroke="#0E3C47" stroke-linecap="round" stroke-linejoin="round"/>
<path d="M118.898 69.7969C118.898 69.7969 124.884 70.9346 124.304 72.3766C123.725 73.8186 119.681 75.3766 119.681 75.3766" fill="white"/>
<path d="M118.898 69.7969C118.898 69.7969 124.884 70.9346 124.304 72.3766C123.725 73.8186 119.681 75.3766 119.681 75.3766" stroke="#0E3C47" stroke-linecap="round" stroke-linejoin="round"/>
<path d="M118.529 69.1158C118.529 69.1158 118.616 68.3912 119.537 68.8477" stroke="#0E3C47" stroke-linecap="round" stroke-linejoin="round"/>
<path d="M112.377 71.1304L101.493 75.413" stroke="#0E3C47" stroke-linecap="round" stroke-linejoin="round"/>
<path d="M112.521 67.6087C112.751 67.0907 113.134 66.6557 113.618 66.3628C114.103 66.0698 114.666 65.9331 115.232 65.9711" stroke="#0E3C47" stroke-width="2" stroke-linecap="round" stroke-linejoin="round"/>
<path d="M119.769 66.0215L118.095 66.6519" stroke="#0E3C47" stroke-width="2" stroke-linecap="round" stroke-linejoin="round"/>
<path d="M114.595 78.1736C114.595 78.1736 116.769 77.6084 118.001 78.8982" stroke="#0E3C47" stroke-linecap="round" stroke-linejoin="round"/>
<mask id="path-87-inside-1_130_1108" fill="white">
<path d="M115.993 70.9419C116.094 71.6665 115.993 72.2897 115.696 72.3259C115.399 72.3622 115.138 71.8042 115.036 71.0723C114.935 70.3404 115.073 69.7317 115.341 69.6955C115.609 69.6593 115.899 70.2173 115.993 70.9419Z"/>
</mask>
<path d="M115.993 70.9419C116.094 71.6665 115.993 72.2897 115.696 72.3259C115.399 72.3622 115.138 71.8042 115.036 71.0723C114.935 70.3404 115.073 69.7317 115.341 69.6955C115.609 69.6593 115.899 70.2173 115.993 70.9419Z" fill="#0E3C47"/>
<path d="M115.993 70.9419L115.001 71.0708L115.003 71.0805L115.993 70.9419ZM115.003 71.0805C115.044 71.3744 115.034 71.5916 115.013 71.6973C115.002 71.7541 114.999 71.7179 115.049 71.643C115.107 71.5559 115.274 71.37 115.575 71.3333L115.817 73.3186C116.266 73.2638 116.558 72.9864 116.715 72.7495C116.864 72.525 116.936 72.281 116.975 72.0868C117.053 71.6908 117.044 71.234 116.983 70.8032L115.003 71.0805ZM115.575 71.3333C115.859 71.2986 116.058 71.4251 116.136 71.4919C116.202 71.5494 116.21 71.5841 116.184 71.5343C116.136 71.4402 116.069 71.2356 116.027 70.935L114.046 71.2096C114.106 71.6409 114.219 72.0812 114.401 72.4401C114.491 72.6167 114.625 72.8299 114.828 73.0047C115.04 73.1888 115.384 73.3714 115.817 73.3186L115.575 71.3333ZM116.027 70.935C115.988 70.6543 116.003 70.4436 116.026 70.3404C116.038 70.2848 116.042 70.3121 115.998 70.3774C115.955 70.4421 115.794 70.6434 115.475 70.6865L115.207 68.7045C114.754 68.7657 114.475 69.0568 114.333 69.2686C114.192 69.4811 114.117 69.7131 114.074 69.9057C113.986 70.2988 113.983 70.7584 114.046 71.2096L116.027 70.935ZM115.475 70.6865C115.15 70.7304 114.939 70.5739 114.881 70.523C114.822 70.4712 114.819 70.4445 114.846 70.4962C114.896 70.592 114.965 70.7928 115.001 71.0708L116.985 70.813C116.926 70.3664 116.804 69.9258 116.618 69.5706C116.528 69.3967 116.395 69.192 116.204 69.0232C116.014 68.8552 115.665 68.6425 115.207 68.7045L115.475 70.6865Z" fill="#0E3C47" mask="url(#path-87-inside-1_130_1108)"/>
<path d="M102.507 75.4419C102.507 75.4419 101.782 76.8912 103.826 76.9636C105.869 77.0361 107.26 76.0433 106.268 74.7897C105.275 73.5361 103.804 72.3622 105.318 70.7245C106.833 69.0868 109.775 67.71 108.123 65.8839C106.471 64.0578 100.391 65.7172 101.913 64.239C103.434 62.7607 110.463 61.2172 113.623 61.4129C116.782 61.6085 122.681 59.1593 123.978 55.9564C125.275 52.7535 123.463 46.8332 119.217 47.152C114.971 47.4709 111.804 51.2317 109.92 51.4998C108.036 51.768 104.174 49.6738 100.934 51.4998C97.6953 53.3259 97.5866 58.5723 97.3112 59.2172C97.0358 59.8622 92.6445 60.8187 91.8692 65.2607C91.5781 67.0516 91.7025 68.8853 92.2327 70.6205C92.7629 72.3556 93.6848 73.9457 94.9271 75.268C96.746 77.2462 97.5648 77.9999 97.5648 77.9999L102.507 75.4419Z" fill="#0E3C47" stroke="#0E3C47" stroke-linecap="round" stroke-linejoin="round"/>
<path d="M93.2896 67.4131C93.2518 68.0872 93.4131 68.7575 93.7534 69.3406" stroke="white" stroke-width="0.75" stroke-linecap="round" stroke-linejoin="round"/>
<path d="M111.761 55.9419C111.761 55.9419 110.181 52.4854 114.21 52.4854C118.239 52.4854 118.819 57.5578 114.645 59.3984C110.471 61.239 101.391 61.7027 96.4928 63.8694C95.5314 64.2457 94.6759 64.85 94 65.6303" stroke="white" stroke-width="0.75" stroke-linecap="round" stroke-linejoin="round"/>
<path d="M104.464 68.2173C103.014 68.739 101.137 69.4637 99.2317 70.3477C95.1954 72.2245 96.0578 74.0941 96.0578 74.0941" stroke="white" stroke-width="0.75" stroke-linecap="round" stroke-linejoin="round"/>
<path d="M107.152 67.3262C107.152 67.3262 106.797 67.4276 106.195 67.6233" stroke="white" stroke-width="0.75" stroke-linecap="round" stroke-linejoin="round"/>
<path d="M103.196 76.9924C103.196 76.9924 100.855 73.6156 98.3915 74.9707C95.9278 76.3257 97.8408 81.1446 99.3263 82.8185C100.812 84.4924 103.674 81.3692 103.971 80.5866" fill="white"/>
<path d="M103.196 76.9924C103.196 76.9924 100.855 73.6156 98.3915 74.9707C95.9278 76.3257 97.8408 81.1446 99.3263 82.8185C100.812 84.4924 103.674 81.3692 103.971 80.5866" fill="#2C87A4"/>
<path opacity="0.5" d="M103.196 76.9924C103.196 76.9924 100.855 73.6156 98.3915 74.9707C95.9278 76.3257 97.8408 81.1446 99.3263 82.8185C100.812 84.4924 103.674 81.3692 103.971 80.5866" fill="white"/>
<path d="M103.196 76.9924C103.196 76.9924 100.855 73.6156 98.3915 74.9707C95.9278 76.3257 97.8408 81.1446 99.3263 82.8185C100.812 84.4924 103.674 81.3692 103.971 80.5866" stroke="#0E3C47" stroke-linecap="round" stroke-linejoin="round"/>
<path d="M233.239 216.406C239.935 216.406 245.363 213.972 245.363 210.971C245.363 207.969 239.935 205.536 233.239 205.536C226.544 205.536 221.116 207.969 221.116 210.971C221.116 213.972 226.544 216.406 233.239 216.406Z" fill="#2C87A4"/>
<path opacity="0.5" d="M233.239 216.406C239.935 216.406 245.363 213.972 245.363 210.971C245.363 207.969 239.935 205.536 233.239 205.536C226.544 205.536 221.116 207.969 221.116 210.971C221.116 213.972 226.544 216.406 233.239 216.406Z" fill="white"/>
<path d="M222.708 130.148C222.753 130.284 222.798 130.418 222.839 130.544C222.55 130.54 222.192 130.531 221.808 130.509C220.843 130.456 219.813 130.334 219.258 130.092C218.741 129.866 218.192 129.541 217.748 129.141C217.3 128.74 216.991 128.291 216.887 127.82L216.885 127.811L216.883 127.802C216.826 127.58 216.815 127.347 216.851 127.12C216.888 126.893 216.97 126.676 217.094 126.482C217.219 126.288 217.381 126.122 217.572 125.994C217.76 125.868 217.972 125.782 218.194 125.74C218.859 125.657 219.698 126.069 220.53 126.8C221.335 127.509 222.013 128.413 222.348 129.074C222.35 129.081 222.359 129.104 222.376 129.153C222.398 129.217 222.427 129.304 222.462 129.408C222.532 129.615 222.621 129.883 222.708 130.148Z" fill="#0E3C47" stroke="#0E3C47"/>
<mask id="path-101-inside-2_130_1108" fill="white">
<path d="M260.623 119.746C258.826 119.558 256.688 122.014 256.029 123.492C255.971 123.623 255.304 125.717 255.348 125.717H255.384C255.043 126.101 254.659 126.521 254.304 126.985C253.58 127.847 252.811 128.826 252.029 129.956C251.17 131.16 250.384 132.413 249.674 133.71C248.869 135.159 248.195 136.677 247.659 138.246C247.655 138.265 247.655 138.285 247.659 138.304C247.659 137.775 247.659 136.29 247.659 136.174C247.449 134.579 246.109 131.601 244.326 131.275C244.03 131.235 243.729 131.256 243.442 131.337C243.154 131.418 242.887 131.557 242.656 131.746C242.424 131.935 242.235 132.17 242.098 132.435C241.962 132.701 241.881 132.992 241.862 133.29C241.761 134.558 242.681 135.833 243.58 136.637C244.594 137.543 247.406 138.42 247.63 138.485C247.129 140.096 246.732 141.737 246.442 143.398C246.268 144.369 246.13 145.347 245.993 146.333C245.993 145.869 245.993 145.463 245.993 145.405C245.782 143.804 244.442 140.833 242.667 140.507C242.371 140.465 242.069 140.485 241.782 140.565C241.494 140.645 241.226 140.784 240.994 140.972C240.762 141.161 240.571 141.395 240.434 141.66C240.297 141.925 240.216 142.216 240.196 142.514C240.094 143.79 241.014 145.058 241.913 145.862C242.811 146.666 245.21 147.478 245.848 147.681C245.804 148.058 245.753 148.405 245.703 148.811C245.485 150.623 245.282 152.434 245.022 154.21C244.927 154.833 244.819 155.442 244.71 156.05C244.71 155.645 244.71 155.326 244.71 155.253C244.5 153.652 243.159 150.681 241.377 150.347C241.081 150.307 240.78 150.328 240.492 150.409C240.205 150.49 239.937 150.629 239.706 150.818C239.475 151.007 239.285 151.242 239.149 151.508C239.012 151.773 238.932 152.064 238.913 152.362C238.811 153.637 239.732 154.905 240.63 155.71C241.529 156.514 243.696 157.246 244.449 157.485C244.319 158.108 244.181 158.732 244.029 159.333C243.913 159.739 243.826 160.137 243.688 160.536C243.551 160.934 243.435 161.333 243.304 161.724C243.036 162.449 242.761 163.246 242.478 163.963C242.282 164.471 242.087 164.949 241.898 165.413C241.993 164.79 242.159 163.572 242.159 163.471C242.142 162.05 241.76 160.658 241.051 159.427C241.061 159.27 241.061 159.113 241.051 158.956C241.008 158.661 240.904 158.377 240.747 158.124C240.59 157.87 240.382 157.651 240.137 157.481C239.891 157.311 239.614 157.194 239.321 157.136C239.028 157.078 238.726 157.081 238.435 157.145C236.688 157.608 235.58 160.674 235.493 162.282C235.493 162.384 235.551 163.42 235.601 164.072C235.514 163.695 235.435 163.347 235.34 162.934C235.152 162.159 234.949 161.391 234.732 160.572C234.609 160.174 234.493 159.775 234.369 159.376C234.246 158.978 234.087 158.565 233.949 158.152C233.601 157.21 233.224 156.268 232.782 155.326C233.464 155.166 235.855 154.558 236.819 153.819C237.782 153.079 238.79 151.884 238.775 150.608C238.782 150.31 238.727 150.013 238.611 149.737C238.496 149.461 238.325 149.213 238.107 149.008C237.89 148.803 237.632 148.646 237.35 148.547C237.068 148.448 236.769 148.41 236.471 148.434C234.667 148.63 233.109 151.492 232.782 153.072C232.782 153.174 232.659 154.333 232.609 154.971C232.355 154.405 232.101 153.847 231.826 153.282C231.022 151.666 230.159 150.058 229.304 148.442C229.036 147.949 228.782 147.456 228.529 146.956C228.768 146.905 231.63 146.232 232.703 145.413C233.659 144.688 234.674 143.478 234.667 142.203C234.667 141.905 234.607 141.611 234.489 141.338C234.371 141.064 234.199 140.818 233.982 140.615C233.765 140.411 233.509 140.254 233.229 140.153C232.949 140.052 232.652 140.01 232.355 140.029C230.558 140.224 229 143.087 228.674 144.666C228.674 144.782 228.5 146.456 228.478 146.884C227.913 145.79 227.362 144.71 226.855 143.601C226.171 142.124 225.583 140.604 225.094 139.05C225.203 139.05 228.196 138.326 229.297 137.5C230.253 136.775 231.268 135.565 231.261 134.29C231.261 133.992 231.201 133.698 231.083 133.425C230.965 133.151 230.793 132.905 230.576 132.702C230.359 132.498 230.103 132.341 229.823 132.24C229.544 132.139 229.246 132.097 228.949 132.116C227.152 132.311 225.594 135.174 225.268 136.753C225.268 136.884 225.08 138.681 225.072 139.007C225.072 138.913 225.007 138.826 224.978 138.732C224.531 137.158 224.225 135.548 224.065 133.92C223.964 133.029 223.92 132.159 223.891 131.318C224.464 131.253 227.058 130.905 228.138 130.253C229.217 129.601 230.311 128.55 230.442 127.275C230.477 126.979 230.451 126.678 230.365 126.392C230.279 126.106 230.134 125.841 229.941 125.613C229.748 125.386 229.51 125.2 229.242 125.068C228.974 124.936 228.682 124.861 228.384 124.847C226.572 124.847 224.71 127.521 224.21 129.05C224.21 129.137 224.007 130.014 223.884 130.659C223.884 130.275 223.884 129.884 223.884 129.521C223.884 128.159 223.971 126.905 224.058 125.797C224.116 125.166 224.174 124.601 224.239 124.065C224.761 123.71 226.848 122.232 227.493 121.166C228.138 120.101 228.638 118.652 228.167 117.471C228.067 117.187 227.909 116.928 227.702 116.71C227.495 116.492 227.245 116.32 226.967 116.206C226.689 116.092 226.39 116.038 226.09 116.047C225.79 116.056 225.495 116.129 225.224 116.261C223.616 117.087 223.196 120.318 223.456 121.913C223.456 122.05 224.087 124.159 224.116 124.145C224.051 124.652 223.978 125.203 223.913 125.797C223.804 126.905 223.688 128.159 223.659 129.536C223.608 131.012 223.642 132.491 223.761 133.963C223.891 135.615 224.168 137.252 224.587 138.855C224.583 138.874 224.583 138.894 224.587 138.913C224.304 138.471 223.464 137.246 223.391 137.159C222.333 135.934 219.58 134.203 217.913 134.905C217.644 135.034 217.404 135.217 217.209 135.443C217.014 135.669 216.867 135.932 216.778 136.217C216.689 136.502 216.659 136.802 216.691 137.099C216.723 137.395 216.816 137.682 216.964 137.942C217.58 139.065 219.051 139.616 220.246 139.79C221.587 139.985 224.42 139.166 224.645 139.101C225.113 140.719 225.687 142.305 226.362 143.847C226.753 144.753 227.174 145.652 227.609 146.543C227.348 146.166 227.116 145.818 227.08 145.818C226.022 144.601 223.261 142.862 221.601 143.565C221.331 143.694 221.091 143.877 220.895 144.103C220.699 144.33 220.552 144.594 220.462 144.879C220.373 145.165 220.344 145.466 220.377 145.764C220.409 146.061 220.503 146.349 220.652 146.608C221.268 147.724 222.739 148.282 223.927 148.456C225.116 148.63 227.551 147.978 228.21 147.797C228.377 148.137 228.543 148.478 228.717 148.818C229.536 150.456 230.362 152.079 231.123 153.695C231.391 154.268 231.63 154.84 231.848 155.413C231.623 155.072 231.427 154.797 231.391 154.753C230.333 153.536 227.572 151.797 225.913 152.5C225.643 152.629 225.402 152.812 225.206 153.038C225.01 153.264 224.863 153.529 224.774 153.814C224.685 154.1 224.656 154.401 224.688 154.698C224.721 154.996 224.815 155.284 224.964 155.543C225.58 156.659 227.051 157.21 228.239 157.384C229.427 157.558 231.645 156.971 232.406 156.761C232.638 157.355 232.877 157.949 233.072 158.536C233.203 158.934 233.355 159.311 233.456 159.724C233.558 160.137 233.681 160.529 233.797 160.927C233.978 161.703 234.174 162.5 234.34 163.253C234.456 163.782 234.558 164.282 234.659 164.79C234.398 164.217 233.862 163.116 233.811 163.029C232.949 161.659 230.485 159.521 228.739 159.971C228.449 160.051 228.18 160.193 227.948 160.385C227.717 160.578 227.529 160.817 227.397 161.088C227.265 161.358 227.191 161.653 227.182 161.954C227.172 162.255 227.226 162.555 227.34 162.833C227.775 164.029 229.145 164.797 230.297 165.152C231.572 165.536 234.384 165.152 234.732 165.152C234.898 165.992 235.058 166.811 235.188 167.587C235.667 170.268 235.956 172.521 236.138 174.108C236.138 174.391 236.195 174.637 236.224 174.876H230.782L232.529 209.007C232.594 210.257 233.136 211.434 234.043 212.295C234.951 213.157 236.154 213.637 237.406 213.637V213.637C238.656 213.637 239.859 213.156 240.765 212.295C241.671 211.433 242.212 210.256 242.275 209.007L244.029 174.876H238.956C238.993 174.797 239.029 174.724 239.072 174.645C239.797 173.195 240.732 171.108 241.775 168.565C242.101 167.761 242.442 166.891 242.775 166C243.116 166.072 245.898 166.637 247.196 166.34C248.377 166.079 249.797 165.413 250.326 164.253C250.455 163.983 250.526 163.689 250.536 163.389C250.546 163.09 250.494 162.792 250.383 162.513C250.272 162.235 250.105 161.983 249.892 161.772C249.679 161.561 249.424 161.397 249.145 161.29C247.427 160.717 244.797 162.666 243.855 163.963C243.797 164.036 243.282 164.942 242.964 165.514C243.094 165.145 243.232 164.79 243.369 164.413C243.645 163.688 243.891 162.92 244.167 162.108C244.282 161.717 244.406 161.318 244.522 160.913C244.638 160.507 244.739 160.079 244.848 159.659C245.08 158.681 245.268 157.681 245.435 156.666C246.087 156.905 248.42 157.717 249.63 157.63C250.84 157.543 252.34 157.101 253.036 156.036C253.203 155.788 253.317 155.508 253.371 155.214C253.425 154.92 253.418 154.618 253.35 154.327C253.282 154.036 253.154 153.762 252.976 153.523C252.797 153.283 252.571 153.083 252.311 152.934C250.703 152.101 247.826 153.659 246.681 154.768C246.609 154.84 245.877 155.753 245.485 156.261C245.587 155.645 245.681 155.036 245.761 154.42C245.985 152.623 246.152 150.797 246.326 148.985L246.5 147.326C246.732 147.413 249.485 148.434 250.848 148.34C252.051 148.253 253.558 147.811 254.253 146.746C254.42 146.498 254.534 146.218 254.588 145.924C254.642 145.63 254.635 145.328 254.567 145.037C254.499 144.746 254.372 144.472 254.193 144.233C254.014 143.993 253.788 143.793 253.529 143.645C251.92 142.811 249.036 144.369 247.898 145.478C247.811 145.565 246.761 146.876 246.514 147.224C246.638 146 246.782 144.782 246.971 143.601C247.214 141.989 247.56 140.394 248.007 138.826C248.116 138.869 250.985 139.949 252.355 139.847C253.558 139.768 255.065 139.326 255.761 138.253C255.928 138.005 256.042 137.726 256.096 137.432C256.15 137.138 256.142 136.836 256.074 136.545C256.006 136.254 255.879 135.98 255.7 135.74C255.522 135.5 255.296 135.3 255.036 135.152C253.427 134.326 250.551 135.876 249.406 136.992C249.319 137.079 248.188 138.492 248.007 138.761C248.007 138.674 248.051 138.572 248.08 138.485C248.574 136.924 249.207 135.411 249.971 133.963C250.377 133.159 250.819 132.413 251.261 131.703C251.775 131.956 254.159 133.101 255.391 133.152C256.623 133.203 258.138 132.927 258.949 131.942C259.144 131.714 259.289 131.449 259.376 131.163C259.463 130.876 259.49 130.575 259.455 130.278C259.421 129.98 259.325 129.694 259.174 129.435C259.024 129.176 258.821 128.952 258.58 128.775C257.072 127.775 254.043 128.978 252.782 129.985C252.717 130.043 252.058 130.71 251.623 131.145L252.232 130.181C252.993 129.043 253.753 128.05 254.406 127.174C254.797 126.674 255.167 126.239 255.507 125.826C256.145 125.826 258.703 125.739 259.819 125.217C260.935 124.695 262.159 123.768 262.427 122.5C262.513 122.199 262.534 121.884 262.487 121.575C262.44 121.266 262.327 120.971 262.156 120.71C261.985 120.448 261.759 120.227 261.495 120.061C261.23 119.894 260.933 119.787 260.623 119.746V119.746ZM240.717 168.036C239.63 170.536 238.63 172.579 237.913 173.992L237.522 174.768H237.398C237.362 174.492 237.326 174.188 237.275 173.847C237.058 172.253 236.717 169.985 236.181 167.326C236.007 166.471 235.811 165.558 235.601 164.63C236.447 164.288 237.275 163.901 238.08 163.471C239.172 164.41 240.392 165.191 241.703 165.79C241.355 166.55 241.036 167.319 240.717 168.036V168.036Z"/>
</mask>
<path d="M260.623 119.746C258.826 119.558 256.688 122.014 256.029 123.492C255.971 123.623 255.304 125.717 255.348 125.717H255.384C255.043 126.101 254.659 126.521 254.304 126.985C253.58 127.847 252.811 128.826 252.029 129.956C251.17 131.16 250.384 132.413 249.674 133.71C248.869 135.159 248.195 136.677 247.659 138.246C247.655 138.265 247.655 138.285 247.659 138.304C247.659 137.775 247.659 136.29 247.659 136.174C247.449 134.579 246.109 131.601 244.326 131.275C244.03 131.235 243.729 131.256 243.442 131.337C243.154 131.418 242.887 131.557 242.656 131.746C242.424 131.935 242.235 132.17 242.098 132.435C241.962 132.701 241.881 132.992 241.862 133.29C241.761 134.558 242.681 135.833 243.58 136.637C244.594 137.543 247.406 138.42 247.63 138.485C247.129 140.096 246.732 141.737 246.442 143.398C246.268 144.369 246.13 145.347 245.993 146.333C245.993 145.869 245.993 145.463 245.993 145.405C245.782 143.804 244.442 140.833 242.667 140.507C242.371 140.465 242.069 140.485 241.782 140.565C241.494 140.645 241.226 140.784 240.994 140.972C240.762 141.161 240.571 141.395 240.434 141.66C240.297 141.925 240.216 142.216 240.196 142.514C240.094 143.79 241.014 145.058 241.913 145.862C242.811 146.666 245.21 147.478 245.848 147.681C245.804 148.058 245.753 148.405 245.703 148.811C245.485 150.623 245.282 152.434 245.022 154.21C244.927 154.833 244.819 155.442 244.71 156.05C244.71 155.645 244.71 155.326 244.71 155.253C244.5 153.652 243.159 150.681 241.377 150.347C241.081 150.307 240.78 150.328 240.492 150.409C240.205 150.49 239.937 150.629 239.706 150.818C239.475 151.007 239.285 151.242 239.149 151.508C239.012 151.773 238.932 152.064 238.913 152.362C238.811 153.637 239.732 154.905 240.63 155.71C241.529 156.514 243.696 157.246 244.449 157.485C244.319 158.108 244.181 158.732 244.029 159.333C243.913 159.739 243.826 160.137 243.688 160.536C243.551 160.934 243.435 161.333 243.304 161.724C243.036 162.449 242.761 163.246 242.478 163.963C242.282 164.471 242.087 164.949 241.898 165.413C241.993 164.79 242.159 163.572 242.159 163.471C242.142 162.05 241.76 160.658 241.051 159.427C241.061 159.27 241.061 159.113 241.051 158.956C241.008 158.661 240.904 158.377 240.747 158.124C240.59 157.87 240.382 157.651 240.137 157.481C239.891 157.311 239.614 157.194 239.321 157.136C239.028 157.078 238.726 157.081 238.435 157.145C236.688 157.608 235.58 160.674 235.493 162.282C235.493 162.384 235.551 163.42 235.601 164.072C235.514 163.695 235.435 163.347 235.34 162.934C235.152 162.159 234.949 161.391 234.732 160.572C234.609 160.174 234.493 159.775 234.369 159.376C234.246 158.978 234.087 158.565 233.949 158.152C233.601 157.21 233.224 156.268 232.782 155.326C233.464 155.166 235.855 154.558 236.819 153.819C237.782 153.079 238.79 151.884 238.775 150.608C238.782 150.31 238.727 150.013 238.611 149.737C238.496 149.461 238.325 149.213 238.107 149.008C237.89 148.803 237.632 148.646 237.35 148.547C237.068 148.448 236.769 148.41 236.471 148.434C234.667 148.63 233.109 151.492 232.782 153.072C232.782 153.174 232.659 154.333 232.609 154.971C232.355 154.405 232.101 153.847 231.826 153.282C231.022 151.666 230.159 150.058 229.304 148.442C229.036 147.949 228.782 147.456 228.529 146.956C228.768 146.905 231.63 146.232 232.703 145.413C233.659 144.688 234.674 143.478 234.667 142.203C234.667 141.905 234.607 141.611 234.489 141.338C234.371 141.064 234.199 140.818 233.982 140.615C233.765 140.411 233.509 140.254 233.229 140.153C232.949 140.052 232.652 140.01 232.355 140.029C230.558 140.224 229 143.087 228.674 144.666C228.674 144.782 228.5 146.456 228.478 146.884C227.913 145.79 227.362 144.71 226.855 143.601C226.171 142.124 225.583 140.604 225.094 139.05C225.203 139.05 228.196 138.326 229.297 137.5C230.253 136.775 231.268 135.565 231.261 134.29C231.261 133.992 231.201 133.698 231.083 133.425C230.965 133.151 230.793 132.905 230.576 132.702C230.359 132.498 230.103 132.341 229.823 132.24C229.544 132.139 229.246 132.097 228.949 132.116C227.152 132.311 225.594 135.174 225.268 136.753C225.268 136.884 225.08 138.681 225.072 139.007C225.072 138.913 225.007 138.826 224.978 138.732C224.531 137.158 224.225 135.548 224.065 133.92C223.964 133.029 223.92 132.159 223.891 131.318C224.464 131.253 227.058 130.905 228.138 130.253C229.217 129.601 230.311 128.55 230.442 127.275C230.477 126.979 230.451 126.678 230.365 126.392C230.279 126.106 230.134 125.841 229.941 125.613C229.748 125.386 229.51 125.2 229.242 125.068C228.974 124.936 228.682 124.861 228.384 124.847C226.572 124.847 224.71 127.521 224.21 129.05C224.21 129.137 224.007 130.014 223.884 130.659C223.884 130.275 223.884 129.884 223.884 129.521C223.884 128.159 223.971 126.905 224.058 125.797C224.116 125.166 224.174 124.601 224.239 124.065C224.761 123.71 226.848 122.232 227.493 121.166C228.138 120.101 228.638 118.652 228.167 117.471C228.067 117.187 227.909 116.928 227.702 116.71C227.495 116.492 227.245 116.32 226.967 116.206C226.689 116.092 226.39 116.038 226.09 116.047C225.79 116.056 225.495 116.129 225.224 116.261C223.616 117.087 223.196 120.318 223.456 121.913C223.456 122.05 224.087 124.159 224.116 124.145C224.051 124.652 223.978 125.203 223.913 125.797C223.804 126.905 223.688 128.159 223.659 129.536C223.608 131.012 223.642 132.491 223.761 133.963C223.891 135.615 224.168 137.252 224.587 138.855C224.583 138.874 224.583 138.894 224.587 138.913C224.304 138.471 223.464 137.246 223.391 137.159C222.333 135.934 219.58 134.203 217.913 134.905C217.644 135.034 217.404 135.217 217.209 135.443C217.014 135.669 216.867 135.932 216.778 136.217C216.689 136.502 216.659 136.802 216.691 137.099C216.723 137.395 216.816 137.682 216.964 137.942C217.58 139.065 219.051 139.616 220.246 139.79C221.587 139.985 224.42 139.166 224.645 139.101C225.113 140.719 225.687 142.305 226.362 143.847C226.753 144.753 227.174 145.652 227.609 146.543C227.348 146.166 227.116 145.818 227.08 145.818C226.022 144.601 223.261 142.862 221.601 143.565C221.331 143.694 221.091 143.877 220.895 144.103C220.699 144.33 220.552 144.594 220.462 144.879C220.373 145.165 220.344 145.466 220.377 145.764C220.409 146.061 220.503 146.349 220.652 146.608C221.268 147.724 222.739 148.282 223.927 148.456C225.116 148.63 227.551 147.978 228.21 147.797C228.377 148.137 228.543 148.478 228.717 148.818C229.536 150.456 230.362 152.079 231.123 153.695C231.391 154.268 231.63 154.84 231.848 155.413C231.623 155.072 231.427 154.797 231.391 154.753C230.333 153.536 227.572 151.797 225.913 152.5C225.643 152.629 225.402 152.812 225.206 153.038C225.01 153.264 224.863 153.529 224.774 153.814C224.685 154.1 224.656 154.401 224.688 154.698C224.721 154.996 224.815 155.284 224.964 155.543C225.58 156.659 227.051 157.21 228.239 157.384C229.427 157.558 231.645 156.971 232.406 156.761C232.638 157.355 232.877 157.949 233.072 158.536C233.203 158.934 233.355 159.311 233.456 159.724C233.558 160.137 233.681 160.529 233.797 160.927C233.978 161.703 234.174 162.5 234.34 163.253C234.456 163.782 234.558 164.282 234.659 164.79C234.398 164.217 233.862 163.116 233.811 163.029C232.949 161.659 230.485 159.521 228.739 159.971C228.449 160.051 228.18 160.193 227.948 160.385C227.717 160.578 227.529 160.817 227.397 161.088C227.265 161.358 227.191 161.653 227.182 161.954C227.172 162.255 227.226 162.555 227.34 162.833C227.775 164.029 229.145 164.797 230.297 165.152C231.572 165.536 234.384 165.152 234.732 165.152C234.898 165.992 235.058 166.811 235.188 167.587C235.667 170.268 235.956 172.521 236.138 174.108C236.138 174.391 236.195 174.637 236.224 174.876H230.782L232.529 209.007C232.594 210.257 233.136 211.434 234.043 212.295C234.951 213.157 236.154 213.637 237.406 213.637V213.637C238.656 213.637 239.859 213.156 240.765 212.295C241.671 211.433 242.212 210.256 242.275 209.007L244.029 174.876H238.956C238.993 174.797 239.029 174.724 239.072 174.645C239.797 173.195 240.732 171.108 241.775 168.565C242.101 167.761 242.442 166.891 242.775 166C243.116 166.072 245.898 166.637 247.196 166.34C248.377 166.079 249.797 165.413 250.326 164.253C250.455 163.983 250.526 163.689 250.536 163.389C250.546 163.09 250.494 162.792 250.383 162.513C250.272 162.235 250.105 161.983 249.892 161.772C249.679 161.561 249.424 161.397 249.145 161.29C247.427 160.717 244.797 162.666 243.855 163.963C243.797 164.036 243.282 164.942 242.964 165.514C243.094 165.145 243.232 164.79 243.369 164.413C243.645 163.688 243.891 162.92 244.167 162.108C244.282 161.717 244.406 161.318 244.522 160.913C244.638 160.507 244.739 160.079 244.848 159.659C245.08 158.681 245.268 157.681 245.435 156.666C246.087 156.905 248.42 157.717 249.63 157.63C250.84 157.543 252.34 157.101 253.036 156.036C253.203 155.788 253.317 155.508 253.371 155.214C253.425 154.92 253.418 154.618 253.35 154.327C253.282 154.036 253.154 153.762 252.976 153.523C252.797 153.283 252.571 153.083 252.311 152.934C250.703 152.101 247.826 153.659 246.681 154.768C246.609 154.84 245.877 155.753 245.485 156.261C245.587 155.645 245.681 155.036 245.761 154.42C245.985 152.623 246.152 150.797 246.326 148.985L246.5 147.326C246.732 147.413 249.485 148.434 250.848 148.34C252.051 148.253 253.558 147.811 254.253 146.746C254.42 146.498 254.534 146.218 254.588 145.924C254.642 145.63 254.635 145.328 254.567 145.037C254.499 144.746 254.372 144.472 254.193 144.233C254.014 143.993 253.788 143.793 253.529 143.645C251.92 142.811 249.036 144.369 247.898 145.478C247.811 145.565 246.761 146.876 246.514 147.224C246.638 146 246.782 144.782 246.971 143.601C247.214 141.989 247.56 140.394 248.007 138.826C248.116 138.869 250.985 139.949 252.355 139.847C253.558 139.768 255.065 139.326 255.761 138.253C255.928 138.005 256.042 137.726 256.096 137.432C256.15 137.138 256.142 136.836 256.074 136.545C256.006 136.254 255.879 135.98 255.7 135.74C255.522 135.5 255.296 135.3 255.036 135.152C253.427 134.326 250.551 135.876 249.406 136.992C249.319 137.079 248.188 138.492 248.007 138.761C248.007 138.674 248.051 138.572 248.08 138.485C248.574 136.924 249.207 135.411 249.971 133.963C250.377 133.159 250.819 132.413 251.261 131.703C251.775 131.956 254.159 133.101 255.391 133.152C256.623 133.203 258.138 132.927 258.949 131.942C259.144 131.714 259.289 131.449 259.376 131.163C259.463 130.876 259.49 130.575 259.455 130.278C259.421 129.98 259.325 129.694 259.174 129.435C259.024 129.176 258.821 128.952 258.58 128.775C257.072 127.775 254.043 128.978 252.782 129.985C252.717 130.043 252.058 130.71 251.623 131.145L252.232 130.181C252.993 129.043 253.753 128.05 254.406 127.174C254.797 126.674 255.167 126.239 255.507 125.826C256.145 125.826 258.703 125.739 259.819 125.217C260.935 124.695 262.159 123.768 262.427 122.5C262.513 122.199 262.534 121.884 262.487 121.575C262.44 121.266 262.327 120.971 262.156 120.71C261.985 120.448 261.759 120.227 261.495 120.061C261.23 119.894 260.933 119.787 260.623 119.746V119.746ZM240.717 168.036C239.63 170.536 238.63 172.579 237.913 173.992L237.522 174.768H237.398C237.362 174.492 237.326 174.188 237.275 173.847C237.058 172.253 236.717 169.985 236.181 167.326C236.007 166.471 235.811 165.558 235.601 164.63C236.447 164.288 237.275 163.901 238.08 163.471C239.172 164.41 240.392 165.191 241.703 165.79C241.355 166.55 241.036 167.319 240.717 168.036V168.036Z" fill="#0E3C47" stroke="#0E3C47" stroke-width="2" mask="url(#path-101-inside-2_130_1108)"/>
<path d="M247.406 124.851L247.406 124.851L247.408 124.845C247.483 124.629 247.601 124.43 247.756 124.262C247.911 124.093 248.099 123.958 248.308 123.865C248.518 123.772 248.744 123.723 248.973 123.72C249.197 123.718 249.42 123.761 249.627 123.847C250.228 124.147 250.708 124.956 251.001 126.024C251.288 127.065 251.353 128.195 251.253 128.92C251.253 128.92 251.252 128.924 251.25 128.931C251.247 128.945 251.241 128.971 251.23 129.014C251.213 129.083 251.189 129.175 251.161 129.282C251.105 129.498 251.032 129.773 250.959 130.045C250.922 130.184 250.885 130.322 250.85 130.45C250.612 130.288 250.318 130.082 250.01 129.853C249.635 129.573 249.243 129.261 248.902 128.95C248.555 128.635 248.285 128.342 248.133 128.102L248.133 128.102L248.13 128.097C247.823 127.625 247.546 127.053 247.397 126.471C247.247 125.887 247.233 125.328 247.406 124.851Z" fill="#0E3C47" stroke="#0E3C47"/>
</svg>
