<svg width="250" height="296" viewBox="0 0 250 296" fill="none" xmlns="http://www.w3.org/2000/svg">
<path d="M80.2274 20.4362C70.0753 23.6628 60.3572 28.0938 51.2862 33.6318C43.1843 38.6799 35.8032 44.7758 29.3394 51.7573C-3.12957 86.8897 -10.4497 142.358 16.4902 182.662C31.3475 204.893 60.6618 227.674 89.1349 225.229C109.27 223.501 127.934 213.38 148.483 215.182C169.649 217.057 188.848 219.87 208.543 209.254C229.635 197.9 242.898 175.394 247.484 152.111C253.169 123.214 249.16 89.703 236.066 63.2381C210.334 11.2663 134.901 2.62549 80.2274 20.4362Z" fill="#2C87A4"/>
<path opacity="0.7" d="M80.2274 20.4362C70.0753 23.6628 60.3572 28.0938 51.2862 33.6318C43.1843 38.6799 35.8032 44.7758 29.3394 51.7573C-3.12957 86.8897 -10.4497 142.358 16.4902 182.662C31.3475 204.893 60.6618 227.674 89.1349 225.229C109.27 223.501 127.934 213.38 148.483 215.182C169.649 217.057 188.848 219.87 208.543 209.254C229.635 197.9 242.898 175.394 247.484 152.111C253.169 123.214 249.16 89.703 236.066 63.2381C210.334 11.2663 134.901 2.62549 80.2274 20.4362Z" fill="white"/>
<path d="M182.492 262.339L150.227 251.573L184.903 233.336L216.262 239.61L182.492 262.339Z" fill="white"/>
<path opacity="0.15" d="M182.492 262.339L150.227 251.573L184.903 233.336L216.262 239.61L182.492 262.339Z" fill="#0E3C47"/>
<path d="M182.492 262.339L150.227 251.573L184.903 233.336L216.262 239.61L182.492 262.339Z" stroke="#0E3C47" stroke-linecap="round" stroke-linejoin="round"/>
<path d="M188.827 241.704L179.256 239.402L168.293 245.162L177.969 247.69L188.827 241.704Z" stroke="#0E3C47" stroke-linecap="round" stroke-linejoin="round"/>
<path d="M207.501 241.736L182.588 258.497L168.067 253.564L194.932 239.245L207.501 241.736Z" fill="#0E3C47" stroke="#0E3C47"/>
<path d="M197.565 219.882L182.492 262.339L216.262 239.61L229.531 204.029L197.565 219.882Z" fill="white"/>
<path opacity="0.15" d="M197.565 219.882L182.492 262.339L216.262 239.61L229.531 204.029L197.565 219.882Z" fill="#0E3C47"/>
<path d="M197.565 219.882L182.492 262.339L216.262 239.61L229.531 204.029L197.565 219.882Z" stroke="#0E3C47" stroke-linecap="round" stroke-linejoin="round"/>
<path d="M88.8594 263.19L109.183 291.936L141.764 280.086L119.345 255.191L88.8594 263.19Z" fill="white" stroke="#0E3C47" stroke-linecap="round" stroke-linejoin="round"/>
<path d="M134.587 255.488L163.576 279.492L123.527 295.201L99.3203 264.674L134.587 255.488Z" fill="white" stroke="#0E3C47" stroke-linecap="round" stroke-linejoin="round"/>
<path d="M137.147 0.254395H73.417V81.7914H137.147V0.254395Z" fill="#2C87A4"/>
<path opacity="0.5" d="M137.147 0.254395H73.417V81.7914H137.147V0.254395Z" fill="white"/>
<path d="M128.644 11.1255H81.9121V70.9203H128.644V11.1255Z" fill="white"/>
<path d="M198.652 54.4814H156.702V108.163H198.652V54.4814Z" fill="#2C87A4"/>
<path opacity="0.5" d="M198.652 54.4814H156.702V108.163H198.652V54.4814Z" fill="white"/>
<path d="M193.062 61.6377H162.293V101.006H193.062V61.6377Z" fill="white"/>
<path d="M52.2037 54.4814H10.2539V108.163H52.2037V54.4814Z" fill="#2C87A4"/>
<path opacity="0.5" d="M52.2037 54.4814H10.2539V108.163H52.2037V54.4814Z" fill="white"/>
<path d="M46.6211 61.6377H15.8525V101.006H46.6211V61.6377Z" fill="white"/>
<path opacity="0.28" d="M105.882 245.997C142.687 245.997 172.524 237.466 172.524 226.942C172.524 216.419 142.687 207.888 105.882 207.888C69.0761 207.888 39.2393 216.419 39.2393 226.942C39.2393 237.466 69.0761 245.997 105.882 245.997Z" fill="#2C87A4"/>
<path d="M187.92 196.856C187.92 196.856 183.996 190.871 171.634 192.371C159.271 193.872 132.734 198.934 122.168 200.739C111.601 202.544 95.3394 214.178 91.7228 221.671C88.1063 229.164 90.8167 233.633 113.737 234.829C136.658 236.024 168.284 217.483 178.268 211.771C188.252 206.058 187.313 199.841 187.92 196.856Z" fill="#0E3C47" stroke="#0E3C47" stroke-linecap="round" stroke-linejoin="round"/>
<path d="M126.044 112.712C126.044 112.712 119.636 124.947 117.265 127.306C116.004 128.677 114.461 129.764 112.74 130.495C111.019 131.226 109.161 131.583 107.29 131.542C102.549 131.542 85.6634 129.311 79.9676 140.142C74.2718 150.973 72.8721 183.089 73.1148 184.974C73.3576 186.86 58.6326 199.336 59.11 214.659C59.5873 229.983 75.9628 238.664 98.9886 235.375C122.015 232.085 127.945 215.125 127.945 205.24C127.945 195.356 132.929 189.941 138.39 179.567C143.851 169.193 151.917 158.387 149.304 149.2C146.691 140.014 136.731 135.778 133.406 134.599C130.081 133.419 139.579 122.564 137.201 117.181C134.822 111.797 130.081 109.647 126.044 112.712Z" fill="#2C87A4"/>
<path opacity="0.13" d="M125.275 180.722C115.17 184.437 106.82 180.971 95.7121 177.754C84.6036 174.536 89.3447 166.618 89.3447 158.458C89.3447 150.299 79.636 161.427 79.636 161.427L74.2072 167.091C73.5333 173.029 73.1741 178.999 73.1311 184.974C73.3415 186.659 61.602 196.808 59.458 209.845C64.912 210.475 70.3993 210.778 75.89 210.752C98.7218 210.752 125.995 199.127 128.657 193.679C131.157 188.552 135.243 176.029 135.72 174.528C135.461 175.154 133.981 177.521 125.275 180.722Z" fill="#0E3C47"/>
<path d="M126.044 112.712C126.044 112.712 119.636 124.947 117.265 127.306C116.004 128.677 114.461 129.764 112.74 130.495C111.019 131.226 109.161 131.583 107.29 131.542C102.549 131.542 85.6634 129.311 79.9676 140.142C74.2718 150.973 72.8721 183.089 73.1148 184.974C73.3576 186.86 58.6326 199.336 59.11 214.659C59.5873 229.983 75.9628 238.664 98.9886 235.375C122.015 232.085 127.945 215.125 127.945 205.24C127.945 195.356 132.929 189.941 138.39 179.567C143.851 169.193 151.917 158.387 149.304 149.2C146.691 140.014 136.731 135.778 133.406 134.599C130.081 133.419 139.579 122.564 137.201 117.181C134.822 111.797 130.081 109.647 126.044 112.712Z" stroke="#0E3C47" stroke-linecap="round" stroke-linejoin="round"/>
<path d="M141.949 160.496C141.949 160.496 136.488 164.026 136.011 167.316C135.534 170.605 136.723 177.673 132.216 181.444C127.71 185.215 124.385 185.207 124.385 185.207" stroke="#0E3C47" stroke-linecap="round" stroke-linejoin="round"/>
<path d="M83.916 172.154C83.916 172.154 83.916 180.642 94.1264 181.292" stroke="#0E3C47" stroke-linecap="round" stroke-linejoin="round"/>
<path d="M115.21 160.063C116.703 163.559 117.912 167.167 118.826 170.854" stroke="#0E3C47" stroke-linecap="round" stroke-linejoin="round"/>
<path d="M128.293 200.956C129.498 193.559 133.77 188.328 138.39 179.559C139.118 178.171 139.903 176.775 140.695 175.371C136.375 177.047 135.663 175.956 135.663 175.956C133.616 180.69 130.882 182.495 130.882 182.495L123.446 202.785L128.293 200.956Z" fill="white" stroke="#0E3C47" stroke-linecap="round" stroke-linejoin="round"/>
<path d="M61.9171 201.959C60.015 205.915 59.0545 210.252 59.1097 214.635C59.5789 229.935 75.9624 238.64 98.9883 235.35C122.014 232.061 127.945 215.1 127.945 205.216C127.93 202.179 128.459 199.164 129.506 196.311C86.189 205.914 68.7699 204.317 61.9171 201.959Z" fill="#0E3C47" stroke="#0E3C47" stroke-linecap="round" stroke-linejoin="round"/>
<path d="M111.594 184.22L105.663 171.384C105.619 171.288 105.555 171.202 105.477 171.13C105.399 171.058 105.307 171.003 105.207 170.966C105.006 170.892 104.783 170.901 104.587 170.991C104.392 171.08 104.241 171.243 104.166 171.443C104.092 171.643 104.101 171.864 104.191 172.058L110.129 184.846L111.594 184.22Z" fill="white" stroke="#0E3C47" stroke-linecap="round" stroke-linejoin="round"/>
<path d="M110.129 184.886L111.561 186.057L111.593 184.22L110.129 184.886Z" stroke="#0E3C47" stroke-linecap="round" stroke-linejoin="round"/>
<path d="M104.587 171.031C104.49 171.075 104.403 171.137 104.331 171.215C104.258 171.292 104.202 171.383 104.165 171.483C104.128 171.582 104.112 171.687 104.116 171.793C104.12 171.898 104.146 172.002 104.19 172.098L104.789 173.389L106.262 172.723L105.663 171.424C105.619 171.328 105.555 171.241 105.477 171.17C105.399 171.098 105.307 171.042 105.207 171.006C105.107 170.969 105.001 170.952 104.895 170.957C104.788 170.961 104.684 170.986 104.587 171.031Z" fill="white" stroke="#0E3C47" stroke-linecap="round" stroke-linejoin="round"/>
<path d="M103.018 132.953C99.9301 131.898 96.6437 131.541 93.3989 131.907C90.154 132.274 87.0328 133.355 84.2636 135.072C74.7733 140.952 66.3348 158.434 62.775 164.556C59.2151 170.677 47.4028 196.856 50.1132 197.45C51.5209 197.763 95.8979 189.427 99.7005 189.21C103.503 188.994 108.713 186.619 108.713 186.619C108.713 186.619 111.092 189.21 112.281 188.031C113.471 186.852 110.137 180.738 108.479 178.853C106.82 176.967 104.684 176.261 103.495 177.208C102.306 178.155 94.9513 184.974 94.9513 184.974L66.3915 183.995L89.9675 153.428" fill="#2C87A4"/>
<path opacity="0.13" d="M106.796 180.971C103.171 177.962 100.582 182.664 97.6535 185.039C94.7247 187.413 89.6761 187.149 74.2554 187.149C58.8347 187.149 58.2926 187.678 56.9658 188.464C55.6389 189.251 59.6276 177.393 69.4658 166.313C79.304 155.233 85.4205 146.015 85.4205 138.891C85.4205 136.596 84.6114 135.682 83.5353 135.537C74.3282 141.827 66.2214 158.595 62.7506 164.556C59.1907 170.678 47.3784 196.856 50.0887 197.45C51.4965 197.763 95.8735 189.427 99.6761 189.21C103.479 188.994 108.689 186.619 108.689 186.619C109.029 186.974 109.397 187.301 109.789 187.598C110.17 185.295 109.118 182.888 106.796 180.971Z" fill="#0E3C47"/>
<path d="M103.018 132.953C99.9301 131.898 96.6437 131.541 93.3989 131.907C90.154 132.274 87.0328 133.355 84.2636 135.072C74.7733 140.952 66.3348 158.434 62.775 164.556C59.2151 170.677 47.4028 196.856 50.1132 197.45C51.5209 197.763 95.8979 189.427 99.7005 189.21C103.503 188.994 108.713 186.619 108.713 186.619C108.713 186.619 111.092 189.21 112.281 188.031C113.471 186.852 110.137 180.738 108.479 178.853C106.82 176.967 104.684 176.261 103.495 177.208C102.306 178.155 94.9513 184.974 94.9513 184.974L66.3915 183.995L89.9675 153.428" stroke="#0E3C47" stroke-linecap="round" stroke-linejoin="round"/>
<path d="M108.714 186.619C108.714 186.619 111.092 189.211 112.282 188.031C113.471 186.852 110.138 180.738 108.479 178.853C106.821 176.968 104.685 176.262 103.495 177.208C102.306 178.155 94.9517 184.974 94.9517 184.974L66.3918 183.996L73.5358 174.729C68.8333 173.66 64.4373 171.544 60.6798 168.543C55.9792 177.994 47.8077 196.945 50.1135 197.426C51.5213 197.739 95.8983 189.403 99.7009 189.186C103.503 188.97 108.714 186.619 108.714 186.619Z" fill="white"/>
<path d="M106.796 180.971C103.172 177.962 100.583 182.663 97.6538 185.038C94.725 187.413 89.6764 187.148 74.2557 187.148C58.835 187.148 58.293 187.678 56.9661 188.464C55.8496 189.13 58.4952 180.834 65.2347 171.616C63.6165 170.745 62.0835 169.727 60.6554 168.575C55.9548 178.026 47.7833 196.976 50.0891 197.458C51.4969 197.771 95.8739 189.435 99.6764 189.218C103.479 189.002 108.689 186.627 108.689 186.627C109.029 186.982 109.397 187.309 109.79 187.606C110.17 185.295 109.118 182.888 106.796 180.971Z" fill="#2C87A4"/>
<path opacity="0.7" d="M106.796 180.971C103.172 177.962 100.583 182.663 97.6538 185.038C94.725 187.413 89.6764 187.148 74.2557 187.148C58.835 187.148 58.293 187.678 56.9661 188.464C55.8496 189.13 58.4952 180.834 65.2347 171.616C63.6165 170.745 62.0835 169.727 60.6554 168.575C55.9548 178.026 47.7833 196.976 50.0891 197.458C51.4969 197.771 95.8739 189.435 99.6764 189.218C103.479 189.002 108.689 186.627 108.689 186.627C109.029 186.982 109.397 187.309 109.79 187.606C110.17 185.295 109.118 182.888 106.796 180.971Z" fill="white"/>
<path d="M108.714 186.619C108.714 186.619 111.092 189.211 112.282 188.031C113.471 186.852 110.138 180.738 108.479 178.853C106.821 176.968 104.685 176.262 103.495 177.208C102.306 178.155 94.9517 184.974 94.9517 184.974L66.3918 183.996L73.5358 174.729C68.8333 173.66 64.4373 171.544 60.6798 168.543C55.9792 177.994 47.8077 196.945 50.1135 197.426C51.5213 197.739 95.8983 189.403 99.7009 189.186C103.503 188.97 108.714 186.619 108.714 186.619Z" stroke="#0E3C47" stroke-linecap="round" stroke-linejoin="round"/>
<path d="M107.29 184.974L88.0664 204.037L118.447 207.807L135.299 193.446L107.29 184.974Z" fill="white"/>
<path opacity="0.36" d="M107.29 184.974L88.0664 204.037L118.447 207.807L135.299 193.446L107.29 184.974Z" fill="#0E3C47"/>
<path d="M107.29 184.974L88.0664 204.037L118.447 207.807L135.299 193.446L107.29 184.974Z" stroke="#0E3C47" stroke-linecap="round" stroke-linejoin="round"/>
<path d="M106.82 180.971L107.289 184.974L88.0658 204.037L87.1191 201.919L106.82 180.971Z" fill="white" stroke="#0E3C47" stroke-linecap="round" stroke-linejoin="round"/>
<path d="M107.29 184.974L135.299 193.446L136.731 190.622L106.82 180.971L107.29 184.974Z" fill="white" stroke="#0E3C47" stroke-linecap="round" stroke-linejoin="round"/>
<path d="M128.106 201.501C128.106 201.501 123.316 202.071 123.446 202.785C123.575 203.499 127.491 203.355 128.357 203.355C129.223 203.355 130.622 201.341 128.106 201.501Z" fill="white" stroke="#0E3C47" stroke-linecap="round" stroke-linejoin="round"/>
<path d="M129.798 199.632C129.798 199.632 123.762 200.266 123.916 201.052C124.07 201.839 129.005 201.678 130.113 201.678C131.222 201.678 132.969 199.472 129.798 199.632Z" fill="white" stroke="#0E3C47" stroke-linecap="round" stroke-linejoin="round"/>
<path d="M131.877 197.739C131.877 197.739 125.841 198.372 125.995 199.159C126.149 199.945 131.084 199.792 132.192 199.792C133.301 199.792 135.04 197.586 131.877 197.739Z" fill="white" stroke="#0E3C47" stroke-linecap="round" stroke-linejoin="round"/>
<path d="M132.176 195.854C132.176 195.854 126.14 196.479 126.302 197.274C126.464 198.068 131.383 197.899 132.491 197.899C133.6 197.899 135.355 195.725 132.176 195.854Z" fill="white" stroke="#0E3C47" stroke-linecap="round" stroke-linejoin="round"/>
<path d="M60.4044 217.788C60.4044 217.788 57.694 211.209 66.1406 205.529C74.5872 199.849 106.197 196.255 113.738 199.247C121.278 202.24 149.927 225.562 149.927 225.562L146.302 229.149C146.302 229.149 124.288 229.742 114.943 227.352C105.599 224.961 101.942 223.805 101.942 223.805C101.942 223.805 94.1018 234.869 83.2442 235.166" fill="#0E3C47"/>
<path d="M60.4044 217.788C60.4044 217.788 57.694 211.209 66.1406 205.529C74.5872 199.849 106.197 196.255 113.738 199.247C121.278 202.24 149.927 225.562 149.927 225.562L146.302 229.149C146.302 229.149 124.288 229.742 114.943 227.352C105.599 224.961 101.942 223.805 101.942 223.805C101.942 223.805 94.1018 234.869 83.2442 235.166" stroke="#0E3C47" stroke-linecap="round" stroke-linejoin="round"/>
<path d="M146.61 231.242C152.972 233.794 159.673 235.415 166.505 236.056C177.363 236.955 180.68 228.282 180.68 225.626C180.68 222.971 176.157 223.532 171.634 224.126C167.112 224.72 155.955 225.321 153.236 225.025C150.518 224.728 143.293 225.859 146.61 231.242Z" fill="white" stroke="#0E3C47" stroke-linecap="round" stroke-linejoin="round"/>
<path d="M172.839 195.958C172.839 195.958 159.894 195.653 152.936 202.537C145.978 209.42 130.622 228.547 127.006 232.141C123.389 235.735 108.915 234.829 105.898 234.548C102.88 234.267 99.862 232.141 95.6468 233.946C91.4316 235.751 85.9947 238.76 85.0885 242.619C84.1824 246.478 83.5837 248.002 85.3879 248.299C87.1921 248.596 96.8523 247.072 101.941 247.072C107.03 247.072 119.433 246.173 126.674 244.087C133.915 242.001 154.716 229.726 162.856 224.945C170.995 220.163 185.509 211.49 187.888 203.419C190.267 195.348 183.964 193.551 180.347 194.145" fill="#0E3C47"/>
<path d="M172.839 195.958C172.839 195.958 159.894 195.653 152.936 202.537C145.978 209.42 130.622 228.547 127.006 232.141C123.389 235.735 108.915 234.829 105.898 234.548C102.88 234.267 99.862 232.141 95.6468 233.946C91.4316 235.751 85.9947 238.76 85.0885 242.619C84.1824 246.478 83.5837 248.002 85.3879 248.299C87.1921 248.596 96.8523 247.072 101.941 247.072C107.03 247.072 119.433 246.173 126.674 244.087C133.915 242.001 154.716 229.726 162.856 224.945C170.995 220.163 185.509 211.49 187.888 203.419C190.267 195.348 183.964 193.551 180.347 194.145" stroke="#0E3C47" stroke-linecap="round" stroke-linejoin="round"/>
<path d="M130.865 230.272C130.865 230.272 148.26 204.599 157.16 199.785C166.059 194.971 175.768 195.773 175.768 195.773" stroke="white" stroke-linecap="round" stroke-linejoin="round"/>
<path d="M124.166 233.649C118.6 235.422 108.373 234.772 105.898 234.532C102.88 234.235 99.862 232.125 95.6468 233.93C91.4316 235.735 85.9947 238.744 85.0885 242.603C84.1824 246.462 83.5837 247.986 85.3879 248.283C87.1921 248.58 96.8523 247.072 101.941 247.072C107.03 247.072 119.433 246.173 126.674 244.087C128.721 243.429 130.716 242.624 132.645 241.68C130.574 237.933 126.796 235.206 124.166 233.649Z" fill="white" stroke="#0E3C47" stroke-linecap="round" stroke-linejoin="round"/>
<path d="M114.943 234.532C114.943 234.532 120.372 236.939 121.577 239.61C122.783 242.282 123.689 244.697 123.689 245.595C123.689 246.494 133.64 244.103 136.634 241.11C139.627 238.118 131.779 230.047 129.093 230.047C126.407 230.047 125.776 230.945 122.459 231.836C119.142 232.727 114.336 232.141 114.943 234.532Z" fill="white" stroke="#0E3C47" stroke-linecap="round" stroke-linejoin="round"/>
<path d="M101.941 223.805C101.941 223.805 95.3072 220.516 95.0078 216.328" stroke="white" stroke-linecap="round" stroke-linejoin="round"/>
<path d="M89.6035 233.481C94.8652 231.258 99.7714 228.285 104.167 224.656C104.167 224.656 117.112 228.667 125.607 228.667" stroke="white" stroke-linecap="round" stroke-linejoin="round"/>
<path d="M137.823 136.548C136.398 135.797 134.922 135.146 133.406 134.599C130.081 133.427 139.579 122.564 137.2 117.181C134.822 111.797 130.081 109.647 126.044 112.712C126.044 112.712 119.636 124.947 117.265 127.306C116.004 128.677 114.461 129.764 112.74 130.495C111.019 131.226 109.161 131.583 107.289 131.542C106.391 131.553 105.494 131.62 104.603 131.742C104.15 136.957 104.514 149.449 117.734 152.963C130.186 156.268 135.51 146.079 137.823 136.548Z" fill="white"/>
<path d="M126.043 112.712C126.043 112.712 119.636 124.947 117.265 127.306C116.003 128.677 114.46 129.764 112.74 130.495C111.019 131.225 109.161 131.582 107.289 131.542C106.391 131.552 105.493 131.619 104.603 131.742C104.547 132.4 104.506 133.178 104.498 134.045C105.825 137.455 108.382 141.899 112.839 142.87C120.283 144.475 125.598 139.18 126.666 137.334C127.621 135.665 131.844 118.713 130.712 111.372C129.883 111.275 129.043 111.343 128.241 111.573C127.439 111.803 126.692 112.191 126.043 112.712Z" fill="#2C87A4"/>
<path opacity="0.7" d="M126.043 112.712C126.043 112.712 119.636 124.947 117.265 127.306C116.003 128.677 114.46 129.764 112.74 130.495C111.019 131.225 109.161 131.582 107.289 131.542C106.391 131.552 105.493 131.619 104.603 131.742C104.547 132.4 104.506 133.178 104.498 134.045C105.825 137.455 108.382 141.899 112.839 142.87C120.283 144.475 125.598 139.18 126.666 137.334C127.621 135.665 131.844 118.713 130.712 111.372C129.883 111.275 129.043 111.343 128.241 111.573C127.439 111.803 126.692 112.191 126.043 112.712Z" fill="white"/>
<path d="M137.823 136.548C136.398 135.797 134.922 135.146 133.406 134.599C130.081 133.427 139.579 122.564 137.2 117.181C134.822 111.797 130.081 109.647 126.044 112.712C126.044 112.712 119.636 124.947 117.265 127.306C116.004 128.677 114.461 129.764 112.74 130.495C111.019 131.226 109.161 131.583 107.289 131.542C106.391 131.553 105.494 131.62 104.603 131.742C104.15 136.957 104.514 149.449 117.734 152.963C130.186 156.268 135.51 146.079 137.823 136.548Z" stroke="#0E3C47" stroke-linecap="round" stroke-linejoin="round"/>
<path d="M125.889 139.124C125.889 139.124 122.961 140.487 122.006 144.74" stroke="#0E3C47" stroke-linecap="round" stroke-linejoin="round"/>
<path d="M133.163 98.1185C133.163 98.1185 134.587 93.409 131.27 91.7643C127.952 90.1196 115.129 95.0537 112.281 103.293C109.433 111.533 121.537 114.83 128.179 110.121C134.821 105.411 133.64 99.0571 133.64 99.0571L133.163 98.1185Z" fill="#0E3C47" stroke="#0E3C47" stroke-linecap="round" stroke-linejoin="round"/>
<path d="M112.281 103.293C112.281 103.293 109.603 110.417 114.546 114.012C119.49 117.606 126.731 110.746 126.731 110.746" stroke="#0E3C47" stroke-linecap="round" stroke-linejoin="round"/>
<path d="M126.287 120.711C126.287 120.711 120.825 114.83 124.596 104.264C128.366 93.6975 138.35 90.8574 150.259 91.4992C165.227 92.3015 166.61 107.794 166.141 111.557C165.845 113.865 165.369 116.148 164.717 118.384C164.717 118.384 170.647 125.677 167.322 130.154C163.997 134.63 152.371 132.504 147.856 126.383C143.342 120.261 129.822 122.147 129.11 122.62C128.398 123.094 126.287 120.711 126.287 120.711Z" fill="#0E3C47" stroke="#0E3C47" stroke-linecap="round" stroke-linejoin="round"/>
<path d="M157.161 130.627C156.481 130.346 155.875 129.915 155.389 129.368" stroke="white" stroke-linecap="round" stroke-linejoin="round"/>
<path d="M153.722 117.606C153.722 117.606 165.243 126.752 161.626 129.688C161.28 129.971 160.906 130.218 160.51 130.427" stroke="white" stroke-linecap="round" stroke-linejoin="round"/>
<path d="M152.104 114.99C155.963 114.89 159.795 115.673 163.301 117.277" stroke="white" stroke-linecap="round" stroke-linejoin="round"/>
<path d="M152.096 110.746L149.458 98.335" stroke="white" stroke-linecap="round" stroke-linejoin="round"/>
<path d="M129.531 110.618C129.086 110.466 128.641 110.297 128.18 110.121" stroke="white" stroke-linecap="round" stroke-linejoin="round"/>
<path d="M151.109 109.118C151.109 109.118 144.636 114.028 133.714 111.773" stroke="white" stroke-linecap="round" stroke-linejoin="round"/>
<path d="M149.789 104.216C149.789 104.216 145.841 106.173 139.271 106.173" stroke="white" stroke-linecap="round" stroke-linejoin="round"/>
<path d="M123.908 121.184C123.908 121.184 123.196 127.771 124.385 132.247C125.574 136.724 125.809 143.784 130.048 144.49C134.288 145.196 148.325 137.422 150.938 134.598C152.777 132.702 153.799 130.169 153.786 127.538C153.786 126.126 151.416 116.242 151.416 116.242C147.418 117.14 143.363 117.77 139.28 118.127C134.86 118.55 130.401 117.985 126.23 116.474C126.23 116.474 122.977 118.592 123.908 121.184Z" fill="white"/>
<path d="M126.286 116.475C126.286 116.475 122.961 118.593 123.908 121.184C123.908 121.184 123.196 127.771 124.385 132.248C125.356 135.898 125.688 141.273 128.107 143.48C126.108 139.139 125.081 128.613 130.121 124.088C135.704 119.082 149.539 116.707 149.539 116.707V116.627C147.492 117.036 143.932 117.654 139.361 118.095C134.935 118.532 130.467 117.978 126.286 116.475Z" fill="#2C87A4"/>
<path opacity="0.7" d="M126.286 116.475C126.286 116.475 122.961 118.593 123.908 121.184C123.908 121.184 123.196 127.771 124.385 132.248C125.356 135.898 125.688 141.273 128.107 143.48C126.108 139.139 125.081 128.613 130.121 124.088C135.704 119.082 149.539 116.707 149.539 116.707V116.627C147.492 117.036 143.932 117.654 139.361 118.095C134.935 118.532 130.467 117.978 126.286 116.475Z" fill="white"/>
<path d="M123.908 121.184C123.908 121.184 123.196 127.771 124.385 132.247C125.574 136.724 125.809 143.784 130.048 144.49C134.288 145.196 148.325 137.422 150.938 134.598C152.777 132.702 153.799 130.169 153.786 127.538C153.786 126.126 151.416 116.242 151.416 116.242C147.418 117.14 143.363 117.77 139.28 118.127C134.86 118.55 130.401 117.985 126.23 116.474C126.23 116.474 122.977 118.592 123.908 121.184Z" stroke="#0E3C47" stroke-linecap="round" stroke-linejoin="round"/>
<path d="M126.755 118.833C126.755 118.833 126.998 112.944 124.142 112.944C121.286 112.944 119.401 122.572 124.862 123.775" fill="white"/>
<path d="M126.755 118.833C126.755 118.833 126.998 112.944 124.142 112.944C121.286 112.944 119.401 122.572 124.862 123.775" fill="#2C87A4"/>
<path opacity="0.7" d="M126.755 118.833C126.755 118.833 126.998 112.944 124.142 112.944C121.286 112.944 119.401 122.572 124.862 123.775" fill="white"/>
<path d="M126.755 118.833C126.755 118.833 126.998 112.944 124.142 112.944C121.286 112.944 119.401 122.572 124.862 123.775" stroke="#0E3C47" stroke-linecap="round" stroke-linejoin="round"/>
<path d="M144.822 129.191C144.822 129.191 139.158 138.128 137.936 138.128C136.715 138.128 136.035 136.251 136.035 136.251" stroke="#0E3C47" stroke-linecap="round" stroke-linejoin="round"/>
<path d="M134.118 125.653C134.225 126.697 134.724 127.664 135.514 128.362C136.305 129.06 137.331 129.439 138.39 129.424" stroke="#0E3C47" stroke-linecap="round" stroke-linejoin="round"/>
<path d="M144.32 132.954C144.32 132.954 144.563 136.01 148.592 135.072" stroke="#0E3C47" stroke-linecap="round" stroke-linejoin="round"/>
<path d="M142.661 126.126C142.661 126.126 141.003 121.89 137.2 121.657" stroke="#0E3C47" stroke-width="1.5" stroke-linecap="round" stroke-linejoin="round"/>
<path d="M150.97 131.068C149.303 128.244 145.986 128.95 145.986 128.95" stroke="#0E3C47" stroke-width="1.5" stroke-linecap="round" stroke-linejoin="round"/>
<path d="M131.286 137.262C131.345 137.883 131.606 138.468 132.029 138.929C132.452 139.391 133.015 139.704 133.632 139.821" stroke="#0E3C47" stroke-linecap="round" stroke-linejoin="round"/>
<path d="M148.146 140.471C148.146 140.471 148.802 144.057 152.75 136.877C156.698 129.696 151.447 116.242 151.447 116.242" stroke="#0E3C47" stroke-linecap="round" stroke-linejoin="round"/>
<path opacity="0.13" d="M135.703 174.56C135.724 174.514 135.74 174.466 135.752 174.416L135.703 174.56Z" fill="#0E3C47"/>
</svg>
