<svg width="256" height="236" viewBox="0 0 256 236" fill="none" xmlns="http://www.w3.org/2000/svg">
<path d="M248.997 104.056C244.775 78.8042 226.401 65.9529 204.174 58.1793C188.764 52.7876 174.379 47.0751 160.24 39.281C144.85 30.7977 131.66 18.9769 116.005 10.8143C102.747 3.8938 87.6031 -0.897294 71.9815 1.57333C59.5362 3.54573 47.5895 10.0635 37.4324 18.5401C13.7029 38.3324 -0.716548 69.5906 0.308042 99.006C1.37362 129.718 18.1154 156.226 39.6318 175.561C52.9105 187.498 68.4228 197.183 85.6701 202.82C100.82 207.768 162.965 211.413 196.442 194.166C227.767 178.004 254.618 137.737 248.997 104.056Z" fill="#2C87A4"/>
<path opacity="0.7" d="M248.997 104.056C244.775 78.8042 226.401 65.9529 204.174 58.1793C188.764 52.7876 174.379 47.0751 160.24 39.281C144.85 30.7977 131.66 18.9769 116.005 10.8143C102.747 3.8938 87.6031 -0.897294 71.9815 1.57333C59.5362 3.54573 47.5895 10.0635 37.4324 18.5401C13.7029 38.3324 -0.716548 69.5906 0.308042 99.006C1.37362 129.718 18.1154 156.226 39.6318 175.561C52.9105 187.498 68.4228 197.183 85.6701 202.82C100.82 207.768 162.965 211.413 196.442 194.166C227.767 178.004 254.618 137.737 248.997 104.056Z" fill="white"/>
<path d="M27.459 199.981L165.826 147.108" stroke="#0E3C47" stroke-linecap="round" stroke-linejoin="round"/>
<path d="M182.418 194.139L183.811 214.402L214.993 234.037L248.545 212.129L254.167 193.443L211.79 179.916L182.418 194.139Z" fill="#2C87A4"/>
<path d="M181.399 192.091L206.72 177.888L254.275 192.971L216.427 216.272L181.399 192.091Z" fill="white" stroke="#0E3C47" stroke-linecap="round" stroke-linejoin="round"/>
<path d="M182.213 191.729L183.811 214.401L215.048 234.139L216.427 216.271" stroke="#0E3C47" stroke-linecap="round" stroke-linejoin="round"/>
<path d="M215.047 234.14L248.414 212L254.275 192.972" stroke="#0E3C47" stroke-linecap="round" stroke-linejoin="round"/>
<path d="M175.806 191.463L216.646 212.805L251.974 189.511C251.974 189.511 210.594 176.714 209.795 176.448C208.996 176.182 175.806 191.463 175.806 191.463Z" fill="white" stroke="#0E3C47" stroke-miterlimit="10"/>
<path d="M214.843 207.87L241.803 189.996" stroke="#0E3C47" stroke-linecap="round" stroke-linejoin="round"/>
<path d="M212.035 206.001L239.002 188.133" stroke="#0E3C47" stroke-linecap="round" stroke-linejoin="round"/>
<path d="M207.902 204.799L234.863 186.931" stroke="#0E3C47" stroke-linecap="round" stroke-linejoin="round"/>
<path d="M204.699 203.065L231.66 185.198" stroke="#0E3C47" stroke-linecap="round" stroke-linejoin="round"/>
<path d="M203.197 216.08L198.723 213.193" stroke="#0E3C47" stroke-linecap="round" stroke-linejoin="round"/>
<path d="M235.847 211.829L243.968 207.051" stroke="#0E3C47" stroke-linecap="round" stroke-linejoin="round"/>
<path d="M230.99 219.418L236.147 216.531" stroke="#0E3C47" stroke-linecap="round" stroke-linejoin="round"/>
<path d="M37.432 175.97L38.0442 175.614H36.6826C36.7259 175.341 36.802 174.974 36.9356 174.549C37.2337 173.6 37.8153 172.368 38.9507 171.236C41.1399 169.052 45.518 167.118 54.313 168.565C54.12 168.838 53.861 169.186 53.5384 169.584C52.7467 170.562 51.5767 171.833 50.0629 173.013C47.0814 175.335 42.799 177.279 37.432 175.97ZM30.3376 152.227C30.3102 152.237 30.2868 152.246 30.2674 152.252H30.158V152.167L29.8249 152.049C26.1289 150.741 24.3709 148.542 23.7385 146.006C23.0957 143.428 23.5975 140.427 24.6004 137.522C25.5999 134.627 27.0756 131.889 28.307 129.869C28.9217 128.861 29.4734 128.035 29.8709 127.461C29.9514 127.345 30.0255 127.24 30.0926 127.145C37.1184 137.737 37.0405 143.994 35.3748 147.559C34.5199 149.389 33.2227 150.57 32.1332 151.296C31.5887 151.658 31.0989 151.905 30.7478 152.06C30.5723 152.138 30.4321 152.193 30.3376 152.227ZM39.4007 185.766L35.5958 209.567L24.2805 209.903L20.2287 185.527L29.6659 185.636L29.8138 185.638V185.651L30.3078 185.657L39.4007 185.766ZM5.19558 158.381C13.9433 158.177 18.3437 160.852 20.5686 163.768C22.8768 166.793 22.9405 170.2 22.8881 171.32L22.8854 171.378L22.8301 171.398C17.4762 173.31 13.0453 170.056 9.85452 166.094C8.2721 164.128 7.03452 162.033 6.19142 160.425C5.77042 159.622 5.44909 158.943 5.23346 158.465C5.22045 158.437 5.20782 158.409 5.19558 158.381ZM40.1422 157.56L40.0681 157.61C40.0163 156.601 40.0414 153.429 42.1092 150.634C44.1088 147.932 48.1122 145.462 56.1872 145.796C56.0966 146.125 55.9565 146.583 55.7522 147.127C55.3192 148.281 54.6005 149.817 53.4594 151.352C51.1884 154.405 47.2309 157.473 40.4231 157.473H40.2694L40.1422 157.56Z" fill="#0E3C47" stroke="#0E3C47"/>
<path d="M94.1808 208.697C94.1808 210.976 88.6412 212.826 81.797 212.826C74.9527 212.826 69.4131 210.976 69.4131 208.697C69.4131 206.417 74.9595 204.602 81.797 204.602C88.6344 204.602 94.1808 206.431 94.1808 208.697Z" stroke="#0E3C47" stroke-linecap="round" stroke-linejoin="round"/>
<path d="M69.4131 208.696C69.4131 208.696 69.8707 217.098 71.8584 222.292C73.8461 227.485 82.4664 229.267 87.1522 227.185C90.6289 225.643 92.3844 220.933 93.2997 216.661" stroke="#0E3C47" stroke-linecap="round" stroke-linejoin="round"/>
<path d="M89.3994 223.056C90.0346 224.674 92.3229 224.694 93.7505 224.53C95.0361 224.46 96.2481 223.908 97.1445 222.985C98.0409 222.061 98.5558 220.834 98.5866 219.548C98.7141 217.577 98.1858 215.619 97.0838 213.979C96.6242 213.38 96.034 212.895 95.3581 212.559C94.6822 212.223 93.9384 212.046 93.1835 212.041C92.8125 212.038 92.4456 212.118 92.109 212.274C91.7724 212.43 91.4744 212.658 91.2363 212.942C90.9981 213.227 90.8257 213.56 90.7314 213.918C90.637 214.277 90.623 214.652 90.6904 215.016C90.7333 215.31 90.8615 215.586 91.0592 215.808C91.6876 216.49 92.5893 216.095 93.3406 216.388C93.6851 216.554 93.9871 216.797 94.2238 217.097C94.4605 217.398 94.6257 217.748 94.7068 218.122C95.0005 219.186 95.1508 220.169 94.4609 221.084C94.2143 221.375 93.8945 221.596 93.5344 221.723C93.1743 221.85 92.7868 221.879 92.4117 221.807C91.7286 221.718 91.1548 221.125 90.4444 221.125C90.2836 221.124 90.1243 221.157 89.9768 221.221C89.8293 221.285 89.6968 221.379 89.5876 221.497C89.4784 221.616 89.395 221.755 89.3426 221.907C89.2902 222.059 89.27 222.22 89.2832 222.38C89.2809 222.611 89.3202 222.84 89.3994 223.056V223.056Z" fill="white" stroke="#0E3C47" stroke-linecap="round" stroke-linejoin="round"/>
<path d="M92.6425 209.761C92.6425 209.876 92.5401 210.125 91.9979 210.451C91.4866 210.759 90.7135 211.054 89.7141 211.308C87.7229 211.815 84.9453 212.134 81.8584 212.134C78.7715 212.134 75.9938 211.815 74.0026 211.308C73.0033 211.054 72.2301 210.759 71.7189 210.451C71.1767 210.125 71.0742 209.876 71.0742 209.761C71.0742 209.646 71.1767 209.397 71.7189 209.071C72.2301 208.763 73.0033 208.468 74.0026 208.214C75.9938 207.707 78.7715 207.388 81.8584 207.388C84.9453 207.388 87.7229 207.707 89.7141 208.214C90.7135 208.468 91.4866 208.763 91.9979 209.071C92.5401 209.397 92.6425 209.646 92.6425 209.761Z" fill="#0E3C47" stroke="#0E3C47"/>
<path d="M79.139 202.234L79.139 202.234L79.1372 202.23C78.891 201.567 78.8363 200.849 78.9791 200.158C79.2544 198.999 80.2286 198.079 81.3713 197.356C82.6275 196.692 83.8249 195.921 84.9505 195.054L84.9663 195.041L84.9811 195.028C86.0799 194.032 86.981 192.396 86.4895 190.791L86.481 190.764L86.4694 190.737C86.1288 189.96 85.7269 189.21 85.2673 188.496C85.0052 187.94 84.9035 187.321 84.9737 186.71C85.0447 186.093 85.2882 185.508 85.6762 185.023C86.079 184.572 86.6195 184.266 87.2141 184.153C87.8072 184.04 88.4208 184.125 88.9605 184.395C89.4627 184.697 89.833 185.176 89.9975 185.739C90.1623 186.302 90.1084 186.907 89.8469 187.432C89.6678 187.741 89.4096 188.006 89.0945 188.311C89.065 188.339 89.0349 188.368 89.0044 188.398C88.7203 188.671 88.3947 188.984 88.1357 189.355L88.1355 189.355L88.128 189.366C87.7352 189.962 87.5258 190.661 87.5258 191.375C87.5258 192.089 87.7352 192.787 88.128 193.383L88.1279 193.383L88.1331 193.391C88.353 193.712 88.6342 194.008 88.8802 194.268C88.9543 194.346 89.0253 194.421 89.0904 194.492C89.3861 194.815 89.6039 195.1 89.7152 195.423C89.7852 195.77 89.7551 196.129 89.6282 196.459C89.4986 196.796 89.2738 197.088 88.9811 197.3C88.3048 197.767 87.5109 198.036 86.6895 198.075C85.7355 198.102 84.7869 198.228 83.859 198.451L83.8435 198.454L83.8283 198.459C83.0966 198.685 82.4311 199.086 81.8897 199.628C81.3482 200.169 80.9471 200.834 80.7212 201.566C80.4953 202.297 80.4514 203.073 80.5933 203.825C80.6387 204.066 80.7028 204.302 80.7845 204.531C80.0377 203.935 79.4658 203.142 79.139 202.234ZM81.7304 205.727C81.7301 205.727 81.7298 205.727 81.7295 205.726L81.9267 205.571L81.7304 205.727Z" fill="#0E3C47" stroke="#0E3C47"/>
<path opacity="0.7" d="M78.6758 202.397C78.3927 201.645 78.3311 200.828 78.4982 200.042C78.8192 198.677 79.9463 197.661 81.128 196.917C82.3606 196.259 83.5372 195.501 84.6457 194.651C85.684 193.716 86.4217 192.269 86.0119 190.931C85.6831 190.166 85.2877 189.43 84.8302 188.734C84.5168 188.085 84.3948 187.36 84.4782 186.645C84.5617 185.93 84.8472 185.253 85.3015 184.693C85.7764 184.152 86.4189 183.784 87.1269 183.649C87.8349 183.515 88.5676 183.62 89.2086 183.949C89.827 184.315 90.2831 184.902 90.4847 185.592C90.6864 186.281 90.6184 187.021 90.2947 187.662C89.8507 188.426 89.0515 188.911 88.5529 189.634C88.2104 190.148 88.0277 190.751 88.0277 191.368C88.0277 191.985 88.2104 192.588 88.5529 193.102C89.072 193.859 89.919 194.405 90.199 195.285C90.2975 195.733 90.2626 196.2 90.0988 196.628C89.9349 197.056 89.6492 197.427 89.2769 197.695C88.5204 198.222 87.63 198.525 86.7086 198.568C85.7883 198.595 84.8729 198.714 83.9764 198.923C83.3232 199.128 82.7297 199.488 82.2468 199.972C81.764 200.457 81.4063 201.052 81.2047 201.705C81.003 202.359 80.9634 203.051 81.0893 203.724C81.2151 204.396 81.5027 205.027 81.9272 205.564C82.4463 206.212 81.9682 205.844 81.1621 205.38C80.0077 204.709 79.1272 203.653 78.6758 202.397Z" fill="white"/>
<path d="M70.892 183.026L49.5761 99.1557L49.576 99.1551C49.1508 97.491 49.323 95.7307 50.0626 94.1803C50.8021 92.6302 52.0621 91.388 53.6235 90.6699C72.6106 82.0015 104.734 72.7127 129.842 73.0933C131.673 73.1227 133.428 73.833 134.763 75.0856C136.099 76.3383 136.918 78.0432 137.063 79.8673L142.596 149.618C142.72 151.188 142.338 152.756 141.504 154.093C140.671 155.429 139.432 156.463 137.967 157.043C137.966 157.044 137.966 157.044 137.965 157.044L70.892 183.026Z" fill="#0E3C47" stroke="#0E3C47"/>
<path opacity="0.5" d="M70.5464 183.696L49.0915 99.2789C48.6374 97.5014 48.8213 95.621 49.6113 93.965C50.4013 92.3091 51.7474 90.9822 53.4153 90.2154C72.4454 81.5272 104.645 72.2112 129.85 72.5934C131.805 72.6247 133.679 73.3832 135.105 74.721C136.531 76.0587 137.407 77.8795 137.561 79.8278L143.094 149.579C143.227 151.255 142.819 152.93 141.929 154.357C141.038 155.785 139.714 156.89 138.149 157.509L70.5464 183.696Z" fill="#0E3C47"/>
<path d="M163.281 193.526L163.281 193.526L163.275 193.528L124.806 209.819C124.805 209.819 124.805 209.819 124.805 209.819C124.552 209.925 124.276 209.963 124.004 209.928C123.731 209.892 123.473 209.785 123.256 209.617L123.256 209.617L107.231 197.284L107.231 197.284L107.228 197.282C107.006 197.114 106.833 196.89 106.728 196.632C106.623 196.375 106.589 196.094 106.63 195.819C106.672 195.544 106.786 195.285 106.962 195.07C107.138 194.854 107.369 194.69 107.63 194.594L107.63 194.595L107.636 194.592L146.955 179.709C146.956 179.709 146.957 179.708 146.957 179.708C147.201 179.619 147.462 179.591 147.718 179.625C147.975 179.659 148.22 179.756 148.432 179.906C148.432 179.906 148.432 179.906 148.433 179.907L163.58 190.825L163.58 190.825L163.585 190.828C163.813 190.988 163.993 191.206 164.107 191.459C164.221 191.712 164.264 191.991 164.233 192.267C164.202 192.543 164.097 192.805 163.93 193.026C163.762 193.248 163.538 193.42 163.281 193.526Z" fill="#0E3C47" stroke="#0E3C47"/>
<path d="M142.336 183.908C142.336 183.908 154.631 185.669 156.066 192.378C157.5 199.087 130.164 199.332 127.767 194.296C125.369 189.259 138.258 183.908 142.336 183.908Z" fill="white"/>
<path d="M151.919 190.051C151.919 190.051 149.938 180.639 144.324 178.981C138.709 177.322 125.642 179.213 125.642 179.213L98.4561 163.256L80.9971 175.268L88.743 178.407L88.6815 178.503C88.6815 178.503 89.952 178.987 92.008 179.731L96.5435 181.574L96.7484 181.41C103.832 183.86 113.907 187.061 119.802 187.71C119.802 187.71 123.429 191.47 127.145 192.187C127.145 192.187 129.522 192.74 130.867 192.344C132.413 191.765 134.121 191.792 135.649 192.419C137.548 193.211 143.948 196.2 145.498 195.374C147.049 194.548 144.672 191.866 140.321 189.416C140.321 189.416 149.023 192.023 150.847 192.023C152.671 192.023 153.381 191.709 153.299 191.34L151.919 190.051Z" fill="white"/>
<path d="M93.0394 171.05L120.669 185.321C122.445 187.368 124.679 189.211 127.349 189.764C128.786 189.945 130.239 189.965 131.68 189.825C134.053 189.797 136.407 190.255 138.596 191.172C140.785 192.089 142.762 193.445 144.406 195.155C144.406 195.155 143.395 195.442 141.55 194.678C139.706 193.913 134.918 190.583 130.867 192.316C126.817 194.05 119.802 187.682 119.802 187.682C119.802 187.682 91.3454 181.792 82.1377 175.657L93.0394 171.05Z" fill="#2C87A4"/>
<path opacity="0.5" d="M93.0394 171.05L120.669 185.321C122.445 187.368 124.679 189.211 127.349 189.764C128.786 189.945 130.239 189.965 131.68 189.825C134.053 189.797 136.407 190.255 138.596 191.172C140.785 192.089 142.762 193.445 144.406 195.155C144.406 195.155 143.395 195.442 141.55 194.678C139.706 193.913 134.918 190.583 130.867 192.316C126.817 194.05 119.802 187.682 119.802 187.682C119.802 187.682 91.3454 181.792 82.1377 175.657L93.0394 171.05Z" fill="white"/>
<path d="M138.19 188.255C138.19 188.255 151.08 193.033 152.76 191.839C154.44 190.644 147.384 186.72 139.707 184.085" stroke="#0E3C47" stroke-linecap="round" stroke-linejoin="round"/>
<path d="M143.477 181.656C146.171 182.557 148.583 184.148 150.471 186.27" stroke="#0E3C47" stroke-linecap="round" stroke-linejoin="round"/>
<path d="M151.639 189.744C151.639 189.744 149.788 182.066 145.71 179.431C141.632 176.797 125.334 179.254 125.334 179.254L95.792 161.563" stroke="#0E3C47" stroke-linecap="round" stroke-linejoin="round"/>
<path d="M81.5303 175.718C84.4811 176.913 88.2243 178.346 92.9442 180.025C109.727 186.017 119.802 187.696 119.802 187.696C119.802 187.696 125.717 193.907 131.558 192.009C135.492 190.726 142.828 196.562 145.465 195.36C148.101 194.159 141.517 189.58 133.361 185.983" stroke="#0E3C47" stroke-linecap="round" stroke-linejoin="round"/>
<path d="M164.481 147.388L181.947 127.418C181.947 127.418 177.241 118.662 171.387 108.902C165.533 99.1427 158.586 88.4685 155.629 84.4418C147.391 80.4219 159.044 129.896 159.044 129.896L164.481 147.388Z" fill="#2C87A4"/>
<path d="M182.308 128.326C174.863 112.137 155.628 84.1958 155.628 84.1958" stroke="#0E3C47" stroke-linecap="round" stroke-linejoin="round"/>
<path d="M93.9415 141.014L109.058 169.228L157.309 150.466L159.153 128.08C161.885 109.107 155.601 84.1483 155.601 84.1483L124.181 77.3984C124.181 77.3984 79.0986 92.8296 78.4155 95.7507C77.7325 98.6717 93.9415 141.014 93.9415 141.014Z" fill="#2C87A4"/>
<path d="M93.9415 141.014L109.058 169.228L157.309 150.466L159.153 128.08C161.885 109.107 155.601 84.1483 155.601 84.1483L124.181 77.3984C124.181 77.3984 79.0986 92.8296 78.4155 95.7507C77.7325 98.6717 93.9415 141.014 93.9415 141.014Z" stroke="#0E3C47" stroke-miterlimit="10"/>
<path opacity="0.2" d="M84.5149 104.009C85.6692 106.466 91.3455 119.221 93.3946 122.436C96.1269 99.2789 95.1774 96.7332 97.2608 95.5184L106.96 89.8673L101.892 86.7756L101.66 85.7246C101.66 85.7246 81.7485 93.2866 78.5518 95.8664C78.5518 95.8664 80.9151 96.3783 84.5149 104.009Z" fill="#0E3C47"/>
<path opacity="0.2" d="M181.209 127.466C183.32 126.238 176.373 128.312 174.201 129.439C172.432 130.353 170.52 131.602 168.607 131.042C166.694 130.483 165.69 128.237 165.192 126.265C163.621 120.123 163.511 113.707 162.159 107.517C161.11 103.14 159.72 98.8521 157.999 94.6929C157.999 94.6929 161.052 113.769 159.078 128.783L163.935 145.689C163.935 145.689 163.539 137.799 181.209 127.466Z" fill="#0E3C47"/>
<path d="M70.1433 163.256C75.1022 164.082 80.1766 163.904 85.0651 162.731C89.9535 161.559 94.5562 159.416 98.5995 156.431C98.5995 156.431 98.2375 134.694 96.1269 129.186C93.3946 122.109 81.1474 94.4676 78.5176 95.8667C76.6528 96.8563 72.8072 126.831 71.0039 146.644C70.273 154.861 69.8905 161.386 70.1433 163.256Z" fill="#2C87A4"/>
<path d="M70.1433 163.256C75.1022 164.082 80.1766 163.904 85.0651 162.731C89.9535 161.559 94.5562 159.416 98.5995 156.431C98.5995 156.431 98.2375 134.694 96.1269 129.186C93.3946 122.109 81.1474 94.4676 78.5176 95.8667C76.6528 96.8563 72.8072 126.831 71.0039 146.644C70.273 154.861 69.8905 161.386 70.1433 163.256Z" stroke="#0E3C47" stroke-miterlimit="10"/>
<path d="M98.8662 123.569C100.864 129.413 101.27 135.684 100.041 141.737" stroke="#0E3C47" stroke-linecap="round" stroke-linejoin="round"/>
<path d="M83.1768 146.521C87.6422 146.029 92.1206 147.328 95.6289 150.131" stroke="#0E3C47" stroke-linecap="round" stroke-linejoin="round"/>
<path d="M88.668 143.225C92.7059 145.127 96.0817 148.194 98.3606 152.029" stroke="#0E3C47" stroke-linecap="round" stroke-linejoin="round"/>
<path opacity="0.2" d="M82.6499 100.248C85.9833 106.534 84.3508 114.376 85.1977 121.44C85.6554 125.248 86.1472 129.159 87.9915 132.523C89.3576 134.967 91.3316 136.994 92.9163 139.287C94.8081 142.045 96.0975 145.17 96.7005 148.46C92.4587 144.187 87.8207 139.703 81.9054 138.604C84.7196 140.038 88.6335 143.327 87.6294 144.365C85.6622 146.221 83.2374 141.928 81.2087 143.136C80.3925 143.741 79.8147 144.613 79.5762 145.6C78.6623 148.345 78.341 151.253 78.6335 154.131L69.5898 158.301C69.5898 158.301 75.0543 100.583 78.5243 95.8462C80.276 96.9096 81.7028 98.432 82.6499 100.248V100.248Z" fill="#0E3C47"/>
<path d="M156.734 107.469C157.983 113.208 158.916 119.011 159.528 124.852" stroke="#0E3C47" stroke-linecap="round" stroke-linejoin="round"/>
<path d="M81.8789 176.217C81.8789 176.217 99.7887 168.832 101.688 165.979C103.586 163.127 99.2081 153.087 97.0496 151.408C94.8911 149.729 67.6302 154.923 68.3611 160.437C69.092 165.952 71.1617 165.358 70.3352 169.992C69.7955 173.029 73.4636 179.813 81.8789 176.217Z" fill="white"/>
<path d="M93.2104 170.702C95.7308 168.757 86.9399 171.944 83.7568 171.76C82.7185 171.698 81.5573 171.507 80.9358 170.675C80.7123 170.325 80.5796 169.926 80.5498 169.512C80.52 169.099 80.594 168.684 80.765 168.306C81.1158 167.557 81.6347 166.898 82.2814 166.382C84.0398 164.906 86.0444 163.751 88.2035 162.969C89.1461 162.607 90.6967 162.287 90.2527 161.017C89.3511 159.652 86.8374 161.051 85.2595 161.741C83.6817 162.43 81.6803 162.996 80.3073 161.932C79.1803 161.058 78.9822 159.345 79.5286 158.028C80.1573 156.741 81.1439 155.663 82.3702 154.923C82.8088 154.675 83.1777 154.32 83.4426 153.892C83.5032 153.784 83.5415 153.664 83.555 153.541C83.5686 153.417 83.5572 153.292 83.5215 153.173C83.4858 153.054 83.4266 152.943 83.3474 152.848C83.2681 152.752 83.1704 152.673 83.0601 152.616C83.0601 152.616 70.0819 156.158 69.1461 159.495C68.2103 162.833 70.6967 167.235 70.6967 167.235C70.6967 167.235 69.153 172.763 73.0874 175.718C77.0218 178.673 87.3702 175.22 93.2104 170.702Z" fill="#2C87A4"/>
<path opacity="0.7" d="M93.2104 170.702C95.7308 168.757 86.9399 171.944 83.7568 171.76C82.7185 171.698 81.5573 171.507 80.9358 170.674C80.7123 170.325 80.5796 169.926 80.5498 169.512C80.52 169.098 80.594 168.684 80.765 168.306C81.1158 167.557 81.6347 166.898 82.2814 166.382C84.0398 164.906 86.0444 163.751 88.2035 162.969C89.1461 162.607 90.6967 162.287 90.2527 161.017C89.3511 159.652 86.8374 161.051 85.2595 161.741C83.6817 162.43 81.6803 162.996 80.3073 161.932C79.1803 161.058 78.9822 159.345 79.5286 158.028C80.1573 156.741 81.1439 155.663 82.3702 154.923C82.8088 154.675 83.1777 154.32 83.4426 153.892C83.5032 153.784 83.5415 153.664 83.555 153.541C83.5686 153.417 83.5572 153.292 83.5215 153.173C83.4858 153.054 83.4266 152.943 83.3474 152.848C83.2681 152.752 83.1704 152.673 83.0601 152.616C83.0601 152.616 70.0819 156.158 69.1461 159.495C68.2103 162.833 70.6967 167.235 70.6967 167.235C70.6967 167.235 69.3852 172.742 73.3196 175.718C77.2541 178.694 87.3702 175.22 93.2104 170.702Z" fill="white"/>
<path d="M82.1379 176.217C82.1379 176.217 100.055 168.832 101.947 165.979C103.839 163.127 99.474 153.087 97.3155 151.408C95.1571 149.729 67.8893 154.923 68.627 160.437C69.3647 165.952 71.4275 165.358 70.6079 169.992C70.0614 173.029 73.7226 179.813 82.1379 176.217Z" stroke="#0E3C47" stroke-miterlimit="10"/>
<path d="M166.667 151.592C166.496 151.449 166.332 151.305 166.175 151.148C161.626 146.719 164.508 141.13 168.224 137.253C171.639 133.677 177.732 128.23 182.869 127.616C185.184 127.336 186.216 128.619 187.561 130.244C188.333 131.172 189.289 131.943 190.034 132.899C191.164 134.406 191.749 136.252 191.695 138.135C191.64 140.017 190.949 141.826 189.733 143.266C187.602 145.62 184.672 146.487 181.858 147.681C178.442 149.122 175.259 151.503 171.789 152.684C170.913 152.955 169.982 152.997 169.085 152.806C168.189 152.615 167.356 152.197 166.667 151.592Z" fill="white"/>
<path d="M181.284 147.32C184.016 145.211 186.749 143.095 188.607 140.202C189.38 139.144 189.839 137.891 189.932 136.584C189.932 135.281 189.139 133.902 187.883 133.616C186.858 133.377 185.833 133.882 184.877 134.373L182.022 135.861C181.695 136.081 181.3 136.178 180.908 136.134C180.362 135.997 180.116 135.356 180.082 134.769C179.993 133.206 180.867 131.766 181.714 130.449L183.272 128.005C183.172 127.912 183.043 127.855 182.907 127.844C182.771 127.833 182.634 127.868 182.52 127.944C177.177 129.227 172.419 132.264 169.01 136.571C163.545 143.669 163.087 146.126 164.863 149.47C166.639 152.814 169.802 156.24 181.284 147.32Z" fill="#2C87A4"/>
<path opacity="0.7" d="M181.284 147.32C184.016 145.225 186.749 143.095 188.607 140.202C189.38 139.144 189.839 137.891 189.932 136.584C189.932 135.281 189.139 133.902 187.883 133.616C186.858 133.377 185.833 133.882 184.877 134.373L182.022 135.861C181.695 136.081 181.3 136.178 180.908 136.134C180.362 135.997 180.116 135.356 180.082 134.769C179.993 133.206 180.867 131.766 181.714 130.449L183.272 128.005C183.172 127.912 183.043 127.855 182.907 127.844C182.771 127.833 182.634 127.868 182.52 127.944C177.177 129.227 172.419 132.264 169.01 136.571C163.545 143.669 163.087 146.126 164.863 149.47C166.639 152.814 169.939 156.035 181.284 147.32Z" fill="white"/>
<path d="M166.667 151.592C166.496 151.449 166.332 151.305 166.175 151.148C161.626 146.719 164.508 141.13 168.224 137.253C171.639 133.677 177.732 128.23 182.869 127.616C185.184 127.336 186.216 128.619 187.561 130.244C188.333 131.172 189.289 131.943 190.034 132.899C191.164 134.406 191.749 136.252 191.695 138.135C191.64 140.017 190.949 141.826 189.733 143.266C187.602 145.62 184.672 146.487 181.858 147.681C178.442 149.122 175.259 151.503 171.789 152.684C170.913 152.955 169.982 152.997 169.085 152.806C168.189 152.615 167.356 152.197 166.667 151.592Z" stroke="#0E3C47" stroke-miterlimit="10"/>
<path d="M98.4771 24.3349C98.3015 22.6721 98.4625 20.991 98.9507 19.3917C99.4389 17.7924 100.244 16.3076 101.319 15.0257C103.497 12.4694 106.33 10.5536 109.515 9.48389" stroke="#0E3C47" stroke-linecap="round" stroke-linejoin="round"/>
<path d="M129.569 69.3109C129.139 74.4228 128.975 86.4688 129.276 91.5943L109.972 82.599C110.656 77.9649 110.908 69.543 109.754 65.0044L129.563 69.3109" fill="white"/>
<path d="M129.569 69.3109C129.139 74.4228 128.975 86.4688 129.276 91.5943L109.972 82.599C110.656 77.9649 110.908 69.543 109.754 65.0044L129.563 69.3109" stroke="#0E3C47" stroke-miterlimit="10"/>
<path d="M126.654 74.4578C127.27 74.0285 127.826 73.4644 128.295 72.9059C128.13 73.361 127.932 73.8395 127.698 74.3156C126.664 76.4201 125.005 78.3188 122.379 78.2363C121.021 78.1912 119.638 77.5546 118.301 76.5647C116.968 75.5778 115.722 74.2695 114.648 72.9509C113.582 71.6425 112.697 70.3376 112.075 69.3548C112.113 69.3768 112.152 69.399 112.191 69.4215C113.281 70.0491 114.764 70.8875 116.33 71.7295C117.894 72.5708 119.549 73.4193 120.982 74.0652C121.699 74.388 122.367 74.6633 122.945 74.8621C123.512 75.057 124.033 75.1932 124.441 75.2089C125.251 75.2403 126.006 74.9099 126.654 74.4578Z" fill="#0E3C47" stroke="#0E3C47"/>
<path d="M135.656 24.3553C135.656 24.3553 110.711 19.0182 103.655 25.536C96.5988 32.0538 98.3611 39.3155 98.3611 39.3155L99.0032 41.4108C98.8241 41.4086 98.6453 41.4269 98.4704 41.4654C96.592 41.909 94.6863 44.1953 95.3147 47.4645C95.9431 50.7336 99.9458 57.9134 102.897 57.1491C103.232 57.0644 103.554 56.9335 103.853 56.76C104.837 59.7152 105.704 62.1654 106.175 63.1618C108.054 67.1203 122.35 75.358 125.704 74.2182C129.058 73.0784 137.856 56.0093 138.286 51.887C138.716 47.7648 135.656 24.3553 135.656 24.3553Z" fill="white"/>
<path d="M135.929 28.0064C132.91 31.2073 127.917 31.6032 123.586 30.8115C119.255 30.0198 115.102 28.2658 110.71 27.9245C109.507 27.7586 108.281 27.9165 107.158 28.3818C105.355 29.2554 104.426 31.3779 104.426 33.3845C104.426 35.391 105.109 37.3156 105.792 39.1993C106.475 41.083 107.158 43.0145 107.158 45.0142C107.158 45.9423 106.967 46.8501 106.933 47.7441C106.891 51.6045 107.557 55.4399 108.9 59.0599C111.831 67.2156 119.372 70.5053 126.933 73.3922C126.933 73.3922 124.201 75.6513 118.805 72.778C116.913 71.7747 109.768 66.9631 109.768 66.9631C107.533 65.5347 105.881 63.3568 105.109 60.8207L103.743 56.5346C103.1 56.9467 102.324 57.0997 101.573 56.963C100.821 56.8262 100.149 56.4097 99.6925 55.7975C97.7321 53.5931 94.795 49.5527 95.0409 46.3723C95.2868 43.1919 95.8537 41.8133 98.8319 41.5949C99.6616 41.5226 100.494 41.7046 101.217 42.1167C101.941 42.5288 102.522 43.1515 102.882 43.9017L100.553 30.0607C100.553 30.0607 107.541 23.4474 112.561 24.4302C117.582 25.413 128.955 27.242 131.803 26.5118C133.14 26.1949 134.452 25.7844 135.731 25.2833L135.929 28.0064Z" fill="#2C87A4"/>
<path opacity="0.5" d="M135.929 28.0065C132.91 31.2074 127.917 31.6032 123.586 30.8115C119.255 30.0198 115.102 28.2658 110.71 27.9246C109.507 27.7587 108.281 27.9165 107.158 28.3819C105.355 29.2554 104.426 31.378 104.426 33.3845C104.426 35.3911 105.109 37.3157 105.792 39.1994C106.475 41.083 107.158 43.0145 107.158 45.0142C107.158 45.9424 106.967 46.8501 106.933 47.7442C106.891 51.6045 107.557 55.4399 108.9 59.0599C111.831 67.2157 119.365 70.4917 126.919 73.3922C126.919 73.3922 124.119 75.6035 119.843 73.2216C117.971 72.1774 109.768 66.9768 109.768 66.9768C107.533 65.5484 105.881 63.3705 105.109 60.8344L103.743 56.5483C103.1 56.9604 102.324 57.1134 101.573 56.9767C100.821 56.8399 100.149 56.4234 99.6925 55.8112C97.7321 53.6068 94.795 49.5664 95.0409 46.386C95.2868 43.2056 95.56 42.1682 98.5381 41.9703C99.3711 41.8894 100.211 42.0284 100.973 42.3733C101.735 42.7182 102.394 43.257 102.882 43.9359L100.553 30.0949C100.553 30.0949 107.541 23.4816 112.561 24.4644C117.582 25.4471 128.955 27.2762 131.803 26.546C133.14 26.229 134.452 25.8185 135.731 25.3175L135.929 28.0065Z" fill="white"/>
<path d="M121.556 46.727C121.556 47.27 121.456 47.7398 121.314 48.0551C121.243 48.2133 121.171 48.3109 121.117 48.3623C121.101 48.3773 121.089 48.3864 121.08 48.3918C121.051 48.375 120.956 48.3091 120.84 48.0556C120.698 47.7417 120.596 47.2727 120.596 46.727C120.596 46.1803 120.696 45.7127 120.837 45.3996C120.952 45.1469 121.047 45.0798 121.077 45.0624C121.085 45.0677 121.097 45.0764 121.111 45.0904C121.166 45.142 121.239 45.2404 121.311 45.3998C121.454 45.7173 121.556 46.1886 121.556 46.727ZM121.066 48.3991C121.066 48.399 121.067 48.3987 121.068 48.3983C121.067 48.399 121.066 48.3992 121.066 48.3991ZM121.062 45.0545C121.062 45.0544 121.063 45.0546 121.065 45.0553C121.063 45.0549 121.062 45.0546 121.062 45.0545Z" fill="#0E3C47" stroke="#0E3C47"/>
<path d="M132.389 46.1742C132.389 46.7173 132.289 47.187 132.147 47.5023C132.076 47.6606 132.004 47.7582 131.95 47.8096C131.933 47.8251 131.921 47.8343 131.912 47.8396C131.904 47.8343 131.891 47.825 131.875 47.8094C131.82 47.7578 131.748 47.66 131.676 47.5015C131.534 47.1856 131.432 46.7152 131.429 46.1714C131.426 45.6301 131.526 45.1619 131.668 44.8478C131.786 44.5889 131.883 44.5246 131.912 44.5088C131.941 44.5247 132.035 44.589 132.149 44.8431C132.29 45.1568 132.389 45.6263 132.389 46.1742ZM131.899 47.8464C131.899 47.8463 131.9 47.846 131.901 47.8456C131.9 47.8463 131.899 47.8465 131.899 47.8464ZM131.923 47.8456C131.925 47.846 131.926 47.8463 131.926 47.8464C131.926 47.8464 131.925 47.8463 131.923 47.8456Z" fill="#0E3C47" stroke="#0E3C47"/>
<path d="M129.61 61.5439C128.073 62.424 126.366 62.7653 124.569 61.8784" stroke="#0E3C47" stroke-linecap="round" stroke-linejoin="round"/>
<path d="M116.866 41.4517C119.155 41.7747 121.488 41.5189 123.653 40.7078" stroke="#0E3C47" stroke-width="2" stroke-linecap="round" stroke-linejoin="round"/>
<path d="M129.549 39.4961C130.954 39.6678 132.38 39.5374 133.73 39.1136" stroke="#0E3C47" stroke-width="2" stroke-linecap="round" stroke-linejoin="round"/>
<path d="M126.912 45.0688C127.108 46.4793 127.308 47.8921 127.513 49.3071C127.565 49.9201 127.712 50.5212 127.95 51.0884C128.199 51.5862 128.578 52.0071 129.047 52.3064C129.516 52.6057 130.058 52.7721 130.614 52.7878C130.942 52.7454 131.275 52.7925 131.577 52.9243C131.71 53.018 131.816 53.1448 131.884 53.2921C131.953 53.4394 131.981 53.6021 131.967 53.7638C131.895 54.3156 131.628 54.8237 131.215 55.197C130.525 55.9554 129.72 56.6023 128.831 57.1148" stroke="#0E3C47" stroke-linecap="round" stroke-linejoin="round"/>
<path d="M98.4561 45.7646C99.5704 46.694 100.427 47.8938 100.944 49.2491C101.46 50.6043 101.62 52.0695 101.407 53.5041" stroke="#0E3C47" stroke-linecap="round" stroke-linejoin="round"/>
<path d="M98.0537 49.3344C98.1248 49.1779 98.2327 49.0409 98.3684 48.9351C98.504 48.8293 98.6632 48.7579 98.8324 48.727C99.1679 48.6555 99.5147 48.6555 99.8501 48.727C100.089 48.7643 100.319 48.8404 100.533 48.9522C100.799 49.1235 100.997 49.3816 101.093 49.6825" stroke="#0E3C47" stroke-linecap="round" stroke-linejoin="round"/>
<path d="M104.836 52.0779C104.836 52.0779 106.325 56.3367 102.636 57.2853C99.6921 58.0497 95.6894 50.8767 95.0541 47.6008C94.8636 46.779 94.8661 45.9243 95.0617 45.1037C95.2572 44.2831 95.6404 43.5189 96.1812 42.8711C96.7151 42.2463 97.4319 41.8047 98.2304 41.6085C100.409 41.0898 102.581 43.731 103.954 45.9014C104.368 46.5933 104.824 47.2589 105.321 47.8943" stroke="#0E3C47" stroke-linecap="round" stroke-linejoin="round"/>
<path d="M103.599 56.8894C104.583 59.8582 105.444 62.3016 105.915 63.298C107.793 67.2633 122.09 75.4941 125.444 74.3544C128.797 73.2146 137.595 56.1455 138.032 52.0232C138.47 47.901 135.423 24.4915 135.423 24.4915C135.423 24.4915 110.478 19.1544 103.422 25.6722C96.3657 32.19 98.1007 39.4517 98.1007 39.4517" stroke="#0E3C47" stroke-miterlimit="10"/>
<path d="M141.435 13.1074C141.435 13.1074 145.287 21.1199 140.369 26.573C135.451 32.0261 124.208 27.5353 124.208 27.5353" stroke="#0E3C47" stroke-linecap="round" stroke-linejoin="round"/>
<path d="M98.5267 23.9762L98.527 23.976L98.6645 23.8784L98.7148 23.7171C100.337 18.5077 103.148 15.3894 106.478 13.5949C109.825 11.7917 113.745 11.3 117.614 11.4428C121.48 11.5856 125.255 12.3602 128.29 13.0542C128.77 13.1638 129.233 13.2719 129.675 13.3752C130.625 13.5967 131.48 13.7963 132.202 13.9422C132.733 14.0495 133.209 14.1311 133.61 14.1718C133.998 14.2112 134.368 14.2183 134.665 14.1434C135.569 13.9146 136.16 13.5326 136.493 13.003C136.819 12.4832 136.839 11.9123 136.808 11.4473C136.797 11.276 136.778 11.1005 136.76 10.9436C136.754 10.8899 136.748 10.8383 136.743 10.7899C136.722 10.5867 136.71 10.4256 136.718 10.2905C136.726 10.1576 136.751 10.0842 136.777 10.0413C136.798 10.0072 136.837 9.96119 136.944 9.9175C137.503 9.68947 138.705 9.7574 139.829 10.854C140.942 11.9398 141.985 14.0576 142.082 17.8823C142.173 21.4599 139.314 24.2712 134.884 25.8646C130.48 27.4486 124.698 27.7462 119.365 26.3872C116.04 25.5385 112.607 25.2772 109.695 25.7819C106.789 26.2854 104.325 27.5697 103.09 29.8851L103.069 29.9249L103.055 29.9679C102.437 31.8967 102.817 33.7187 103.532 35.3921C104.043 36.5862 104.75 37.7537 105.41 38.8443C105.661 39.2594 105.906 39.6634 106.13 40.0535C106.407 40.5392 106.773 41.2052 107.112 41.9612C107.651 43.1705 108.115 44.5459 108.14 45.7082C108.153 46.2837 108.057 46.7733 107.839 47.1599C107.628 47.536 107.281 47.8522 106.715 48.057L106.713 48.0578C106.444 48.1564 106.224 48.1511 106.032 48.0878C105.831 48.0215 105.623 47.8791 105.412 47.6459C104.98 47.1705 104.612 46.4076 104.311 45.538L104.291 45.4803L104.258 45.4291C103.558 44.3521 102.656 43.1574 101.639 42.2908C100.633 41.4338 99.4149 40.816 98.1229 41.12L98.1228 41.12L98.1181 41.1211C97.4051 41.2963 96.75 41.645 96.2092 42.1326C94.0741 39.6192 93.1262 37.28 92.8872 35.1899C92.6352 32.986 93.1662 31.0122 93.9995 29.3478C94.8344 27.6803 95.9677 26.3341 96.8984 25.4018C97.3627 24.9368 97.7736 24.5775 98.067 24.3357C98.2136 24.2148 98.3307 24.1235 98.41 24.063C98.4497 24.0328 98.4799 24.0103 98.4997 23.9958L98.5215 23.98L98.5262 23.9766L98.5267 23.9762Z" fill="#0E3C47" stroke="#0E3C47"/>
<path opacity="0.5" d="M141.728 12.9643C141.711 12.9322 141.691 12.9023 141.666 12.8756C140.341 9.5382 137.889 8.99221 136.755 9.46313C135.198 10.0978 137.862 12.8278 134.542 13.6673C131.222 14.5067 106.113 2.86342 98.7495 22.1234C98.9704 19.5955 99.9541 17.1941 101.571 15.237C103.704 12.7205 106.483 10.8328 109.61 9.77708C109.684 9.74236 109.742 9.6816 109.773 9.6066C109.804 9.5316 109.806 9.44769 109.779 9.37117C109.752 9.29464 109.697 9.23096 109.625 9.19246C109.554 9.15396 109.471 9.1434 109.392 9.16283C106.162 10.26 103.293 12.216 101.092 14.8207C99.1457 17.1563 98.082 20.1009 98.087 23.1403C95.7445 23.6419 93.5947 24.8031 91.8916 26.4866C90.1886 28.1701 89.0035 30.3055 88.4763 32.6406C88.4579 32.7247 88.4734 32.8127 88.5194 32.8855C88.5654 32.9583 88.6383 33.01 88.7222 33.0296H88.7905C88.8647 33.03 88.9369 33.0053 88.9952 32.9594C89.0535 32.9135 89.0946 32.8493 89.1116 32.7771C89.6016 30.6171 90.6844 28.6364 92.2385 27.0571C93.7925 25.4779 95.7562 24.3626 97.9094 23.8364C96.0241 25.3516 87.4722 33.0842 96.2086 42.8643C96.7425 42.2395 97.4592 41.7979 98.2577 41.6017C100.375 41.1035 102.479 43.5741 103.859 45.6967C104.474 47.4711 105.437 49.0613 106.905 48.5222C109.583 47.553 108.681 44.202 107.588 41.7519C107.24 40.9738 106.864 40.2913 106.584 39.7999C104.904 36.8789 102.418 33.6575 103.551 30.1154C105.819 25.8634 112.711 25.1946 119.262 26.8667C120.804 27.2579 122.376 27.5181 123.961 27.6447C123.996 27.7257 124.059 27.7912 124.139 27.829C126.997 28.9159 130.017 29.5157 133.073 29.6035C135.86 29.6035 138.715 28.921 140.662 26.778C145.614 21.243 141.769 13.0462 141.728 12.9643ZM140.122 26.3548C136.468 30.4088 129.05 28.7299 125.853 27.7198C134.194 27.8495 141.885 24.4507 142.506 18.7655C142.649 20.1261 142.51 21.5014 142.1 22.8067C141.691 24.1119 141.017 25.3194 140.122 26.3548V26.3548Z" fill="#0E3C47"/>
<path d="M102.042 27.9174C103.784 24.6414 107.698 23.0308 111.407 22.8874C115.116 22.7441 118.75 23.802 122.336 24.6005C125.922 25.399 129.802 25.9655 133.333 24.7984C136.864 23.6313 139.945 20.369 139.713 16.6699" stroke="white" stroke-width="0.5" stroke-linecap="round" stroke-linejoin="round"/>
<path d="M101.332 25.5697C101.954 23.1263 103.893 21.229 105.977 19.8026C109.171 17.6211 112.845 16.2442 116.687 15.7896" stroke="white" stroke-width="0.5" stroke-linecap="round" stroke-linejoin="round"/>
<path d="M121.989 90.2858L121.989 90.2857L121.989 90.2856L121.989 90.2856L122.059 90.2498L122.061 90.2484C122.062 90.2481 122.063 90.2477 122.063 90.2474C122.117 90.2283 122.2 90.203 122.313 90.1721C122.537 90.1108 122.849 90.0357 123.224 89.9515C123.972 89.7834 124.948 89.5839 125.92 89.3922C126.89 89.2006 127.853 89.0175 128.572 88.8822C128.763 88.8464 128.937 88.8139 129.089 88.7855C129.06 89.0033 129.026 89.2668 128.988 89.5674C128.875 90.4684 128.731 91.7043 128.606 93.0432C128.481 94.3811 128.376 95.827 128.34 97.1466C128.312 98.2213 128.329 99.2356 128.428 100.046L126.097 100.458C126.01 100.302 125.891 100.094 125.747 99.846C125.418 99.2809 124.953 98.5082 124.412 97.6789C123.344 96.0442 121.925 94.1072 120.629 93.1625C120.113 92.7862 120.024 92.4766 120.034 92.2618C120.046 92.005 120.205 91.7037 120.505 91.3807C120.796 91.0673 121.165 90.7928 121.471 90.5923C121.623 90.4934 121.755 90.4155 121.848 90.3627C121.894 90.3364 121.931 90.3164 121.955 90.3034L121.982 90.2892L121.988 90.2861L121.989 90.2858Z" fill="#0E3C47" stroke="#0E3C47"/>
<path d="M126.845 137.584L126.798 99.8258L127.718 99.3844L138.14 135.099L134.771 143.57L126.845 137.584Z" fill="#0E3C47" stroke="#0E3C47"/>
<path d="M126.018 83.5814L130.246 77.9508C130.303 77.8647 130.38 77.7927 130.469 77.7404C130.559 77.6881 130.659 77.6568 130.762 77.649C130.866 77.6411 130.969 77.6568 131.066 77.6949C131.162 77.733 131.248 77.7925 131.318 77.8689L136.721 83.2674C136.836 83.3747 136.91 83.518 136.931 83.6734C136.952 83.8288 136.919 83.9867 136.837 84.1206L130.348 95.682C130.29 95.819 130.189 95.9334 130.06 96.0077C129.931 96.082 129.782 96.1121 129.634 96.0936C129.486 96.0751 129.349 96.0088 129.242 95.9049C129.136 95.8011 129.066 95.6653 129.044 95.5182L125.902 84.1956C125.874 84.091 125.871 83.9817 125.891 83.8755C125.911 83.7693 125.954 83.6688 126.018 83.5814Z" fill="white"/>
<path d="M126.018 83.5814L130.246 77.9508C130.303 77.8647 130.38 77.7927 130.469 77.7404C130.559 77.6881 130.659 77.6568 130.762 77.649C130.866 77.6411 130.969 77.6568 131.066 77.6949C131.162 77.733 131.248 77.7925 131.318 77.8689L136.721 83.2674C136.836 83.3747 136.91 83.518 136.931 83.6734C136.952 83.8288 136.919 83.9867 136.837 84.1206L130.348 95.682C130.29 95.819 130.189 95.9334 130.06 96.0077C129.931 96.082 129.782 96.1121 129.634 96.0936C129.486 96.0751 129.349 96.0088 129.242 95.9049C129.136 95.8011 129.066 95.6653 129.044 95.5182L125.902 84.1956C125.874 84.091 125.871 83.9817 125.891 83.8755C125.911 83.7693 125.954 83.6688 126.018 83.5814Z" stroke="#0E3C47" stroke-linecap="round" stroke-linejoin="round"/>
<path d="M108.75 77.0709L125.143 83.5955C125.231 83.6258 125.311 83.6736 125.38 83.7359C125.448 83.7982 125.503 83.8738 125.542 83.9581C125.58 84.0423 125.601 84.1335 125.603 84.2261C125.605 84.3186 125.588 84.4106 125.553 84.4964L121.346 96.3854C121.316 96.4858 121.263 96.5779 121.192 96.6548C121.121 96.7317 121.034 96.7912 120.936 96.8288C120.838 96.8664 120.733 96.8811 120.629 96.8717C120.525 96.8622 120.424 96.829 120.335 96.7745L101.892 86.7759C101.798 86.7313 101.716 86.6658 101.651 86.5846C101.587 86.5033 101.541 86.4084 101.519 86.3071C101.497 86.2057 101.498 86.1006 101.522 85.9997C101.546 85.8989 101.593 85.8049 101.66 85.7249L107.923 77.3098C108.013 77.1813 108.144 77.0875 108.294 77.044C108.445 77.0005 108.606 77.01 108.75 77.0709V77.0709Z" fill="white"/>
<path d="M108.75 77.0709L125.143 83.5955C125.231 83.6258 125.311 83.6736 125.38 83.7359C125.448 83.7982 125.503 83.8738 125.542 83.9581C125.58 84.0423 125.601 84.1335 125.603 84.2261C125.605 84.3186 125.588 84.4106 125.553 84.4964L121.346 96.3854C121.316 96.4858 121.263 96.5779 121.192 96.6548C121.121 96.7317 121.034 96.7912 120.936 96.8288C120.838 96.8664 120.733 96.8811 120.629 96.8717C120.525 96.8622 120.424 96.829 120.335 96.7745L101.892 86.7759C101.798 86.7313 101.716 86.6658 101.651 86.5846C101.587 86.5033 101.541 86.4084 101.519 86.3071C101.497 86.2057 101.498 86.1006 101.522 85.9997C101.546 85.8989 101.593 85.8049 101.66 85.7249L107.923 77.3098C108.013 77.1813 108.144 77.0875 108.294 77.044C108.445 77.0005 108.606 77.01 108.75 77.0709V77.0709Z" stroke="#0E3C47" stroke-linecap="round" stroke-linejoin="round"/>
<path d="M163.797 145.873L158.947 129.759" stroke="#0E3C47" stroke-miterlimit="10"/>
<path d="M173.764 151.401L140.294 165.447C139.957 165.593 139.665 165.826 139.449 166.123C139.233 166.421 139.101 166.77 139.067 167.136C139.032 167.502 139.097 167.87 139.254 168.202C139.411 168.534 139.655 168.818 139.96 169.023L165.8 186.188L182.61 169.419L173.764 151.401Z" fill="white" stroke="#0E3C47" stroke-miterlimit="10"/>
<mask id="path-85-inside-1_127_195" fill="white">
<path d="M159.835 166.163L155.812 167.74L157.971 169.262L162.001 167.685L159.835 166.163ZM159.835 166.163L155.812 167.74L157.971 169.262L162.001 167.685L159.835 166.163ZM159.835 166.163L155.812 167.74L157.971 169.262L162.001 167.685L159.835 166.163ZM162.568 168.095L158.538 169.665L160.881 171.316L164.917 169.74L162.568 168.095ZM162.568 168.095L158.538 169.665L160.881 171.316L164.917 169.74L162.568 168.095ZM162.568 168.095L158.538 169.665L160.881 171.316L164.917 169.74L162.568 168.095ZM162.568 168.095L158.538 169.665L160.881 171.316L164.917 169.74L162.568 168.095ZM162.568 168.095L158.538 169.665L160.881 171.316L164.917 169.74L162.568 168.095ZM162.568 168.095L158.538 169.665L160.881 171.316L164.917 169.74L162.568 168.095ZM162.568 168.095L158.538 169.665L160.881 171.316L164.917 169.74L162.568 168.095ZM153.538 171.623L155.922 173.254L160.218 171.576L157.875 169.931L153.538 171.623ZM162.568 168.115L158.538 169.685L160.881 171.337L164.917 169.76L162.568 168.115ZM162.568 168.115L158.538 169.685L160.881 171.337L164.917 169.76L162.568 168.115ZM162.568 168.115L158.538 169.685L160.881 171.337L164.917 169.76L162.568 168.115ZM162.568 168.115L158.538 169.685L160.881 171.337L164.917 169.76L162.568 168.115ZM162.568 168.115L158.538 169.685L160.881 171.337L164.917 169.76L162.568 168.115ZM162.568 168.115L158.538 169.685L160.881 171.337L164.917 169.76L162.568 168.115ZM165.491 170.163L161.461 171.739L164.146 173.623L168.176 172.046L165.491 170.163ZM166.174 169.903L168.866 171.794L169.057 171.712L169.808 168.491L166.174 169.903ZM165.601 169.501L164.917 169.76L165.491 170.163L166.174 169.903L165.601 169.501ZM165.519 170.183L161.488 171.76L164.173 173.643L168.203 172.067L165.519 170.183ZM165.519 170.183L161.488 171.76L164.173 173.643L168.203 172.067L165.519 170.183ZM165.519 170.183L161.488 171.76L164.173 173.643L168.203 172.067L165.519 170.183ZM169.453 168.013L169.863 168.3L169.979 167.815L169.453 168.013ZM165.601 169.521L164.917 169.781L165.491 170.183L166.174 169.924L165.601 169.521ZM167.11 166.368L163.251 167.856L165.594 169.501L169.446 167.992L167.11 166.368ZM165.601 169.521L164.917 169.781L165.491 170.183L166.174 169.924L165.601 169.521ZM165.519 170.204L161.488 171.78L164.173 173.664L168.203 172.087L165.519 170.204ZM165.601 169.521L164.917 169.781L165.491 170.183L166.174 169.924L165.601 169.521ZM165.519 170.204L161.488 171.78L164.173 173.664L168.203 172.087L165.519 170.204ZM165.519 170.204L161.488 171.78L164.173 173.664L168.203 172.087L165.519 170.204ZM166.202 169.944L168.893 171.835L168.21 172.087L168.79 172.49L164.754 174.073L164.18 173.664L163.497 173.923L164.077 174.326L159.835 175.937L161.885 177.356L166.072 175.718L166.659 176.128L162.499 177.766L165.232 179.643L166.891 180.776L167.342 178.817L167.786 176.926L167.93 176.319L168.1 175.568L168.264 174.886L168.811 172.538V172.429L168.934 171.924L168.975 171.733L169.726 168.511L166.202 169.944ZM165.519 170.204L161.488 171.78L164.173 173.664L168.203 172.087L165.519 170.204ZM165.601 169.521L164.917 169.781L165.491 170.183L166.174 169.924L165.601 169.521ZM165.519 170.204L161.488 171.78L164.173 173.664L168.203 172.087L165.519 170.204ZM165.601 169.521L164.917 169.781L165.491 170.183L166.174 169.924L165.601 169.521ZM165.519 170.204L161.488 171.78L164.173 173.664L168.203 172.087L165.519 170.204ZM165.601 169.521L164.917 169.781L165.491 170.183L166.174 169.924L165.601 169.521ZM165.519 170.204L161.488 171.78L164.173 173.664L168.203 172.087L165.519 170.204ZM165.601 169.521L164.917 169.781L165.491 170.183L166.174 169.924L165.601 169.521ZM167.766 166.109L169.999 167.679L170.628 164.99L167.766 166.109ZM164.35 164.437L160.491 165.945L159.917 165.535L163.77 164.034L164.35 164.437L165.034 164.177L164.453 163.775L168.551 162.184L166.502 160.731L162.438 162.335L161.755 162.587L157.868 164.116L157.185 164.375L153.169 165.959L152.486 166.218L148.06 167.958L150.109 169.357L154.501 167.638L155.081 168.047L150.696 169.76L152.896 171.262L157.247 169.569L157.82 169.972L158.504 169.712L157.93 169.31L161.96 167.733L162.534 168.143L163.217 167.883L162.636 167.474L166.488 165.965L164.35 164.437ZM155.812 167.774L155.225 167.371L159.262 165.795L159.835 166.198L155.812 167.774ZM169.166 161.925L168.483 162.184L169.064 162.587L169.747 162.328L169.166 161.925ZM169.74 162.328L171.024 163.229L171.372 161.693L169.74 162.328ZM167.096 160.471L169.146 161.925L171.516 160.997L172.103 158.492L167.096 160.471ZM165.58 169.514L164.897 169.774L165.471 170.176L166.154 169.917L165.58 169.514ZM166.509 165.952L164.35 164.437L160.491 165.945L159.808 166.198L161.973 167.719L162.547 168.129L163.23 167.87L162.65 167.46L166.509 165.952ZM167.09 166.361L163.251 167.856L165.594 169.501L169.446 167.992L167.09 166.361ZM170.874 163.843L169.091 162.587L164.993 164.177L167.151 165.699L166.502 165.952L167.076 166.361L167.759 166.109L167.185 165.699L170.785 164.293L170.874 163.843ZM165.58 169.514L169.432 168.006L167.09 166.361L163.251 167.856L165.58 169.514ZM166.509 165.952L164.35 164.437L160.491 165.945L159.808 166.198L161.973 167.719L162.547 168.129L163.23 167.87L162.65 167.46L166.509 165.952ZM165.498 170.176L161.468 171.753L164.152 173.637L168.182 172.06L165.498 170.176ZM165.498 170.176L161.468 171.753L164.152 173.637L168.182 172.06L165.498 170.176ZM162.575 168.129L158.544 169.699L160.887 171.35L164.924 169.774L162.575 168.129ZM160.819 172.006L156.509 173.671L159.241 175.534L163.476 173.882L160.819 172.006ZM160.887 171.323L160.204 171.576L160.792 171.978L161.441 171.726L160.887 171.323ZM165.498 170.149L161.468 171.726L164.152 173.609L168.182 172.033L165.498 170.149ZM166.181 169.89L168.872 171.78L169.064 171.698L169.815 168.477L166.181 169.89ZM165.607 169.487L164.924 169.746L165.498 170.149L166.181 169.89L165.607 169.487ZM159.835 166.163L155.812 167.74L157.971 169.262L162.001 167.685L159.835 166.163ZM159.835 166.163L155.812 167.74L157.971 169.262L162.001 167.685L159.835 166.163ZM159.835 166.163L155.812 167.74L157.971 169.262L162.001 167.685L159.835 166.163Z"/>
</mask>
<path d="M159.835 166.163L155.812 167.74L157.971 169.262L162.001 167.685L159.835 166.163ZM159.835 166.163L155.812 167.74L157.971 169.262L162.001 167.685L159.835 166.163ZM159.835 166.163L155.812 167.74L157.971 169.262L162.001 167.685L159.835 166.163ZM162.568 168.095L158.538 169.665L160.881 171.316L164.917 169.74L162.568 168.095ZM162.568 168.095L158.538 169.665L160.881 171.316L164.917 169.74L162.568 168.095ZM162.568 168.095L158.538 169.665L160.881 171.316L164.917 169.74L162.568 168.095ZM162.568 168.095L158.538 169.665L160.881 171.316L164.917 169.74L162.568 168.095ZM162.568 168.095L158.538 169.665L160.881 171.316L164.917 169.74L162.568 168.095ZM162.568 168.095L158.538 169.665L160.881 171.316L164.917 169.74L162.568 168.095ZM162.568 168.095L158.538 169.665L160.881 171.316L164.917 169.74L162.568 168.095ZM153.538 171.623L155.922 173.254L160.218 171.576L157.875 169.931L153.538 171.623ZM162.568 168.115L158.538 169.685L160.881 171.337L164.917 169.76L162.568 168.115ZM162.568 168.115L158.538 169.685L160.881 171.337L164.917 169.76L162.568 168.115ZM162.568 168.115L158.538 169.685L160.881 171.337L164.917 169.76L162.568 168.115ZM162.568 168.115L158.538 169.685L160.881 171.337L164.917 169.76L162.568 168.115ZM162.568 168.115L158.538 169.685L160.881 171.337L164.917 169.76L162.568 168.115ZM162.568 168.115L158.538 169.685L160.881 171.337L164.917 169.76L162.568 168.115ZM165.491 170.163L161.461 171.739L164.146 173.623L168.176 172.046L165.491 170.163ZM166.174 169.903L168.866 171.794L169.057 171.712L169.808 168.491L166.174 169.903ZM165.601 169.501L164.917 169.76L165.491 170.163L166.174 169.903L165.601 169.501ZM165.519 170.183L161.488 171.76L164.173 173.643L168.203 172.067L165.519 170.183ZM165.519 170.183L161.488 171.76L164.173 173.643L168.203 172.067L165.519 170.183ZM165.519 170.183L161.488 171.76L164.173 173.643L168.203 172.067L165.519 170.183ZM169.453 168.013L169.863 168.3L169.979 167.815L169.453 168.013ZM165.601 169.521L164.917 169.781L165.491 170.183L166.174 169.924L165.601 169.521ZM167.11 166.368L163.251 167.856L165.594 169.501L169.446 167.992L167.11 166.368ZM165.601 169.521L164.917 169.781L165.491 170.183L166.174 169.924L165.601 169.521ZM165.519 170.204L161.488 171.78L164.173 173.664L168.203 172.087L165.519 170.204ZM165.601 169.521L164.917 169.781L165.491 170.183L166.174 169.924L165.601 169.521ZM165.519 170.204L161.488 171.78L164.173 173.664L168.203 172.087L165.519 170.204ZM165.519 170.204L161.488 171.78L164.173 173.664L168.203 172.087L165.519 170.204ZM166.202 169.944L168.893 171.835L168.21 172.087L168.79 172.49L164.754 174.073L164.18 173.664L163.497 173.923L164.077 174.326L159.835 175.937L161.885 177.356L166.072 175.718L166.659 176.128L162.499 177.766L165.232 179.643L166.891 180.776L167.342 178.817L167.786 176.926L167.93 176.319L168.1 175.568L168.264 174.886L168.811 172.538V172.429L168.934 171.924L168.975 171.733L169.726 168.511L166.202 169.944ZM165.519 170.204L161.488 171.78L164.173 173.664L168.203 172.087L165.519 170.204ZM165.601 169.521L164.917 169.781L165.491 170.183L166.174 169.924L165.601 169.521ZM165.519 170.204L161.488 171.78L164.173 173.664L168.203 172.087L165.519 170.204ZM165.601 169.521L164.917 169.781L165.491 170.183L166.174 169.924L165.601 169.521ZM165.519 170.204L161.488 171.78L164.173 173.664L168.203 172.087L165.519 170.204ZM165.601 169.521L164.917 169.781L165.491 170.183L166.174 169.924L165.601 169.521ZM165.519 170.204L161.488 171.78L164.173 173.664L168.203 172.087L165.519 170.204ZM165.601 169.521L164.917 169.781L165.491 170.183L166.174 169.924L165.601 169.521ZM167.766 166.109L169.999 167.679L170.628 164.99L167.766 166.109ZM164.35 164.437L160.491 165.945L159.917 165.535L163.77 164.034L164.35 164.437L165.034 164.177L164.453 163.775L168.551 162.184L166.502 160.731L162.438 162.335L161.755 162.587L157.868 164.116L157.185 164.375L153.169 165.959L152.486 166.218L148.06 167.958L150.109 169.357L154.501 167.638L155.081 168.047L150.696 169.76L152.896 171.262L157.247 169.569L157.82 169.972L158.504 169.712L157.93 169.31L161.96 167.733L162.534 168.143L163.217 167.883L162.636 167.474L166.488 165.965L164.35 164.437ZM155.812 167.774L155.225 167.371L159.262 165.795L159.835 166.198L155.812 167.774ZM169.166 161.925L168.483 162.184L169.064 162.587L169.747 162.328L169.166 161.925ZM169.74 162.328L171.024 163.229L171.372 161.693L169.74 162.328ZM167.096 160.471L169.146 161.925L171.516 160.997L172.103 158.492L167.096 160.471ZM165.58 169.514L164.897 169.774L165.471 170.176L166.154 169.917L165.58 169.514ZM166.509 165.952L164.35 164.437L160.491 165.945L159.808 166.198L161.973 167.719L162.547 168.129L163.23 167.87L162.65 167.46L166.509 165.952ZM167.09 166.361L163.251 167.856L165.594 169.501L169.446 167.992L167.09 166.361ZM170.874 163.843L169.091 162.587L164.993 164.177L167.151 165.699L166.502 165.952L167.076 166.361L167.759 166.109L167.185 165.699L170.785 164.293L170.874 163.843ZM165.58 169.514L169.432 168.006L167.09 166.361L163.251 167.856L165.58 169.514ZM166.509 165.952L164.35 164.437L160.491 165.945L159.808 166.198L161.973 167.719L162.547 168.129L163.23 167.87L162.65 167.46L166.509 165.952ZM165.498 170.176L161.468 171.753L164.152 173.637L168.182 172.06L165.498 170.176ZM165.498 170.176L161.468 171.753L164.152 173.637L168.182 172.06L165.498 170.176ZM162.575 168.129L158.544 169.699L160.887 171.35L164.924 169.774L162.575 168.129ZM160.819 172.006L156.509 173.671L159.241 175.534L163.476 173.882L160.819 172.006ZM160.887 171.323L160.204 171.576L160.792 171.978L161.441 171.726L160.887 171.323ZM165.498 170.149L161.468 171.726L164.152 173.609L168.182 172.033L165.498 170.149ZM166.181 169.89L168.872 171.78L169.064 171.698L169.815 168.477L166.181 169.89ZM165.607 169.487L164.924 169.746L165.498 170.149L166.181 169.89L165.607 169.487ZM159.835 166.163L155.812 167.74L157.971 169.262L162.001 167.685L159.835 166.163ZM159.835 166.163L155.812 167.74L157.971 169.262L162.001 167.685L159.835 166.163ZM159.835 166.163L155.812 167.74L157.971 169.262L162.001 167.685L159.835 166.163Z" fill="#0E3C47" stroke="#0E3C47" stroke-width="2" mask="url(#path-85-inside-1_127_195)"/>
<path d="M165.827 186.188L175.028 146.003C175.2 145.255 175.547 144.559 176.041 143.971C176.535 143.384 177.162 142.922 177.869 142.624L227.296 121.802C227.527 121.705 227.781 121.676 228.028 121.717C228.275 121.759 228.506 121.87 228.692 122.037C228.879 122.204 229.015 122.421 229.083 122.662C229.151 122.903 229.15 123.158 229.079 123.399L217.214 163.393L165.827 186.188Z" fill="#2C87A4" stroke="#0E3C47" stroke-miterlimit="10"/>
<path d="M202.7 149.588L202.702 149.589C203.783 150.21 204.155 151.975 203.2 153.644C202.248 155.306 200.521 155.87 199.436 155.247C198.355 154.626 197.983 152.86 198.938 151.192C199.891 149.527 201.618 148.961 202.7 149.588Z" fill="#0E3C47" stroke="#0E3C47"/>
</svg>
