<svg width="24" height="24" viewBox="0 0 24 24" xmlns="http://www.w3.org/2000/svg">
<path d="M13.5932 15.591C13.3842 15.8029 13.0453 15.8029 12.8363 15.591L9.90666 12.6335C9.69766 12.4217 9.69766 12.0782 9.90666 11.8663L12.8363 8.90881C13.0453 8.69694 13.3842 8.69694 13.5932 8.90881C13.8022 9.12068 13.8022 9.46418 13.5932 9.67605L11.0419 12.2499L13.5932 14.8238C13.8022 15.0356 13.8022 15.3791 13.5932 15.591Z" />
<path fill-rule="evenodd" clip-rule="evenodd" d="M13.0143 15.4154C13.1254 15.5281 13.3041 15.5281 13.4152 15.4154C13.5281 15.301 13.5282 15.114 13.4154 14.9995L10.8644 12.4259C10.7678 12.3285 10.7678 12.1714 10.8644 12.0739L13.4152 9.50049C13.528 9.38595 13.5281 9.19884 13.4152 9.08438C13.3041 8.97175 13.1254 8.97175 13.0143 9.08438L10.0846 12.0419C9.97183 12.1563 9.9717 12.3433 10.0845 12.4578L13.0143 15.4154ZM12.6585 15.7668C12.9654 16.0777 13.4643 16.0776 13.7711 15.7666C14.0762 15.4574 14.0762 14.9574 13.7711 14.6482L11.3939 12.2499L13.7707 9.85205C14.0757 9.54283 14.0762 9.04246 13.7711 8.73324C13.4643 8.4222 12.9655 8.42213 12.6585 8.73304L9.72905 11.6903C9.42402 11.9996 9.42365 12.4999 9.72868 12.8091L12.6585 15.7668Z" />
</svg>
