<svg width="32" height="32" viewBox="0 0 32 32" xmlns="http://www.w3.org/2000/svg">
<path fill-rule="evenodd" clip-rule="evenodd" d="M13.3731 27.7753C13.0809 28.074 12.606 28.075 12.3125 27.7777L1.22081 16.5416C1.07947 16.3985 1.00001 16.2039 0.999999 16.001C0.999992 15.798 1.07944 15.6035 1.22077 15.4603L12.3124 4.22237C12.6059 3.92501 13.0808 3.92601 13.3731 4.22461C13.6654 4.52321 13.6644 5.00634 13.3709 5.30371L3.56673 15.2371L30.2504 15.2371C30.6646 15.2371 31.0004 15.5788 31.0004 16.0002C31.0004 16.4216 30.6646 16.7632 30.2504 16.7632L3.56544 16.7632L13.3709 26.6962C13.6644 26.9936 13.6654 27.4767 13.3731 27.7753Z" />
</svg>
