<svg width="24" height="24" viewBox="0 0 24 24" fill="none" xmlns="http://www.w3.org/2000/svg">
<path fill-rule="evenodd" clip-rule="evenodd" d="M23.7757 23.7753C23.4758 24.074 22.9884 24.075 22.6871 23.7777L11.3035 12.5416C11.1585 12.3985 11.0769 12.2039 11.0769 12.001C11.0769 11.798 11.1585 11.6035 11.3035 11.4603L22.6871 0.222373C22.9883 -0.0749952 23.4757 -0.073994 23.7757 0.224608C24.0757 0.52321 24.0746 1.00634 23.7734 1.30371L13.7112 11.2371H13.7099C13.6426 11.5 13.6426 12 13.6426 12C13.6426 12 13.6426 12.5 13.7099 12.7632L23.7734 22.6962C24.0746 22.9936 24.0757 23.4767 23.7757 23.7753Z" />
<path fill-rule="evenodd" clip-rule="evenodd" d="M0.224282 23.7753C0.524237 24.074 1.01161 24.075 1.31286 23.7777L12.6965 12.5416C12.8415 12.3985 12.9231 12.2039 12.9231 12.001C12.9231 11.798 12.8415 11.6035 12.6965 11.4603L1.3129 0.222373C1.01167 -0.0749952 0.524304 -0.073994 0.224325 0.224608C-0.0756537 0.52321 -0.0746436 1.00634 0.22658 1.30371L10.2888 11.2371H10.2901C10.3574 11.5 10.3574 12 10.3574 12C10.3574 12 10.3574 12.5 10.2901 12.7632L0.226627 22.6962C-0.0746222 22.9936 -0.0756714 23.4767 0.224282 23.7753Z" />
</svg>
