<svg  xmlns="http://www.w3.org/2000/svg" width="165.0559" height="34" viewBox="0 0 165.0559 34">
  <g class="logo-part logo-part-3">
  <g id="en" class="logo-text logo-text-en">
    <path class="cls-1" d="M102.70619.62467a.08733.08733,0,0,1,.00388-.03534.07486.07486,0,0,1,.0184-.03019.0764.0764,0,0,1,.03-.01864.07876.07876,0,0,1,.03585-.00316h2.00072a1.81129,1.81129,0,0,1,1.94065,1.26716c.02325.08159.04456.16657.06588.255a3.01142,3.01142,0,0,1,.05232.32221q.02179.19122.032.46307t.00872.66417q0,.3936-.00872.66418t-.032.46339a2.60894,2.60894,0,0,1-.05232.32317c-.02132.08774-.04263.17273-.06588.255A1.81059,1.81059,0,0,1,104.796,6.48177h-2.00169a.07481.07481,0,0,1-.03489-.00316.07023.07023,0,0,1-.03-.01865.07707.07707,0,0,1-.01937-.03018.07287.07287,0,0,1-.00291-.03534V.62594Zm.778,5.07755a.05248.05248,0,0,0,.00194.02126.03768.03768,0,0,0,.01162.01816.0428.0428,0,0,0,.01745.01123.047.047,0,0,0,.02131.00193h1.09289a1.77009,1.77009,0,0,0,.87392-.188,1.07706,1.07706,0,0,0,.48056-.62466q.02616-.079.05232-.18357a1.65419,1.65419,0,0,0,.03972-.26675c.00872-.10772.01551-.24019.02132-.39742s.00872-.35248.00872-.58577q0-.35058-.00872-.58546c-.00581-.15659-.0126-.28917-.02132-.39774a1.65031,1.65031,0,0,0-.03972-.26643q-.02616-.10453-.05232-.18357a1.07577,1.07577,0,0,0-.48056-.62466,1.77226,1.77226,0,0,0-.87392-.188h-1.09289a.04719.04719,0,0,0-.02131.00193.0428.0428,0,0,0-.01745.01123.03768.03768,0,0,0-.01162.01816.05248.05248,0,0,0-.00194.02126ZM108.15125.62467a.073.073,0,0,1,.0029-.03536.08074.08074,0,0,1,.04942-.04879.07593.07593,0,0,1,.03488-.00318h.6036a.07464.07464,0,0,1,.03488.00316.07987.07987,0,0,1,.031.01864.08744.08744,0,0,1,.01842.03019.073.073,0,0,1,.0029.03534V6.39316a.073.073,0,0,1-.0029.03534.08744.08744,0,0,1-.01842.03019.08.08,0,0,1-.031.01864.07464.07464,0,0,1-.03488.00316h-.6036a.07648.07648,0,0,1-.06492-.02181.077.077,0,0,1-.01938-.03016.073.073,0,0,1-.0029-.03536Zm2.19352,4.56157a2.16857,2.16857,0,0,1-.06976-.2709c-.01743-.09306-.03391-.20227-.04747-.32762-.01551-.12525-.0252-.27536-.032-.45-.00776-.17465-.00873-.38467-.00873-.62943s.00292-.45447.00873-.62912.0155-.32475.032-.45c.0155-.12524.031-.23456.04747-.32794a2.17082,2.17082,0,0,1,.06976-.2709,1.92876,1.92876,0,0,1,.75185-1.03992,2.2702,2.2702,0,0,1,1.28472-.35057,2.52891,2.52891,0,0,1,.70824.09179,2.04118,2.04118,0,0,1,.559.255,1.87406,1.87406,0,0,1,.41952.37607,2.15241,2.15241,0,0,1,.28872.45862.08089.08089,0,0,1-.02616.12238l-.52513.25337q-.077.044-.12208-.04367a1.55388,1.55388,0,0,0-.52416-.59406,1.436,1.436,0,0,0-.778-.19122,1.38841,1.38841,0,0,0-.82548.22724,1.24924,1.24924,0,0,0-.45924.65557c-.01744.05227-.03489.11664-.05232.19121a1.81808,1.81808,0,0,0-.03876.27982c-.00969.1107-.01647.24615-.02228.40635s-.00872.35387-.00872.581q0,.341.00872.58131c.00581.16021.01259.29565.02228.40635a1.94509,1.94509,0,0,0,.03876.27982q.02614.11313.05232.19122a1.24928,1.24928,0,0,0,.45924.65557,1.38855,1.38855,0,0,0,.82548.22723,1.45041,1.45041,0,0,0,.79738-.21862,1.16083,1.16083,0,0,0,.48056-.63741,3.09655,3.09655,0,0,0,.07848-.37574,3.72369,3.72369,0,0,0,.03488-.55932.03981.03981,0,0,0-.00194-.02127.04419.04419,0,0,0-.01066-.01816.054.054,0,0,0-.0184-.01123.04724.04724,0,0,0-.02132-.00193h-1.15393a.0759.0759,0,0,1-.03487-.00318.08074.08074,0,0,1-.04942-.04879.073.073,0,0,1-.0029-.03536V3.413a.073.073,0,0,1,.0029-.03535.08074.08074,0,0,1,.04942-.04879.076.076,0,0,1,.03487-.00318h1.89705a.07468.07468,0,0,1,.03489.00316.0702.0702,0,0,1,.03.01865.07688.07688,0,0,1,.01937.03018.07294.07294,0,0,1,.00292.03533v.44619a6.643,6.643,0,0,1-.03973.74736,3.01652,3.01652,0,0,1-.10851.56377,1.94278,1.94278,0,0,1-.747,1.0444,2.19545,2.19545,0,0,1-1.27212.36268,2.26041,2.26041,0,0,1-1.28473-.35057A1.9365,1.9365,0,0,1,110.34477,5.18624Zm5.4625-4.56189A.08752.08752,0,0,1,115.81114.589a.07491.07491,0,0,1,.01842-.03019.07632.07632,0,0,1,.0649-.0218h.60361A.07477.07477,0,0,1,116.533.5402a.0802.0802,0,0,1,.031.01863.08734.08734,0,0,1,.01841.03016.073.073,0,0,1,.0029.03536V6.39284a.073.073,0,0,1-.0029.03536.08739.08739,0,0,1-.01841.03017.08006.08006,0,0,1-.031.01862.07477.07477,0,0,1-.03488.00318h-.60361a.07632.07632,0,0,1-.0649-.0218.07491.07491,0,0,1-.01842-.03019.0875.0875,0,0,1-.00387-.03534ZM119.365,6.48017a.07993.07993,0,0,1-.03584-.00316.08384.08384,0,0,1-.03-.01864.08744.08744,0,0,1-.01842-.03019.073.073,0,0,1-.0029-.03534V1.31529a.05248.05248,0,0,0-.00194-.02126.06074.06074,0,0,0-.01163-.01816.04735.04735,0,0,0-.03972-.01316h-1.6248a.0802.0802,0,0,1-.03584-.00318.08422.08422,0,0,1-.03-.01863.07478.07478,0,0,1-.01841-.03016.08759.08759,0,0,1-.00387-.03536V.62467a.08756.08756,0,0,1,.00387-.03536.07471.07471,0,0,1,.01841-.03016.08408.08408,0,0,1,.03-.01863.08006.08006,0,0,1,.03584-.00318h4.1332a.07876.07876,0,0,1,.03585.00316.0764.0764,0,0,1,.03.01864.075.075,0,0,1,.01841.03019.0875.0875,0,0,1,.00387.03534v.55071a.08754.08754,0,0,1-.00387.03534.07489.07489,0,0,1-.01841.03018.07654.07654,0,0,1-.03.01865.07889.07889,0,0,1-.03585.00316h-1.62479a.04735.04735,0,0,0-.03972.01316.06074.06074,0,0,0-.01163.01816.05266.05266,0,0,0-.00194.02126V6.39284a.07285.07285,0,0,1-.00291.03534.07486.07486,0,0,1-.0184.03019.07647.07647,0,0,1-.03.01864.07877.07877,0,0,1-.03585.00316Zm4.29113-5.8555-2.06272,5.76849c-.01744.058.0029.08733.061.08733h.61232a.11874.11874,0,0,0,.11336-.08733l.4544-1.2936h2.40377l.45441,1.2936a.1055.1055,0,0,0,.04068.06477.10817.10817,0,0,0,.07268.02256h.61135c.05909,0,.07945-.02932.062-.08733L124.44281.62467a.10981.10981,0,0,0-.11432-.08733h-.56776A.1047.1047,0,0,0,123.65609.62467Zm-.56775,3.75812.94465-2.70068h.01743l.935,2.70068ZM127.42307.62467A.073.073,0,0,1,127.426.58933a.07718.07718,0,0,1,.01937-.03019.07022.07022,0,0,1,.03-.01864.07461.07461,0,0,1,.03487-.00316h.60265a.07459.07459,0,0,1,.03487.00316.08013.08013,0,0,1,.031.01864.08754.08754,0,0,1,.0184.03019.07273.07273,0,0,1,.00291.03534V5.70222a.05248.05248,0,0,0,.00194.02126.03768.03768,0,0,0,.01162.01816.0428.0428,0,0,0,.01745.01123.047.047,0,0,0,.02131.00193h2.832a.08006.08006,0,0,1,.03584.00316.08445.08445,0,0,1,.03.01865.07476.07476,0,0,1,.0184.03018.07287.07287,0,0,1,.00291.03534v.55071a.07254.07254,0,0,1-.00291.03527.0872.0872,0,0,1-.0184.03011.08473.08473,0,0,1-.03.01865.08057.08057,0,0,1-.03584.0033h-3.57418a.07461.07461,0,0,1-.03487-.00316.07022.07022,0,0,1-.03-.01864.07718.07718,0,0,1-.01937-.03019.073.073,0,0,1-.00291-.03534ZM102.70619,9.61621a.08746.08746,0,0,1,.00388-.03536.07452.07452,0,0,1,.0184-.03013.076.076,0,0,1,.03-.0187.0782.0782,0,0,1,.03585-.0031h3.57417a.07408.07408,0,0,1,.03487.0031.0794.0794,0,0,1,.031.0187.087.087,0,0,1,.01842.03013.073.073,0,0,1,.0029.03536v.55071a.073.073,0,0,1-.0029.03536.0869.0869,0,0,1-.01842.03013.07921.07921,0,0,1-.031.01861.073.073,0,0,1-.03487.00319h-2.832a.04863.04863,0,0,0-.02131.00194.04377.04377,0,0,0-.01745.01124.03785.03785,0,0,0-.01162.01822.0521.0521,0,0,0-.00194.02121v1.74775a.05279.05279,0,0,0,.00194.02132.038.038,0,0,0,.01162.01811.04262.04262,0,0,0,.01745.01124.04849.04849,0,0,0,.02131.00194h2.40377a.07422.07422,0,0,1,.03488.0031.08085.08085,0,0,1,.031.0187.08719.08719,0,0,1,.0184.03013.07309.07309,0,0,1,.00291.03537v.55041a.07289.07289,0,0,1-.00291.03537.08762.08762,0,0,1-.0184.03023.08358.08358,0,0,1-.03.0187.0798.0798,0,0,1-.03585.00339h-2.40377a.04583.04583,0,0,0-.02131.00193.04153.04153,0,0,0-.01745.01115.05886.05886,0,0,0-.01162.018.05182.05182,0,0,0-.00194.02112v1.80927a.05182.05182,0,0,0,.00194.02112.06071.06071,0,0,0,.01162.01812.04344.04344,0,0,0,.01745.01114.047.047,0,0,0,.02131.00184h2.832a.0754.0754,0,0,1,.03487.0032.0794.0794,0,0,1,.031.0187.087.087,0,0,1,.01842.03013.073.073,0,0,1,.0029.03536v.551a.073.073,0,0,1-.0029.03537.08709.08709,0,0,1-.01842.03013.07952.07952,0,0,1-.031.0187.07421.07421,0,0,1-.03487.0031h-3.57417a.07833.07833,0,0,1-.03585-.0031.07608.07608,0,0,1-.03-.0187.07458.07458,0,0,1-.0184-.03013.08732.08732,0,0,1-.00388-.03537Zm4.86858,4.55331c-.02907-.08749-.05426-.17643-.0746-.26644a2.42774,2.42774,0,0,1-.04748-.3235c-.01163-.12538-.02131-.27536-.02713-.45s-.00872-.38436-.00872-.62909.00291-.4546.00872-.62948.01453-.32486.02713-.44994a2.42764,2.42764,0,0,1,.04748-.32351c.02034-.09.04553-.17895.0746-.26644a1.93029,1.93029,0,0,1,.73344-1.05171,2.16225,2.16225,0,0,1,1.24112-.34511,2.13122,2.13122,0,0,1,1.1578.31,1.94182,1.94182,0,0,1,.747.887.08527.08527,0,0,1-.03488.11375L110.89509,11a.078.078,0,0,1-.123-.0436,1.626,1.626,0,0,0-.46313-.57367,1.20724,1.20724,0,0,0-.75959-.22313,1.26009,1.26009,0,0,0-.78672.22729,1.36157,1.36157,0,0,0-.44666.64663c-.01744.06375-.032.13254-.04747.2052a2.12814,2.12814,0,0,0-.03488.2709c-.00872.10774-.01647.24183-.02228.40218s-.00872.35713-.00872.59q0,.35054.00872.58994c.00581.15958.01259.29347.02228.40189a2.39648,2.39648,0,0,0,.03488.27535c.01453.07548.032.14282.04747.201a1.35571,1.35571,0,0,0,.44666.64673,1.26069,1.26069,0,0,0,.78672.2272,1.20669,1.20669,0,0,0,.75959-.22313,1.6249,1.6249,0,0,0,.46313-.57358.0781.0781,0,0,1,.123-.04369l.52416.25491a.08553.08553,0,0,1,.03488.11384,1.94785,1.94785,0,0,1-.747.88691,2.13083,2.13083,0,0,1-1.1578.31042,2.1541,2.1541,0,0,1-1.24112-.34511,1.922,1.922,0,0,1-.73344-1.05171ZM114.54,15.568a2.22191,2.22191,0,0,1-1.27117-.35063,1.93768,1.93768,0,0,1-.748-1.03989,2.61962,2.61962,0,0,1-.07364-.2709,2.67511,2.67511,0,0,1-.04844-.328q-.01744-.18807-.02616-.45t-.00872-.62909q0-.36711.00872-.62938t.02616-.45a2.67305,2.67305,0,0,1,.04844-.32767,2.62511,2.62511,0,0,1,.07364-.2709,1.93255,1.93255,0,0,1,.748-1.04018,2.497,2.497,0,0,1,2.552,0,1.93135,1.93135,0,0,1,.747,1.04018,2.63247,2.63247,0,0,1,.0746.2709,2.87632,2.87632,0,0,1,.04844.32767q.016.18806.02616.45.00871.26188.00775.62938,0,.36681-.00775.62909-.00873.26232-.02616.45a2.87833,2.87833,0,0,1-.04844.328,2.62691,2.62691,0,0,1-.0746.2709,1.92634,1.92634,0,0,1-.747,1.03989A2.2486,2.2486,0,0,1,114.54,15.568Zm0-.72539a1.35445,1.35445,0,0,0,.81288-.2272,1.25843,1.25843,0,0,0,.4544-.65564,1.51983,1.51983,0,0,0,.04845-.19658q.02179-.11815.04359-.29289c.01454-.11665.02519-.255.032-.41051s.00873-.34386.00873-.55933-.00291-.40218-.00873-.55933a4.08413,4.08413,0,0,0-.032-.4108c-.0155-.11637-.02906-.21413-.04359-.29289a1.51957,1.51957,0,0,0-.04845-.19659,1.25681,1.25681,0,0,0-.4544-.65534,1.35707,1.35707,0,0,0-.81288-.2272,1.33491,1.33491,0,0,0-.808.2272,1.26924,1.26924,0,0,0-.45053.65534,1.51781,1.51781,0,0,0-.04747.19659q-.02179.11829-.0436.29289-.02326.17468-.032.4108-.00872.23557-.00871.55933t.00871.55933q.00873.23558.032.41051t.0436.29289a1.51806,1.51806,0,0,0,.04747.19658,1.27493,1.27493,0,0,0,.45053.65564A1.333,1.333,0,0,0,114.54,14.8426Zm3.4424-5.22668a.073.073,0,0,1,.00387-.03527.07461.07461,0,0,1,.01841-.03013.07829.07829,0,0,1,.03-.0187.07665.07665,0,0,1,.03487-.00329h.56a.15183.15183,0,0,1,.0872.02083.147.147,0,0,1,.061.06656l2.69153,4.4573h.03584v-4.457a.07253.07253,0,0,1,.00291-.03526.07447.07447,0,0,1,.01841-.03014.08452.08452,0,0,1,.03-.0186.0784.0784,0,0,1,.03585-.00329h.55032a.07931.07931,0,0,1,.03584.0031.08344.08344,0,0,1,.03.0187.07454.07454,0,0,1,.01841.03013.07319.07319,0,0,1,.00291.03536v5.76847a.07313.07313,0,0,1-.00291.03537.07461.07461,0,0,1-.01841.03013.08358.08358,0,0,1-.03.0187.07945.07945,0,0,1-.03584.0031h-.559a.154.154,0,0,1-.08816-.02064.15864.15864,0,0,1-.061-.06666l-2.70024-4.43947H118.711v4.43947a.08732.08732,0,0,1-.00388.03537.07472.07472,0,0,1-.01841.03013.076.076,0,0,1-.03.0187.07836.07836,0,0,1-.03585.0031h-.55032a.07951.07951,0,0,1-.03585-.0031.08375.08375,0,0,1-.03-.0187.08719.08719,0,0,1-.0184-.03013.073.073,0,0,1-.00291-.03537V9.61621Zm7.68121,5.95168a2.22178,2.22178,0,0,1-1.27115-.35053,1.93139,1.93139,0,0,1-.747-1.03989,2.39889,2.39889,0,0,1-.0746-.2709,2.67514,2.67514,0,0,1-.04845-.328q-.01744-.18807-.02616-.45t-.00872-.62909q0-.36711.00872-.62948t.02616-.44994a2.66767,2.66767,0,0,1,.04845-.32767,2.3868,2.3868,0,0,1,.0746-.2709,1.92693,1.92693,0,0,1,.747-1.04028,2.49761,2.49761,0,0,1,2.552,0,1.932,1.932,0,0,1,.747,1.04028c.02907.08894.05426.17934.0746.2709a2.66985,2.66985,0,0,1,.04747.32767q.01746.18791.02617.44994c.00581.17469.00968.38445.00968.62948,0,.24454-.00387.4542-.00968.62909s-.01453.32486-.02617.45a2.67755,2.67755,0,0,1-.04747.328c-.02034.09146-.04553.18195-.0746.2709a1.92667,1.92667,0,0,1-.747,1.03989A2.25216,2.25216,0,0,1,125.6636,15.5676Zm0-.72529a1.35369,1.35369,0,0,0,.81287-.2273,1.2636,1.2636,0,0,0,.45441-.65554,1.52533,1.52533,0,0,0,.04845-.19668q.02179-.118.0436-.29289c.01453-.11665.02519-.25491.032-.41041s.00872-.34395.00872-.55933-.00289-.40228-.00872-.55933-.01647-.29454-.032-.41081c-.01647-.11636-.02907-.21421-.0436-.29288a1.52507,1.52507,0,0,0-.04845-.19669,1.25684,1.25684,0,0,0-.45441-.65524,1.359,1.359,0,0,0-.81287-.2272,1.333,1.333,0,0,0-.808.2272,1.28082,1.28082,0,0,0-.45053.65524,1.52336,1.52336,0,0,0-.04843.19669q-.02037.11814-.0436.29288-.0218.17455-.032.41081c-.00485.157-.00775.34346-.00775.55933s.0029.40227.00775.55933q.01018.23542.032.41041.02323.175.0436.29289a1.52361,1.52361,0,0,0,.04843.19668,1.28046,1.28046,0,0,0,.45053.65554A1.33237,1.33237,0,0,0,125.6636,14.84231Zm3.4424-5.22678a.07316.07316,0,0,1,.00291-.03536.07689.07689,0,0,1,.01937-.03013.07053.07053,0,0,1,.03-.0186.07539.07539,0,0,1,.03487-.0032h.56873a.13635.13635,0,0,1,.13952.08729l1.774,4.0029h.02615l1.743-4.00222a.13659.13659,0,0,1,.14049-.08729h.56776a.07935.07935,0,0,1,.03585.0031.08344.08344,0,0,1,.03.0187.087.087,0,0,1,.0184.03013.07294.07294,0,0,1,.0029.03536v5.76847a.07288.07288,0,0,1-.0029.03537.087.087,0,0,1-.0184.03013.08358.08358,0,0,1-.03.0187.07949.07949,0,0,1-.03585.0031h-.55031a.07838.07838,0,0,1-.03586-.0031.07615.07615,0,0,1-.03-.0187.07458.07458,0,0,1-.0184-.03013.08732.08732,0,0,1-.00388-.03537V11.25176h-.02519l-1.47752,3.26859a.1607.1607,0,0,1-.061.07867.15889.15889,0,0,1-.09592.02626H131.504a.16455.16455,0,0,1-.16664-.10493l-1.47657-3.26859h-.02712v4.13292a.073.073,0,0,1-.00292.03537.07458.07458,0,0,1-.0184.03013.08358.08358,0,0,1-.03.0187.07949.07949,0,0,1-.03585.0031h-.55032a.07532.07532,0,0,1-.03487-.0031.06971.06971,0,0,1-.03-.0187.07691.07691,0,0,1-.01938-.03013.07288.07288,0,0,1-.0029-.03537V9.61621Zm7.86627,5.85557a.07975.07975,0,0,1-.03585-.00319.08458.08458,0,0,1-.03-.01861.07565.07565,0,0,1-.01841-.03022.07313.07313,0,0,1-.0029-.03537V13.04156l-1.75754-3.41711q-.03486-.09562.06976-.09553h.62106a.15225.15225,0,0,1,.13079.08729l1.32928,2.54319h.01745l1.3196-2.54319a.12434.12434,0,0,1,.12209-.08729h.60263c.07072,0,.094.03178.07072.09553l-1.75752,3.41711v2.34312a.073.073,0,0,1-.00292.03537.07458.07458,0,0,1-.0184.03013.08358.08358,0,0,1-.03.0187.07949.07949,0,0,1-.03585.0031Zm-30.82562,8.99278a.1187.1187,0,0,1-.11432-.0873L104.8474,21.95h-1.31089a.04849.04849,0,0,0-.02131.00194.04251.04251,0,0,0-.01745.01114.06021.06021,0,0,0-.01162.018.05214.05214,0,0,0-.00194.02122V24.3794a.073.073,0,0,1-.0029.03536.08849.08849,0,0,1-.01841.03023.0805.0805,0,0,1-.031.0186.07552.07552,0,0,1-.03487.0032h-.60264a.07974.07974,0,0,1-.03585-.0032.07689.07689,0,0,1-.03-.0186.07555.07555,0,0,1-.0184-.03023.08729.08729,0,0,1-.00388-.03536V18.61093a.08732.08732,0,0,1,.00388-.03537.07494.07494,0,0,1,.0184-.03023.07732.07732,0,0,1,.03-.01879.07976.07976,0,0,1,.03585-.0033h2.14992a2.23444,2.23444,0,0,1,.7596.12237,1.72984,1.72984,0,0,1,.58617.34521,1.52647,1.52647,0,0,1,.37979.54179,1.78661,1.78661,0,0,1,.13564.70341,1.65125,1.65125,0,0,1-.31488,1.02235,1.694,1.694,0,0,1-.85648.596l1.26728,2.50822a.07091.07091,0,0,1,.0155.03585.075.075,0,0,1-.00678.03836.062.062,0,0,1-.02519.025.06621.06621,0,0,1-.03585.00688ZM104.923,21.22175a1.1764,1.1764,0,0,0,.81191-.25782,1.06682,1.06682,0,0,0,0-1.4597,1.1764,1.1764,0,0,0-.81191-.25782h-1.39033a.04708.04708,0,0,0-.02132.00194.04258.04258,0,0,0-.01744.01124.038.038,0,0,0-.01163.01811.053.053,0,0,0-.00193.02132v1.87012a.05227.05227,0,0,0,.00193.02121.03787.03787,0,0,0,.01163.01822.04373.04373,0,0,0,.01744.01124.04867.04867,0,0,0,.02132.00194Zm3.17208-2.61334a.073.073,0,0,1,.00291-.03537.07645.07645,0,0,1,.01938-.03023.07088.07088,0,0,1,.03-.01879.07547.07547,0,0,1,.03488-.00329h3.58a.08091.08091,0,0,1,.03585.00329.085.085,0,0,1,.03.01879.0744.0744,0,0,1,.01841.03023.07289.07289,0,0,1,.00291.03537v.55032a.07285.07285,0,0,1-.00291.03536.07507.07507,0,0,1-.01841.03023.08443.08443,0,0,1-.03.0186.08086.08086,0,0,1-.03585.0032h-2.832a.04575.04575,0,0,0-.02132.00194.04183.04183,0,0,0-.01744.01123.037.037,0,0,0-.01162.01812.05246.05246,0,0,0-.00194.02122v1.74785a.0524.0524,0,0,0,.00194.02121.037.037,0,0,0,.01162.01812.04175.04175,0,0,0,.01744.01124.04588.04588,0,0,0,.02132.00194H111.334a.08086.08086,0,0,1,.03585.0032.08446.08446,0,0,1,.03.0186.08834.08834,0,0,1,.01841.03023.073.073,0,0,1,.00291.03536v.55071a.0727.0727,0,0,1-.00291.03527.08653.08653,0,0,1-.01841.03022.08463.08463,0,0,1-.03.01861.07943.07943,0,0,1-.03585.00319h-2.40377a.04994.04994,0,0,0-.02132.00194.04264.04264,0,0,0-.01744.01114.06.06,0,0,0-.01162.018.05181.05181,0,0,0-.00194.02112v1.80927a.0521.0521,0,0,0,.00194.02121.06.06,0,0,0,.01162.018.04264.04264,0,0,0,.01744.01114.04994.04994,0,0,0,.02132.00194h2.832a.08091.08091,0,0,1,.03585.00329.08615.08615,0,0,1,.03.0187.07568.07568,0,0,1,.01841.03023.07334.07334,0,0,1,.00291.03546v.55032a.07285.07285,0,0,1-.00291.03536.07568.07568,0,0,1-.01841.03023.08429.08429,0,0,1-.03.0186.08086.08086,0,0,1-.03585.0032h-3.5761a.07543.07543,0,0,1-.03488-.0032.0704.0704,0,0,1-.03-.0186.07792.07792,0,0,1-.01938-.03023.073.073,0,0,1-.0029-.03536V18.60773ZM114.82,24.56329a3.16145,3.16145,0,0,1-.62105-.06114,3.83531,3.83531,0,0,1-.57647-.16161,3.063,3.063,0,0,1-.498-.23621,2.51355,2.51355,0,0,1-.39337-.28388.09146.09146,0,0,1-.02325-.02839.10956.10956,0,0,1-.00969-.03516.09209.09209,0,0,1,.00484-.03624.09717.09717,0,0,1,.01938-.0312l.38464-.4545a.07969.07969,0,0,1,.12208-.00891,3.41938,3.41938,0,0,0,.717.41972,2.27994,2.27994,0,0,0,.94368.19125,1.49471,1.49471,0,0,0,.966-.27981.89687.89687,0,0,0,.34491-.73305.94173.94173,0,0,0-.061-.35054.694.694,0,0,0-.2054-.27952,1.26217,1.26217,0,0,0-.3798-.21,2.7035,2.7035,0,0,0-.59488-.131l-.29648-.04369q-1.74833-.23616-1.74881-1.64282a1.85321,1.85321,0,0,1,.13564-.71677,1.5206,1.5206,0,0,1,.38949-.55042,1.75041,1.75041,0,0,1,.61135-.35063,2.48126,2.48126,0,0,1,.80417-.12237,3.25167,3.25167,0,0,1,1.00085.153,2.7932,2.7932,0,0,1,.808.39743.08677.08677,0,0,1,.02713.02374.08106.08106,0,0,1,.0126.033.07346.07346,0,0,1-.00291.03546.07691.07691,0,0,1-.01938.03013l-.29647.48066a.08941.08941,0,0,1-.02519.02345.08822.08822,0,0,1-.032.01162.08679.08679,0,0,1-.03489-.00213.09681.09681,0,0,1-.031-.0154,3.204,3.204,0,0,0-.70728-.3363,2.35917,2.35917,0,0,0-.72568-.10929,1.19346,1.19346,0,0,0-.839.26644.90043.90043,0,0,0-.28873.69478.77947.77947,0,0,0,.28.616,1.92617,1.92617,0,0,0,.96984.33658l.28679.0437a2.3902,2.3902,0,0,1,1.31185.52455,1.469,1.469,0,0,1,.437,1.13619,1.89276,1.89276,0,0,1-.13564.72084,1.4848,1.4848,0,0,1-.41081.5635,2.01681,2.01681,0,0,1-.68209.37156,2.98452,2.98452,0,0,1-.9398.13545Zm3.36489-5.95139a.07289.07289,0,0,1,.00291-.03537.07653.07653,0,0,1,.01937-.03023.07085.07085,0,0,1,.03-.01879.07558.07558,0,0,1,.03488-.0033h3.57513a.07558.07558,0,0,1,.03488.0033.07085.07085,0,0,1,.03.01879.07642.07642,0,0,1,.01937.03023.07289.07289,0,0,1,.00291.03537v.55041a.07258.07258,0,0,1-.00291.03527.07713.07713,0,0,1-.01937.03023.0705.0705,0,0,1-.03.0186.07555.07555,0,0,1-.03488.0032h-2.832a.04583.04583,0,0,0-.02131.00193.05247.05247,0,0,0-.01841.01124.04409.04409,0,0,0-.01066.01812.0399.0399,0,0,0-.00193.02132V21.05a.0395.0395,0,0,0,.00193.02121.04445.04445,0,0,0,.01066.01822.05353.05353,0,0,0,.01841.01114.04711.04711,0,0,0,.02131.002h2.40474a.07548.07548,0,0,1,.03488.0031.06989.06989,0,0,1,.03.0187.07674.07674,0,0,1,.01937.03014.08686.08686,0,0,1,.00291.03536v.55071a.08715.08715,0,0,1-.00291.03536.07671.07671,0,0,1-.01937.03013.06979.06979,0,0,1-.03.0187.07522.07522,0,0,1-.03488.0031h-2.40377a.04849.04849,0,0,0-.02131.00194.055.055,0,0,0-.01841.01114.04373.04373,0,0,0-.01066.018.03964.03964,0,0,0-.00193.02122v1.80927a.03936.03936,0,0,0,.00193.02112.04361.04361,0,0,0,.01066.018.05356.05356,0,0,0,.01841.01115.04719.04719,0,0,0,.02131.00193h2.832a.07563.07563,0,0,1,.03489.0033.07094.07094,0,0,1,.03.01879.07653.07653,0,0,1,.01937.03023.07289.07289,0,0,1,.00291.03537v.55041a.07258.07258,0,0,1-.00291.03527.07724.07724,0,0,1-.01937.03023.07059.07059,0,0,1-.03.0186.07561.07561,0,0,1-.03489.0032h-3.5761a.07555.07555,0,0,1-.03488-.0032.0705.0705,0,0,1-.03-.0186.07724.07724,0,0,1-.01937-.03023.07258.07258,0,0,1-.00291-.03527Zm6.45849,0a.10547.10547,0,0,1,.10562-.08769h.56775a.108.108,0,0,1,.07267.02268.106.106,0,0,1,.0407.065l2.03655,5.76846q.02617.08735-.061.0873h-.61231a.10956.10956,0,0,1-.07267-.02257.11452.11452,0,0,1-.0407-.06473l-.45439-1.29324h-2.40377l-.45441,1.29324a.11845.11845,0,0,1-.11336.0873h-.61135c-.05813,0-.07945-.02907-.062-.0873Zm1.3293,3.75776-.93593-2.70034h-.01551l-.94368,2.70034Zm5.882,2.09742a.11879.11879,0,0,1-.11432-.0873L130.55156,21.95h-1.31088a.04436.04436,0,0,0-.02036.00194.04606.04606,0,0,0-.01841.01114.06021.06021,0,0,0-.01162.018.05214.05214,0,0,0-.00193.02122V24.3794a.073.073,0,0,1-.00292.03536.08831.08831,0,0,1-.0184.03023.08053.08053,0,0,1-.031.0186.07561.07561,0,0,1-.03489.0032h-.60263a.07981.07981,0,0,1-.03586-.0032.0759.0759,0,0,1-.03-.0187.07478.07478,0,0,1-.01842-.03013.07335.07335,0,0,1-.00388-.03536V18.61093a.08749.08749,0,0,1,.00292-.03546.08083.08083,0,0,1,.0494-.049.07981.07981,0,0,1,.03586-.0032h2.14895a2.23993,2.23993,0,0,1,.76057.12237,1.72813,1.72813,0,0,1,.58617.34521,1.5248,1.5248,0,0,1,.37979.54179,1.76955,1.76955,0,0,1,.13564.70341,1.65125,1.65125,0,0,1-.31488,1.02235,1.694,1.694,0,0,1-.85648.596l1.26728,2.50822a.071.071,0,0,1,.01551.03585.07475.07475,0,0,1-.00679.03836.06226.06226,0,0,1-.02519.0249.06719.06719,0,0,1-.03585.007ZM130.631,21.22359a1.18073,1.18073,0,0,0,.81288-.25782,1.06936,1.06936,0,0,0,0-1.45961,1.18077,1.18077,0,0,0-.81288-.25781h-1.39033a.04684.04684,0,0,0-.02132.00194.0417.0417,0,0,0-.01745.01123.04551.04551,0,0,0-.01162.01812.05246.05246,0,0,0-.00193.02122v1.87021a.05228.05228,0,0,0,.00193.02122.04657.04657,0,0,0,.01162.01822.04261.04261,0,0,0,.01745.01114.04711.04711,0,0,0,.02132.00194Zm3.10232,1.94c-.02907-.0873-.05426-.17614-.0746-.26644a2.59313,2.59313,0,0,1-.04747-.32351c-.01164-.12508-.02132-.27506-.02617-.44994q-.00871-.26232-.00872-.62919,0-.3671.00872-.62938c.00485-.17488.01453-.32486.02617-.45a2.59,2.59,0,0,1,.04747-.32312c.02132-.09049.04651-.17943.0746-.26673a1.9342,1.9342,0,0,1,.73246-1.0518,2.163,2.163,0,0,1,1.24113-.34511,2.13461,2.13461,0,0,1,1.15877.31013,1.94473,1.94473,0,0,1,.748.885.08507.08507,0,0,1-.03489.11345l-.52416.255a.077.077,0,0,1-.12207-.0437,1.63939,1.63939,0,0,0-.46409-.57367,1.20342,1.20342,0,0,0-.75959-.223,1.26,1.26,0,0,0-.78672.2272,1.36193,1.36193,0,0,0-.44665.64663c-.01745.06375-.03295.13215-.04749.2053a2.31819,2.31819,0,0,0-.03487.2709c-.00872.10812-.01647.24221-.02228.40217s-.00872.35665-.00872.59q0,.35053.00872.58985c.00581.15957.01356.29357.02228.40189a2.62966,2.62966,0,0,0,.03487.27535,2.06232,2.06232,0,0,0,.04749.20114,1.36381,1.36381,0,0,0,.44665.64662,1.25757,1.25757,0,0,0,.78672.2273,1.20534,1.20534,0,0,0,.75959-.22313,1.6385,1.6385,0,0,0,.46409-.57367.07742.07742,0,0,1,.12207-.044l.52416.255a.08508.08508,0,0,1,.03489.11346,1.94211,1.94211,0,0,1-.747.8869,2.1286,2.1286,0,0,1-1.15781.31043,2.15415,2.15415,0,0,1-1.24113-.34521,1.92157,1.92157,0,0,1-.73343-1.05326Zm4.99938-4.55292a.07288.07288,0,0,1,.0029-.03537.08645.08645,0,0,1,.01842-.03023.08066.08066,0,0,1,.031-.01879.07556.07556,0,0,1,.03487-.0033h.60264a.07977.07977,0,0,1,.03585.0033.07739.07739,0,0,1,.03.01879.07428.07428,0,0,1,.0184.03023.08732.08732,0,0,1,.00388.03537v2.43807a.03978.03978,0,0,0,.00193.02121.04367.04367,0,0,0,.01066.01812.04516.04516,0,0,0,.01841.01124.04587.04587,0,0,0,.02132.00194h2.57816a.04587.04587,0,0,0,.02132-.00194.05238.05238,0,0,0,.0184-.01124.04346.04346,0,0,0,.01066-.01812.05242.05242,0,0,0,.00194-.02121V18.61064a.073.073,0,0,1,.00291-.03537.07645.07645,0,0,1,.01938-.03023.07088.07088,0,0,1,.03-.01879.07686.07686,0,0,1,.03489-.0033h.60361a.0768.0768,0,0,1,.03487.0033.071.071,0,0,1,.03.01879.07664.07664,0,0,1,.01937.03023.08692.08692,0,0,1,.00291.03537v5.76847a.08716.08716,0,0,1-.00291.03536.077.077,0,0,1-.01937.03013.06985.06985,0,0,1-.03.0187.07533.07533,0,0,1-.03487.0031h-.60361a.07539.07539,0,0,1-.03489-.0031.06976.06976,0,0,1-.03-.0187.0768.0768,0,0,1-.01938-.03013.07317.07317,0,0,1-.00291-.03536v-2.4996a.05182.05182,0,0,0-.00194-.02112.0373.0373,0,0,0-.01162-.018.04164.04164,0,0,0-.01744-.01114.04574.04574,0,0,0-.02132-.00194H139.563a.04574.04574,0,0,0-.02132.00194.05236.05236,0,0,0-.01841.01114.044.044,0,0,0-.01066.018.03936.03936,0,0,0-.00193.02112v2.4996a.08766.08766,0,0,1-.00388.03536.07458.07458,0,0,1-.0184.03013.076.076,0,0,1-.03.0187.07835.07835,0,0,1-.03585.0031h-.60264a.07421.07421,0,0,1-.03487-.0031.07926.07926,0,0,1-.031-.0187.08694.08694,0,0,1-.01842-.03013.073.073,0,0,1-.0029-.03536ZM102.6529,32.15546c-.02907-.08768-.05328-.17624-.07363-.26682a2.596,2.596,0,0,1-.04845-.32312q-.01743-.18777-.02616-.45034t-.00871-.62908q0-.36726.00871-.62919c.00582-.175.01454-.32476.02616-.45033a2.596,2.596,0,0,1,.04845-.32312c.02131-.0901.04553-.17905.07363-.26673a1.93633,1.93633,0,0,1,.73344-1.05171,2.15934,2.15934,0,0,1,1.24112-.34521,2.129,2.129,0,0,1,1.1578.31014,1.94723,1.94723,0,0,1,.74991.88729.08514.08514,0,0,1-.03488.11346l-.52416.25491a.07723.07723,0,0,1-.12208-.044,1.64741,1.64741,0,0,0-.46312-.57367,1.20636,1.20636,0,0,0-.76057-.223,1.262,1.262,0,0,0-.78672.22721,1.35523,1.35523,0,0,0-.44664.64662c-.01745.06375-.03392.13225-.04748.20559a2.31851,2.31851,0,0,0-.03585.2709c-.00775.10774-.0155.24164-.02131.40189s-.00873.35683-.00873.58995q0,.35053.00873.58985c.00581.15957.01356.29356.02131.40188a2.39648,2.39648,0,0,0,.03585.27535,2.05821,2.05821,0,0,0,.04748.20114,1.35715,1.35715,0,0,0,.44664.64663,1.259,1.259,0,0,0,.78672.2272,1.21015,1.21015,0,0,0,.76057-.223,1.64741,1.64741,0,0,0,.46312-.57367.07709.07709,0,0,1,.12208-.0437l.52416.255a.08506.08506,0,0,1,.03488.11345,1.92988,1.92988,0,0,1-.747.8872,2.1313,2.1313,0,0,1-1.15781.31013,2.15415,2.15415,0,0,1-1.24112-.34511,1.922,1.922,0,0,1-.73343-1.05171Zm4.99938-4.55331a.07335.07335,0,0,1,.00387-.03536.07465.07465,0,0,1,.01841-.03013.076.076,0,0,1,.03-.0187.07961.07961,0,0,1,.03585-.0032h3.5761a.07631.07631,0,0,1,.06491.0219.0653.0653,0,0,1,.01841.03013.07323.07323,0,0,1,.00388.03536v.55042a.08764.08764,0,0,1-.00388.03536.06606.06606,0,0,1-.01841.03023.07708.07708,0,0,1-.03.0187.07549.07549,0,0,1-.03488.0033h-2.832a.046.046,0,0,0-.02132.00193.05362.05362,0,0,0-.0184.01115.0435.0435,0,0,0-.01066.018.0396.0396,0,0,0-.00194.02121v1.748a.03926.03926,0,0,0,.00194.02112.0445.0445,0,0,0,.01066.01812.055.055,0,0,0,.0184.01114.04725.04725,0,0,0,.02132.00194h2.40376a.07419.07419,0,0,1,.03489.0033.07043.07043,0,0,1,.03.0186.07684.07684,0,0,1,.01938.03013.08661.08661,0,0,1,.00291.03527v.5507a.0732.0732,0,0,1-.00291.03537.07691.07691,0,0,1-.01938.03013.06976.06976,0,0,1-.03.0187.07428.07428,0,0,1-.03489.0031h-2.40376a.04725.04725,0,0,0-.02132.002.054.054,0,0,0-.0184.01133.04362.04362,0,0,0-.01066.018.03972.03972,0,0,0-.00194.02122v1.809a.03927.03927,0,0,0,.00194.02112.04463.04463,0,0,0,.01066.01812.054.054,0,0,0,.0184.01124.046.046,0,0,0,.02132.002h2.832a.07665.07665,0,0,1,.06491.0218.06617.06617,0,0,1,.01841.03023.07323.07323,0,0,1,.00388.03536v.55032a.08793.08793,0,0,1-.00388.03546.06606.06606,0,0,1-.01841.03023.07814.07814,0,0,1-.03.0187.07685.07685,0,0,1-.03488.0033h-3.5761a.07426.07426,0,0,1-.03488-.0032.07963.07963,0,0,1-.031-.0187.08789.08789,0,0,1-.01841-.03033.07336.07336,0,0,1-.0029-.03546Zm4.9209,0a.073.073,0,0,1,.0029-.03536.07684.07684,0,0,1,.01938-.03013.06973.06973,0,0,1,.03-.0187.07539.07539,0,0,1,.03487-.0032h.56a.151.151,0,0,1,.0872.02073.15751.15751,0,0,1,.061.06666l2.69153,4.457h.03487V27.60341a.08746.08746,0,0,1,.00388-.03536.07443.07443,0,0,1,.01841-.03013.07593.07593,0,0,1,.03-.0187.07822.07822,0,0,1,.03585-.0031h.55129a.07411.07411,0,0,1,.03488.0031.07955.07955,0,0,1,.031.0187.087.087,0,0,1,.01841.03013.07294.07294,0,0,1,.0029.03536v5.76847a.07283.07283,0,0,1-.0029.03536.08639.08639,0,0,1-.01841.03023.081.081,0,0,1-.031.0188.07545.07545,0,0,1-.03488.00329h-.559a.15309.15309,0,0,1-.08817-.02083.15911.15911,0,0,1-.061-.06685l-2.70218-4.44014h-.02615V33.3713a.07316.07316,0,0,1-.00292.03536.08822.08822,0,0,1-.0184.03023.08083.08083,0,0,1-.031.0187.07432.07432,0,0,1-.03489.0033h-.54935a.07956.07956,0,0,1-.03584-.0033.08484.08484,0,0,1-.03-.0187.0755.0755,0,0,1-.01841-.03023.07315.07315,0,0,1-.0029-.03536Zm7.02722,5.85548a.07979.07979,0,0,1-.03585-.0033.07814.07814,0,0,1-.03-.0187.07539.07539,0,0,1-.01841-.03023.07334.07334,0,0,1-.00291-.03546V28.29373a.0521.0521,0,0,0-.00194-.02121.05928.05928,0,0,0-.01162-.01812.04491.04491,0,0,0-.01841-.01115.04614.04614,0,0,0-.02132-.00184h-1.62479a.07825.07825,0,0,1-.03585-.00329.07711.07711,0,0,1-.03-.0187.07561.07561,0,0,1-.01841-.03023.08781.08781,0,0,1-.00387-.03536v-.55042a.08763.08763,0,0,1,.00387-.03536.07465.07465,0,0,1,.01841-.03013.076.076,0,0,1,.03-.0187.07821.07821,0,0,1,.03585-.0031h4.13417a.07522.07522,0,0,1,.03488.0031.076.076,0,0,1,.03.0187.07463.07463,0,0,1,.0184.03013.08746.08746,0,0,1,.00388.03536v.55042a.08764.08764,0,0,1-.00388.03536.07559.07559,0,0,1-.0184.03023.07719.07719,0,0,1-.03.0187.07533.07533,0,0,1-.03488.00329h-1.62577a.04722.04722,0,0,0-.03972.013.04367.04367,0,0,0-.01066.01812.0397.0397,0,0,0-.00194.02121V33.3713a.08766.08766,0,0,1-.0029.03546.0779.0779,0,0,1-.01937.03023.07619.07619,0,0,1-.03005.0187.07711.07711,0,0,1-.03584.0032Zm3.38233-5.85548a.073.073,0,0,1,.0029-.03536.087.087,0,0,1,.01842-.03013.0794.0794,0,0,1,.031-.0187.07543.07543,0,0,1,.03488-.0032H126.647a.07659.07659,0,0,1,.03487.0032.06973.06973,0,0,1,.03.0187.07671.07671,0,0,1,.01937.03013.08689.08689,0,0,1,.00291.03536v.55042a.08715.08715,0,0,1-.00291.03536.07771.07771,0,0,1-.01937.03023.07069.07069,0,0,1-.03.0187.07543.07543,0,0,1-.03487.0033h-2.832a.04565.04565,0,0,0-.02131.00184.04142.04142,0,0,0-.01744.01114.03725.03725,0,0,0-.01163.018.05274.05274,0,0,0-.00194.02131v1.748a.05181.05181,0,0,0,.00194.02112.03747.03747,0,0,0,.01163.01812.04334.04334,0,0,0,.01744.01114.04849.04849,0,0,0,.02131.00194h2.40377a.07416.07416,0,0,1,.03488.0033.07047.07047,0,0,1,.03.0186.07682.07682,0,0,1,.01937.03013.07248.07248,0,0,1,.00291.03527v.5507a.07308.07308,0,0,1-.00291.03537.08706.08706,0,0,1-.01841.03013.07948.07948,0,0,1-.031.0187.07425.07425,0,0,1-.03488.0031H123.815a.04849.04849,0,0,0-.02131.00194.04364.04364,0,0,0-.01744.01123.03779.03779,0,0,0-.01163.01822.05214.05214,0,0,0-.00194.02122v1.809a.05246.05246,0,0,0,.00194.02122.03707.03707,0,0,0,.01163.01812.04161.04161,0,0,0,.01744.01123.04571.04571,0,0,0,.02131.00194h2.832a.07659.07659,0,0,1,.03487.0032.0705.0705,0,0,1,.03.0186.07786.07786,0,0,1,.01937.03023.08689.08689,0,0,1,.00291.03536v.55032a.08749.08749,0,0,1-.00291.03546.07771.07771,0,0,1-.01937.03023.07157.07157,0,0,1-.03.0187.07679.07679,0,0,1-.03487.0033H123.0709a.07837.07837,0,0,1-.03585-.0032.076.076,0,0,1-.03-.0187.06578.06578,0,0,1-.01841-.03033.08774.08774,0,0,1-.00388-.03546Z"/>
    <path class="cls-1" d="M131.347,33.45889a.11859.11859,0,0,1-.11336-.08769l-1.1888-2.42944H128.734a.04849.04849,0,0,0-.02131.00194.04273.04273,0,0,0-.01744.01123.038.038,0,0,0-.01164.01822.0528.0528,0,0,0-.00193.02122V33.3712a.07358.07358,0,0,1-.0029.03546.08783.08783,0,0,1-.01841.03033.07963.07963,0,0,1-.031.0187.07554.07554,0,0,1-.03488.0032h-.60361a.07679.07679,0,0,1-.03487-.0033.07085.07085,0,0,1-.03-.01879.06532.06532,0,0,1-.01841-.03023.07337.07337,0,0,1-.00387-.03537V27.60274a.07308.07308,0,0,1,.00387-.03527.06577.06577,0,0,1,.01841-.03023.0704.0704,0,0,1,.03-.0186.07659.07659,0,0,1,.03487-.0032h2.14994a2.23737,2.23737,0,0,1,.76055.12237,1.72646,1.72646,0,0,1,.58618.34521,1.53615,1.53615,0,0,1,.3798.54179,1.78678,1.78678,0,0,1,.13564.7033,1.65262,1.65262,0,0,1-.31488,1.02275,1.68047,1.68047,0,0,1-.85649.594l1.26728,2.50822a.07037.07037,0,0,1,.01454.036.06634.06634,0,0,1-.00581.03856.06491.06491,0,0,1-.02617.0249.06288.06288,0,0,1-.03488.00688Zm-1.22369-3.24243a1.17739,1.17739,0,0,0,.81289-.25782,1.06638,1.06638,0,0,0,0-1.45931,1.17982,1.17982,0,0,0-.81289-.25792H128.734a.04728.04728,0,0,0-.02131.00184.04156.04156,0,0,0-.01744.01115.0373.0373,0,0,0-.01164.01812.05244.05244,0,0,0-.00193.02121v1.87012a.05265.05265,0,0,0,.00193.02122.038.038,0,0,0,.01164.01821.04265.04265,0,0,0,.01744.01124.04849.04849,0,0,0,.02131.00194Z"/>
  </g>
  <g id="ru" class="logo-text logo-text-ru">
    <path class="cls-2" d="M129.09535,14.72019l1.41051-4.03853h.01746l1.40371,4.03853ZM105.607,30.68789h-1.96771a.07664.07664,0,0,1-.08641-.08669v-.546a.07662.07662,0,0,1,.08641-.0866H105.607q-.00145-.12274-.00583-.22531c-.00485-.15891-.01262-.29181-.02135-.39869a2.64568,2.64568,0,0,0-.034-.2686c-.01456-.07223-.03106-.14018-.04756-.20367a1.34713,1.34713,0,0,0-.44073-.64137,1.24339,1.24339,0,0,0-.77757-.22531,1.1892,1.1892,0,0,0-.75039.221,1.62151,1.62151,0,0,0-.45819.56769.07614.07614,0,0,1-.12038.0433l-.51838-.25133a.085.085,0,0,1-.03495-.1127,1.91873,1.91873,0,0,1,.73875-.8796,2.09975,2.09975,0,0,1,1.14451-.30763,2.12135,2.12135,0,0,1,1.22606.34228,1.92308,1.92308,0,0,1,.72515,1.04434,2.726,2.726,0,0,1,.07281.26424,2.54025,2.54025,0,0,1,.04757.32073q.01748.18639.02621.44626.00873.26006.00874.624t-.00874.624q-.00873.2599-.02621.44625a2.53553,2.53553,0,0,1-.04757.32064,2.72083,2.72083,0,0,1-.07281.26434,1.922,1.922,0,0,1-.72515,1.04423,2.32544,2.32544,0,0,1-2.37057.03476,1.91929,1.91929,0,0,1-.73875-.8796.085.085,0,0,1,.03495-.1127l.51838-.25133a.0761.0761,0,0,1,.12038.04329,1.61965,1.61965,0,0,0,.45819.5677,1.18865,1.18865,0,0,0,.75039.221,1.24285,1.24285,0,0,0,.77757-.22541,1.34632,1.34632,0,0,0,.44073-.64128c.0165-.05776.033-.12425.04756-.19929.01359-.07514.02524-.1661.034-.273s.0165-.23978.02135-.39869q.00438-.10266.00583-.22531Zm26.652-15.24838h.88921a.07624.07624,0,0,0,.08639-.08668v-.54605a.07617.07617,0,0,0-.08639-.08659h-.44655l-1.7891-5.08713a.10909.10909,0,0,0-.1126-.08669h-.5611a.10363.10363,0,0,0-.10387.08669l-1.81239,5.08713h-.45042a.07657.07657,0,0,0-.0864.08659v.54605a.07663.07663,0,0,0,.0864.08668H132.259ZM135.74889,9.451a2.21375,2.21375,0,0,1,1.26586.34656,1.916,1.916,0,0,1,.73777,1.03133,2.60977,2.60977,0,0,1,.07378.2687,2.70609,2.70609,0,0,1,.04756.32491c.01068.12426.01942.27307.02524.44635s.00874.38131.00874.624-.00292.45063-.00874.624-.01456.3221-.02524.44635a2.9166,2.9166,0,0,1-.04756.32492,2.59591,2.59591,0,0,1-.07378.2687,1.91567,1.91567,0,0,1-.73777,1.03133,2.46689,2.46689,0,0,1-2.522,0,1.911,1.911,0,0,1-.73777-1.03133,2.59091,2.59091,0,0,1-.07378-.2687,2.70354,2.70354,0,0,1-.04756-.32492q-.01749-.18637-.02622-.44635-.00726-.26005-.00776-.624,0-.364.00776-.624.00876-.25992.02622-.44635a2.70609,2.70609,0,0,1,.04756-.32491,2.60472,2.60472,0,0,1,.07378-.2687,1.91067,1.91067,0,0,1,.73777-1.03133A2.19444,2.19444,0,0,1,135.74889,9.451Zm0,5.36438a1.33846,1.33846,0,0,0,.80378-.22531,1.25413,1.25413,0,0,0,.44848-.64992,1.48527,1.48527,0,0,0,.04757-.195q.02184-.11693.04369-.29025c.01359-.11562.02427-.25133.03009-.40743s.00874-.34083.00874-.55459-.00292-.39859-.00874-.55468-.0165-.29172-.03009-.40724q-.02185-.17342-.04369-.29035a1.47518,1.47518,0,0,0-.04757-.19492,1.254,1.254,0,0,0-.44848-.65,1.33846,1.33846,0,0,0-.80378-.22531,1.312,1.312,0,0,0-.798.22531,1.254,1.254,0,0,0-.44459.65,1.3375,1.3375,0,0,0-.04758.19492q-.02184.11692-.04368.29035c-.01456.11552-.02427.25124-.03009.40724s-.00874.34092-.00874.55468.00291.39859.00874.55459.01553.29181.03009.40743.02912.2123.04368.29025a1.34593,1.34593,0,0,0,.04758.195,1.25408,1.25408,0,0,0,.44459.64992A1.312,1.312,0,0,0,135.74889,14.81542Zm3.40248-5.18236a.0766.0766,0,0,1,.0864-.08669h2.08129a1.86217,1.86217,0,0,1,1.32994.42034,1.49094,1.49094,0,0,1,.43974,1.13092,1.41026,1.41026,0,0,1-.22035.83194,1.24979,1.24979,0,0,1-.565.45072v.01728a1.11959,1.11959,0,0,1,.30675.15163,1.26419,1.26419,0,0,1,.28929.27734,1.45661,1.45661,0,0,1,.21162.403,1.60115,1.60115,0,0,1,.08155.52867,1.56181,1.56181,0,0,1-.49606,1.25664,2.12567,2.12567,0,0,1-1.42119.4247h-2.0376a.07663.07663,0,0,1-.0864-.08668V9.63306Zm2.15022,2.46124a1.06846,1.06846,0,0,0,.76009-.25142.87146.87146,0,0,0,.26793-.6672.88245.88245,0,0,0-.26793-.676,1.06888,1.06888,0,0,0-.76009-.25133h-1.32994a.04584.04584,0,0,0-.05144.052v1.74192a.04591.04591,0,0,0,.05144.052Zm-1.38138,2.59113a.04584.04584,0,0,0,.05144.052h1.37265a1.1197,1.1197,0,0,0,.80378-.26424,1.04264,1.04264,0,0,0,0-1.41264,1.11976,1.11976,0,0,0-.80378-.26443h-1.37265a.04587.04587,0,0,0-.05144.052v1.83724Zm5.93226-5.05237a.10338.10338,0,0,1,.1029-.08669h.56208a.10741.10741,0,0,1,.11162.08669l2.01237,5.71977c.01748.05776-.0029.08668-.06018.08668h-.60478a.10921.10921,0,0,1-.11261-.08668l-.44849-1.28256h-2.37446l-.44946,1.28256a.11751.11751,0,0,1-.1126.08668h-.6038c-.05826,0-.07766-.02892-.06116-.08668l2.03857-5.71977Zm1.31246,3.72642-.92415-2.67782h-.01748l-.93192,2.67782Zm2.4094-3.72642a.07592.07592,0,0,1,.08544-.08669h.596a.07621.07621,0,0,1,.08639.08669v2.41785a.04614.04614,0,0,0,.05242.052h2.54726a.04583.04583,0,0,0,.05144-.052V9.63306a.0766.0766,0,0,1,.0864-.08669h.596a.0766.0766,0,0,1,.0864.08669v5.71977a.07663.07663,0,0,1-.0864.08668h-.596a.07663.07663,0,0,1-.0864-.08668V12.8742a.04587.04587,0,0,0-.05144-.052h-2.54726a.04618.04618,0,0,0-.05242.052v2.47863a.07624.07624,0,0,1-.08639.08668h-.596a.076.076,0,0,1-.08544-.08668ZM150.815,27.4683a.07657.07657,0,0,0-.08638-.0866h-.55236a.15026.15026,0,0,0-.14659.0866l-2.65986,4.41983h-.035V27.4683a.07619.07619,0,0,0-.0864-.0866h-.54362a.07657.07657,0,0,0-.0864.0866v5.71976a.07664.07664,0,0,0,.0864.08669h.55236a.15034.15034,0,0,0,.14659-.08669l2.66859-4.40245h.02622v4.40245a.07625.07625,0,0,0,.0864.08669h.54362a.07663.07663,0,0,0,.08638-.08669Zm-10.96658,0a.07619.07619,0,0,0-.08639-.0866h-.55236a.15023.15023,0,0,0-.14658.0866l-2.65987,4.41983h-.034V27.4683a.07657.07657,0,0,0-.08638-.0866h-.5446a.07657.07657,0,0,0-.0864.0866v5.71976a.07664.07664,0,0,0,.0864.08669h.55332a.15121.15121,0,0,0,.14658-.08669l2.66763-4.40245h.02622v4.40245a.07663.07663,0,0,0,.08639.08669h.54363a.07625.07625,0,0,0,.08639-.08669V27.4683Zm3.21319-9.10343a1.19847,1.19847,0,0,1-.82029-.273,1.02,1.02,0,0,1-.35335-.70632.07087.07087,0,0,1,.07766-.08669h.31065c.04562,0,.07668.02932.09512.08669a.6434.6434,0,0,0,.69021.45062.62332.62332,0,0,0,.68244-.45062.10286.10286,0,0,1,.10388-.08669h.30189a.07122.07122,0,0,1,.07766.08669,1.021,1.021,0,0,1-.35433.70632,1.18416,1.18416,0,0,1-.81154.273Zm2.124.18581a.07664.07664,0,0,0-.0864-.08669h-.55236a.15258.15258,0,0,0-.14754.08669l-2.65889,4.41983h-.03494V18.55068a.07626.07626,0,0,0-.08641-.08669h-.54361a.07664.07664,0,0,0-.08641.08669v5.71976a.07664.07664,0,0,0,.08641.08669h.55235a.15033.15033,0,0,0,.14659-.08669l2.66859-4.40245h.02622v4.40245a.07624.07624,0,0,0,.08638.08669h.54362a.07664.07664,0,0,0,.0864-.08669Zm-7.59905,5.90168a2.19442,2.19442,0,0,1-1.25614-.34656,1.91068,1.91068,0,0,1-.73778-1.03132,2.60231,2.60231,0,0,1-.07377-.26861,2.70767,2.70767,0,0,1-.04758-.325q-.01746-.18624-.0262-.44635-.00873-.25992-.00874-.624t.00874-.6239q.00873-.26007.0262-.44635a2.7019,2.7019,0,0,1,.04758-.325,2.60231,2.60231,0,0,1,.07377-.26861,1.91038,1.91038,0,0,1,.73778-1.03132,2.465,2.465,0,0,1,2.521,0,1.91183,1.91183,0,0,1,.73875,1.03132,2.60229,2.60229,0,0,1,.07376.26861,2.91456,2.91456,0,0,1,.04758.325c.01068.12425.0194.273.02524.44635s.00873.38121.00873.6239-.00291.45072-.00873.624-.01456.32219-.02524.44635a2.92127,2.92127,0,0,1-.04758.325,2.60229,2.60229,0,0,1-.07376.26861,1.91212,1.91212,0,0,1-.73875,1.03132A2.20833,2.20833,0,0,1,137.58651,24.45236Zm0-.71923a1.33909,1.33909,0,0,0,.80379-.22531,1.25439,1.25439,0,0,0,.44849-.65,1.4815,1.4815,0,0,0,.04756-.19493c.01457-.078.02913-.17483.04272-.29035.01456-.11552.02524-.25133.03107-.40733s.00874-.34093.00874-.55469-.00292-.39859-.00874-.55459-.01651-.29171-.03107-.40733c-.01359-.11552-.02815-.2123-.04272-.29035a1.4815,1.4815,0,0,0-.04756-.19493,1.25439,1.25439,0,0,0-.44849-.65,1.33906,1.33906,0,0,0-.80379-.22522,1.31757,1.31757,0,0,0-.79892.22522,1.2657,1.2657,0,0,0-.4446.65,1.65786,1.65786,0,0,0-.04758.19493c-.01358.07805-.02814.17483-.0427.29035s-.02428.25133-.0301.40733-.00874.34093-.00874.55459.00292.39869.00874.55469.01554.29181.0301.40733.02912.2124.0427.29035a1.65786,1.65786,0,0,0,.04758.19493,1.2657,1.2657,0,0,0,.4446.65A1.31759,1.31759,0,0,0,137.58651,23.73313Zm-17.52886.624a.07664.07664,0,0,1-.0864-.08669V18.55068a.07664.07664,0,0,1,.0864-.08669h2.09a2.24165,2.24165,0,0,1,.76883.12571,1.666,1.666,0,0,1,.58633.3553,1.59013,1.59013,0,0,1,.37569.55468,2.02128,2.02128,0,0,1,0,1.4472,1.59026,1.59026,0,0,1-.37569.55469,1.66584,1.66584,0,0,1-.58633.35529,2.24167,2.24167,0,0,1-.76883.12562h-1.35615a.04588.04588,0,0,0-.05145.052v2.23593a.07663.07663,0,0,1-.08639.08669Zm2.04634-3.09388a1.20448,1.20448,0,0,0,.8465-.27735,1.11417,1.11417,0,0,0,0-1.52524,1.20448,1.20448,0,0,0-.8465-.27734h-1.31246a.04584.04584,0,0,0-.05145.052v1.976a.04581.04581,0,0,0,.05145.05194Zm4.92269,3.18911a2.19762,2.19762,0,0,1-1.25712-.34656,1.91552,1.91552,0,0,1-.73778-1.03132,2.60231,2.60231,0,0,1-.07377-.26861,2.70767,2.70767,0,0,1-.04758-.325c-.01164-.12416-.0194-.27307-.02524-.44635s-.00872-.38131-.00872-.624.0029-.45062.00872-.6239.0136-.3221.02524-.44635a2.7019,2.7019,0,0,1,.04758-.325,2.60231,2.60231,0,0,1,.07377-.26861,1.91523,1.91523,0,0,1,.73778-1.03132,2.4668,2.4668,0,0,1,2.522,0,1.91039,1.91039,0,0,1,.73779,1.03132,2.60229,2.60229,0,0,1,.07376.26861,2.7019,2.7019,0,0,1,.04758.325c.01164.12425.02038.273.02522.44635q.00876.25992.00874.6239t-.00874.624c-.00484.17328-.01358.32219-.02522.44635a2.70767,2.70767,0,0,1-.04758.325,2.60229,2.60229,0,0,1-.07376.26861,1.91069,1.91069,0,0,1-.73779,1.03132A2.21259,2.21259,0,0,1,127.02668,24.45236Zm0-.71923a1.336,1.336,0,0,0,.80281-.22531,1.25439,1.25439,0,0,0,.44849-.65,1.48309,1.48309,0,0,0,.04756-.19493q.02184-.11693.04369-.29035c.01456-.11552.02426-.25133.0301-.40733s.00872-.34093.00872-.55469-.0029-.39859-.00872-.55459-.01554-.29171-.0301-.40733-.02913-.2123-.04369-.29035a1.48309,1.48309,0,0,0-.04756-.19493,1.25439,1.25439,0,0,0-.44849-.65,1.336,1.336,0,0,0-.80281-.22522,1.31561,1.31561,0,0,0-.79893.22522,1.26,1.26,0,0,0-.44461.65,1.47991,1.47991,0,0,0-.04756.19493q-.02184.11707-.04368.29035c-.01456.11562-.02428.25133-.0301.40733s-.00874.34093-.00874.55459.00292.39869.00874.55469.01554.29181.0301.40733.02912.2124.04368.29035a1.47991,1.47991,0,0,0,.04756.19493,1.26,1.26,0,0,0,.44461.65A1.31563,1.31563,0,0,0,127.02668,23.73313Zm3.40151-5.18245a.07664.07664,0,0,1,.0864-.08669h2.08129a1.86256,1.86256,0,0,1,1.32993.42033,1.491,1.491,0,0,1,.43975,1.13093,1.41749,1.41749,0,0,1-.21938.832,1.25629,1.25629,0,0,1-.566.45053v.01747a1.11727,1.11727,0,0,1,.30677.15163,1.26386,1.26386,0,0,1,.28927.27725,1.45764,1.45764,0,0,1,.21163.403,1.60161,1.60161,0,0,1,.08154.52877,1.56173,1.56173,0,0,1-.49606,1.25654,2.12506,2.12506,0,0,1-1.42117.4247h-2.03761a.07664.07664,0,0,1-.0864-.08669V18.55068Zm2.15022,2.46124a1.06888,1.06888,0,0,0,.7601-.25133.87173.87173,0,0,0,.26793-.66729.88234.88234,0,0,0-.26793-.67594,1.06892,1.06892,0,0,0-.7601-.25132h-1.32993a.04584.04584,0,0,0-.05146.052v1.74182a.04588.04588,0,0,0,.05146.052ZM131.197,23.60315a.04588.04588,0,0,0,.05146.052h1.37361a1.11879,1.11879,0,0,0,.80282-.26433,1.04264,1.04264,0,0,0,0-1.41264,1.11879,1.11879,0,0,0-.80282-.26434h-1.37361a.04588.04588,0,0,0-.05146.052v1.83725Zm-15.37962.47256a2.19445,2.19445,0,0,1-1.25615-.34665,1.91111,1.91111,0,0,1-.73778-1.03133,2.60231,2.60231,0,0,1-.07377-.26861,2.70783,2.70783,0,0,1-.04757-.325c-.01165-.12415-.02524-.27287-.02524-.44635v-.4944c0-.17347.01359-.3221.02524-.44635a2.70176,2.70176,0,0,1,.04757-.325,2.60231,2.60231,0,0,1,.07377-.26861,1.91068,1.91068,0,0,1,.73778-1.03132,2.19369,2.19369,0,0,1,1.25615-.34666v-.19473a.07664.07664,0,0,1,.0864-.08669h.596a.07626.07626,0,0,1,.0864.08669v.19473a2.19155,2.19155,0,0,1,1.25615.34666,1.912,1.912,0,0,1,.73874,1.03132,2.60485,2.60485,0,0,1,.07378.26861,2.71957,2.71957,0,0,1,.0466.325c.01165.12425.02621.27288.02621.44635v.4944c0,.17348-.01456.3222-.02621.44635a2.72561,2.72561,0,0,1-.0466.325c-.02039.09242-.04563.18182-.07378.26861a1.91729,1.91729,0,0,1-.73874,1.03133,2.19231,2.19231,0,0,1-1.25615.34665v.19473a.07626.07626,0,0,1-.0864.08669h-.596a.07664.07664,0,0,1-.0864-.08669Zm.76884-4.61088v3.89155a1.317,1.317,0,0,0,.79892-.22531,1.266,1.266,0,0,0,.44461-.65,1.48334,1.48334,0,0,0,.04757-.19493q.02184-.11707.04368-.29035a3.34854,3.34854,0,0,0,.03009-.40733v-.35578a3.34854,3.34854,0,0,0-.03009-.40733q-.02184-.17328-.04368-.29025a1.47768,1.47768,0,0,0-.04757-.195,1.26556,1.26556,0,0,0-.44461-.65A1.31757,1.31757,0,0,0,116.58624,19.46483Zm-.76884,0a1.31456,1.31456,0,0,0-.798.22522,1.25436,1.25436,0,0,0-.4446.65,1.47927,1.47927,0,0,0-.04757.195q-.02184.11693-.04368.29025a3.16372,3.16372,0,0,0-.0301.40733v.35578a3.16372,3.16372,0,0,0,.0301.40733q.02184.17328.04368.29035a1.48494,1.48494,0,0,0,.04757.19493,1.26039,1.26039,0,0,0,.4446.65,1.314,1.314,0,0,0,.798.22531Zm-3.385-.91415a.07625.07625,0,0,0-.0864-.08669h-.55235a.15122.15122,0,0,0-.14659.08669l-2.65986,4.41983h-.034V18.55068a.07663.07663,0,0,0-.08639-.08669h-.5446a.07663.07663,0,0,0-.08639.08669v5.71976a.07663.07663,0,0,0,.08639.08669h.55333a.15121.15121,0,0,0,.14658-.08669l2.66763-4.40245h.02621v4.40245a.07664.07664,0,0,0,.0864.08669h.54362a.07625.07625,0,0,0,.0864-.08669V18.55068Zm-5.64493,7.12609a.08573.08573,0,0,1-.09707-.09717V24.4145a.05016.05016,0,0,0-.04465-.05737h-3.96165a.07659.07659,0,0,1-.08639-.08669V18.55068a.07663.07663,0,0,1,.08639-.08669h.596a.076.076,0,0,1,.08544.08669v5.03519a.0461.0461,0,0,0,.05241.05194h2.54725a.04543.04543,0,0,0,.05146-.05194V18.55068a.07664.07664,0,0,1,.0864-.08669h.596a.07663.07663,0,0,1,.08639.08669v5.08713h.54363a.08543.08543,0,0,1,.0961.09717V25.5796a.08543.08543,0,0,1-.0961.09717Zm0-17.83535a.08568.08568,0,0,1-.09707-.0971V6.57924a.05019.05019,0,0,0-.04465-.05743h-3.96165a.07659.07659,0,0,1-.08639-.08665V.71542a.07662.07662,0,0,1,.08639-.08672h.596a.07594.07594,0,0,1,.08544.08672V5.75051a.04616.04616,0,0,0,.05241.052h2.54725a.04549.04549,0,0,0,.05146-.052V.71542a.07662.07662,0,0,1,.0864-.08672h.596a.07662.07662,0,0,1,.08639.08672V5.80254h.54363a.08536.08536,0,0,1,.0961.097V7.74434a.08539.08539,0,0,1-.0961.09711h-.54169Zm56.19685,1.483a1.20045,1.20045,0,0,1-.82028-.273,1.04039,1.04039,0,0,1-.35336-.70632c0-.05778.02524-.0867.07767-.0867h.31063c.04562,0,.07766.02892.09514.0867a.64515.64515,0,0,0,.6902.45069.62313.62313,0,0,0,.68244-.45069.1044.1044,0,0,1,.10387-.0867h.30191c.05242,0,.07764.02892.07764.0867a1.0403,1.0403,0,0,1-.35335.70632,1.18823,1.18823,0,0,1-.81251.273Zm2.07159.30867a.07592.07592,0,0,0-.08544-.08669h-.55332a.15106.15106,0,0,0-.14658.08669l-2.65987,4.41973h-.034V9.63306a.0766.0766,0,0,0-.0864-.08669h-.54459a.0766.0766,0,0,0-.0864.08669v5.71977a.07663.07663,0,0,0,.0864.08668h.55333a.15123.15123,0,0,0,.14659-.08668l2.66763-4.40256h.0262v4.40256a.07663.07663,0,0,0,.0864.08668h.54458a.076.076,0,0,0,.08544-.08668V9.63306Zm-5.64687,0a.0766.0766,0,0,0-.0864-.08669h-.55236a.15018.15018,0,0,0-.14658.08669l-2.65987,4.41973h-.03494V9.63306a.07621.07621,0,0,0-.0864-.08669h-.54362a.07659.07659,0,0,0-.08639.08669v5.71977a.07663.07663,0,0,0,.08639.08668h.55236a.1503.1503,0,0,0,.14658-.08668l2.66861-4.40256h.0262v4.40256a.07625.07625,0,0,0,.0864.08668h.54362a.07663.07663,0,0,0,.0864-.08668V9.63306Zm-52.61477,0a.0766.0766,0,0,0-.0864-.08669h-.55236a.15154.15154,0,0,0-.14755.08669l-2.65889,4.41973h-.03495V9.63306a.0766.0766,0,0,0-.0864-.08669h-.54362a.07659.07659,0,0,0-.08639.08669v5.71977a.07663.07663,0,0,0,.08639.08668h.55236a.15033.15033,0,0,0,.14659-.08668l2.6686-4.40256h.02621v4.40256a.07624.07624,0,0,0,.08639.08668h.54362a.07663.07663,0,0,0,.0864-.08668Zm.6902,17.83524a.07657.07657,0,0,1,.0864-.0866h.59605a.07619.07619,0,0,1,.08639.0866v3.068l2.4958-3.0766a.15783.15783,0,0,1,.13785-.078h.70865a.05383.05383,0,0,1,.05533.03029c.00874.02019.00194.04475-.02136.07358l-1.83083,2.21,2.01237,3.48383c.0398.06359.0233.09533-.05145.09533h-.69118a.13453.13453,0,0,1-.12134-.07795l-1.64931-2.90323-1.04453,1.26518v1.62931a.07625.07625,0,0,1-.08639.08669h-.59605a.07664.07664,0,0,1-.0864-.08669V27.4683Zm7.2622,5.90178a2.19371,2.19371,0,0,1-1.25615-.34666,1.91662,1.91662,0,0,1-.73874-1.03123q-.04223-.13-.07281-.2687a2.70206,2.70206,0,0,1-.04757-.325q-.01748-.18624-.02621-.44625t-.00874-.624q0-.364.00874-.624t.02621-.44626a2.70187,2.70187,0,0,1,.04757-.325q.03058-.13878.07281-.26861a1.91617,1.91617,0,0,1,.73874-1.03133,2.46511,2.46511,0,0,1,2.521,0,1.91128,1.91128,0,0,1,.73874,1.03133,2.591,2.591,0,0,1,.07378.26861,2.71968,2.71968,0,0,1,.0466.325q.01748.18639.02621.44626.00873.26006.00874.624t-.00874.624q-.00874.2599-.02621.44625a2.71987,2.71987,0,0,1-.0466.325,2.59962,2.59962,0,0,1-.07378.2687,1.91173,1.91173,0,0,1-.73874,1.03123A2.20757,2.20757,0,0,1,114.74666,33.37008Zm0-.71923a1.33335,1.33335,0,0,0,.80281-.22541,1.24994,1.24994,0,0,0,.44946-.64992,1.48507,1.48507,0,0,0,.04757-.195c.01456-.078.02912-.17474.04271-.29026.01456-.11561.02524-.25142.03107-.40732s.00776-.34093.00776-.55469-.00194-.39869-.00776-.55459-.01651-.29181-.03107-.40733c-.01359-.11562-.02815-.2123-.04271-.29035a1.48167,1.48167,0,0,0-.04757-.195,1.25059,1.25059,0,0,0-.44946-.65,1.33394,1.33394,0,0,0-.80281-.22531,1.31762,1.31762,0,0,0-.79893.22531,1.26609,1.26609,0,0,0-.44461.65,1.6565,1.6565,0,0,0-.04756.195c-.01359.07805-.02815.17473-.04271.29035s-.02427.25133-.03009.40733-.00874.34083-.00874.55459.00291.39869.00874.55469.01553.29171.03009.40732.02912.21231.04271.29026a1.66077,1.66077,0,0,0,.04756.195,1.26542,1.26542,0,0,0,.44461.64992A1.317,1.317,0,0,0,114.74666,32.65085Zm3.40249-5.18246a.0766.0766,0,0,1,.08639-.08669h.59605a.0766.0766,0,0,1,.08639.08669v2.41785a.0455.0455,0,0,0,.05145.052h2.54726a.0455.0455,0,0,0,.05145-.052V27.46839a.0766.0766,0,0,1,.08639-.08669h.596a.0766.0766,0,0,1,.0864.08669v5.71967a.07667.07667,0,0,1-.0864.08679h-.596a.07667.07667,0,0,1-.08639-.08679V30.70954a.04543.04543,0,0,0-.05145-.05194h-2.54726a.04542.04542,0,0,0-.05145.05194v2.47852a.07667.07667,0,0,1-.08639.08679h-.59605a.07667.07667,0,0,1-.08639-.08679Zm7.58157,5.90169a2.19155,2.19155,0,0,1-1.25615-.34666,1.91179,1.91179,0,0,1-.73875-1.03123,2.59709,2.59709,0,0,1-.07377-.2687,2.91385,2.91385,0,0,1-.04757-.32491c-.01067-.12426-.01941-.27308-.02523-.44635s-.00874-.38131-.00874-.624.00291-.45063.00874-.624.01456-.322.02523-.44626a2.91221,2.91221,0,0,1,.04757-.325,2.58852,2.58852,0,0,1,.07377-.26861,1.91171,1.91171,0,0,1,.73875-1.03133,2.46513,2.46513,0,0,1,2.52105,0,1.91071,1.91071,0,0,1,.73776,1.03133,2.59105,2.59105,0,0,1,.07379.26861,2.702,2.702,0,0,1,.04756.325q.01746.18639.0262.44626.00876.26006.00874.624t-.00874.624q-.00873.2599-.0262.44635a2.70335,2.70335,0,0,1-.04756.32491,2.59964,2.59964,0,0,1-.07379.2687,1.91,1.91,0,0,1-.73776,1.03123A2.20981,2.20981,0,0,1,125.73072,33.37008Zm0-.71923a1.33338,1.33338,0,0,0,.80281-.22541,1.25,1.25,0,0,0,.44947-.64992,1.50306,1.50306,0,0,0,.04658-.19493q.02184-.11706.04369-.29035c.01457-.11561.02427-.25142.03009-.40732s.00874-.34093.00874-.55469-.00291-.39869-.00874-.55459-.01552-.29181-.03009-.40733-.02913-.2123-.04369-.29035a1.49776,1.49776,0,0,0-.04658-.195,1.25066,1.25066,0,0,0-.44947-.65,1.334,1.334,0,0,0-.80281-.22531,1.31765,1.31765,0,0,0-.79893.22531,1.266,1.266,0,0,0-.4446.65,1.48326,1.48326,0,0,0-.04757.195c-.01456.07805-.02912.17473-.04271.29035-.01456.11552-.02524.25133-.03106.40733s-.00874.34083-.00874.55459.0029.39869.00874.55469.0165.29171.03106.40732c.01359.11552.02815.21231.04271.29035a1.48856,1.48856,0,0,0,.04757.19493,1.25962,1.25962,0,0,0,.4446.64992A1.31707,1.31707,0,0,0,125.73072,32.65085Zm3.40151-5.18246a.0766.0766,0,0,1,.0864-.08669h.56206a.13426.13426,0,0,1,.13785.08669l1.75319,3.96911h.02523l1.71823-3.96911a.13553.13553,0,0,1,.13883-.08669h.56109a.0766.0766,0,0,1,.08639.08669v5.71967a.07667.07667,0,0,1-.08639.08679h-.54363a.07628.07628,0,0,1-.08639-.08679V29.089h-.02621l-1.459,3.24124a.1559.1559,0,0,1-.15532.104h-.34559a.16134.16134,0,0,1-.16405-.104l-1.46-3.24124h-.02524v4.09909a.07667.07667,0,0,1-.08639.08679h-.5446a.07667.07667,0,0,1-.0864-.08679V27.46839Zm12.16742,0a.07621.07621,0,0,1,.08639-.08669h.59508a.07622.07622,0,0,1,.0864.08669v3.06787l2.4958-3.07651a.15906.15906,0,0,1,.13785-.07805h.70864a.05523.05523,0,0,1,.0563.03029.076.076,0,0,1-.02232.07368l-1.82988,2.20992,2.01141,3.48383c.04076.06359.0233.09543-.05145.09543h-.69118a.13232.13232,0,0,1-.12038-.078l-1.6493-2.90313-1.04549,1.26518v1.62921a.07629.07629,0,0,1-.0864.08679H141.386a.07628.07628,0,0,1-.08639-.08679V27.46839ZM108.23583.71543a.07662.07662,0,0,1,.08639-.08672h3.5316a.07624.07624,0,0,1,.0864.08672v.54591a.07627.07627,0,0,1-.0864.08672h-2.79771a.04584.04584,0,0,0-.05145.052V3.1333a.04582.04582,0,0,0,.05145.052h2.37543a.076.076,0,0,1,.08543.08672v.546a.07593.07593,0,0,1-.08543.08665h-2.37543a.04585.04585,0,0,0-.05145.052V5.75052a.04586.04586,0,0,0,.05145.052h2.79771a.0762.0762,0,0,1,.0864.08659v.546a.07622.07622,0,0,1-.0864.08665h-3.5316a.07659.07659,0,0,1-.08639-.08665V.71544Zm4.86152,0a.07662.07662,0,0,1,.0864-.08672h.596a.07662.07662,0,0,1,.0864.08672V3.1333a.04582.04582,0,0,0,.05145.052h2.54725a.04612.04612,0,0,0,.05242-.052V.71543a.07623.07623,0,0,1,.0864-.08672h.59507a.07623.07623,0,0,1,.0864.08672V6.43517a.07621.07621,0,0,1-.0864.08665h-.59507a.07621.07621,0,0,1-.0864-.08665V3.95657a.04615.04615,0,0,0-.05242-.052h-2.54725a.04585.04585,0,0,0-.05145.052v2.4786a.0766.0766,0,0,1-.0864.08665h-.596a.0766.0766,0,0,1-.0864-.08665Zm6.93409,5.8064a.0766.0766,0,0,1-.0864-.08665V1.4a.04584.04584,0,0,0-.05145-.052H118.287a.07664.07664,0,0,1-.08639-.08672V.71543A.07662.07662,0,0,1,118.287.62871h4.08493a.07662.07662,0,0,1,.0864.08672v.54591a.07665.07665,0,0,1-.0864.08672h-1.6066a.04585.04585,0,0,0-.05145.052V6.43518a.07659.07659,0,0,1-.08639.08665Zm3.42772,0a.0766.0766,0,0,1-.0864-.08665V.71544a.07662.07662,0,0,1,.0864-.08672h2.09a2.23911,2.23911,0,0,1,.76883.12567,1.67048,1.67048,0,0,1,.58732.35531,1.57468,1.57468,0,0,1,.37471.55467,1.88213,1.88213,0,0,1,.134.72361,1.88243,1.88243,0,0,1-.134.72366,1.57471,1.57471,0,0,1-.37471.55461,1.6686,1.6686,0,0,1-.58732.35532,2.23791,2.23791,0,0,1-.76883.12572h-1.35614a.04585.04585,0,0,0-.05145.052V6.43518a.0766.0766,0,0,1-.0864.08665Zm2.04731-3.09389a1.20373,1.20373,0,0,0,.84553-.27736.98224.98224,0,0,0,.30287-.76261.98243.98243,0,0,0-.30287-.76262,1.20371,1.20371,0,0,0-.84553-.27729h-1.31342a.04585.04585,0,0,0-.05145.052V3.37592a.04586.04586,0,0,0,.05145.052h1.31342ZM108.19312,14.14822a2.39666,2.39666,0,0,1-.12135-.585c-.01068-.12425-.01942-.273-.02524-.44635s-.00874-.38131-.00874-.6239.00291-.45072.00874-.624.01359-.32219.02524-.44635a2.39666,2.39666,0,0,1,.12135-.585,1.91847,1.91847,0,0,1,.72514-1.04433,2.12205,2.12205,0,0,1,1.22606-.34229,2.10061,2.10061,0,0,1,1.14452.30763,1.91715,1.91715,0,0,1,.73777.8797.08469.08469,0,0,1-.034.1127l-.51837.25123a.0769.0769,0,0,1-.12135-.04329,1.60861,1.60861,0,0,0-.45722-.5677,1.19408,1.19408,0,0,0-.75137-.22094,1.24046,1.24046,0,0,0-.77659.22531,1.34729,1.34729,0,0,0-.44073.64128c-.01747.06358-.033.13144-.04756.20366a2.366,2.366,0,0,0-.035.26871c-.00777.10688-.01553.23977-.02136.39868s-.00873.35375-.00873.585q0,.34656.00873.585c.00583.15881.01359.29171.02136.39859a2.55585,2.55585,0,0,0,.035.273,2.03266,2.03266,0,0,0,.04756.1993,1.34664,1.34664,0,0,0,.44073.64137,1.2404,1.2404,0,0,0,.77659.22531,1.19408,1.19408,0,0,0,.75137-.22094,1.60867,1.60867,0,0,0,.45722-.56769.0769.0769,0,0,1,.12135-.0433l.51837.25133a.08457.08457,0,0,1,.034.1126,1.91588,1.91588,0,0,1-.73777.8796,2.09981,2.09981,0,0,1-1.14452.30773,2.12205,2.12205,0,0,1-1.22606-.34229,1.9181,1.9181,0,0,1-.72514-1.04433Zm4.88773,0a2.73046,2.73046,0,0,1-.07377-.26434,2.53553,2.53553,0,0,1-.04757-.32064q-.01747-.18637-.02622-.44635t-.00873-.6239q0-.364.00873-.624t.02622-.44635a2.53553,2.53553,0,0,1,.04757-.32064,2.73845,2.73845,0,0,1,.07377-.26434,1.91843,1.91843,0,0,1,.72515-1.04433,2.12205,2.12205,0,0,1,1.22606-.34229,2.0996,2.0996,0,0,1,1.14355.30763,1.91909,1.91909,0,0,1,.73874.8797.08412.08412,0,0,1-.03495.1127l-.51741.25123a.07674.07674,0,0,1-.12135-.04329,1.61913,1.61913,0,0,0-.45721-.5677,1.1941,1.1941,0,0,0-.75137-.22094,1.24539,1.24539,0,0,0-.77757.22531,1.34589,1.34589,0,0,0-.43975.64128c-.01748.06358-.034.13144-.04757.20366a2.36824,2.36824,0,0,0-.03495.26871c-.00873.10688-.01553.23977-.02135.39868s-.00874.35375-.00874.585q0,.34656.00874.585c.00582.15881.01262.29171.02135.39859a2.55843,2.55843,0,0,0,.03495.273,1.7852,1.7852,0,0,0,.04757.1993,1.34524,1.34524,0,0,0,.43975.64137,1.24533,1.24533,0,0,0,.77757.22531,1.1941,1.1941,0,0,0,.75137-.22094,1.61918,1.61918,0,0,0,.45721-.56769.07675.07675,0,0,1,.12135-.0433l.51741.25133a.084.084,0,0,1,.03495.1126,1.91781,1.91781,0,0,1-.73874.8796,2.09879,2.09879,0,0,1-1.14355.30773,2.12205,2.12205,0,0,1-1.22606-.34229,1.91806,1.91806,0,0,1-.72515-1.04433Zm5.19741,1.20461,1.6328-4.67117h.01651l1.62406,4.67117a.11054.11054,0,0,0,.11164.08668h.60478c.05727,0,.07766-.02892.06019-.08668l-2.0114-5.71977a.10921.10921,0,0,0-.11261-.08669h-.56109a.10372.10372,0,0,0-.10388.08669l-2.0376,5.71977c-.01748.05776.00291.08668.06018.08668h.60478a.11287.11287,0,0,0,.11164-.08668Zm4.98287-5.71977a.07625.07625,0,0,1,.0864-.08669h3.53159a.07664.07664,0,0,1,.0864.08669V10.179a.07664.07664,0,0,1-.0864.08669h-2.79771a.0461.0461,0,0,0-.05242.05193V12.051a.0461.0461,0,0,0,.05242.05193h2.37447a.07659.07659,0,0,1,.08639.08669v.546a.07663.07663,0,0,1-.08639.08669h-2.37447a.0461.0461,0,0,0-.05242.05193v1.794a.04618.04618,0,0,0,.05242.052h2.79771a.07661.07661,0,0,1,.0864.08659v.54605a.07663.07663,0,0,1-.0864.08668h-3.53159a.07624.07624,0,0,1-.0864-.08668V9.63306Z"/>
  </g>
  <g id="uz" class="logo-text logo-text-uz">
    <path class="cls-2" d="M106.73089,6.57154a.11805.11805,0,0,1-.113-.08706l-1.184-2.42h-1.306a.04637.04637,0,0,0-.052.05227V6.48448a.0769.0769,0,0,1-.087.08706h-.601a.07691.07691,0,0,1-.087-.08706V.73931a.07694.07694,0,0,1,.087-.08707h2.142a2.22812,2.22812,0,0,1,.757.12189,1.71293,1.71293,0,0,1,.583.34386,1.52114,1.52114,0,0,1,.379.53966,1.774,1.774,0,0,1,.135.70074,1.64829,1.64829,0,0,1-.313,1.01849,1.68083,1.68083,0,0,1-.853.59193l1.262,2.49827a.07064.07064,0,0,1,.008.074.06209.06209,0,0,1-.06.03049Zm-1.219-3.22948a1.17266,1.17266,0,0,0,.81-.25678.92591.92591,0,0,0,.287-.72689.9258.9258,0,0,0-.287-.72684,1.17242,1.17242,0,0,0-.81-.25678h-1.384a.04633.04633,0,0,0-.052.05221V3.28981a.04634.04634,0,0,0,.052.05226Zm4.692-2.60275a.10562.10562,0,0,1,.105-.08707h.566a.10955.10955,0,0,1,.113.08707l2.028,5.74517c.017.05809-.003.08706-.061.08706h-.609a.10878.10878,0,0,1-.113-.08706l-.453-1.2883h-2.394l-.453,1.2883a.11718.11718,0,0,1-.113.08706h-.609c-.058,0-.078-.029-.061-.08706Zm1.323,3.74305-.931-2.68976h-.017l-.94,2.68976Zm4.388,2.185a2.2188,2.2188,0,0,1-1.267-.34824,1.92348,1.92348,0,0,1-.744-1.03582,2.55694,2.55694,0,0,1-.074-.26987,2.87558,2.87558,0,0,1-.048-.32645c-.012-.12476-.02-.27418-.026-.44828s-.009-.383-.009-.6268.003-.45265.009-.62675.014-.32351.026-.44828a2.878,2.878,0,0,1,.048-.32645,2.55808,2.55808,0,0,1,.074-.26986,1.92355,1.92355,0,0,1,.744-1.03583,2.4936,2.4936,0,0,1,2.542,0,1.92347,1.92347,0,0,1,.744,1.03583,2.55987,2.55987,0,0,1,.074.26986,2.49073,2.49073,0,0,1,.048.32645c.012.12477.02.27419.026.44828s.009.383.009.62675-.003.45265-.009.6268-.014.32352-.026.44828a2.48893,2.48893,0,0,1-.048.32645,2.56006,2.56006,0,0,1-.074.26987,1.85718,1.85718,0,0,1-.1.25678q-.057.11747-.126.23068l.618.60934a.0836.0836,0,0,1,0,.12188l-.383.40909a.10175.10175,0,0,1-.061.03048.08608.08608,0,0,1-.07-.03048l-.609-.60064A2.20386,2.20386,0,0,1,115.91489,6.66732Zm0-.72252a1.42906,1.42906,0,0,0,.748-.18279l-.644-.6529a.08356.08356,0,0,1,0-.12182l.383-.41785a.08407.08407,0,0,1,.122,0l.609.61805.044-.12189a1.64453,1.64453,0,0,0,.048-.19587c.014-.07831.029-.17554.043-.29159.015-.11606.025-.25246.031-.40915s.009-.34235.009-.55713-.003-.40039-.009-.55707-.016-.29309-.031-.40915c-.014-.11606-.029-.21327-.043-.29159a1.64475,1.64475,0,0,0-.048-.19588,1.258,1.258,0,0,0-.453-.65284,1.3474,1.3474,0,0,0-.809-.22636,1.32852,1.32852,0,0,0-.805.22636,1.26927,1.26927,0,0,0-.449.65284,1.64434,1.64434,0,0,0-.048.19588c-.014.07831-.029.17553-.043.29159-.015.11606-.025.25246-.031.40915-.005.15668-.008.34235-.008.55707s.003.40044.008.55713c.006.15669.016.29309.031.40915.014.116.029.21327.043.29159a1.64413,1.64413,0,0,0,.048.19587,1.26925,1.26925,0,0,0,.449.65285A1.32852,1.32852,0,0,0,115.91489,5.9448Zm4.962-5.20549a.1039.1039,0,0,1,.104-.08707h.566a.10887.10887,0,0,1,.113.08707l2.028,5.74517c.018.05809-.003.08706-.061.08706h-.609a.10878.10878,0,0,1-.113-.08706l-.453-1.2883h-2.394l-.452,1.2883a.11917.11917,0,0,1-.114.08706h-.609c-.058,0-.078-.029-.061-.08706Zm1.323,3.74305-.932-2.68976h-.017l-.94,2.68976Zm2.428-3.743a.07693.07693,0,0,1,.087-.08707h.566a.13472.13472,0,0,1,.139.08707l1.768,3.98681h.026l1.732-3.98681a.13551.13551,0,0,1,.139-.08707h.566a.077.077,0,0,1,.087.08707V6.48448a.07691.07691,0,0,1-.087.08706h-.548a.0769.0769,0,0,1-.087-.08706V2.36708h-.026l-1.472,3.25565a.15642.15642,0,0,1-.156.10442h-.348a.16334.16334,0,0,1-.166-.10442l-1.471-3.25565h-.026v4.1174a.0769.0769,0,0,1-.087.08706h-.549a.07691.07691,0,0,1-.087-.08706Zm6.573,0a.07693.07693,0,0,1,.087-.08707h.6a.077.077,0,0,1,.087.08707V5.79682a.04662.04662,0,0,0,.053.0522h2.82a.07693.07693,0,0,1,.087.08707v.54837a.0769.0769,0,0,1-.087.08707h-3.56a.07691.07691,0,0,1-.087-.08707Zm4.683,0a.07693.07693,0,0,1,.087-.08707h.6a.077.077,0,0,1,.087.08707V6.48448a.07691.07691,0,0,1-.087.08706h-.6a.07691.07691,0,0,1-.087-.08706Zm-32.583,8.95731a.07694.07694,0,0,1,.087-.08707h.601a.07694.07694,0,0,1,.087.08707V15.4418a.07693.07693,0,0,1-.087.0871h-.601a.07693.07693,0,0,1-.087-.0871Zm4.196,5.928a2.216,2.216,0,0,1-1.266-.3481,1.92038,1.92038,0,0,1-.745-1.0359c-.029-.0871-.053-.1771-.074-.2699a2.87421,2.87421,0,0,1-.048-.3265c-.011-.1247-.02-.2741-.026-.4482q-.0075-.26115-.008-.6268,0-.36555.008-.6267c.006-.1742.015-.3236.026-.4484a2.879,2.879,0,0,1,.048-.3264c.021-.0929.045-.1828.074-.2698a1.91977,1.91977,0,0,1,.745-1.03592,2.49171,2.49171,0,0,1,2.541,0,1.91984,1.91984,0,0,1,.745,1.03592c.029.087.053.1769.074.2698a2.88391,2.88391,0,0,1,.048.3264c.011.1248.02.2742.026.4484q.0075.26115.008.6267,0,.36555-.008.6268c-.006.1741-.015.3235-.026.4482a2.8791,2.8791,0,0,1-.048.3265c-.021.0928-.045.1828-.074.2699a1.9885,1.9885,0,0,1-.1.2567,2.492,2.492,0,0,1-.127.2307l.618.6094a.08352.08352,0,0,1,0,.1218l-.383.4091a.09883.09883,0,0,1-.061.0305.08318.08318,0,0,1-.069-.0305l-.61-.6006A2.2021,2.2021,0,0,1,107.49688,15.6246Zm0-.7225a1.432,1.432,0,0,0,.749-.1828l-.644-.6528a.08364.08364,0,0,1,0-.1219l.383-.4179a.08412.08412,0,0,1,.122,0l.609.6181.043-.1219a1.33212,1.33212,0,0,0,.048-.1959c.015-.0783.029-.1755.044-.2916q.021-.174.03-.4091t.009-.5571q0-.32205-.009-.5571t-.03-.4092c-.015-.116-.029-.2132-.044-.2916a1.33367,1.33367,0,0,0-.048-.1958,1.25117,1.25117,0,0,0-.452-.6529,1.35082,1.35082,0,0,0-.81-.2263,1.32873,1.32873,0,0,0-.805.2263,1.26811,1.26811,0,0,0-.448.6529,1.33088,1.33088,0,0,0-.048.1958c-.015.0784-.029.1756-.044.2916q-.021.17415-.03.4092t-.009.5571q0,.322.009.5571t.03.4091c.015.1161.029.2133.044.2916a1.32934,1.32934,0,0,0,.048.1959,1.26811,1.26811,0,0,0,.448.6529A1.32873,1.32873,0,0,0,107.49688,14.9021Zm4.736.6268a.07693.07693,0,0,1-.087-.0871V10.3843a.04663.04663,0,0,0-.053-.0522h-1.619a.077.077,0,0,1-.087-.0871V9.69662a.07694.07694,0,0,1,.087-.08707h4.118a.07694.07694,0,0,1,.087.08707V10.245a.077.077,0,0,1-.087.0871h-1.619a.04663.04663,0,0,0-.053.0522v5.0575a.07693.07693,0,0,1-.087.0871Zm3.368-5.83228a.07694.07694,0,0,1,.087-.08707h.601a.07694.07694,0,0,1,.087.08707V15.4418a.07693.07693,0,0,1-.087.0871h-.601a.07693.07693,0,0,1-.087-.0871Zm4.031,5.928a3.14338,3.14338,0,0,1-.618-.0609,3.797,3.797,0,0,1-.575-.161,3.0211,3.0211,0,0,1-.496-.2351,2.5583,2.5583,0,0,1-.392-.2829.09.09,0,0,1-.008-.1306l.383-.4526a.07868.07868,0,0,1,.121-.0087,3.43485,3.43485,0,0,0,.714.4178,2.27148,2.27148,0,0,0,.94.1915,1.48885,1.48885,0,0,0,.962-.2786.89331.89331,0,0,0,.344-.7312.94608.94608,0,0,0-.061-.3482.69422.69422,0,0,0-.204-.2785,1.255,1.255,0,0,0-.379-.2089,2.658,2.658,0,0,0-.592-.1306l-.296-.0435q-1.7415-.23505-1.741-1.6365a1.82876,1.82876,0,0,1,.135-.7138,1.51129,1.51129,0,0,1,.387-.54842,1.75278,1.75278,0,0,1,.61-.34823,2.46951,2.46951,0,0,1,.801-.12188,3.23545,3.23545,0,0,1,.996.15237,2.78131,2.78131,0,0,1,.806.39606.077.077,0,0,1,.017.1219l-.296.4788a.08494.08494,0,0,1-.122.0174,3.22992,3.22992,0,0,0-.705-.3352,2.35317,2.35317,0,0,0-.723-.1088,1.18743,1.18743,0,0,0-.835.2655.89688.89688,0,0,0-.287.6921.771.771,0,0,0,.278.6136,1.92219,1.92219,0,0,0,.966.3352l.288.0435a2.37773,2.37773,0,0,1,1.305.5223,1.46166,1.46166,0,0,1,.436,1.1316,1.86137,1.86137,0,0,1-.135.7182,1.48079,1.48079,0,0,1-.409.5615,2.00927,2.00927,0,0,1-.68.3699A2.95159,2.95159,0,0,1,119.63189,15.6246Zm5.31,0a2.21936,2.21936,0,0,1-1.267-.3481,1.924,1.924,0,0,1-.744-1.0359,2.56458,2.56458,0,0,1-.074-.2699,2.87665,2.87665,0,0,1-.048-.3265c-.012-.1247-.02-.2741-.026-.4482s-.009-.3831-.009-.6268.003-.4526.009-.6267.014-.3236.026-.4484a2.88145,2.88145,0,0,1,.048-.3264,2.5495,2.5495,0,0,1,.074-.2698,1.92338,1.92338,0,0,1,.744-1.03592,2.49354,2.49354,0,0,1,2.542,0,1.92338,1.92338,0,0,1,.744,1.03592,2.5495,2.5495,0,0,1,.074.2698,2.48971,2.48971,0,0,1,.048.3264c.012.1248.02.2742.026.4484s.009.3829.009.6267-.003.4527-.009.6268-.014.3235-.026.4482a2.48631,2.48631,0,0,1-.048.3265,2.56458,2.56458,0,0,1-.074.2699,1.924,1.924,0,0,1-.744,1.0359A2.23263,2.23263,0,0,1,124.94189,15.6246Zm0-.7225a1.34764,1.34764,0,0,0,.809-.2263,1.2582,1.2582,0,0,0,.453-.6529,1.64546,1.64546,0,0,0,.048-.1959c.014-.0783.029-.1755.043-.2916.015-.116.025-.2524.031-.4091s.009-.3424.009-.5571-.003-.4004-.009-.5571-.016-.2931-.031-.4092c-.014-.116-.029-.2132-.043-.2915a1.64546,1.64546,0,0,0-.048-.1959,1.25861,1.25861,0,0,0-.453-.6529,1.34764,1.34764,0,0,0-.809-.2263,1.32871,1.32871,0,0,0-.805.2263,1.26424,1.26424,0,0,0-.449.6529,1.64546,1.64546,0,0,0-.048.1959c-.014.0783-.029.1755-.043.2915-.015.1161-.025.2525-.031.4092-.005.1567-.008.3424-.008.5571s.003.4004.008.5571c.006.1567.016.2931.031.4091.014.1161.029.2133.043.2916a1.64546,1.64546,0,0,0,.048.1959,1.26383,1.26383,0,0,0,.449.6529A1.32871,1.32871,0,0,0,124.94189,14.9021Zm3.429-5.20548a.07693.07693,0,0,1,.087-.08707h1.994a1.80306,1.80306,0,0,1,1.932,1.26215c.024.0813.045.1655.066.2525a3.0876,3.0876,0,0,1,.052.3221c.014.1277.025.2814.03.4613q.009.26985.009.6616t-.009.6616c-.005.1799-.016.3336-.03.4613a3.08317,3.08317,0,0,1-.052.3221c-.021.0871-.042.1712-.066.2525a1.80309,1.80309,0,0,1-1.932,1.2622h-1.994a.07689.07689,0,0,1-.087-.087Zm.775,5.05748a.04632.04632,0,0,0,.052.0522h1.089a1.762,1.762,0,0,0,.87-.1871,1.07522,1.07522,0,0,0,.479-.6224c.017-.0522.035-.1132.052-.1828a1.77754,1.77754,0,0,0,.039-.2655c.009-.1073.016-.2393.022-.3961s.009-.351.009-.5832-.003-.4265-.009-.5832-.013-.2887-.022-.3961a1.77957,1.77957,0,0,0-.039-.2655c-.017-.0696-.035-.1305-.052-.1828a1.07522,1.07522,0,0,0-.479-.6224,1.762,1.762,0,0,0-.87-.1871h-1.089a.04632.04632,0,0,0-.052.0522Zm4.649-5.05748a.07694.07694,0,0,1,.087-.08707h.6a.07694.07694,0,0,1,.087.08707V15.4418a.07693.07693,0,0,1-.087.0871h-.6a.07693.07693,0,0,1-.087-.0871Zm3.499,5.83228a.07693.07693,0,0,1-.087-.0871V13.1089l-1.75-3.40358c-.023-.06384,0-.09577.07-.09577h.618a.15023.15023,0,0,1,.13.08707l1.324,2.53308h.017l1.314-2.53308a.12428.12428,0,0,1,.122-.08707h.601c.07,0,.093.03193.07.09577l-1.75,3.40358v2.3329a.07694.07694,0,0,1-.087.0871Zm5.275.0957a2.22158,2.22158,0,0,1-1.267-.3481,1.924,1.924,0,0,1-.744-1.0359c-.029-.0871-.053-.1771-.074-.2699a2.87684,2.87684,0,0,1-.048-.3265c-.011-.1247-.02-.2741-.026-.4482s-.008-.3831-.008-.6268.002-.4526.008-.6267.015-.3236.026-.4484a2.88164,2.88164,0,0,1,.048-.3264c.021-.0929.045-.1828.074-.2698a1.92334,1.92334,0,0,1,.744-1.03592,2.49352,2.49352,0,0,1,2.542,0,1.91977,1.91977,0,0,1,.745,1.03592c.029.087.053.1769.074.2698a2.68666,2.68666,0,0,1,.047.3264q.018.1872.027.4484.00751.26115.008.6267,0,.36555-.008.6268-.009.26115-.027.4482a2.68269,2.68269,0,0,1-.047.3265c-.021.0928-.045.1828-.074.2699a1.92038,1.92038,0,0,1-.745,1.0359A2.2326,2.2326,0,0,1,142.56889,15.6246Zm0-.7225a1.35084,1.35084,0,0,0,.81-.2263,1.25669,1.25669,0,0,0,.452-.6529,1.32946,1.32946,0,0,0,.048-.1959c.015-.0783.029-.1755.044-.2916q.021-.174.03-.4091t.009-.5571q0-.32205-.009-.5571t-.03-.4092c-.015-.116-.029-.2132-.044-.2915a1.32946,1.32946,0,0,0-.048-.1959,1.25709,1.25709,0,0,0-.452-.6529,1.35084,1.35084,0,0,0-.81-.2263,1.32868,1.32868,0,0,0-.805.2263,1.2628,1.2628,0,0,0-.448.6529,1.33085,1.33085,0,0,0-.048.1959c-.015.0783-.029.1755-.044.2915q-.021.17415-.03.4092t-.009.5571q0,.322.009.5571t.03.4091c.015.1161.029.2133.044.2916a1.33085,1.33085,0,0,0,.048.1959,1.2624,1.2624,0,0,0,.448.6529A1.32868,1.32868,0,0,0,142.56889,14.9021Zm4.736.6268a.07725.07725,0,0,1-.088-.0871V10.3843a.04592.04592,0,0,0-.052-.0522h-1.619a.077.077,0,0,1-.087-.0871V9.69662a.07694.07694,0,0,1,.087-.08707h4.118a.07694.07694,0,0,1,.087.08707V10.245a.077.077,0,0,1-.087.0871h-1.62a.04631.04631,0,0,0-.052.0522v5.0575a.07694.07694,0,0,1-.087.0871Zm-42.698,8.9573a.0769.0769,0,0,1-.087-.087V19.3416a.04592.04592,0,0,0-.052-.0522h-1.619a.077.077,0,0,1-.087-.0871v-.5484a.0769.0769,0,0,1,.087-.087h4.117a.07689.07689,0,0,1,.087.087v.5484a.077.077,0,0,1-.087.0871h-1.619a.04592.04592,0,0,0-.052.0522v5.0576a.0769.0769,0,0,1-.087.087Zm4.274-5.8323a.10487.10487,0,0,1,.105-.087h.565a.10986.10986,0,0,1,.114.087l2.028,5.7453c.017.058-.003.087-.061.087h-.609a.11059.11059,0,0,1-.114-.087l-.452-1.2884h-2.394l-.453,1.2884a.11808.11808,0,0,1-.113.087h-.609c-.058,0-.079-.029-.061-.087Zm1.323,3.7431-.931-2.6898h-.017l-.941,2.6898Zm2.429-3.7431a.0769.0769,0,0,1,.087-.087h1.993a1.8042,1.8042,0,0,1,1.933,1.2622c.023.0812.045.1654.065.2524a2.63092,2.63092,0,0,1,.052.3221c.015.1277.025.2815.031.4613s.009.4005.009.6616-.003.4817-.009.6616-.016.3337-.031.4614a2.62894,2.62894,0,0,1-.052.322c-.02.0871-.042.1712-.065.2525a1.8043,1.8043,0,0,1-1.933,1.2622h-1.993a.0769.0769,0,0,1-.087-.087Zm.775,5.0575a.046.046,0,0,0,.052.0523h1.088a1.76342,1.76342,0,0,0,.871-.1872,1.07326,1.07326,0,0,0,.478-.6224c.018-.0522.035-.1132.053-.1828a1.77177,1.77177,0,0,0,.039-.2655c.008-.1073.016-.2393.022-.396.005-.1567.008-.3511.008-.5833s-.003-.4265-.008-.5832c-.006-.1567-.014-.2887-.022-.3961a1.7758,1.7758,0,0,0-.039-.2655c-.018-.0696-.035-.1305-.053-.1828a1.07357,1.07357,0,0,0-.478-.6224,1.76457,1.76457,0,0,0-.871-.1871h-1.088a.04592.04592,0,0,0-.052.0522Zm6.607.8705a2.22162,2.22162,0,0,1-1.267-.3481,1.92406,1.92406,0,0,1-.744-1.0359,2.56213,2.56213,0,0,1-.074-.2699,2.871,2.871,0,0,1-.048-.3265c-.012-.1247-.02-.2741-.026-.4482s-.009-.3831-.009-.6268.003-.4526.009-.6267.014-.3236.026-.4484a2.87919,2.87919,0,0,1,.048-.3264,2.55367,2.55367,0,0,1,.074-.2698,1.92332,1.92332,0,0,1,.744-1.0359,2.49378,2.49378,0,0,1,2.542,0,1.92319,1.92319,0,0,1,.744,1.0359,2.55612,2.55612,0,0,1,.074.2698,2.49141,2.49141,0,0,1,.048.3264c.012.1248.02.2742.026.4484s.009.383.009.6267-.003.4527-.009.6268-.014.3235-.026.4482a2.48544,2.48544,0,0,1-.048.3265,2.5646,2.5646,0,0,1-.074.2699,1.85454,1.85454,0,0,1-.1.2567q-.057.1176-.126.2307l.618.6094a.08352.08352,0,0,1,0,.1218l-.383.4092a.10186.10186,0,0,1-.061.0304.08565.08565,0,0,1-.07-.0304l-.609-.6006A2.20491,2.20491,0,0,1,120.01489,24.5819Zm0-.7225a1.4283,1.4283,0,0,0,.748-.1828l-.644-.6528a.08364.08364,0,0,1,0-.1219l.383-.4178a.0839.0839,0,0,1,.122,0l.609.618.044-.1219a1.64838,1.64838,0,0,0,.048-.1958c.014-.0784.029-.1756.043-.2916.015-.1161.025-.2525.031-.4092s.009-.3423.009-.5571-.003-.4004-.009-.5571-.016-.2931-.031-.4091c-.014-.1161-.029-.2133-.043-.2916a1.65057,1.65057,0,0,0-.048-.1959,1.25862,1.25862,0,0,0-.453-.6529,1.3483,1.3483,0,0,0-.809-.2263,1.32936,1.32936,0,0,0-.805.2263,1.26993,1.26993,0,0,0-.449.6529,1.65017,1.65017,0,0,0-.048.1959c-.014.0783-.029.1755-.043.2916-.015.116-.025.2524-.031.4091-.005.1567-.008.3424-.008.5571s.003.4004.008.5571c.006.1567.016.2931.031.4092.014.116.029.2132.043.2916a1.648,1.648,0,0,0,.048.1958,1.26952,1.26952,0,0,0,.449.6529A1.32869,1.32869,0,0,0,120.01489,23.8594Zm3.429-5.2055a.07761.07761,0,0,1,.088-.087h.6a.0769.0769,0,0,1,.087.087v5.7453a.0769.0769,0,0,1-.087.087h-.6a.07761.07761,0,0,1-.088-.087Z"/>
    <path class="cls-2" d="M127.63989,24.5819a2.21532,2.21532,0,0,1-1.266-.3482,1.91979,1.91979,0,0,1-.745-1.0358c-.029-.0871-.053-.1771-.074-.2699a2.68577,2.68577,0,0,1-.047-.3265q-.018-.187-.027-.4482-.0075-.26115-.008-.6268,0-.36555.008-.6267.009-.2613.027-.4484a2.68682,2.68682,0,0,1,.047-.3264c.021-.0929.045-.1828.074-.2698a1.91968,1.91968,0,0,1,.745-1.0359,2.49377,2.49377,0,0,1,2.542,0,1.92325,1.92325,0,0,1,.744,1.0359c.029.087.053.1769.074.2698a2.879,2.879,0,0,1,.048.3264c.011.1248.02.2742.026.4484s.008.3829.008.6267-.002.4527-.008.6268-.015.3235-.026.4482a2.87762,2.87762,0,0,1-.048.3265c-.021.0928-.045.1828-.074.2699a1.99,1.99,0,0,1-.1.2567,2.47914,2.47914,0,0,1-.127.2307l.619.6093a.08533.08533,0,0,1,0,.1219l-.384.4092a.0993.0993,0,0,1-.06.0304.084.084,0,0,1-.07-.0304l-.609-.6007A2.20748,2.20748,0,0,1,127.63989,24.5819Zm0-.7225a1.432,1.432,0,0,0,.749-.1828l-.644-.6528a.08364.08364,0,0,1,0-.1219l.383-.4179a.0841.0841,0,0,1,.122,0l.609.6181.043-.1219a1.33088,1.33088,0,0,0,.048-.1958c.015-.0784.029-.1756.044-.2917.014-.116.025-.2524.03-.4091q.009-.23505.009-.5571t-.009-.5571c-.005-.1567-.016-.2931-.03-.4092-.015-.116-.029-.2132-.044-.2916a1.33088,1.33088,0,0,0-.048-.1958,1.251,1.251,0,0,0-.452-.6529,1.35153,1.35153,0,0,0-.81-.2263,1.32938,1.32938,0,0,0-.805.2263,1.26819,1.26819,0,0,0-.448.6529,1.33227,1.33227,0,0,0-.048.1958c-.015.0784-.029.1756-.044.2916q-.021.17415-.03.4092t-.009.5571q0,.32205.009.5571t.03.4091c.015.1161.029.2133.044.2917a1.33227,1.33227,0,0,0,.048.1958,1.26819,1.26819,0,0,0,.448.6529A1.32871,1.32871,0,0,0,127.63989,23.8594Zm5.389.7225a2.21869,2.21869,0,0,1-1.267-.3482,1.92344,1.92344,0,0,1-.744-1.0358,2.56218,2.56218,0,0,1-.074-.2699,2.48887,2.48887,0,0,1-.048-.3265c-.012-.1247-.02-.2742-.026-.4482s-.009-.3831-.009-.6268.003-.4526.009-.6267.014-.3236.026-.4484a2.48971,2.48971,0,0,1,.048-.3264,2.54712,2.54712,0,0,1,.074-.2698,1.92332,1.92332,0,0,1,.744-1.0359,2.4938,2.4938,0,0,1,2.542,0,1.92332,1.92332,0,0,1,.744,1.0359,2.54948,2.54948,0,0,1,.074.2698,2.87919,2.87919,0,0,1,.048.3264c.012.1248.02.2742.026.4484s.009.3829.009.6267-.003.4527-.009.6268-.014.3235-.026.4482a2.87781,2.87781,0,0,1-.048.3265,2.56456,2.56456,0,0,1-.074.2699,1.92343,1.92343,0,0,1-.744,1.0358A2.23409,2.23409,0,0,1,133.0289,24.5819Zm0-.7225a1.34974,1.34974,0,0,0,.809-.2263,1.2582,1.2582,0,0,0,.453-.6529,1.648,1.648,0,0,0,.048-.1958c.014-.0784.029-.1756.043-.2917.015-.116.025-.2524.031-.4091.005-.1567.008-.3424.008-.5571s-.003-.4004-.008-.5571c-.006-.1567-.016-.2931-.031-.4091-.014-.1161-.029-.2133-.043-.2916a1.65017,1.65017,0,0,0-.048-.1959,1.25861,1.25861,0,0,0-.453-.6529,1.35043,1.35043,0,0,0-.809-.2263,1.33251,1.33251,0,0,0-.806.2263,1.26863,1.26863,0,0,0-.448.6529,1.65077,1.65077,0,0,0-.048.1959c-.014.0783-.029.1755-.043.2916-.015.116-.025.2524-.031.4091s-.009.3424-.009.5571.003.4004.009.5571.016.2931.031.4091c.014.1161.029.2133.043.2917a1.64858,1.64858,0,0,0,.048.1958,1.26821,1.26821,0,0,0,.448.6529A1.33184,1.33184,0,0,0,133.0289,23.8594Zm4.735.6267a.07686.07686,0,0,1-.087-.087V19.3416a.04591.04591,0,0,0-.052-.0522h-1.619a.077.077,0,0,1-.087-.0871v-.5484a.077.077,0,0,1,.087-.0871h4.117a.077.077,0,0,1,.087.0871v.5484a.077.077,0,0,1-.087.0871h-1.619a.04592.04592,0,0,0-.052.0522v5.0575a.07685.07685,0,0,1-.087.087Zm3.369-5.8322a.077.077,0,0,1,.087-.0871h.6a.07768.07768,0,0,1,.088.0871v5.0575a.046.046,0,0,0,.052.0523h2.82a.0769.0769,0,0,1,.087.087v.5484a.07687.07687,0,0,1-.087.087h-3.56a.0769.0769,0,0,1-.087-.087Zm6.215,0a.10494.10494,0,0,1,.105-.0871h.565a.11067.11067,0,0,1,.114.0871l2.028,5.7452c.017.0581-.003.087-.061.087h-.61a.10941.10941,0,0,1-.113-.087l-.452-1.2883h-2.394l-.453,1.2883a.11794.11794,0,0,1-.113.087h-.609c-.058,0-.079-.0289-.061-.087Zm1.323,3.7431-.931-2.6898h-.018l-.94,2.6898Zm5.859,2.0891a.11909.11909,0,0,1-.114-.087l-1.183-2.4199h-1.306a.04591.04591,0,0,0-.052.0522v2.3677a.07687.07687,0,0,1-.087.087h-.601a.07685.07685,0,0,1-.087-.087V18.6539a.077.077,0,0,1,.087-.0871h2.141a2.23547,2.23547,0,0,1,.758.1219,1.72327,1.72327,0,0,1,.583.3439,1.53459,1.53459,0,0,1,.379.5397,1.77322,1.77322,0,0,1,.134.7007,1.64844,1.64844,0,0,1-.313,1.0185,1.67727,1.67727,0,0,1-.853.5919l1.262,2.4983a.06905.06905,0,0,1,.009.074.0648.0648,0,0,1-.061.0305Zm-1.219-3.2294a1.17139,1.17139,0,0,0,.809-.2568,1.06118,1.06118,0,0,0,0-1.4537,1.1709,1.1709,0,0,0-.809-.2568h-1.384a.04591.04591,0,0,0-.052.0522v1.8629a.04591.04591,0,0,0,.052.0522Zm3.16-2.6028a.077.077,0,0,1,.087-.0871h.6a.07728.07728,0,0,1,.088.0871v5.7452a.07718.07718,0,0,1-.088.087h-.6a.07687.07687,0,0,1-.087-.087Zm-53.17,8.9573a.077.077,0,0,1,.087-.0871h.566a.13686.13686,0,0,1,.14.0871l1.767,3.9868h.026l1.732-3.9868a.13556.13556,0,0,1,.139-.0871h.566a.077.077,0,0,1,.087.0871v5.7452a.07693.07693,0,0,1-.087.0871h-.548a.07693.07693,0,0,1-.087-.0871V29.239h-.026l-1.472,3.2556a.15637.15637,0,0,1-.156.1045h-.348a.16329.16329,0,0,1-.166-.1045l-1.471-3.2556h-.026v4.1174a.07693.07693,0,0,1-.087.0871h-.548a.07724.07724,0,0,1-.088-.0871Zm8.105,0a.104.104,0,0,1,.104-.0871h.566a.10891.10891,0,0,1,.113.0871l2.028,5.7452c.018.0581-.003.0871-.061.0871h-.609a.10881.10881,0,0,1-.113-.0871l-.453-1.2883h-2.394l-.452,1.2883a.11808.11808,0,0,1-.113.0871h-.61c-.058,0-.078-.029-.061-.0871Zm1.323,3.7431-.932-2.6898h-.017l-.94,2.6898Zm5.858,2.0892a.11806.11806,0,0,1-.113-.0871l-1.184-2.4199h-1.306a.04632.04632,0,0,0-.052.0522v2.3677a.07692.07692,0,0,1-.087.0871h-.6a.07764.07764,0,0,1-.088-.0871V27.6112a.07768.07768,0,0,1,.088-.0871h2.141a2.22528,2.22528,0,0,1,.757.1219,1.70376,1.70376,0,0,1,.583.3439,1.52154,1.52154,0,0,1,.379.5397,1.774,1.774,0,0,1,.135.7008,1.64813,1.64813,0,0,1-.313,1.0184,1.6803,1.6803,0,0,1-.853.5919l1.262,2.4983a.07342.07342,0,0,1,.009.074.06479.06479,0,0,1-.061.0305Zm-1.218-3.2295a1.17142,1.17142,0,0,0,.809-.2568,1.06393,1.06393,0,0,0,0-1.4537,1.17142,1.17142,0,0,0-.809-.2568h-1.385a.04632.04632,0,0,0-.052.0522v1.8629a.04632.04632,0,0,0,.052.0522Zm3.159-2.6028a.077.077,0,0,1,.087-.0871h.601a.077.077,0,0,1,.087.0871v3.0815l2.516-3.0902a.16009.16009,0,0,1,.139-.0784h.714a.05343.05343,0,0,1,.056.0305q.01352.0306-.021.074l-1.846,2.2198,2.029,3.4993c.04.0639.023.0957-.053.0957h-.696a.13463.13463,0,0,1-.122-.0783l-1.663-2.9161-1.053,1.2709v1.6365a.07686.07686,0,0,1-.087.087h-.601a.07686.07686,0,0,1-.087-.087Zm6.895,0a.104.104,0,0,1,.104-.0871h.566a.10889.10889,0,0,1,.113.0871l2.028,5.7452c.018.0581-.003.0871-.061.0871h-.609a.1088.1088,0,0,1-.113-.0871l-.453-1.2883h-2.394l-.452,1.2883a.11806.11806,0,0,1-.113.0871h-.61c-.058,0-.078-.029-.061-.0871Zm1.323,3.7431-.932-2.6898h-.017l-.94,2.6898Zm2.211,2.0892a.07693.07693,0,0,1-.087-.0871V32.808a.14563.14563,0,0,1,.035-.0957l2.89-4.4569v-.0087h-2.734a.0769.0769,0,0,1-.087-.087v-.5485a.0769.0769,0,0,1,.087-.087h3.534a.07721.07721,0,0,1,.088.087v.5485a.151.151,0,0,1-.035.0957l-2.899,4.4569v.0087h2.846a.07721.07721,0,0,1,.088.087v.5484a.07724.07724,0,0,1-.088.0871Zm4.883-5.8323a.077.077,0,0,1,.087-.0871h.601a.077.077,0,0,1,.087.0871v5.7452a.07694.07694,0,0,1-.087.0871h-.601a.07693.07693,0,0,1-.087-.0871Z"/>
  </g>
  </g>
  <g class="logo-part logo-part-1">
    <path d="M26.10779,6.13975V1.01712a.42824.42824,0,0,1,.48434-.48431H47.71a.42791.42791,0,0,1,.48433.48431V6.19933A.42821.42821,0,0,1,47.71,6.684H26.6523a.54647.54647,0,0,1-.54519-.54547Zm.54519,8.19516H45.33679a.42827.42827,0,0,1,.48434.48434v5.13463a.428.428,0,0,1-.48434.48434H33.5183a.2571.2571,0,0,0-.29066.29066V27.027a.25706.25706,0,0,0,.29066.29066H47.71a.428.428,0,0,1,.48433.48434v5.1822a.42807.42807,0,0,1-.48433.48434H26.59213a.42807.42807,0,0,1-.48434-.48434V14.87883a.546.546,0,0,1,.54451-.54518Z"/>
    <path d="M7.11991,14.87883v11.953a.25691.25691,0,0,0,.29067.29066h3.7295a8.46151,8.46151,0,0,0,3.9717-.79932,4.5327,4.5327,0,0,0,2.13142-2.83327,4.293,4.293,0,0,0,.24212-.799,11.60526,11.60526,0,0,0,.16955-1.18668q.07237-.72651.0967-1.81615t.02441-2.68813q0-1.59836-.02441-2.66246t-.0967-1.792a11.60507,11.60507,0,0,0-.16955-1.18667,5.89321,5.89321,0,0,0-.24212-.84757,4.5312,4.5312,0,0,0-2.13142-2.83323,8.46036,8.46036,0,0,0-3.9717-.79905H.5452A.54643.54643,0,0,1,0,6.33372V1.01712A.42825.42825,0,0,1,.48434.53281H12.73862A13.33524,13.33524,0,0,1,20.004,2.37336a9.94581,9.94581,0,0,1,4.11693,5.56985q.194.678.36323,1.42856a17.53363,17.53363,0,0,1,.29066,1.7679q.12107,1.01717.16955,2.42159t.04854,3.43863q0,2.0342-.04854,3.43862t-.16955,2.42189a17.55637,17.55637,0,0,1-.29066,1.76761q-.16932.75063-.36323,1.42889A9.95485,9.95485,0,0,1,20.004,31.62675a13.31382,13.31382,0,0,1-7.26538,1.84018H.48434A.42789.42789,0,0,1,0,32.98269V14.87883a.54614.54614,0,0,1,.5452-.54518H6.57471a.54614.54614,0,0,1,.5452.54518Z"/>
  </g>
  <g class="logo-part logo-part-2">
    <path d="M75.68853,25.91167a10.929,10.929,0,0,1-.46021-1.57432,16.29679,16.29679,0,0,1-.26625-1.792q-.09708-.99275-.14553-2.32461t-.04718-3.22082q0-1.88916.04845-3.22063t.14552-2.32481a15.26443,15.26443,0,0,1,.26624-1.7677,13.44218,13.44218,0,0,1,.459-1.59839,11.04026,11.04026,0,0,1,4.335-6.07824A13.05663,13.05663,0,0,1,87.40906,0a12.78917,12.78917,0,0,1,7.14427,1.91314,11.30326,11.30326,0,0,1,4.33744,5.39932q.24272.43613-.24221.58129l-5.27909,2.37306q-.43629.24241-.678-.24222a7.13523,7.13523,0,0,0-1.91333-2.66237,4.91421,4.91421,0,0,0-3.3177-1.0656,4.98866,4.98866,0,0,0-3.17268.96861,5.29666,5.29666,0,0,0-1.76809,2.66238,7.374,7.374,0,0,0-.24212.94426q-.095.50706-.16955,1.28366t-.09669,1.93726q-.02412,1.1625-.02442,2.90574-.00028,1.74339.02442,2.90623.02442,1.16191.09669,1.93716t.16955,1.28337a7.37863,7.37863,0,0,0,.24212.94455,5.29182,5.29182,0,0,0,1.76809,2.66236,4.99767,4.99767,0,0,0,3.17268.96868,4.90585,4.90585,0,0,0,3.3177-1.06527,7.13884,7.13884,0,0,0,1.91333-2.66246q.24212-.484.678-.24212l5.27909,2.37334q.48395.1449.24221.58094a11.29931,11.29931,0,0,1-4.33463,5.4003A12.78771,12.78771,0,0,1,87.41119,34a13.05075,13.05075,0,0,1-7.38551-2.00983A11.05919,11.05919,0,0,1,75.68853,25.91167Z"/>
    <path d="M49.855,14.33365H62.53416a4.60549,4.60549,0,0,0,3.24524-1.11411,3.3048,3.3048,0,0,0,1.21118-2.67505A3.56215,3.56215,0,0,0,65.7794,7.79773,4.60583,4.60583,0,0,0,62.53416,6.684H49.855a.54649.54649,0,0,1-.54586-.54421V1.01711A.42837.42837,0,0,1,49.79379.5328H62.91987a13.27869,13.27869,0,0,1,4.57724.75086A10.45849,10.45849,0,0,1,71.033,3.39047a9.23036,9.23036,0,0,1,2.27646,3.245,9.45522,9.45522,0,0,1,.79912,3.909,8.89484,8.89484,0,0,1-1.55,5.24208,9.62472,9.62472,0,0,1-4.3109,3.58385L74.73778,32.886a.432.432,0,0,1,0,.41206.35555.35555,0,0,1-.33911.16956h-6.8785a.73712.73712,0,0,1-.72646-.48434L61.12678,20.38813H56.72016a.25706.25706,0,0,0-.29066.29066v12.3039a.42811.42811,0,0,1-.48444.48424H49.79379a.42837.42837,0,0,1-.48463-.48424V14.87883a.54616.54616,0,0,1,.54586-.54518Z"/>
  </g>
</svg>
