<svg width="83" height="63" viewBox="0 0 83 63" fill="none" xmlns="http://www.w3.org/2000/svg">
    <g class="default">
        <path d="M1.2696 2.61933C1.97079 2.61933 2.53921 2.03297 2.53921 1.30967C2.53921 0.586357 1.97079 0 1.2696 0C0.568421 0 0 0.586357 0 1.30967C0 2.03297 0.568421 2.61933 1.2696 2.61933Z" />
        <path d="M3.80896 11.2959C5.29898 11.2959 6.50687 10.0499 6.50687 8.51283C6.50687 6.9758 5.29898 5.7298 3.80896 5.7298C2.31895 5.7298 1.11105 6.9758 1.11105 8.51283C1.11105 10.0499 2.31895 11.2959 3.80896 11.2959Z" />
        <path d="M6.98467 18.4992C8.47468 18.4992 9.68258 17.2532 9.68258 15.7162C9.68258 14.1792 8.47468 12.9331 6.98467 12.9331C5.49465 12.9331 4.28676 14.1792 4.28676 15.7162C4.28676 17.2532 5.49465 18.4992 6.98467 18.4992Z" />
        <path d="M10.475 24.7201C11.2638 24.7201 11.9033 24.0605 11.9033 23.2468C11.9033 22.4331 11.2638 21.7734 10.475 21.7734C9.68616 21.7734 9.04668 22.4331 9.04668 23.2468C9.04668 24.0605 9.68616 24.7201 10.475 24.7201Z" />
        <path d="M14.9172 32.9056C15.7937 32.9056 16.5042 32.1727 16.5042 31.2685C16.5042 30.3644 15.7937 29.6314 14.9172 29.6314C14.0407 29.6314 13.3302 30.3644 13.3302 31.2685C13.3302 32.1727 14.0407 32.9056 14.9172 32.9056Z" />
        <path d="M20.3139 43.2192C22.2421 43.2192 23.8053 41.6067 23.8053 39.6176C23.8053 37.6285 22.2421 36.016 20.3139 36.016C18.3856 36.016 16.8224 37.6285 16.8224 39.6176C16.8224 41.6067 18.3856 43.2192 20.3139 43.2192Z" />
        <path d="M26.3456 50.5861C27.485 50.5861 28.4087 49.6333 28.4087 48.4579C28.4087 47.2826 27.485 46.3297 26.3456 46.3297C25.2062 46.3297 24.2825 47.2826 24.2825 48.4579C24.2825 49.6333 25.2062 50.5861 26.3456 50.5861Z" />
        <path d="M33.3267 62.864C36.0437 62.864 38.2464 60.5919 38.2464 57.7891C38.2464 54.9862 36.0437 52.7141 33.3267 52.7141C30.6096 52.7141 28.4069 54.9862 28.4069 57.7891C28.4069 60.5919 30.6096 62.864 33.3267 62.864Z" />
        <path d="M11.4259 3.60175C12.127 3.60175 12.6955 3.0154 12.6955 2.29209C12.6955 1.56878 12.127 0.982422 11.4259 0.982422C10.7247 0.982422 10.1562 1.56878 10.1562 2.29209C10.1562 3.0154 10.7247 3.60175 11.4259 3.60175Z" opacity="0.5"/>
        <path d="M13.4897 9.82226C14.1909 9.82226 14.7593 9.23591 14.7593 8.5126C14.7593 7.78929 14.1909 7.20293 13.4897 7.20293C12.7885 7.20293 12.2201 7.78929 12.2201 8.5126C12.2201 9.23591 12.7885 9.82226 13.4897 9.82226Z" opacity="0.5"/>
        <path d="M16.0282 17.5171C17.5183 17.5171 18.7262 16.2711 18.7262 14.7341C18.7262 13.197 17.5183 11.951 16.0282 11.951C14.5382 11.951 13.3303 13.197 13.3303 14.7341C13.3303 16.2711 14.5382 17.5171 16.0282 17.5171Z" opacity="0.5"/>
        <path d="M19.3623 22.9194C20.0635 22.9194 20.6319 22.333 20.6319 21.6097C20.6319 20.8864 20.0635 20.3001 19.3623 20.3001C18.6611 20.3001 18.0927 20.8864 18.0927 21.6097C18.0927 22.333 18.6611 22.9194 19.3623 22.9194Z" opacity="0.5"/>
        <path d="M23.4887 31.7594C25.0664 31.7594 26.3453 30.4401 26.3453 28.8126C26.3453 27.1852 25.0664 25.8659 23.4887 25.8659C21.9111 25.8659 20.6321 27.1852 20.6321 28.8126C20.6321 30.4401 21.9111 31.7594 23.4887 31.7594Z" opacity="0.5"/>
        <path d="M28.407 39.6178C30.1599 39.6178 31.581 38.1519 31.581 36.3436C31.581 34.5353 30.1599 33.0694 28.407 33.0694C26.654 33.0694 25.233 34.5353 25.233 36.3436C25.233 38.1519 26.654 39.6178 28.407 39.6178Z" opacity="0.5"/>
        <path d="M34.4387 46.0025C35.4028 46.0025 36.1844 45.1962 36.1844 44.2017C36.1844 43.2072 35.4028 42.4009 34.4387 42.4009C33.4746 42.4009 32.693 43.2072 32.693 44.2017C32.693 45.1962 33.4746 46.0025 34.4387 46.0025Z" opacity="0.5"/>
        <path d="M42.2151 56.6433C44.5815 56.6433 46.5 54.6644 46.5 52.2232C46.5 49.782 44.5815 47.8031 42.2151 47.8031C39.8486 47.8031 37.9301 49.782 37.9301 52.2232C37.9301 54.6644 39.8486 56.6433 42.2151 56.6433Z" opacity="0.5"/>
        <path d="M20.632 4.25677C21.2455 4.25677 21.7429 3.7437 21.7429 3.11081C21.7429 2.47791 21.2455 1.96485 20.632 1.96485C20.0184 1.96485 19.5211 2.47791 19.5211 3.11081C19.5211 3.7437 20.0184 4.25677 20.632 4.25677Z" opacity="0.5"/>
        <path d="M22.5358 10.8045C23.7629 10.8045 24.7576 9.77841 24.7576 8.51262C24.7576 7.24683 23.7629 6.22071 22.5358 6.22071C21.3087 6.22071 20.314 7.24683 20.314 8.51262C20.314 9.77841 21.3087 10.8045 22.5358 10.8045Z" opacity="0.5"/>
        <path d="M24.7567 16.5345C26.0714 16.5345 27.1372 15.4351 27.1372 14.0789C27.1372 12.7227 26.0714 11.6233 24.7567 11.6233C23.442 11.6233 22.3762 12.7227 22.3762 14.0789C22.3762 15.4351 23.442 16.5345 24.7567 16.5345Z" opacity="0.5"/>
        <path d="M27.7727 21.6094C28.4739 21.6094 29.0423 21.0231 29.0423 20.2997C29.0423 19.5764 28.4739 18.9901 27.7727 18.9901C27.0715 18.9901 26.5031 19.5764 26.5031 20.2997C26.5031 21.0231 27.0715 21.6094 27.7727 21.6094Z" opacity="0.5"/>
        <path d="M31.7389 27.994C32.4401 27.994 33.0085 27.4076 33.0085 26.6843C33.0085 25.961 32.4401 25.3747 31.7389 25.3747C31.0377 25.3747 30.4693 25.961 30.4693 26.6843C30.4693 27.4076 31.0377 27.994 31.7389 27.994Z" opacity="0.5"/>
        <path d="M36.5032 36.3434C38.0809 36.3434 39.3598 35.0241 39.3598 33.3966C39.3598 31.7692 38.0809 30.4499 36.5032 30.4499C34.9256 30.4499 33.6466 31.7692 33.6466 33.3966C33.6466 35.0241 34.9256 36.3434 36.5032 36.3434Z" opacity="0.5"/>
        <path d="M42.5333 43.7101C44.2863 43.7101 45.7074 42.2443 45.7074 40.436C45.7074 38.6277 44.2863 37.1618 42.5333 37.1618C40.7804 37.1618 39.3593 38.6277 39.3593 40.436C39.3593 42.2443 40.7804 43.7101 42.5333 43.7101Z" opacity="0.5"/>
        <path d="M49.8324 51.4047C51.8483 51.4047 53.4825 49.7189 53.4825 47.6394C53.4825 45.5599 51.8483 43.8742 49.8324 43.8742C47.8165 43.8742 46.1823 45.5599 46.1823 47.6394C46.1823 49.7189 47.8165 51.4047 49.8324 51.4047Z" opacity="0.5"/>
        <path d="M57.2924 46.821C59.133 46.821 60.6251 45.2818 60.6251 43.3831C60.6251 41.4844 59.133 39.9452 57.2924 39.9452C55.4518 39.9452 53.9597 41.4844 53.9597 43.3831C53.9597 45.2818 55.4518 46.821 57.2924 46.821Z" opacity="0.5"/>
        <path d="M50.309 40.2725C51.8867 40.2725 53.1656 38.9532 53.1656 37.3258C53.1656 35.6983 51.8867 34.379 50.309 34.379C48.7314 34.379 47.4524 35.6983 47.4524 37.3258C47.4524 38.9532 48.7314 40.2725 50.309 40.2725Z" opacity="0.5"/>
        <path d="M44.4372 33.5602C45.8395 33.5602 46.9764 32.3875 46.9764 30.9409C46.9764 29.4943 45.8395 28.3216 44.4372 28.3216C43.0348 28.3216 41.898 29.4943 41.898 30.9409C41.898 32.3875 43.0348 33.5602 44.4372 33.5602Z" opacity="0.5"/>
        <path d="M39.8355 27.6664C41.2379 27.6664 42.3747 26.4937 42.3747 25.0471C42.3747 23.6005 41.2379 22.4278 39.8355 22.4278C38.4331 22.4278 37.2963 23.6005 37.2963 25.0471C37.2963 26.4937 38.4331 27.6664 39.8355 27.6664Z" opacity="0.5"/>
        <path d="M36.0268 20.4638C36.6404 20.4638 37.1377 19.9508 37.1377 19.3179C37.1377 18.685 36.6404 18.1719 36.0268 18.1719C35.4133 18.1719 34.9159 18.685 34.9159 19.3179C34.9159 19.9508 35.4133 20.4638 36.0268 20.4638Z" opacity="0.5"/>
        <path d="M33.0088 15.8797C34.1482 15.8797 35.0719 14.9268 35.0719 13.7515C35.0719 12.5761 34.1482 11.6233 33.0088 11.6233C31.8694 11.6233 30.9457 12.5761 30.9457 13.7515C30.9457 14.9268 31.8694 15.8797 33.0088 15.8797Z" opacity="0.5"/>
        <path d="M30.7883 10.9683C31.9277 10.9683 32.8514 10.0155 32.8514 8.84013C32.8514 7.66475 31.9277 6.71192 30.7883 6.71192C29.6489 6.71192 28.7252 7.66475 28.7252 8.84013C28.7252 10.0155 29.6489 10.9683 30.7883 10.9683Z" opacity="0.5"/>
        <path d="M28.8853 4.74751C29.4112 4.74751 29.8375 4.30774 29.8375 3.76526C29.8375 3.22277 29.4112 2.78301 28.8853 2.78301C28.3594 2.78301 27.9331 3.22277 27.9331 3.76526C27.9331 4.30774 28.3594 4.74751 28.8853 4.74751Z" opacity="0.5"/>
        <path d="M36.3437 5.40259C36.8696 5.40259 37.2959 4.96282 37.2959 4.42034C37.2959 3.87786 36.8696 3.43809 36.3437 3.43809C35.8178 3.43809 35.3915 3.87786 35.3915 4.42034C35.3915 4.96282 35.8178 5.40259 36.3437 5.40259Z" opacity="0.5"/>
        <path d="M38.407 10.8048C39.4587 10.8048 40.3114 9.92525 40.3114 8.84029C40.3114 7.75533 39.4587 6.87579 38.407 6.87579C37.3552 6.87579 36.5026 7.75533 36.5026 8.84029C36.5026 9.92525 37.3552 10.8048 38.407 10.8048Z" opacity="0.5"/>
        <path d="M40.6275 15.5523C41.6792 15.5523 42.5319 14.6727 42.5319 13.5878C42.5319 12.5028 41.6792 11.6233 40.6275 11.6233C39.5757 11.6233 38.7231 12.5028 38.7231 13.5878C38.7231 14.6727 39.5757 15.5523 40.6275 15.5523Z" opacity="0.5"/>
        <path d="M43.6429 20.6276C44.7823 20.6276 45.706 19.6747 45.706 18.4993C45.706 17.324 44.7823 16.3711 43.6429 16.3711C42.5035 16.3711 41.5798 17.324 41.5798 18.4993C41.5798 19.6747 42.5035 20.6276 43.6429 20.6276Z" opacity="0.5"/>
        <path d="M47.2932 24.8838C47.9067 24.8838 48.4041 24.3707 48.4041 23.7378C48.4041 23.1049 47.9067 22.5919 47.2932 22.5919C46.6797 22.5919 46.1823 23.1049 46.1823 23.7378C46.1823 24.3707 46.6797 24.8838 47.2932 24.8838Z" opacity="0.5"/>
        <path d="M52.0538 31.1048C53.2808 31.1048 54.2756 30.0787 54.2756 28.8129C54.2756 27.5471 53.2808 26.521 52.0538 26.521C50.8267 26.521 49.832 27.5471 49.832 28.8129C49.832 30.0787 50.8267 31.1048 52.0538 31.1048Z" opacity="0.5"/>
        <path d="M57.767 37.1621C59.257 37.1621 60.4649 35.9161 60.4649 34.379C60.4649 32.842 59.257 31.596 57.767 31.596C56.277 31.596 55.0691 32.842 55.0691 34.379C55.0691 35.9161 56.277 37.1621 57.767 37.1621Z" opacity="0.5"/>
        <path d="M64.433 41.4185C65.2219 41.4185 65.8613 40.7589 65.8613 39.9452C65.8613 39.1314 65.2219 38.4718 64.433 38.4718C63.6442 38.4718 63.0047 39.1314 63.0047 39.9452C63.0047 40.7589 63.6442 41.4185 64.433 41.4185Z" opacity="0.5"/>
        <path d="M64.4324 34.7062C65.7471 34.7062 66.8129 33.6068 66.8129 32.2506C66.8129 30.8944 65.7471 29.795 64.4324 29.795C63.1177 29.795 62.0519 30.8944 62.0519 32.2506C62.0519 33.6068 63.1177 34.7062 64.4324 34.7062Z" opacity="0.5"/>
        <path d="M70.9406 38.1442C71.6418 38.1442 72.2102 37.5579 72.2102 36.8346C72.2102 36.1113 71.6418 35.5249 70.9406 35.5249C70.2395 35.5249 69.671 36.1113 69.671 36.8346C69.671 37.5579 70.2395 38.1442 70.9406 38.1442Z" opacity="0.5"/>
        <path d="M58.8783 29.6314C60.1054 29.6314 61.1002 28.6052 61.1002 27.3394C61.1002 26.0737 60.1054 25.0475 58.8783 25.0475C57.6513 25.0475 56.6565 26.0737 56.6565 27.3394C56.6565 28.6052 57.6513 29.6314 58.8783 29.6314Z" opacity="0.5"/>
        <path d="M54.2754 24.7199C55.4149 24.7199 56.3385 23.7671 56.3385 22.5917C56.3385 21.4164 55.4149 20.4635 54.2754 20.4635C53.136 20.4635 52.2123 21.4164 52.2123 22.5917C52.2123 23.7671 53.136 24.7199 54.2754 24.7199Z" opacity="0.5"/>
        <path d="M50.6275 18.8269C51.1534 18.8269 51.5797 18.3871 51.5797 17.8446C51.5797 17.3021 51.1534 16.8624 50.6275 16.8624C50.1016 16.8624 49.6753 17.3021 49.6753 17.8446C49.6753 18.3871 50.1016 18.8269 50.6275 18.8269Z" opacity="0.5"/>
        <path d="M47.6103 15.3888C48.6621 15.3888 49.5147 14.5093 49.5147 13.4243C49.5147 12.3393 48.6621 11.4598 47.6103 11.4598C46.5585 11.4598 45.7059 12.3393 45.7059 13.4243C45.7059 14.5093 46.5585 15.3888 47.6103 15.3888Z" opacity="0.5"/>
        <path d="M45.2305 10.3137C45.7564 10.3137 46.1827 9.87397 46.1827 9.33149C46.1827 8.78901 45.7564 8.34924 45.2305 8.34924C44.7046 8.34924 44.2783 8.78901 44.2783 9.33149C44.2783 9.87397 44.7046 10.3137 45.2305 10.3137Z" opacity="0.5"/>
        <path d="M43.1683 6.05748C43.6942 6.05748 44.1205 5.61771 44.1205 5.07523C44.1205 4.53275 43.6942 4.09298 43.1683 4.09298C42.6424 4.09298 42.2161 4.53275 42.2161 5.07523C42.2161 5.61771 42.6424 6.05748 43.1683 6.05748Z" opacity="0.5"/>
        <path d="M49.2781 6.46652C49.7601 6.46652 50.1509 6.0634 50.1509 5.56612C50.1509 5.06885 49.7601 4.66573 49.2781 4.66573C48.796 4.66573 48.4052 5.06885 48.4052 5.56612C48.4052 6.0634 48.796 6.46652 49.2781 6.46652Z" opacity="0.5"/>
        <path d="M51.421 11.2957C52.3851 11.2957 53.1667 10.4895 53.1667 9.49494C53.1667 8.50039 52.3851 7.69415 51.421 7.69415C50.4569 7.69415 49.6753 8.50039 49.6753 9.49494C49.6753 10.4895 50.4569 11.2957 51.421 11.2957Z" opacity="0.5"/>
        <path d="M53.958 15.2248C54.9222 15.2248 55.7038 14.4186 55.7038 13.4241C55.7038 12.4295 54.9222 11.6233 53.958 11.6233C52.9939 11.6233 52.2123 12.4295 52.2123 13.4241C52.2123 14.4186 52.9939 15.2248 53.958 15.2248Z" opacity="0.5"/>
        <path d="M56.9739 19.1538C57.938 19.1538 58.7196 18.3475 58.7196 17.353C58.7196 16.3584 57.938 15.5522 56.9739 15.5522C56.0097 15.5522 55.2282 16.3584 55.2282 17.353C55.2282 18.3475 56.0097 19.1538 56.9739 19.1538Z" opacity="0.5"/>
        <path d="M60.623 22.7558C61.1488 22.7558 61.5752 22.316 61.5752 21.7735C61.5752 21.231 61.1488 20.7913 60.623 20.7913C60.0971 20.7913 59.6708 21.231 59.6708 21.7735C59.6708 22.316 60.0971 22.7558 60.623 22.7558Z" opacity="0.5"/>
        <path d="M65.0678 28.1576C66.2072 28.1576 67.1309 27.2048 67.1309 26.0294C67.1309 24.8541 66.2072 23.9012 65.0678 23.9012C63.9284 23.9012 63.0047 24.8541 63.0047 26.0294C63.0047 27.2048 63.9284 28.1576 65.0678 28.1576Z" opacity="0.5"/>
        <path d="M70.3055 31.2684C70.9191 31.2684 71.4164 30.7553 71.4164 30.1224C71.4164 29.4895 70.9191 28.9764 70.3055 28.9764C69.692 28.9764 69.1946 29.4895 69.1946 30.1224C69.1946 30.7553 69.692 31.2684 70.3055 31.2684Z" opacity="0.5"/>
        <path d="M76.6537 36.9979C78.056 36.9979 79.1929 35.8252 79.1929 34.3786C79.1929 32.932 78.056 31.7593 76.6537 31.7593C75.2513 31.7593 74.1144 32.932 74.1144 34.3786C74.1144 35.8252 75.2513 36.9979 76.6537 36.9979Z" opacity="0.5"/>
        <path d="M81.8892 33.3969C82.5028 33.3969 83.0001 32.8838 83.0001 32.2509C83.0001 31.618 82.5028 31.105 81.8892 31.105C81.2757 31.105 80.7783 31.618 80.7783 32.2509C80.7783 32.8838 81.2757 33.3969 81.8892 33.3969Z" opacity="0.5"/>
        <path d="M75.5413 30.7774C76.6807 30.7774 77.6044 29.8246 77.6044 28.6492C77.6044 27.4738 76.6807 26.521 75.5413 26.521C74.4018 26.521 73.4782 27.4738 73.4782 28.6492C73.4782 29.8246 74.4018 30.7774 75.5413 30.7774Z" opacity="0.5"/>
        <path d="M70.3035 25.7025C70.8294 25.7025 71.2557 25.2627 71.2557 24.7202C71.2557 24.1777 70.8294 23.738 70.3035 23.738C69.7776 23.738 69.3513 24.1777 69.3513 24.7202C69.3513 25.2627 69.7776 25.7025 70.3035 25.7025Z" opacity="0.5"/>
        <path d="M66.0214 22.5917C66.9855 22.5917 67.7671 21.7854 67.7671 20.7909C67.7671 19.7963 66.9855 18.9901 66.0214 18.9901C65.0572 18.9901 64.2756 19.7963 64.2756 20.7909C64.2756 21.7854 65.0572 22.5917 66.0214 22.5917Z" opacity="0.5"/>
        <path d="M62.3709 18.8266C63.335 18.8266 64.1166 18.0204 64.1166 17.0258C64.1166 16.0313 63.335 15.225 62.3709 15.225C61.4067 15.225 60.6252 16.0313 60.6252 17.0258C60.6252 18.0204 61.4067 18.8266 62.3709 18.8266Z" opacity="0.5"/>
        <path d="M59.3562 14.8974C60.2327 14.8974 60.9432 14.1645 60.9432 13.2603C60.9432 12.3562 60.2327 11.6233 59.3562 11.6233C58.4797 11.6233 57.7692 12.3562 57.7692 13.2603C57.7692 14.1645 58.4797 14.8974 59.3562 14.8974Z" opacity="0.5"/>
        <path d="M56.9758 11.1324C57.8523 11.1324 58.5628 10.3994 58.5628 9.49531C58.5628 8.59117 57.8523 7.85822 56.9758 7.85822C56.0994 7.85822 55.3888 8.59117 55.3888 9.49531C55.3888 10.3994 56.0994 11.1324 56.9758 11.1324Z" opacity="0.5"/>
        <path d="M54.5925 6.71229C55.0307 6.71229 55.386 6.34582 55.386 5.89375C55.386 5.44168 55.0307 5.07521 54.5925 5.07521C54.1542 5.07521 53.799 5.44168 53.799 5.89375C53.799 6.34582 54.1542 6.71229 54.5925 6.71229Z" opacity="0.5"/>
    </g>
    <g class="hover">
        <path d="M1.26959 2.6192C1.97076 2.6192 2.53918 2.03287 2.53918 1.3096C2.53918 0.586327 1.97076 0 1.26959 0C0.568414 0 0 0.586327 0 1.3096C0 2.03287 0.568414 2.6192 1.26959 2.6192Z" fill="#00BAAF"/>
        <path d="M3.80725 11.2937C5.29724 11.2937 6.50512 10.0478 6.50512 8.5108C6.50512 6.97385 5.29724 5.72791 3.80725 5.72791C2.31725 5.72791 1.10938 6.97385 1.10938 8.5108C1.10938 10.0478 2.31725 11.2937 3.80725 11.2937Z" fill="#00BAAF"/>
        <path d="M6.98108 18.4977C8.47107 18.4977 9.67895 17.2517 9.67895 15.7148C9.67895 14.1778 8.47107 12.9319 6.98108 12.9319C5.49108 12.9319 4.2832 14.1778 4.2832 15.7148C4.2832 17.2517 5.49108 18.4977 6.98108 18.4977Z" fill="#00BAAF"/>
        <path d="M10.4713 24.7181C11.2601 24.7181 11.8995 24.0585 11.8995 23.2448C11.8995 22.4311 11.2601 21.7715 10.4713 21.7715C9.68243 21.7715 9.04297 22.4311 9.04297 23.2448C9.04297 24.0585 9.68243 24.7181 10.4713 24.7181Z" fill="#00BAAF"/>
        <path d="M14.92 32.9019C15.7965 32.9019 16.507 32.169 16.507 31.2649C16.507 30.3608 15.7965 29.6279 14.92 29.6279C14.0435 29.6279 13.333 30.3608 13.333 31.2649C13.333 32.169 14.0435 32.9019 14.92 32.9019Z" fill="#00BAAF"/>
        <path d="M20.3146 43.2176C22.2428 43.2176 23.806 41.6052 23.806 39.6162C23.806 37.6272 22.2428 36.0148 20.3146 36.0148C18.3864 36.0148 16.8232 37.6272 16.8232 39.6162C16.8232 41.6052 18.3864 43.2176 20.3146 43.2176Z" fill="#00BAAF"/>
        <path d="M26.3414 50.5829C27.4808 50.5829 28.4045 49.6301 28.4045 48.4548C28.4045 47.2795 27.4808 46.3267 26.3414 46.3267C25.202 46.3267 24.2783 47.2795 24.2783 48.4548C24.2783 49.6301 25.202 50.5829 26.3414 50.5829Z" fill="#00BAAF"/>
        <path d="M33.3269 62.86C36.0439 62.86 38.2465 60.5879 38.2465 57.7853C38.2465 54.9826 36.0439 52.7106 33.3269 52.7106C30.6098 52.7106 28.4072 54.9826 28.4072 57.7853C28.4072 60.5879 30.6098 62.86 33.3269 62.86Z" fill="#00BAAF"/>
        <path d="M11.4258 3.60131C12.127 3.60131 12.6954 3.01499 12.6954 2.29172C12.6954 1.56844 12.127 0.982117 11.4258 0.982117C10.7247 0.982117 10.1562 1.56844 10.1562 2.29172C10.1562 3.01499 10.7247 3.60131 11.4258 3.60131Z" fill="#3653B8"/>
        <path d="M13.4874 9.82019C14.1885 9.82019 14.7569 9.23386 14.7569 8.51059C14.7569 7.78732 14.1885 7.20099 13.4874 7.20099C12.7862 7.20099 12.2178 7.78732 12.2178 8.51059C12.2178 9.23386 12.7862 9.82019 13.4874 9.82019Z" fill="#3653B8"/>
        <path d="M16.0309 17.5153C17.5209 17.5153 18.7288 16.2694 18.7288 14.7324C18.7288 13.1955 17.5209 11.9495 16.0309 11.9495C14.5409 11.9495 13.333 13.1955 13.333 14.7324C13.333 16.2694 14.5409 17.5153 16.0309 17.5153Z" fill="#3653B8"/>
        <path d="M19.3624 22.9178C20.0635 22.9178 20.632 22.3315 20.632 21.6082C20.632 20.885 20.0635 20.2986 19.3624 20.2986C18.6612 20.2986 18.0928 20.885 18.0928 21.6082C18.0928 22.3315 18.6612 22.9178 19.3624 22.9178Z" fill="#3653B8"/>
        <path d="M23.4865 31.7587C25.0641 31.7587 26.343 30.4394 26.343 28.8121C26.343 27.1847 25.0641 25.8655 23.4865 25.8655C21.9088 25.8655 20.6299 27.1847 20.6299 28.8121C20.6299 30.4394 21.9088 31.7587 23.4865 31.7587Z" fill="#3653B8"/>
        <path d="M28.4074 39.6145C30.1603 39.6145 31.5813 38.1486 31.5813 36.3405C31.5813 34.5323 30.1603 33.0665 28.4074 33.0665C26.6544 33.0665 25.2334 34.5323 25.2334 36.3405C25.2334 38.1486 26.6544 39.6145 28.4074 39.6145Z" fill="#3653B8"/>
        <path d="M34.4371 46.0001C35.4012 46.0001 36.1828 45.1939 36.1828 44.1994C36.1828 43.2049 35.4012 42.3987 34.4371 42.3987C33.473 42.3987 32.6914 43.2049 32.6914 44.1994C32.6914 45.1939 33.473 46.0001 34.4371 46.0001Z" fill="#3653B8"/>
        <path d="M42.2116 56.6393C44.5781 56.6393 46.4965 54.6604 46.4965 52.2194C46.4965 49.7784 44.5781 47.7995 42.2116 47.7995C39.8452 47.7995 37.9268 49.7784 37.9268 52.2194C37.9268 54.6604 39.8452 56.6393 42.2116 56.6393Z" fill="#3653B8"/>
        <path d="M20.6304 4.25652C21.2439 4.25652 21.7413 3.74348 21.7413 3.11062C21.7413 2.47776 21.2439 1.96472 20.6304 1.96472C20.0169 1.96472 19.5195 2.47776 19.5195 3.11062C19.5195 3.74348 20.0169 4.25652 20.6304 4.25652Z" fill="#3653B8"/>
        <path d="M22.5333 10.8044C23.7604 10.8044 24.7551 9.77835 24.7551 8.51262C24.7551 7.2469 23.7604 6.22083 22.5333 6.22083C21.3062 6.22083 20.3115 7.2469 20.3115 8.51262C20.3115 9.77835 21.3062 10.8044 22.5333 10.8044Z" fill="#3653B8"/>
        <path d="M24.7574 16.5329C26.0721 16.5329 27.1379 15.4335 27.1379 14.0774C27.1379 12.7213 26.0721 11.6219 24.7574 11.6219C23.4427 11.6219 22.377 12.7213 22.377 14.0774C22.377 15.4335 23.4427 16.5329 24.7574 16.5329Z" fill="#3653B8"/>
        <path d="M27.7725 21.6074C28.4737 21.6074 29.0421 21.021 29.0421 20.2978C29.0421 19.5745 28.4737 18.9882 27.7725 18.9882C27.0713 18.9882 26.5029 19.5745 26.5029 20.2978C26.5029 21.021 27.0713 21.6074 27.7725 21.6074Z" fill="#3653B8"/>
        <path d="M31.7393 27.9915C32.4405 27.9915 33.0089 27.4052 33.0089 26.6819C33.0089 25.9586 32.4405 25.3723 31.7393 25.3723C31.0381 25.3723 30.4697 25.9586 30.4697 26.6819C30.4697 27.4052 31.0381 27.9915 31.7393 27.9915Z" fill="#3653B8"/>
        <path d="M36.5011 36.3417C38.0787 36.3417 39.3577 35.0224 39.3577 33.3951C39.3577 31.7677 38.0787 30.4485 36.5011 30.4485C34.9235 30.4485 33.6445 31.7677 33.6445 33.3951C33.6445 35.0224 34.9235 36.3417 36.5011 36.3417Z" fill="#3653B8"/>
        <path d="M42.5294 43.705C44.2824 43.705 45.7034 42.2392 45.7034 40.431C45.7034 38.6229 44.2824 37.157 42.5294 37.157C40.7765 37.157 39.3555 38.6229 39.3555 40.431C39.3555 42.2392 40.7765 43.705 42.5294 43.705Z" fill="#3653B8"/>
        <path d="M49.8307 51.4012C51.8466 51.4012 53.4808 49.7155 53.4808 47.6361C53.4808 45.5567 51.8466 43.871 49.8307 43.871C47.8149 43.871 46.1807 45.5567 46.1807 47.6361C46.1807 49.7155 47.8149 51.4012 49.8307 51.4012Z" fill="#3653B8"/>
        <path d="M57.2877 46.8182C59.1283 46.8182 60.6204 45.2791 60.6204 43.3805C60.6204 41.4819 59.1283 39.9428 57.2877 39.9428C55.4472 39.9428 53.9551 41.4819 53.9551 43.3805C53.9551 45.2791 55.4472 46.8182 57.2877 46.8182Z" fill="#3653B8"/>
        <path d="M50.3058 40.2699C51.8834 40.2699 53.1624 38.9507 53.1624 37.3233C53.1624 35.6959 51.8834 34.3767 50.3058 34.3767C48.7282 34.3767 47.4492 35.6959 47.4492 37.3233C47.4492 38.9507 48.7282 40.2699 50.3058 40.2699Z" fill="#3653B8"/>
        <path d="M44.4347 33.5591C45.837 33.5591 46.9739 32.3864 46.9739 30.9399C46.9739 29.4933 45.837 28.3207 44.4347 28.3207C43.0323 28.3207 41.8955 29.4933 41.8955 30.9399C41.8955 32.3864 43.0323 33.5591 44.4347 33.5591Z" fill="#3653B8"/>
        <path d="M39.8341 27.6653C41.2364 27.6653 42.3733 26.4927 42.3733 25.0461C42.3733 23.5996 41.2364 22.4269 39.8341 22.4269C38.4317 22.4269 37.2949 23.5996 37.2949 25.0461C37.2949 26.4927 38.4317 27.6653 39.8341 27.6653Z" fill="#3653B8"/>
        <path d="M36.0259 20.4624C36.6395 20.4624 37.1368 19.9494 37.1368 19.3165C37.1368 18.6836 36.6395 18.1706 36.0259 18.1706C35.4124 18.1706 34.915 18.6836 34.915 19.3165C34.915 19.9494 35.4124 20.4624 36.0259 20.4624Z" fill="#3653B8"/>
        <path d="M33.0094 15.8781C34.1488 15.8781 35.0725 14.9253 35.0725 13.75C35.0725 12.5747 34.1488 11.6219 33.0094 11.6219C31.87 11.6219 30.9463 12.5747 30.9463 13.75C30.9463 14.9253 31.87 15.8781 33.0094 15.8781Z" fill="#3653B8"/>
        <path d="M30.7877 10.967C31.9271 10.967 32.8508 10.0142 32.8508 8.83891C32.8508 7.6636 31.9271 6.71082 30.7877 6.71082C29.6483 6.71082 28.7246 7.6636 28.7246 8.83891C28.7246 10.0142 29.6483 10.967 30.7877 10.967Z" fill="#3653B8"/>
        <path d="M28.8838 4.74693C29.4097 4.74693 29.836 4.30718 29.836 3.76473C29.836 3.22228 29.4097 2.78253 28.8838 2.78253C28.358 2.78253 27.9316 3.22228 27.9316 3.76473C27.9316 4.30718 28.358 4.74693 28.8838 4.74693Z" fill="#3653B8"/>
        <path d="M36.3409 5.4022C36.8667 5.4022 37.2931 4.96246 37.2931 4.42C37.2931 3.87755 36.8667 3.43781 36.3409 3.43781C35.815 3.43781 35.3887 3.87755 35.3887 4.42C35.3887 4.96246 35.815 5.4022 36.3409 5.4022Z" fill="#3653B8"/>
        <path d="M38.4054 10.8046C39.4571 10.8046 40.3097 9.92516 40.3097 8.84025C40.3097 7.75535 39.4571 6.87585 38.4054 6.87585C37.3536 6.87585 36.501 7.75535 36.501 8.84025C36.501 9.92516 37.3536 10.8046 38.4054 10.8046Z" fill="#3653B8"/>
        <path d="M40.627 15.5507C41.6788 15.5507 42.5314 14.6712 42.5314 13.5863C42.5314 12.5014 41.6788 11.6219 40.627 11.6219C39.5753 11.6219 38.7227 12.5014 38.7227 13.5863C38.7227 14.6712 39.5753 15.5507 40.627 15.5507Z" fill="#3653B8"/>
        <path d="M43.6412 20.6261C44.7806 20.6261 45.7043 19.6733 45.7043 18.498C45.7043 17.3227 44.7806 16.3699 43.6412 16.3699C42.5018 16.3699 41.5781 17.3227 41.5781 18.498C41.5781 19.6733 42.5018 20.6261 43.6412 20.6261Z" fill="#3653B8"/>
        <path d="M47.2915 24.8811C47.9051 24.8811 48.4024 24.3681 48.4024 23.7352C48.4024 23.1023 47.9051 22.5893 47.2915 22.5893C46.678 22.5893 46.1807 23.1023 46.1807 23.7352C46.1807 24.3681 46.678 24.8811 47.2915 24.8811Z" fill="#3653B8"/>
        <path d="M52.0528 31.1009C53.2799 31.1009 54.2746 30.0748 54.2746 28.8091C54.2746 27.5433 53.2799 26.5173 52.0528 26.5173C50.8258 26.5173 49.8311 27.5433 49.8311 28.8091C49.8311 30.0748 50.8258 31.1009 52.0528 31.1009Z" fill="#3653B8"/>
        <path d="M57.7643 37.1592C59.2543 37.1592 60.4622 35.9132 60.4622 34.3763C60.4622 32.8393 59.2543 31.5934 57.7643 31.5934C56.2743 31.5934 55.0664 32.8393 55.0664 34.3763C55.0664 35.9132 56.2743 37.1592 57.7643 37.1592Z" fill="#3653B8"/>
        <path d="M64.4322 41.4171C65.221 41.4171 65.8605 40.7574 65.8605 39.9438C65.8605 39.1301 65.221 38.4705 64.4322 38.4705C63.6434 38.4705 63.0039 39.1301 63.0039 39.9438C63.0039 40.7574 63.6434 41.4171 64.4322 41.4171Z" fill="#3653B8"/>
        <path d="M64.4312 34.7045C65.7459 34.7045 66.8117 33.6051 66.8117 32.249C66.8117 30.8928 65.7459 29.7935 64.4312 29.7935C63.1166 29.7935 62.0508 30.8928 62.0508 32.249C62.0508 33.6051 63.1166 34.7045 64.4312 34.7045Z" fill="#3653B8"/>
        <path d="M70.9376 38.1411C71.6387 38.1411 72.2072 37.5548 72.2072 36.8315C72.2072 36.1082 71.6387 35.5219 70.9376 35.5219C70.2364 35.5219 69.668 36.1082 69.668 36.8315C69.668 37.5548 70.2364 38.1411 70.9376 38.1411Z" fill="#3653B8"/>
        <path d="M58.8771 29.6283C60.1041 29.6283 61.0988 28.6022 61.0988 27.3365C61.0988 26.0708 60.1041 25.0447 58.8771 25.0447C57.65 25.0447 56.6553 26.0708 56.6553 27.3365C56.6553 28.6022 57.65 29.6283 58.8771 29.6283Z" fill="#3653B8"/>
        <path d="M54.274 24.7174C55.4134 24.7174 56.3371 23.7647 56.3371 22.5893C56.3371 21.414 55.4134 20.4612 54.274 20.4612C53.1346 20.4612 52.2109 21.414 52.2109 22.5893C52.2109 23.7647 53.1346 24.7174 54.274 24.7174Z" fill="#3653B8"/>
        <path d="M50.6241 18.8245C51.1499 18.8245 51.5762 18.3848 51.5762 17.8423C51.5762 17.2999 51.1499 16.8601 50.6241 16.8601C50.0982 16.8601 49.6719 17.2999 49.6719 17.8423C49.6719 18.3848 50.0982 18.8245 50.6241 18.8245Z" fill="#3653B8"/>
        <path d="M47.6075 15.3881C48.6593 15.3881 49.5119 14.5086 49.5119 13.4237C49.5119 12.3388 48.6593 11.4593 47.6075 11.4593C46.5557 11.4593 45.7031 12.3388 45.7031 13.4237C45.7031 14.5086 46.5557 15.3881 47.6075 15.3881Z" fill="#3653B8"/>
        <path d="M45.2295 10.313C45.7554 10.313 46.1817 9.87329 46.1817 9.33083C46.1817 8.78838 45.7554 8.34863 45.2295 8.34863C44.7037 8.34863 44.2773 8.78838 44.2773 9.33083C44.2773 9.87329 44.7037 10.313 45.2295 10.313Z" fill="#3653B8"/>
        <path d="M43.167 6.05717C43.6929 6.05717 44.1192 5.61742 44.1192 5.07497C44.1192 4.53252 43.6929 4.09277 43.167 4.09277C42.6412 4.09277 42.2148 4.53252 42.2148 5.07497C42.2148 5.61742 42.6412 6.05717 43.167 6.05717Z" fill="#3653B8"/>
        <path d="M49.2762 6.46482C49.7582 6.46482 50.149 6.06172 50.149 5.56447C50.149 5.06722 49.7582 4.66412 49.2762 4.66412C48.7941 4.66412 48.4033 5.06722 48.4033 5.56447C48.4033 6.06172 48.7941 6.46482 49.2762 6.46482Z" fill="#3653B8"/>
        <path d="M51.4176 11.2951C52.3817 11.2951 53.1632 10.4889 53.1632 9.49436C53.1632 8.49986 52.3817 7.69366 51.4176 7.69366C50.4534 7.69366 49.6719 8.49986 49.6719 9.49436C49.6719 10.4889 50.4534 11.2951 51.4176 11.2951Z" fill="#3653B8"/>
        <path d="M53.9566 15.2233C54.9207 15.2233 55.7023 14.4171 55.7023 13.4226C55.7023 12.4281 54.9207 11.6219 53.9566 11.6219C52.9925 11.6219 52.2109 12.4281 52.2109 13.4226C52.2109 14.4171 52.9925 15.2233 53.9566 15.2233Z" fill="#3653B8"/>
        <path d="M56.9742 19.1517C57.9383 19.1517 58.7199 18.3455 58.7199 17.3511C58.7199 16.3566 57.9383 15.5504 56.9742 15.5504C56.0101 15.5504 55.2285 16.3566 55.2285 17.3511C55.2285 18.3455 56.0101 19.1517 56.9742 19.1517Z" fill="#3653B8"/>
        <path d="M60.6241 22.7532C61.1499 22.7532 61.5763 22.3135 61.5763 21.771C61.5763 21.2286 61.1499 20.7888 60.6241 20.7888C60.0982 20.7888 59.6719 21.2286 59.6719 21.771C59.6719 22.3135 60.0982 22.7532 60.6241 22.7532Z" fill="#3653B8"/>
        <path d="M65.067 28.1557C66.2064 28.1557 67.1301 27.2029 67.1301 26.0276C67.1301 24.8523 66.2064 23.8995 65.067 23.8995C63.9276 23.8995 63.0039 24.8523 63.0039 26.0276C63.0039 27.2029 63.9276 28.1557 65.067 28.1557Z" fill="#3653B8"/>
        <path d="M70.3013 31.2674C70.9148 31.2674 71.4122 30.7544 71.4122 30.1215C71.4122 29.4887 70.9148 28.9756 70.3013 28.9756C69.6878 28.9756 69.1904 29.4887 69.1904 30.1215C69.1904 30.7544 69.6878 31.2674 70.3013 31.2674Z" fill="#3653B8"/>
        <path d="M76.6495 36.9944C78.0519 36.9944 79.1887 35.8217 79.1887 34.3752C79.1887 32.9286 78.0519 31.756 76.6495 31.756C75.2472 31.756 74.1104 32.9286 74.1104 34.3752C74.1104 35.8217 75.2472 36.9944 76.6495 36.9944Z" fill="#3653B8"/>
        <path d="M81.8892 33.3953C82.5027 33.3953 83.0001 32.8822 83.0001 32.2494C83.0001 31.6165 82.5027 31.1035 81.8892 31.1035C81.2757 31.1035 80.7783 31.6165 80.7783 32.2494C80.7783 32.8822 81.2757 33.3953 81.8892 33.3953Z" fill="#3653B8"/>
        <path d="M75.5426 30.7735C76.682 30.7735 77.6057 29.8207 77.6057 28.6454C77.6057 27.4701 76.682 26.5173 75.5426 26.5173C74.4032 26.5173 73.4795 27.4701 73.4795 28.6454C73.4795 29.8207 74.4032 30.7735 75.5426 30.7735Z" fill="#3653B8"/>
        <path d="M70.3047 25.6986C70.8306 25.6986 71.2569 25.2588 71.2569 24.7164C71.2569 24.1739 70.8306 23.7342 70.3047 23.7342C69.7788 23.7342 69.3525 24.1739 69.3525 24.7164C69.3525 25.2588 69.7788 25.6986 70.3047 25.6986Z" fill="#3653B8"/>
        <path d="M66.0152 22.5895C66.9793 22.5895 67.7609 21.7834 67.7609 20.7889C67.7609 19.7944 66.9793 18.9882 66.0152 18.9882C65.0511 18.9882 64.2695 19.7944 64.2695 20.7889C64.2695 21.7834 65.0511 22.5895 66.0152 22.5895Z" fill="#3653B8"/>
        <path d="M62.3668 18.8237C63.3309 18.8237 64.1125 18.0175 64.1125 17.023C64.1125 16.0285 63.3309 15.2223 62.3668 15.2223C61.4027 15.2223 60.6211 16.0285 60.6211 17.023C60.6211 18.0175 61.4027 18.8237 62.3668 18.8237Z" fill="#3653B8"/>
        <path d="M59.3526 14.8959C60.2291 14.8959 60.9396 14.163 60.9396 13.2589C60.9396 12.3548 60.2291 11.6219 59.3526 11.6219C58.4761 11.6219 57.7656 12.3548 57.7656 13.2589C57.7656 14.163 58.4761 14.8959 59.3526 14.8959Z" fill="#3653B8"/>
        <path d="M56.9737 11.1327C57.8502 11.1327 58.5607 10.3998 58.5607 9.4957C58.5607 8.59161 57.8502 7.8587 56.9737 7.8587C56.0972 7.8587 55.3867 8.59161 55.3867 9.4957C55.3867 10.3998 56.0972 11.1327 56.9737 11.1327Z" fill="#3653B8"/>
        <path d="M54.5943 6.70969C55.0325 6.70969 55.3878 6.34324 55.3878 5.89119C55.3878 5.43915 55.0325 5.07269 54.5943 5.07269C54.156 5.07269 53.8008 5.43915 53.8008 5.89119C53.8008 6.34324 54.156 6.70969 54.5943 6.70969Z" fill="#3653B8"/>
    </g>
</svg>
