<svg width="84" height="64" viewBox="0 0 84 64" xmlns="http://www.w3.org/2000/svg">
<path d="M1.27061 3.50753C1.97235 3.50753 2.54122 2.92057 2.54122 2.19652C2.54122 1.47246 1.97235 0.885498 1.27061 0.885498C0.568871 0.885498 0 1.47246 0 2.19652C0 2.92057 0.568871 3.50753 1.27061 3.50753Z" />
<path d="M3.81235 12.1929C5.30354 12.1929 6.51239 10.9456 6.51239 9.40701C6.51239 7.86839 5.30354 6.62109 3.81235 6.62109C2.32116 6.62109 1.1123 7.86839 1.1123 9.40701C1.1123 10.9456 2.32116 12.1929 3.81235 12.1929Z" />
<path d="M6.99008 19.4039C8.48128 19.4039 9.69013 18.1566 9.69013 16.6179C9.69013 15.0793 8.48128 13.832 6.99008 13.832C5.49889 13.832 4.29004 15.0793 4.29004 16.6179C4.29004 18.1566 5.49889 19.4039 6.99008 19.4039Z" />
<path d="M10.4831 25.6312C11.2726 25.6312 11.9126 24.9709 11.9126 24.1563C11.9126 23.3417 11.2726 22.6814 10.4831 22.6814C9.69369 22.6814 9.05371 23.3417 9.05371 24.1563C9.05371 24.9709 9.69369 25.6312 10.4831 25.6312Z" />
<path d="M14.9291 33.8252C15.8063 33.8252 16.5173 33.0915 16.5173 32.1864C16.5173 31.2813 15.8063 30.5476 14.9291 30.5476C14.0519 30.5476 13.3408 31.2813 13.3408 32.1864C13.3408 33.0915 14.0519 33.8252 14.9291 33.8252Z" />
<path d="M20.3301 44.1493C22.2599 44.1493 23.8243 42.5352 23.8243 40.544C23.8243 38.5529 22.2599 36.9387 20.3301 36.9387C18.4003 36.9387 16.8359 38.5529 16.8359 40.544C16.8359 42.5352 18.4003 44.1493 20.3301 44.1493Z" />
<path d="M26.3665 51.524C27.5068 51.524 28.4312 50.5702 28.4312 49.3936C28.4312 48.217 27.5068 47.2632 26.3665 47.2632C25.2262 47.2632 24.3018 48.217 24.3018 49.3936C24.3018 50.5702 25.2262 51.524 26.3665 51.524Z" />
<path d="M33.3533 63.8144C36.0725 63.8144 38.2769 61.54 38.2769 58.7342C38.2769 55.9285 36.0725 53.6541 33.3533 53.6541C30.6341 53.6541 28.4297 55.9285 28.4297 58.7342C28.4297 61.54 30.6341 63.8144 33.3533 63.8144Z" />
<path d="M11.4347 4.49093C12.1364 4.49093 12.7053 3.90397 12.7053 3.17991C12.7053 2.45586 12.1364 1.8689 11.4347 1.8689C10.7329 1.8689 10.1641 2.45586 10.1641 3.17991C10.1641 3.90397 10.7329 4.49093 11.4347 4.49093Z"  fill-opacity="0.7"/>
<path d="M13.5001 10.7177C14.2018 10.7177 14.7707 10.1308 14.7707 9.40672C14.7707 8.68267 14.2018 8.0957 13.5001 8.0957C12.7984 8.0957 12.2295 8.68267 12.2295 9.40672C12.2295 10.1308 12.7984 10.7177 13.5001 10.7177Z"  fill-opacity="0.7"/>
<path d="M16.0409 18.4207C17.5321 18.4207 18.7409 17.1734 18.7409 15.6348C18.7409 14.0962 17.5321 12.8489 16.0409 12.8489C14.5497 12.8489 13.3408 14.0962 13.3408 15.6348C13.3408 17.1734 14.5497 18.4207 16.0409 18.4207Z"  fill-opacity="0.7"/>
<path d="M19.3771 23.8286C20.0788 23.8286 20.6477 23.2416 20.6477 22.5176C20.6477 21.7935 20.0788 21.2065 19.3771 21.2065C18.6753 21.2065 18.1064 21.7935 18.1064 22.5176C18.1064 23.2416 18.6753 23.8286 19.3771 23.8286Z"  fill-opacity="0.7"/>
<path d="M23.5073 32.6777C25.0862 32.6777 26.3662 31.357 26.3662 29.7279C26.3662 28.0987 25.0862 26.7781 23.5073 26.7781C21.9284 26.7781 20.6484 28.0987 20.6484 29.7279C20.6484 31.357 21.9284 32.6777 23.5073 32.6777Z"  fill-opacity="0.7"/>
<path d="M28.4295 40.5441C30.1838 40.5441 31.606 39.0767 31.606 37.2666C31.606 35.4564 30.1838 33.989 28.4295 33.989C26.6751 33.989 25.2529 35.4564 25.2529 37.2666C25.2529 39.0767 26.6751 40.5441 28.4295 40.5441Z"  fill-opacity="0.7"/>
<path d="M34.4658 46.9354C35.4307 46.9354 36.2129 46.1283 36.2129 45.1327C36.2129 44.1372 35.4307 43.3301 34.4658 43.3301C33.5009 43.3301 32.7188 44.1372 32.7188 45.1327C32.7188 46.1283 33.5009 46.9354 34.4658 46.9354Z"  fill-opacity="0.7"/>
<path d="M42.2483 57.5872C44.6166 57.5872 46.5366 55.6062 46.5366 53.1625C46.5366 50.7188 44.6166 48.7378 42.2483 48.7378C39.8799 48.7378 37.96 50.7188 37.96 53.1625C37.96 55.6062 39.8799 57.5872 42.2483 57.5872Z"  fill-opacity="0.7"/>
<path d="M20.6479 5.14658C21.2619 5.14658 21.7597 4.63298 21.7597 3.99944C21.7597 3.36589 21.2619 2.85229 20.6479 2.85229C20.0339 2.85229 19.5361 3.36589 19.5361 3.99944C19.5361 4.63298 20.0339 5.14658 20.6479 5.14658Z"  fill-opacity="0.7"/>
<path d="M22.5536 11.7011C23.7817 11.7011 24.7772 10.6739 24.7772 9.40683C24.7772 8.13973 23.7817 7.11255 22.5536 7.11255C21.3256 7.11255 20.3301 8.13973 20.3301 9.40683C20.3301 10.6739 21.3256 11.7011 22.5536 11.7011Z"  fill-opacity="0.7"/>
<path d="M24.7759 17.4371C26.0917 17.4371 27.1583 16.3365 27.1583 14.9789C27.1583 13.6213 26.0917 12.5208 24.7759 12.5208C23.4602 12.5208 22.3936 13.6213 22.3936 14.9789C22.3936 16.3365 23.4602 17.4371 24.7759 17.4371Z"  fill-opacity="0.7"/>
<path d="M27.795 22.5171C28.4968 22.5171 29.0656 21.9301 29.0656 21.206C29.0656 20.482 28.4968 19.895 27.795 19.895C27.0933 19.895 26.5244 20.482 26.5244 21.206C26.5244 21.9301 27.0933 22.5171 27.795 22.5171Z"  fill-opacity="0.7"/>
<path d="M31.7638 28.9084C32.4655 28.9084 33.0344 28.3214 33.0344 27.5974C33.0344 26.8733 32.4655 26.2864 31.7638 26.2864C31.062 26.2864 30.4932 26.8733 30.4932 27.5974C30.4932 28.3214 31.062 28.9084 31.7638 28.9084Z"  fill-opacity="0.7"/>
<path d="M36.5317 37.2663C38.1106 37.2663 39.3906 35.9456 39.3906 34.3165C39.3906 32.6874 38.1106 31.3667 36.5317 31.3667C34.9528 31.3667 33.6729 32.6874 33.6729 34.3165C33.6729 35.9456 34.9528 37.2663 36.5317 37.2663Z"  fill-opacity="0.7"/>
<path d="M42.5672 44.6408C44.3215 44.6408 45.7437 43.1734 45.7437 41.3632C45.7437 39.5531 44.3215 38.0857 42.5672 38.0857C40.8128 38.0857 39.3906 39.5531 39.3906 41.3632C39.3906 43.1734 40.8128 44.6408 42.5672 44.6408Z"  fill-opacity="0.7"/>
<path d="M49.8718 52.3433C51.8893 52.3433 53.5248 50.6558 53.5248 48.5741C53.5248 46.4924 51.8893 44.8049 49.8718 44.8049C47.8543 44.8049 46.2188 46.4924 46.2188 48.5741C46.2188 50.6558 47.8543 52.3433 49.8718 52.3433Z"  fill-opacity="0.7"/>
<path d="M57.3373 47.7547C59.1794 47.7547 60.6727 46.2139 60.6727 44.3132C60.6727 42.4126 59.1794 40.8718 57.3373 40.8718C55.4952 40.8718 54.002 42.4126 54.002 44.3132C54.002 46.2139 55.4952 47.7547 57.3373 47.7547Z"  fill-opacity="0.7"/>
<path d="M50.3491 41.1994C51.928 41.1994 53.208 39.8787 53.208 38.2496C53.208 36.6205 51.928 35.2998 50.3491 35.2998C48.7702 35.2998 47.4902 36.6205 47.4902 38.2496C47.4902 39.8787 48.7702 41.1994 50.3491 41.1994Z"  fill-opacity="0.7"/>
<path d="M44.4719 34.4804C45.8754 34.4804 47.0131 33.3065 47.0131 31.8584C47.0131 30.4103 45.8754 29.2363 44.4719 29.2363C43.0684 29.2363 41.9307 30.4103 41.9307 31.8584C41.9307 33.3065 43.0684 34.4804 44.4719 34.4804Z"  fill-opacity="0.7"/>
<path d="M39.8664 28.5805C41.2699 28.5805 42.4076 27.4066 42.4076 25.9585C42.4076 24.5104 41.2699 23.3364 39.8664 23.3364C38.4629 23.3364 37.3252 24.5104 37.3252 25.9585C37.3252 27.4066 38.4629 28.5805 39.8664 28.5805Z"  fill-opacity="0.7"/>
<path d="M36.0551 21.3705C36.6692 21.3705 37.1669 20.8569 37.1669 20.2233C37.1669 19.5898 36.6692 19.0762 36.0551 19.0762C35.4411 19.0762 34.9434 19.5898 34.9434 20.2233C34.9434 20.8569 35.4411 21.3705 36.0551 21.3705Z"  fill-opacity="0.7"/>
<path d="M33.0345 16.7816C34.1748 16.7816 35.0992 15.8277 35.0992 14.6512C35.0992 13.4746 34.1748 12.5208 33.0345 12.5208C31.8941 12.5208 30.9697 13.4746 30.9697 14.6512C30.9697 15.8277 31.8941 16.7816 33.0345 16.7816Z"  fill-opacity="0.7"/>
<path d="M30.8128 11.8651C31.9531 11.8651 32.8775 10.9112 32.8775 9.73465C32.8775 8.55806 31.9531 7.60425 30.8128 7.60425C29.6725 7.60425 28.748 8.55806 28.748 9.73465C28.748 10.9112 29.6725 11.8651 30.8128 11.8651Z"  fill-opacity="0.7"/>
<path d="M28.908 5.63791C29.4343 5.63791 29.861 5.19769 29.861 4.65465C29.861 4.11161 29.4343 3.67139 28.908 3.67139C28.3817 3.67139 27.9551 4.11161 27.9551 4.65465C27.9551 5.19769 28.3817 5.63791 28.908 5.63791Z"  fill-opacity="0.7"/>
<path d="M36.3719 6.29368C36.8982 6.29368 37.3249 5.85345 37.3249 5.31041C37.3249 4.76737 36.8982 4.32715 36.3719 4.32715C35.8456 4.32715 35.4189 4.76737 35.4189 5.31041C35.4189 5.85345 35.8456 6.29368 36.3719 6.29368Z"  fill-opacity="0.7"/>
<path d="M38.4372 11.7014C39.4898 11.7014 40.3431 10.8209 40.3431 9.73484C40.3431 8.64875 39.4898 7.76831 38.4372 7.76831C37.3846 7.76831 36.5312 8.64875 36.5312 9.73484C36.5312 10.8209 37.3846 11.7014 38.4372 11.7014Z"  fill-opacity="0.7"/>
<path d="M40.6598 16.4538C41.7124 16.4538 42.5657 15.5734 42.5657 14.4873C42.5657 13.4012 41.7124 12.5208 40.6598 12.5208C39.6072 12.5208 38.7539 13.4012 38.7539 14.4873C38.7539 15.5734 39.6072 16.4538 40.6598 16.4538Z"  fill-opacity="0.7"/>
<path d="M43.677 21.5342C44.8174 21.5342 45.7418 20.5804 45.7418 19.4038C45.7418 18.2273 44.8174 17.2734 43.677 17.2734C42.5367 17.2734 41.6123 18.2273 41.6123 19.4038C41.6123 20.5804 42.5367 21.5342 43.677 21.5342Z"  fill-opacity="0.7"/>
<path d="M47.3305 25.7948C47.9446 25.7948 48.4423 25.2812 48.4423 24.6476C48.4423 24.0141 47.9446 23.5005 47.3305 23.5005C46.7165 23.5005 46.2188 24.0141 46.2188 24.6476C46.2188 25.2812 46.7165 25.7948 47.3305 25.7948Z"  fill-opacity="0.7"/>
<path d="M52.0947 32.0224C53.3227 32.0224 54.3182 30.9952 54.3182 29.7281C54.3182 28.461 53.3227 27.4338 52.0947 27.4338C50.8666 27.4338 49.8711 28.461 49.8711 29.7281C49.8711 30.9952 50.8666 32.0224 52.0947 32.0224Z"  fill-opacity="0.7"/>
<path d="M57.8123 38.0857C59.3035 38.0857 60.5124 36.8384 60.5124 35.2998C60.5124 33.7612 59.3035 32.5139 57.8123 32.5139C56.3212 32.5139 55.1123 33.7612 55.1123 35.2998C55.1123 36.8384 56.3212 38.0857 57.8123 38.0857Z"  fill-opacity="0.7"/>
<path d="M64.4841 42.3468C65.2736 42.3468 65.9136 41.6864 65.9136 40.8719C65.9136 40.0573 65.2736 39.397 64.4841 39.397C63.6947 39.397 63.0547 40.0573 63.0547 40.8719C63.0547 41.6864 63.6947 42.3468 64.4841 42.3468Z"  fill-opacity="0.7"/>
<path d="M64.483 35.6275C65.7987 35.6275 66.8653 34.5269 66.8653 33.1693C66.8653 31.8117 65.7987 30.7112 64.483 30.7112C63.1672 30.7112 62.1006 31.8117 62.1006 33.1693C62.1006 34.5269 63.1672 35.6275 64.483 35.6275Z"  fill-opacity="0.7"/>
<path d="M70.9962 39.069C71.6979 39.069 72.2668 38.4821 72.2668 37.758C72.2668 37.034 71.6979 36.447 70.9962 36.447C70.2945 36.447 69.7256 37.034 69.7256 37.758C69.7256 38.4821 70.2945 39.069 70.9962 39.069Z"  fill-opacity="0.7"/>
<path d="M58.9247 30.5473C60.1528 30.5473 61.1483 29.5201 61.1483 28.253C61.1483 26.9859 60.1528 25.9587 58.9247 25.9587C57.6967 25.9587 56.7012 26.9859 56.7012 28.253C56.7012 29.5201 57.6967 30.5473 58.9247 30.5473Z"  fill-opacity="0.7"/>
<path d="M54.3186 25.6309C55.459 25.6309 56.3834 24.6771 56.3834 23.5005C56.3834 22.3239 55.459 21.3701 54.3186 21.3701C53.1783 21.3701 52.2539 22.3239 52.2539 23.5005C52.2539 24.6771 53.1783 25.6309 54.3186 25.6309Z"  fill-opacity="0.7"/>
<path d="M50.6678 19.7317C51.1941 19.7317 51.6207 19.2914 51.6207 18.7484C51.6207 18.2054 51.1941 17.7651 50.6678 17.7651C50.1415 17.7651 49.7148 18.2054 49.7148 18.7484C49.7148 19.2914 50.1415 19.7317 50.6678 19.7317Z"  fill-opacity="0.7"/>
<path d="M47.6481 16.29C48.7007 16.29 49.554 15.4095 49.554 14.3235C49.554 13.2374 48.7007 12.3569 47.6481 12.3569C46.5955 12.3569 45.7422 13.2374 45.7422 14.3235C45.7422 15.4095 46.5955 16.29 47.6481 16.29Z"  fill-opacity="0.7"/>
<path d="M45.2664 11.2097C45.7927 11.2097 46.2194 10.7695 46.2194 10.2264C46.2194 9.68339 45.7927 9.24316 45.2664 9.24316C44.7401 9.24316 44.3135 9.68339 44.3135 10.2264C44.3135 10.7695 44.7401 11.2097 45.2664 11.2097Z"  fill-opacity="0.7"/>
<path d="M43.202 6.94919C43.7283 6.94919 44.1549 6.50897 44.1549 5.96593C44.1549 5.42289 43.7283 4.98267 43.202 4.98267C42.6757 4.98267 42.249 5.42289 42.249 5.96593C42.249 6.50897 42.6757 6.94919 43.202 6.94919Z"  fill-opacity="0.7"/>
<path d="M49.3169 7.35856C49.7993 7.35856 50.1904 6.95502 50.1904 6.45723C50.1904 5.95945 49.7993 5.55591 49.3169 5.55591C48.8345 5.55591 48.4434 5.95945 48.4434 6.45723C48.4434 6.95502 48.8345 7.35856 49.3169 7.35856Z"  fill-opacity="0.7"/>
<path d="M51.4619 12.1927C52.4268 12.1927 53.209 11.3856 53.209 10.3901C53.209 9.39448 52.4268 8.5874 51.4619 8.5874C50.497 8.5874 49.7148 9.39448 49.7148 10.3901C49.7148 11.3856 50.497 12.1927 51.4619 12.1927Z"  fill-opacity="0.7"/>
<path d="M54.001 16.1261C54.9659 16.1261 55.7481 15.319 55.7481 14.3234C55.7481 13.3278 54.9659 12.5208 54.001 12.5208C53.0361 12.5208 52.2539 13.3278 52.2539 14.3234C52.2539 15.319 53.0361 16.1261 54.001 16.1261Z"  fill-opacity="0.7"/>
<path d="M57.0186 20.0589C57.9835 20.0589 58.7657 19.2518 58.7657 18.2563C58.7657 17.2607 57.9835 16.4536 57.0186 16.4536C56.0537 16.4536 55.2715 17.2607 55.2715 18.2563C55.2715 19.2518 56.0537 20.0589 57.0186 20.0589Z"  fill-opacity="0.7"/>
<path d="M60.6707 23.6648C61.197 23.6648 61.6237 23.2245 61.6237 22.6815C61.6237 22.1385 61.197 21.6982 60.6707 21.6982C60.1444 21.6982 59.7178 22.1385 59.7178 22.6815C59.7178 23.2245 60.1444 23.6648 60.6707 23.6648Z"  fill-opacity="0.7"/>
<path d="M65.1194 29.0721C66.2597 29.0721 67.1842 28.1183 67.1842 26.9417C67.1842 25.7651 66.2597 24.8113 65.1194 24.8113C63.9791 24.8113 63.0547 25.7651 63.0547 26.9417C63.0547 28.1183 63.9791 29.0721 65.1194 29.0721Z"  fill-opacity="0.7"/>
<path d="M70.3608 32.1861C70.9748 32.1861 71.4726 31.6725 71.4726 31.039C71.4726 30.4054 70.9748 29.8918 70.3608 29.8918C69.7468 29.8918 69.249 30.4054 69.249 31.039C69.249 31.6725 69.7468 32.1861 70.3608 32.1861Z"  fill-opacity="0.7"/>
<path d="M76.7141 37.9216C78.1176 37.9216 79.2553 36.7476 79.2553 35.2995C79.2553 33.8514 78.1176 32.6775 76.7141 32.6775C75.3106 32.6775 74.1729 33.8514 74.1729 35.2995C74.1729 36.7476 75.3106 37.9216 76.7141 37.9216Z"  fill-opacity="0.7"/>
<path d="M81.9536 34.3167C82.5676 34.3167 83.0654 33.8032 83.0654 33.1696C83.0654 32.5361 82.5676 32.0225 81.9536 32.0225C81.3396 32.0225 80.8418 32.5361 80.8418 33.1696C80.8418 33.8032 81.3396 34.3167 81.9536 34.3167Z"  fill-opacity="0.7"/>
<path d="M75.6009 31.6946C76.7412 31.6946 77.6656 30.7408 77.6656 29.5642C77.6656 28.3877 76.7412 27.4338 75.6009 27.4338C74.4605 27.4338 73.5361 28.3877 73.5361 29.5642C73.5361 30.7408 74.4605 31.6946 75.6009 31.6946Z"  fill-opacity="0.7"/>
<path d="M70.3592 26.6145C70.8855 26.6145 71.3122 26.1743 71.3122 25.6312C71.3122 25.0882 70.8855 24.6479 70.3592 24.6479C69.8329 24.6479 69.4062 25.0882 69.4062 25.6312C69.4062 26.1743 69.8329 26.6145 70.3592 26.6145Z"  fill-opacity="0.7"/>
<path d="M66.0733 23.5003C67.0382 23.5003 67.8204 22.6932 67.8204 21.6977C67.8204 20.7021 67.0382 19.895 66.0733 19.895C65.1084 19.895 64.3262 20.7021 64.3262 21.6977C64.3262 22.6932 65.1084 23.5003 66.0733 23.5003Z"  fill-opacity="0.7"/>
<path d="M62.4199 19.7315C63.3848 19.7315 64.167 18.9244 64.167 17.9289C64.167 16.9333 63.3848 16.1262 62.4199 16.1262C61.455 16.1262 60.6729 16.9333 60.6729 17.9289C60.6729 18.9244 61.455 19.7315 62.4199 19.7315Z"  fill-opacity="0.7"/>
<path d="M59.4027 15.7983C60.2799 15.7983 60.991 15.0646 60.991 14.1595C60.991 13.2545 60.2799 12.5208 59.4027 12.5208C58.5255 12.5208 57.8145 13.2545 57.8145 14.1595C57.8145 15.0646 58.5255 15.7983 59.4027 15.7983Z"  fill-opacity="0.7"/>
<path d="M57.0209 12.0293C57.898 12.0293 58.6091 11.2955 58.6091 10.3905C58.6091 9.48541 57.898 8.75171 57.0209 8.75171C56.1437 8.75171 55.4326 9.48541 55.4326 10.3905C55.4326 11.2955 56.1437 12.0293 57.0209 12.0293Z"  fill-opacity="0.7"/>
<path d="M54.6359 7.60459C55.0745 7.60459 55.4301 7.23774 55.4301 6.78521C55.4301 6.33267 55.0745 5.96582 54.6359 5.96582C54.1973 5.96582 53.8418 6.33267 53.8418 6.78521C53.8418 7.23774 54.1973 7.60459 54.6359 7.60459Z"  fill-opacity="0.7"/>
</svg>
