<svg width="24" height="24" viewBox="0 0 24 24" fill="none" xmlns="http://www.w3.org/2000/svg">
    <path id="Fill 1" fill-rule="evenodd" clip-rule="evenodd" d="M11.7777 13.465C11.1087 13.465 10.4417 13.244 9.88371 12.802L5.39871 9.18599C5.07571 8.92599 5.02571 8.45299 5.28471 8.13099C5.54571 7.80999 6.01771 7.75899 6.33971 8.01799L10.8207 11.63C11.3837 12.076 12.1767 12.076 12.7437 11.626L17.1797 8.01999C17.5017 7.75699 17.9737 7.80699 18.2357 8.12899C18.4967 8.44999 18.4477 8.92199 18.1267 9.18399L13.6827 12.796C13.1207 13.242 12.4487 13.465 11.7777 13.465Z" />
    <mask id="mask0_884_1010" style="mask-type:alpha" x="1" y="2" width="22" height="20">
        <path id="Clip 4" fill-rule="evenodd" clip-rule="evenodd" d="M1 2H22.4999V21.5H1V2Z" />
    </mask>
    <path id="Fill 3" fill-rule="evenodd" clip-rule="evenodd" d="M6.839 20H16.659C16.661 19.998 16.669 20 16.675 20C17.816 20 18.828 19.592 19.604 18.817C20.505 17.92 21 16.631 21 15.188V8.32C21 5.527 19.174 3.5 16.659 3.5H6.841C4.326 3.5 2.5 5.527 2.5 8.32V15.188C2.5 16.631 2.996 17.92 3.896 18.817C4.672 19.592 5.685 20 6.825 20H6.839ZM6.822 21.5C5.279 21.5 3.901 20.94 2.837 19.88C1.652 18.698 1 17.032 1 15.188V8.32C1 4.717 3.511 2 6.841 2H16.659C19.989 2 22.5 4.717 22.5 8.32V15.188C22.5 17.032 21.848 18.698 20.663 19.88C19.6 20.939 18.221 21.5 16.675 21.5H16.659H6.841H6.822Z" />
</svg>
