<svg width="24" height="24" viewBox="0 0 24 24" fill="none" xmlns="http://www.w3.org/2000/svg">
<path fill-rule="evenodd" clip-rule="evenodd" d="M14.548 4.773C14.7888 4.52864 15.0757 4.3345 15.392 4.20181C15.7084 4.06912 16.0479 4.00052 16.391 4C17.083 4 17.747 4.278 18.236 4.774C18.726 5.269 19 5.941 19 6.642C19.001 7.34611 18.7226 8.02185 18.226 8.521L9.976 16.608C9.90234 16.6799 9.81511 16.7365 9.71938 16.7744C9.62364 16.8123 9.52133 16.8307 9.4184 16.8287C9.31546 16.8266 9.21396 16.8041 9.11981 16.7624C9.02566 16.7208 8.94074 16.6608 8.87 16.586C8.72619 16.4337 8.64784 16.2311 8.65176 16.0217C8.65569 15.8123 8.74159 15.6128 8.891 15.466L17.134 7.384C17.3284 7.18444 17.4368 6.91658 17.4359 6.63798C17.4349 6.35938 17.3247 6.09225 17.129 5.894C17.0325 5.79628 16.9176 5.71869 16.7909 5.66573C16.6643 5.61278 16.5283 5.58551 16.391 5.58551C16.2537 5.58551 16.1177 5.61278 15.9911 5.66573C15.8644 5.71869 15.7495 5.79628 15.653 5.894L7.252 14.356C6.81076 14.8042 6.56362 15.408 6.564 16.037C6.564 16.667 6.811 17.273 7.252 17.718C7.692 18.164 8.289 18.415 8.912 18.415C9.535 18.415 10.132 18.165 10.572 17.719L17.925 10.308C17.9972 10.2345 18.0834 10.1761 18.1784 10.1363C18.2734 10.0964 18.3755 10.0759 18.4785 10.0759C18.5816 10.0759 18.6836 10.0964 18.7786 10.1363C18.8736 10.1761 18.9598 10.2345 19.032 10.308C19.1789 10.4576 19.2612 10.6589 19.2612 10.8685C19.2612 11.0781 19.1789 11.2794 19.032 11.429L11.681 18.84C11.3194 19.207 10.8885 19.4986 10.4134 19.6977C9.93821 19.8968 9.42821 19.9996 8.913 20C8.39796 19.9995 7.88816 19.8966 7.41317 19.6975C6.93818 19.4984 6.50746 19.2069 6.146 18.84C5.41033 18.0927 4.99861 17.0857 5 16.037C5 14.987 5.412 13.978 6.146 13.235L14.548 4.773Z" />
</svg>
