<svg width="24" height="24" viewBox="0 0 24 24" fill="none" xmlns="http://www.w3.org/2000/svg">
<path opacity="0.5" d="M7.909 6H9.249C9.43902 6.00006 9.62194 6.07224 9.76079 6.20197C9.89964 6.3317 9.98407 6.5093 9.99703 6.69888C10.01 6.88846 9.95048 7.07589 9.83057 7.2233C9.71065 7.37071 9.53925 7.4671 9.351 7.493L9.25 7.5H7.9095C7.73548 7.49993 7.56685 7.56039 7.4325 7.671L7.3575 7.7425L5.2835 9.999L8.7495 9.9995C9.30372 9.99952 9.83843 10.2041 10.2511 10.574C10.6639 10.9439 10.9255 11.4531 10.986 12.004H13.0135C13.074 11.453 13.3357 10.9437 13.7485 10.5738C14.1614 10.2039 14.6962 9.99939 15.2505 9.9995L18.7275 9.999L16.6445 7.7415C16.5268 7.61383 16.3685 7.53095 16.1965 7.507L16.0925 7.5H14.7465C14.5565 7.49982 14.3737 7.42754 14.2349 7.29777C14.0962 7.168 14.0118 6.99041 13.999 6.80087C13.9861 6.61133 14.0456 6.42396 14.1655 6.2766C14.2854 6.12925 14.4568 6.0329 14.645 6.007L14.747 6H16.0925C16.6557 6.00001 17.1985 6.21125 17.6135 6.592L17.746 6.724L21.388 10.6715C21.438 10.726 21.479 10.786 21.51 10.849C21.816 11.2335 21.999 11.72 21.999 12.2495V15.746C21.999 16.608 21.6566 17.4346 21.0471 18.0441C20.4376 18.6536 19.611 18.996 18.749 18.996H16.25C15.388 18.996 14.5614 18.6536 13.9519 18.0441C13.3424 17.4346 13 16.608 13 15.746L12.999 13.504H10.998L10.999 15.746C10.999 16.608 10.6566 17.4346 10.0471 18.0441C9.4376 18.6536 8.61095 18.996 7.749 18.996H5.25C4.38805 18.996 3.5614 18.6536 2.9519 18.0441C2.34241 17.4346 2 16.608 2 15.746V12.25C2 11.6885 2.206 11.175 2.546 10.7805L2.584 10.7255L2.6275 10.673L6.252 6.728C6.63398 6.31218 7.15834 6.05518 7.721 6.008L7.909 6.0005H9.249H7.909V6ZM8.749 11.5H4.25C4.05109 11.5 3.86032 11.579 3.71967 11.7197C3.57902 11.8603 3.5 12.0511 3.5 12.25V15.746C3.5 15.9758 3.54527 16.2034 3.63321 16.4157C3.72116 16.628 3.85006 16.8209 4.01256 16.9834C4.17507 17.1459 4.36798 17.2748 4.5803 17.3628C4.79262 17.4507 5.02019 17.496 5.25 17.496H7.749C8.21313 17.496 8.65825 17.3116 8.98644 16.9834C9.31463 16.6552 9.499 16.2101 9.499 15.746V12.25C9.499 12.0511 9.41998 11.8603 9.27933 11.7197C9.13868 11.579 8.94791 11.5 8.749 11.5ZM19.749 11.5H15.25C15.0511 11.5 14.8603 11.579 14.7197 11.7197C14.579 11.8603 14.5 12.0511 14.5 12.25V15.746C14.5 15.9758 14.5453 16.2034 14.6332 16.4157C14.7212 16.628 14.8501 16.8209 15.0126 16.9834C15.1751 17.1459 15.368 17.2748 15.5803 17.3628C15.7926 17.4507 16.0202 17.496 16.25 17.496H18.749C19.2131 17.496 19.6582 17.3116 19.9864 16.9834C20.3146 16.6552 20.499 16.2101 20.499 15.746V12.25C20.499 12.0511 20.42 11.8603 20.2793 11.7197C20.1387 11.579 19.9479 11.5 19.749 11.5Z" />
<rect x="20" y="4" width="2" height="25" rx="1" transform="rotate(50 20 4)" />
</svg>
