<svg width="170" height="42" viewBox="0 0 170 42" xmlns="http://www.w3.org/2000/svg">
<path d="M26.6394 1.7933C25.4676 3.53024 14.4817 19.5869 5.16983 33.1189C2.28211 37.3401 -0.0615441 40.8544 0.0012324 40.9554C0.126785 41.1371 34.1935 41.1573 65.6236 40.9957L90.4831 40.8544L92.5757 37.744C93.7266 36.0273 94.6682 34.5933 94.6682 34.5327C94.6682 34.4923 84.4775 34.4519 72.0268 34.4519C48.3601 34.4317 47.4394 34.4115 45.4933 33.5632C43.8611 32.8563 43.1287 31.8667 43.1496 30.3519C43.1705 28.11 44.3214 26.1711 49.8039 19.0012C60.0574 5.61054 62.4429 2.54059 63.2381 1.51054C63.7194 0.884431 64.117 0.318914 64.117 0.258323C64.117 0.177534 55.9351 0.116943 45.9327 0.116943H27.7484L26.6394 1.7933Z" />
<path d="M108.249 6.5396C108.061 6.84255 107.14 8.29674 106.198 9.79132C103.269 14.4568 101.009 19.3445 100.109 22.98C99.6485 24.8179 99.5439 28.1706 99.8996 29.4026C100.297 30.8164 101.239 31.9475 102.494 32.5332C105.257 33.846 109.295 32.8967 114.003 29.8066C115.615 28.7765 118.984 25.949 120.239 24.5958C121.055 23.7273 121.453 23.5455 121.453 24.01C121.453 24.515 119.611 27.8879 117.937 30.4529L116.263 33.0381H121.578C124.508 33.0381 126.893 32.9573 126.893 32.8563C126.893 32.6948 128.358 29.4228 136.624 11.1243C137.838 8.45832 138.821 6.21645 138.821 6.11546C138.821 6.03467 136.561 5.97408 133.82 5.97408H128.798L127.772 7.95339C123.336 16.4361 117.226 24.1312 113.292 26.1509C107.475 29.1603 109.588 20.5765 118.105 6.72137L118.565 5.97408H108.584L108.249 6.5396Z" />
<path d="M141.604 7.81203C140.704 8.82188 139.951 9.75095 139.909 9.89232C139.867 10.0539 141.499 10.1145 145.978 10.0943C149.347 10.0943 152.318 10.1347 152.569 10.1953C153.071 10.3367 153.804 9.58937 138.716 24.414C134.008 29.0593 130.116 32.9573 130.074 33.0583C130.032 33.1593 135.494 33.2401 144.22 33.2401H158.47L159.516 31.5637C160.102 30.6347 160.625 29.7258 160.709 29.544C160.814 29.2613 160.27 29.2209 155.206 29.1603C150.204 29.0997 149.514 29.0593 148.991 28.7362C148.677 28.5342 148.363 28.2312 148.3 28.0697C148.07 27.4839 148.719 26.1711 150.037 24.616C151.774 22.5155 153.887 20.5564 162.885 12.6391C168.159 7.9938 170 6.31745 170 6.15587C170 6.05489 164.413 5.9741 156.608 5.9741H143.215L141.604 7.81203Z" />
<path d="M93.3499 17.6682C90.7342 19.4455 88.5789 20.8391 88.5161 20.7583C88.4743 20.6775 88.1813 19.7081 87.8884 18.5972C87.5745 17.4864 87.2187 16.2746 87.1141 15.911L86.8839 15.2647H82.7198C80.4389 15.2647 78.5556 15.3051 78.5556 15.3657C78.5556 15.4263 79.1833 17.5672 79.9367 20.112C80.69 22.677 81.2759 24.8987 81.234 25.0603C81.1922 25.2219 79.1415 26.5751 76.6723 28.0495C73.2196 30.0894 72.1524 30.8165 72.1105 31.18C72.0268 31.7657 73.4288 33.4421 74.0147 33.4421C74.3495 33.4421 78.7021 30.978 82.4477 28.6554C82.8453 28.413 82.929 28.4736 83.5359 29.3623C86.3817 33.6036 92.0944 34.5529 95.7773 31.4224C96.4887 30.8165 97.807 28.6958 97.807 28.1302C97.807 27.6455 97.2002 27.181 96.5724 27.181C96.1539 27.181 95.7773 27.4234 95.2332 27.9889C94.6264 28.6554 94.3543 28.7968 93.7266 28.7968C92.3873 28.7968 91.1318 27.8677 90.3157 26.2721C89.4368 24.5958 89.2276 24.8785 93.6638 21.9096C99.209 18.1933 99.7531 17.8298 100.297 17.446L100.799 17.1027L99.5857 15.7899C98.9161 15.0628 98.3093 14.4569 98.2465 14.4569C98.1628 14.4569 95.9656 15.911 93.3499 17.6682Z" />
<path d="M63.4264 16.0726C55.8096 16.9007 50.1178 21.4248 49.3645 27.2214C49.1762 28.6554 49.4901 29.6046 50.4945 30.6751C52.9009 33.2603 59.6808 33.9672 66.3769 32.311C68.4486 31.8061 70.9387 30.7357 71.2944 30.1904C71.4618 29.948 71.2944 29.5844 70.6039 28.6756C70.1017 28.0293 69.6622 27.4436 69.6204 27.4032C69.5995 27.3628 69.6204 27.3399 68.7415 27.9485C64.5564 31.2002 57.7138 31.1194 56.8558 27.8273C56.4792 26.3529 58.3415 22.2731 60.2667 20.3746C61.8361 18.8194 63.0498 18.2741 65.1633 18.1529C66.649 18.0519 66.7955 18.0721 67.4232 18.5973C68.7625 19.6879 68.0719 21.546 66.0631 22.2125C65.3725 22.4347 64.3262 22.5357 62.5057 22.5357H59.911L59.3041 23.7879L58.6764 25.0603L65.6655 25.1209C69.9971 25.1411 72.8638 25.0805 73.2196 24.9593C73.8683 24.717 74.9145 22.7175 75.1238 21.3239C75.3749 19.5061 74.496 17.8702 72.8638 17.0623C71.1061 16.1938 66.628 15.7293 63.4264 16.0726Z" />
<path d="M119.138 35.5199C120.243 35.5199 121.111 35.7598 121.739 36.2398C122.375 36.713 122.694 37.4058 122.694 38.3184C122.694 39.231 122.375 39.9272 121.739 40.4072C121.111 40.8804 120.243 41.1169 119.138 41.1169C118.032 41.1169 117.165 40.8804 116.536 40.4072C115.908 39.934 115.594 39.2377 115.594 38.3184C115.594 37.3991 115.908 36.7028 116.536 36.2296C117.165 35.7565 118.032 35.5199 119.138 35.5199ZM119.138 36.8887C118.358 36.8887 117.968 37.2706 117.968 38.0345V38.6125C117.968 39.3695 118.358 39.7481 119.138 39.7481C119.925 39.7481 120.319 39.3695 120.319 38.6125V38.0345C120.319 37.2706 119.925 36.8887 119.138 36.8887Z" />
<path d="M128.182 35.5199C128.914 35.5199 129.463 35.6922 129.829 36.037C130.195 36.3817 130.378 36.8786 130.378 37.5275V40.9953H128.003V37.7709C128.003 37.541 127.932 37.3585 127.789 37.2233C127.653 37.0814 127.458 37.0104 127.204 37.0104C126.91 37.0104 126.671 37.0915 126.488 37.2537C126.305 37.416 126.214 37.6154 126.214 37.852V40.9953H123.839V35.6415H125.784L125.939 36.4527C126.186 36.1688 126.508 35.9424 126.906 35.7734C127.311 35.6044 127.737 35.5199 128.182 35.5199Z" />
<path d="M131.547 39.0079V37.4058H134.59V39.0079H131.547Z" />
<path d="M135.855 40.9953V33.644H138.23V40.9953H135.855Z" />
<path d="M139.829 35.0129V33.644H142.203V35.0129H139.829ZM139.829 40.9953V35.6415H142.203V40.9953H139.829Z" />
<path d="M148.062 35.5199C148.794 35.5199 149.343 35.6922 149.709 36.037C150.075 36.3817 150.258 36.8786 150.258 37.5275V40.9953H147.883V37.7709C147.883 37.541 147.812 37.3585 147.668 37.2233C147.533 37.0814 147.338 37.0104 147.084 37.0104C146.789 37.0104 146.551 37.0915 146.368 37.2537C146.185 37.416 146.093 37.6154 146.093 37.852V40.9953H143.719V35.6415H145.664L145.819 36.4527C146.065 36.1688 146.388 35.9424 146.785 35.7734C147.191 35.6044 147.617 35.5199 148.062 35.5199Z" />
<path d="M154.935 35.5199C156.089 35.5199 156.968 35.7497 157.572 36.2094C158.185 36.669 158.491 37.372 158.491 38.3184V38.6632H153.766C153.766 39.0485 153.865 39.3391 154.064 39.5352C154.271 39.7312 154.593 39.8292 155.031 39.8292C155.428 39.8292 155.719 39.7582 155.902 39.6163C156.093 39.4743 156.188 39.2851 156.188 39.0485H158.491C158.491 39.6974 158.201 40.2044 157.62 40.5694C157.039 40.9344 156.192 41.1169 155.078 41.1169C153.909 41.1169 153.002 40.8871 152.358 40.4275C151.713 39.961 151.391 39.258 151.391 38.3184C151.391 37.3991 151.705 36.7028 152.334 36.2296C152.962 35.7565 153.829 35.5199 154.935 35.5199ZM155.031 36.8076C154.283 36.8076 153.865 37.1084 153.778 37.71H156.093C156.093 37.4329 155.997 37.2132 155.806 37.051C155.623 36.8887 155.365 36.8076 155.031 36.8076Z" />
</svg>
