
<svg width="170" height="41" viewBox="0 0 170 41" fill="none" xmlns="http://www.w3.org/2000/svg">
    <g class="default">
        <path d="M26.6394 1.67274C25.4676 3.40594 14.4817 19.428 5.16983 32.9308C2.28211 37.1429 -0.0615441 40.6496 0.0012324 40.7504C0.126785 40.9318 34.1935 40.9519 65.6236 40.7907L90.4831 40.6496L92.5757 37.546C93.7266 35.8329 94.6682 34.402 94.6682 34.3416C94.6682 34.3013 84.4775 34.261 72.0268 34.261C48.3601 34.2408 47.4393 34.2206 45.4933 33.3742C43.8611 32.6688 43.1287 31.6813 43.1496 30.1698C43.1705 27.9328 44.3214 25.998 49.8039 18.8435C60.0574 5.48175 62.4429 2.41842 63.2381 1.39059C63.7194 0.765833 64.117 0.201535 64.117 0.141074C64.117 0.0604605 55.9351 0 45.9327 0H27.7484L26.6394 1.67274Z" />
        <path d="M108.249 6.40881C108.061 6.71111 107.14 8.16217 106.198 9.65352C103.269 14.309 101.009 19.1861 100.109 22.8138C99.6485 24.6477 99.5439 27.9932 99.8996 29.2226C100.297 30.6333 101.239 31.7619 102.494 32.3464C105.257 33.6563 109.295 32.7091 114.003 29.6256C115.615 28.5978 118.984 25.7763 120.239 24.426C121.055 23.5594 121.453 23.3781 121.453 23.8416C121.453 24.3454 119.611 27.7111 117.937 30.2706L116.263 32.8502H121.578C124.508 32.8502 126.893 32.7696 126.893 32.6688C126.893 32.5076 128.358 29.2427 136.624 10.9837C137.838 8.32339 138.821 6.08635 138.821 5.98559C138.821 5.90497 136.561 5.84451 133.82 5.84451H128.798L127.772 7.81956C123.336 16.284 117.226 23.9625 113.292 25.9779C107.475 28.9807 109.588 20.4155 118.105 6.59019L118.565 5.84451H108.584L108.249 6.40881Z" />
        <path d="M141.604 7.6785C140.704 8.68617 139.951 9.61323 139.909 9.75431C139.867 9.91554 141.499 9.976 145.978 9.95584C149.347 9.95584 152.318 9.99615 152.569 10.0566C153.071 10.1977 153.804 9.45201 138.716 24.2447C134.008 28.88 130.116 32.7696 130.074 32.8704C130.032 32.9711 135.494 33.0518 144.22 33.0518H158.47L159.516 31.379C160.102 30.452 160.625 29.545 160.709 29.3637C160.814 29.0815 160.27 29.0412 155.206 28.9807C150.204 28.9203 149.514 28.88 148.991 28.5575C148.677 28.356 148.363 28.0537 148.3 27.8925C148.07 27.308 148.719 25.998 150.037 24.4462C151.774 22.3502 153.887 20.3954 162.885 12.4952C168.159 7.85988 170 6.18714 170 6.02591C170 5.92514 164.413 5.84453 156.608 5.84453H143.215L141.604 7.6785Z" />
        <path d="M93.3499 17.5134C90.7342 19.2869 88.5789 20.6775 88.5161 20.5969C88.4743 20.5163 88.1813 19.5489 87.8883 18.4405C87.5745 17.332 87.2187 16.1228 87.1141 15.7601L86.8839 15.1151H82.7198C80.4389 15.1151 78.5556 15.1554 78.5556 15.2159C78.5556 15.2764 79.1833 17.4126 79.9367 19.952C80.69 22.5115 81.2759 24.7284 81.234 24.8896C81.1922 25.0508 79.1415 26.4011 76.6723 27.8723C73.2196 29.9078 72.1524 30.6333 72.1105 30.9961C72.0268 31.5806 73.4288 33.2533 74.0147 33.2533C74.3496 33.2533 78.7021 30.7946 82.4477 28.4769C82.8453 28.2351 82.929 28.2955 83.5358 29.1823C86.3817 33.4145 92.0944 34.3617 95.7773 31.2379C96.4887 30.6333 97.807 28.5172 97.807 27.9529C97.807 27.4692 97.2002 27.0057 96.5724 27.0057C96.1539 27.0057 95.7773 27.2475 95.2332 27.8118C94.6264 28.4769 94.3543 28.618 93.7266 28.618C92.3873 28.618 91.1318 27.6909 90.3157 26.0988C89.4368 24.4261 89.2276 24.7082 93.6638 21.7456C99.209 18.0374 99.7531 17.6746 100.297 17.2917L100.799 16.9491L99.5857 15.6391C98.9161 14.9136 98.3093 14.309 98.2465 14.309C98.1628 14.309 95.9656 15.7601 93.3499 17.5134Z" />
        <path d="M63.4264 15.9213C55.8096 16.7476 50.1178 21.262 49.3645 27.046C49.1762 28.4769 49.4901 29.4241 50.4945 30.4923C52.9009 33.0719 59.6808 33.7773 66.3769 32.1247C68.4486 31.6209 70.9387 30.5527 71.2944 30.0086C71.4618 29.7667 71.2944 29.404 70.6039 28.4971C70.1017 27.8522 69.6622 27.2677 69.6204 27.2274C69.5995 27.1871 69.6204 27.1643 68.7415 27.7715C64.5564 31.0163 57.7138 30.9356 56.8558 27.6506C56.4792 26.1794 58.3415 22.1084 60.2667 20.214C61.8361 18.6622 63.0498 18.118 65.1633 17.9971C66.649 17.8963 66.7955 17.9165 67.4232 18.4405C68.7624 19.5288 68.0719 21.3829 66.0631 22.048C65.3725 22.2696 64.3262 22.3704 62.5057 22.3704H59.911L59.3041 23.6199L58.6764 24.8896L65.6655 24.9501C69.9971 24.9702 72.8638 24.9097 73.2196 24.7888C73.8683 24.547 74.9145 22.5518 75.1238 21.1612C75.3749 19.3474 74.496 17.7149 72.8638 16.9088C71.1061 16.0422 66.628 15.5787 63.4264 15.9213Z" />
        <path d="M119.138 35.3266C120.243 35.3266 121.111 35.5661 121.739 36.045C122.375 36.5171 122.694 37.2085 122.694 38.1191C122.694 39.0297 122.375 39.7245 121.739 40.2034C121.111 40.6755 120.243 40.9116 119.138 40.9116C118.032 40.9116 117.165 40.6755 116.536 40.2034C115.908 39.7312 115.594 39.0365 115.594 38.1191C115.594 37.2018 115.908 36.507 116.536 36.0349C117.165 35.5627 118.032 35.3266 119.138 35.3266ZM119.138 36.6925C118.358 36.6925 117.968 37.0736 117.968 37.8358V38.4125C117.968 39.168 118.358 39.5457 119.138 39.5457C119.925 39.5457 120.319 39.168 120.319 38.4125V37.8358C120.319 37.0736 119.925 36.6925 119.138 36.6925Z" />
        <path d="M128.182 35.3266C128.914 35.3266 129.463 35.4986 129.829 35.8426C130.195 36.1866 130.378 36.6824 130.378 37.3299V40.7902H128.003V37.5728C128.003 37.3434 127.932 37.1613 127.789 37.0264C127.653 36.8847 127.458 36.8139 127.204 36.8139C126.91 36.8139 126.671 36.8949 126.488 37.0568C126.305 37.2186 126.214 37.4176 126.214 37.6537V40.7902H123.839V35.448H125.784L125.939 36.2574C126.186 35.9741 126.508 35.7482 126.906 35.5796C127.311 35.4109 127.737 35.3266 128.182 35.3266Z" />
        <path d="M131.547 38.8071V37.2085H134.59V38.8071H131.547Z" />
        <path d="M135.855 40.7902V33.4548H138.23V40.7902H135.855Z" />
        <path d="M139.829 34.8207V33.4548H142.203V34.8207H139.829ZM139.829 40.7902V35.448H142.203V40.7902H139.829Z" />
        <path d="M148.062 35.3266C148.794 35.3266 149.343 35.4986 149.709 35.8426C150.075 36.1866 150.258 36.6824 150.258 37.3299V40.7902H147.883V37.5728C147.883 37.3434 147.812 37.1613 147.668 37.0264C147.533 36.8847 147.338 36.8139 147.084 36.8139C146.789 36.8139 146.551 36.8949 146.368 37.0568C146.185 37.2186 146.093 37.4176 146.093 37.6537V40.7902H143.719V35.448H145.664L145.819 36.2574C146.065 35.9741 146.388 35.7482 146.785 35.5796C147.191 35.4109 147.617 35.3266 148.062 35.3266Z" />
        <path d="M154.935 35.3266C156.089 35.3266 156.968 35.5559 157.572 36.0146C158.185 36.4733 158.491 37.1748 158.491 38.1191V38.4631H153.766C153.766 38.8476 153.865 39.1376 154.064 39.3332C154.271 39.5289 154.593 39.6267 155.031 39.6267C155.428 39.6267 155.719 39.5558 155.902 39.4142C156.093 39.2725 156.188 39.0837 156.188 38.8476H158.491C158.491 39.4951 158.201 40.001 157.62 40.3653C157.039 40.7295 156.192 40.9116 155.078 40.9116C153.909 40.9116 153.002 40.6823 152.358 40.2236C151.713 39.7582 151.391 39.0567 151.391 38.1191C151.391 37.2018 151.705 36.507 152.334 36.0349C152.962 35.5627 153.829 35.3266 154.935 35.3266ZM155.031 36.6116C154.283 36.6116 153.865 36.9117 153.778 37.5121H156.093C156.093 37.2355 155.997 37.0163 155.806 36.8544C155.623 36.6925 155.365 36.6116 155.031 36.6116Z" />
    </g>
    <g class="hover">
        <path d="M26.6394 1.67274C25.4676 3.40594 14.4817 19.428 5.16983 32.9308C2.28211 37.1429 -0.0615441 40.6496 0.0012324 40.7504C0.126785 40.9318 34.1935 40.9519 65.6236 40.7907L90.4831 40.6496L92.5757 37.546C93.7266 35.8329 94.6682 34.402 94.6682 34.3416C94.6682 34.3013 84.4775 34.261 72.0268 34.261C48.3601 34.2408 47.4393 34.2206 45.4933 33.3742C43.8611 32.6688 43.1287 31.6813 43.1496 30.1698C43.1705 27.9328 44.3214 25.998 49.8039 18.8435C60.0574 5.48175 62.4429 2.41842 63.2381 1.39059C63.7194 0.765833 64.117 0.201535 64.117 0.141074C64.117 0.0604605 55.9351 0 45.9327 0H27.7484L26.6394 1.67274Z" fill="url(#paint0_linear_1588_2808)"/>
        <path d="M108.249 6.40881C108.061 6.71111 107.14 8.16217 106.198 9.65352C103.269 14.309 101.009 19.1861 100.109 22.8138C99.6485 24.6477 99.5439 27.9932 99.8996 29.2226C100.297 30.6333 101.239 31.7619 102.494 32.3464C105.257 33.6563 109.295 32.7091 114.003 29.6256C115.615 28.5978 118.984 25.7763 120.239 24.426C121.055 23.5594 121.453 23.3781 121.453 23.8416C121.453 24.3454 119.611 27.7111 117.937 30.2706L116.263 32.8502H121.578C124.508 32.8502 126.893 32.7696 126.893 32.6688C126.893 32.5076 128.358 29.2427 136.624 10.9837C137.838 8.32339 138.821 6.08635 138.821 5.98559C138.821 5.90497 136.561 5.84451 133.82 5.84451H128.798L127.772 7.81956C123.336 16.284 117.226 23.9625 113.292 25.9779C107.475 28.9807 109.588 20.4155 118.105 6.59019L118.565 5.84451H108.584L108.249 6.40881Z" fill="url(#paint1_linear_1588_2808)"/>
        <path d="M141.604 7.6785C140.704 8.68617 139.951 9.61323 139.909 9.75431C139.867 9.91554 141.499 9.976 145.978 9.95584C149.347 9.95584 152.318 9.99615 152.569 10.0566C153.071 10.1977 153.804 9.45201 138.716 24.2447C134.008 28.88 130.116 32.7696 130.074 32.8704C130.032 32.9711 135.494 33.0518 144.22 33.0518H158.47L159.516 31.379C160.102 30.452 160.625 29.545 160.709 29.3637C160.814 29.0815 160.27 29.0412 155.206 28.9807C150.204 28.9203 149.514 28.88 148.991 28.5575C148.677 28.356 148.363 28.0537 148.3 27.8925C148.07 27.308 148.719 25.998 150.037 24.4462C151.774 22.3502 153.887 20.3954 162.885 12.4952C168.159 7.85988 170 6.18714 170 6.02591C170 5.92514 164.413 5.84453 156.608 5.84453H143.215L141.604 7.6785Z" fill="url(#paint2_linear_1588_2808)"/>
        <path d="M93.3499 17.5134C90.7342 19.2869 88.5789 20.6775 88.5161 20.5969C88.4743 20.5163 88.1813 19.5489 87.8883 18.4405C87.5745 17.332 87.2187 16.1228 87.1141 15.7601L86.8839 15.1151H82.7198C80.4389 15.1151 78.5556 15.1554 78.5556 15.2159C78.5556 15.2764 79.1833 17.4126 79.9367 19.952C80.69 22.5115 81.2759 24.7284 81.234 24.8896C81.1922 25.0508 79.1415 26.4011 76.6723 27.8723C73.2196 29.9078 72.1524 30.6333 72.1105 30.9961C72.0268 31.5806 73.4288 33.2533 74.0147 33.2533C74.3496 33.2533 78.7021 30.7946 82.4477 28.4769C82.8453 28.2351 82.929 28.2955 83.5358 29.1823C86.3817 33.4145 92.0944 34.3617 95.7773 31.2379C96.4887 30.6333 97.807 28.5172 97.807 27.9529C97.807 27.4692 97.2002 27.0057 96.5724 27.0057C96.1539 27.0057 95.7773 27.2475 95.2332 27.8118C94.6264 28.4769 94.3543 28.618 93.7266 28.618C92.3873 28.618 91.1318 27.6909 90.3157 26.0988C89.4368 24.4261 89.2276 24.7082 93.6638 21.7456C99.209 18.0374 99.7531 17.6746 100.297 17.2917L100.799 16.9491L99.5857 15.6391C98.9161 14.9136 98.3093 14.309 98.2465 14.309C98.1628 14.309 95.9656 15.7601 93.3499 17.5134Z" fill="url(#paint3_linear_1588_2808)"/>
        <path d="M63.4264 15.9213C55.8096 16.7476 50.1178 21.262 49.3645 27.046C49.1762 28.4769 49.4901 29.4241 50.4945 30.4923C52.9009 33.0719 59.6808 33.7773 66.3769 32.1247C68.4486 31.6209 70.9387 30.5527 71.2944 30.0086C71.4618 29.7667 71.2944 29.404 70.6039 28.4971C70.1017 27.8522 69.6622 27.2677 69.6204 27.2274C69.5995 27.1871 69.6204 27.1643 68.7415 27.7715C64.5564 31.0163 57.7138 30.9356 56.8558 27.6506C56.4792 26.1794 58.3415 22.1084 60.2667 20.214C61.8361 18.6622 63.0498 18.118 65.1633 17.9971C66.649 17.8963 66.7955 17.9165 67.4232 18.4405C68.7624 19.5288 68.0719 21.3829 66.0631 22.048C65.3725 22.2696 64.3262 22.3704 62.5057 22.3704H59.911L59.3041 23.6199L58.6764 24.8896L65.6655 24.9501C69.9971 24.9702 72.8638 24.9097 73.2196 24.7888C73.8683 24.547 74.9145 22.5518 75.1238 21.1612C75.3749 19.3474 74.496 17.7149 72.8638 16.9088C71.1061 16.0422 66.628 15.5787 63.4264 15.9213Z" fill="url(#paint4_linear_1588_2808)"/>
        <path d="M119.138 35.3266C120.243 35.3266 121.111 35.5661 121.739 36.045C122.375 36.5171 122.694 37.2085 122.694 38.1191C122.694 39.0297 122.375 39.7245 121.739 40.2034C121.111 40.6755 120.243 40.9116 119.138 40.9116C118.032 40.9116 117.165 40.6755 116.536 40.2034C115.908 39.7312 115.594 39.0365 115.594 38.1191C115.594 37.2018 115.908 36.507 116.536 36.0349C117.165 35.5627 118.032 35.3266 119.138 35.3266ZM119.138 36.6925C118.358 36.6925 117.968 37.0736 117.968 37.8358V38.4125C117.968 39.168 118.358 39.5457 119.138 39.5457C119.925 39.5457 120.319 39.168 120.319 38.4125V37.8358C120.319 37.0736 119.925 36.6925 119.138 36.6925Z" fill="url(#paint5_linear_1588_2808)"/>
        <path d="M128.182 35.3266C128.914 35.3266 129.463 35.4986 129.829 35.8426C130.195 36.1866 130.378 36.6824 130.378 37.3299V40.7902H128.003V37.5728C128.003 37.3434 127.932 37.1613 127.789 37.0264C127.653 36.8847 127.458 36.8139 127.204 36.8139C126.91 36.8139 126.671 36.8949 126.488 37.0568C126.305 37.2186 126.214 37.4176 126.214 37.6537V40.7902H123.839V35.448H125.784L125.939 36.2574C126.186 35.9741 126.508 35.7482 126.906 35.5796C127.311 35.4109 127.737 35.3266 128.182 35.3266Z" fill="url(#paint6_linear_1588_2808)"/>
        <path d="M131.547 38.8071V37.2085H134.59V38.8071H131.547Z" fill="url(#paint7_linear_1588_2808)"/>
        <path d="M135.855 40.7902V33.4548H138.23V40.7902H135.855Z" fill="url(#paint8_linear_1588_2808)"/>
        <path d="M139.829 34.8207V33.4548H142.203V34.8207H139.829ZM139.829 40.7902V35.448H142.203V40.7902H139.829Z" fill="url(#paint9_linear_1588_2808)"/>
        <path d="M148.062 35.3266C148.794 35.3266 149.343 35.4986 149.709 35.8426C150.075 36.1866 150.258 36.6824 150.258 37.3299V40.7902H147.883V37.5728C147.883 37.3434 147.812 37.1613 147.668 37.0264C147.533 36.8847 147.338 36.8139 147.084 36.8139C146.789 36.8139 146.551 36.8949 146.368 37.0568C146.185 37.2186 146.093 37.4176 146.093 37.6537V40.7902H143.719V35.448H145.664L145.819 36.2574C146.065 35.9741 146.388 35.7482 146.785 35.5796C147.191 35.4109 147.617 35.3266 148.062 35.3266Z" fill="url(#paint10_linear_1588_2808)"/>
        <path d="M154.935 35.3266C156.089 35.3266 156.968 35.5559 157.572 36.0146C158.185 36.4733 158.491 37.1748 158.491 38.1191V38.4631H153.766C153.766 38.8476 153.865 39.1376 154.064 39.3332C154.271 39.5289 154.593 39.6267 155.031 39.6267C155.428 39.6267 155.719 39.5558 155.902 39.4142C156.093 39.2725 156.188 39.0837 156.188 38.8476H158.491C158.491 39.4951 158.201 40.001 157.62 40.3653C157.039 40.7295 156.192 40.9116 155.078 40.9116C153.909 40.9116 153.002 40.6823 152.358 40.2236C151.713 39.7582 151.391 39.0567 151.391 38.1191C151.391 37.2018 151.705 36.507 152.334 36.0349C152.962 35.5627 153.829 35.3266 154.935 35.3266ZM155.031 36.6116C154.283 36.6116 153.865 36.9117 153.778 37.5121H156.093C156.093 37.2355 155.997 37.0163 155.806 36.8544C155.623 36.6925 155.365 36.6116 155.031 36.6116Z" fill="url(#paint11_linear_1588_2808)"/>


    </g>

    <defs>
    <linearGradient id="paint0_linear_1588_2808" x1="85" y1="0" x2="85" y2="40.9116" gradientUnits="userSpaceOnUse">
    <stop stop-color="#77AAD3"/>
    <stop offset="1" stop-color="#2A63A4"/>
    </linearGradient>
    <linearGradient id="paint1_linear_1588_2808" x1="85" y1="0" x2="85" y2="40.9116" gradientUnits="userSpaceOnUse">
    <stop stop-color="#77AAD3"/>
    <stop offset="1" stop-color="#2A63A4"/>
    </linearGradient>
    <linearGradient id="paint2_linear_1588_2808" x1="85" y1="0" x2="85" y2="40.9116" gradientUnits="userSpaceOnUse">
    <stop stop-color="#77AAD3"/>
    <stop offset="1" stop-color="#2A63A4"/>
    </linearGradient>
    <linearGradient id="paint3_linear_1588_2808" x1="85" y1="0" x2="85" y2="40.9116" gradientUnits="userSpaceOnUse">
    <stop stop-color="#77AAD3"/>
    <stop offset="1" stop-color="#2A63A4"/>
    </linearGradient>
    <linearGradient id="paint4_linear_1588_2808" x1="85" y1="0" x2="85" y2="40.9116" gradientUnits="userSpaceOnUse">
    <stop stop-color="#77AAD3"/>
    <stop offset="1" stop-color="#2A63A4"/>
    </linearGradient>
    <linearGradient id="paint5_linear_1588_2808" x1="85" y1="0" x2="85" y2="40.9116" gradientUnits="userSpaceOnUse">
    <stop stop-color="#77AAD3"/>
    <stop offset="1" stop-color="#2A63A4"/>
    </linearGradient>
    <linearGradient id="paint6_linear_1588_2808" x1="85" y1="0" x2="85" y2="40.9116" gradientUnits="userSpaceOnUse">
    <stop stop-color="#77AAD3"/>
    <stop offset="1" stop-color="#2A63A4"/>
    </linearGradient>
    <linearGradient id="paint7_linear_1588_2808" x1="85" y1="0" x2="85" y2="40.9116" gradientUnits="userSpaceOnUse">
    <stop stop-color="#77AAD3"/>
    <stop offset="1" stop-color="#2A63A4"/>
    </linearGradient>
    <linearGradient id="paint8_linear_1588_2808" x1="85" y1="0" x2="85" y2="40.9116" gradientUnits="userSpaceOnUse">
    <stop stop-color="#77AAD3"/>
    <stop offset="1" stop-color="#2A63A4"/>
    </linearGradient>
    <linearGradient id="paint9_linear_1588_2808" x1="85" y1="0" x2="85" y2="40.9116" gradientUnits="userSpaceOnUse">
    <stop stop-color="#77AAD3"/>
    <stop offset="1" stop-color="#2A63A4"/>
    </linearGradient>
    <linearGradient id="paint10_linear_1588_2808" x1="85" y1="0" x2="85" y2="40.9116" gradientUnits="userSpaceOnUse">
    <stop stop-color="#77AAD3"/>
    <stop offset="1" stop-color="#2A63A4"/>
    </linearGradient>
    <linearGradient id="paint11_linear_1588_2808" x1="85" y1="0" x2="85" y2="40.9116" gradientUnits="userSpaceOnUse">
    <stop stop-color="#77AAD3"/>
    <stop offset="1" stop-color="#2A63A4"/>
    </linearGradient>
    </defs>
</svg>
