<svg width="83" height="83" viewBox="0 0 83 83" fill="none" xmlns="http://www.w3.org/2000/svg">
    <g class="default">
        <path d="M41.3111 0L30.2276 11.2094V23.874C31.4214 24.0648 32.4878 24.6369 33.2983 25.4614L52.7724 11.2094L41.3111 0Z" />
        <path d="M34.7964 28.3384C34.7003 27.8151 34.5305 27.3176 34.2986 26.8568L54.7876 12.091H70.783V28.3384H34.7964Z" />
        <path d="M38.6662 48.9939L37.7845 51.0091H39.6737L38.6662 48.9939Z" />
        <path d="M55.9211 50.3794V48.6161H57.6844C57.9363 48.6161 58.4401 48.7672 58.4401 49.3718C58.4401 50.1275 58.0622 50.3794 57.6844 50.3794H55.9211Z" />
        <path fill-rule="evenodd" clip-rule="evenodd" d="M34.8178 30.2276C34.6791 31.0954 34.3391 31.8959 33.8469 32.5798L47.0284 45.7193H44.3338L32.5104 33.8959C31.8086 34.3849 30.9887 34.7157 30.1017 34.8366V71.6646L41.437 83L53.5281 70.783H69.3976L53.9059 55.2913H56.6315L70.783 69.3976V53.654L83 41.437L71.6646 30.2276H34.8178ZM35.3915 53.5281L38.0364 47.3566H39.4218L42.0668 53.5281H40.5554L40.0516 52.2686H37.2807L36.7769 53.5281H35.3915ZM41.8149 47.3566V48.6161H43.7041V53.5281H45.0895V48.6161H46.9788V47.3566H41.8149ZM48.1123 47.3566V53.5281H49.3718V51.7648L50.1275 51.0091L52.0167 53.5281H53.654L51.0091 50.1275L53.654 47.3566H52.0167L49.3718 50.1275V47.3566H48.1123ZM62.8483 53.5281L60.4552 47.3566H61.8407L63.6039 52.0167L65.2413 47.3566H66.7527L64.2337 53.5281H62.8483ZM54.6616 47.3566V53.5281H55.9211V51.6388H57.0546L58.3141 53.5281H59.9514L58.4401 51.3869C58.9018 51.3449 59.8255 50.8832 59.8255 49.3718C59.8255 47.8604 58.398 47.3986 57.6844 47.3566H54.6616Z" />
        <path d="M26.8629 34.3016C27.3219 34.5321 27.8174 34.7006 28.3384 34.7963V70.783H12.091V54.9135L26.8629 34.3016Z" />
        <path d="M25.388 33.2247C24.603 32.4238 24.0593 31.3856 23.8741 30.2276H11.0835L0 41.437L11.3354 52.8983L25.388 33.2247Z" />
        <path d="M24.8561 26.0968C24.3818 26.7509 24.0473 27.5127 23.8955 28.3384H12.217V13.3505L24.8561 26.0968Z" />
        <path d="M26.1815 24.796C26.8499 24.3303 27.6257 24.0081 28.4643 23.874V12.091H13.4765L26.1815 24.796Z" />
    </g>
    <g class="hover">
        <path d="M41.3111 0L30.2276 11.2094V23.874C31.4214 24.0648 32.4878 24.6369 33.2983 25.4614L52.7724 11.2094L41.3111 0Z" fill="#244192"/>
        <path d="M34.7964 28.3384C34.7003 27.8151 34.5305 27.3176 34.2986 26.8568L54.7876 12.091H70.783V28.3384H34.7964Z" fill="#244192"/>
        <path d="M38.6662 48.9939L37.7845 51.0091H39.6737L38.6662 48.9939Z" fill="#244192"/>
        <path d="M55.9211 50.3794V48.6161H57.6844C57.9363 48.6161 58.4401 48.7672 58.4401 49.3718C58.4401 50.1275 58.0622 50.3794 57.6844 50.3794H55.9211Z" fill="#244192"/>
        <path fill-rule="evenodd" clip-rule="evenodd" d="M34.8178 30.2276C34.6791 31.0954 34.3391 31.8959 33.8469 32.5798L47.0284 45.7193H44.3338L32.5104 33.8959C31.8086 34.3849 30.9887 34.7157 30.1017 34.8366V71.6646L41.437 83L53.5281 70.783H69.3976L53.9059 55.2913H56.6315L70.783 69.3976V53.654L83 41.437L71.6646 30.2276H34.8178ZM35.3915 53.5281L38.0364 47.3566H39.4218L42.0668 53.5281H40.5554L40.0516 52.2686H37.2807L36.7769 53.5281H35.3915ZM41.8149 47.3566V48.6161H43.7041V53.5281H45.0895V48.6161H46.9788V47.3566H41.8149ZM48.1123 47.3566V53.5281H49.3718V51.7648L50.1275 51.0091L52.0167 53.5281H53.654L51.0091 50.1275L53.654 47.3566H52.0167L49.3718 50.1275V47.3566H48.1123ZM62.8483 53.5281L60.4552 47.3566H61.8407L63.6039 52.0167L65.2413 47.3566H66.7527L64.2337 53.5281H62.8483ZM54.6616 47.3566V53.5281H55.9211V51.6388H57.0546L58.3141 53.5281H59.9514L58.4401 51.3869C58.9018 51.3449 59.8255 50.8832 59.8255 49.3718C59.8255 47.8604 58.398 47.3986 57.6844 47.3566H54.6616Z" fill="#244192"/>
        <path d="M26.8629 34.3016C27.3219 34.5321 27.8174 34.7006 28.3384 34.7963V70.783H12.091V54.9135L26.8629 34.3016Z" fill="#244192"/>
        <path d="M25.388 33.2247C24.603 32.4238 24.0593 31.3856 23.8741 30.2276H11.0835L0 41.437L11.3354 52.8983L25.388 33.2247Z" fill="#244192"/>
        <path d="M24.8561 26.0968C24.3818 26.7509 24.0473 27.5127 23.8955 28.3384H12.217V13.3505L24.8561 26.0968Z" fill="#244192"/>
        <path d="M26.1815 24.796C26.8499 24.3303 27.6257 24.0081 28.4643 23.874V12.091H13.4765L26.1815 24.796Z" fill="#244192"/>
    </g>
</svg>
