<svg width="84" height="83" viewBox="0 0 84 83" xmlns="http://www.w3.org/2000/svg">
<path d="M41.3436 0L30.2514 11.1754V23.8016C31.4462 23.9919 32.5134 24.5622 33.3246 25.3842L52.814 11.1754L41.3436 0Z" />
<path d="M34.8239 28.2525C34.7276 27.7308 34.5577 27.2348 34.3256 26.7754L54.8307 12.0544H70.8388V28.2525H34.8239Z" />
<path d="M38.6966 48.8454L37.8143 50.8545H39.705L38.6966 48.8454Z" />
<path d="M55.9652 50.2266V48.4687H57.7298C57.9819 48.4687 58.4861 48.6194 58.4861 49.2221C58.4861 49.9755 58.108 50.2266 57.7298 50.2266H55.9652Z" />
<path fill-rule="evenodd" clip-rule="evenodd" d="M34.8453 30.136C34.7064 31.0012 34.3662 31.7993 33.8736 32.481L47.0655 45.5807H44.3688L32.5361 33.7932C31.8337 34.2807 31.0131 34.6105 30.1254 34.731V71.4474L41.4697 82.7484L53.5703 70.5684H69.4523L53.9484 55.1237H56.6762L70.8388 69.1872V53.4914L83.0654 41.3114L71.7211 30.136H34.8453ZM35.4194 53.3658L38.0664 47.213H39.4529L42.0999 53.3658H40.5874L40.0832 52.1101H37.3101L36.8059 53.3658H35.4194ZM41.8478 47.213V48.4687H43.7385V53.3658H45.1251V48.4687H47.0158V47.213H41.8478ZM48.1502 47.213V53.3658H49.4107V51.6079L50.167 50.8545L52.0577 53.3658H53.6963L51.0493 49.9755L53.6963 47.213H52.0577L49.4107 49.9755V47.213H48.1502ZM62.8978 53.3658L60.5029 47.213H61.8894L63.6541 51.859L65.2927 47.213H66.8053L64.2843 53.3658H62.8978ZM54.7047 47.213V53.3658H55.9652V51.4823H57.0996L58.3601 53.3658H59.9987L58.4861 51.2312C58.9482 51.1893 59.8727 50.7289 59.8727 49.2221C59.8727 47.7153 58.444 47.2549 57.7298 47.213H54.7047Z" />
<path d="M26.8841 34.1976C27.3435 34.4274 27.8393 34.5954 28.3607 34.6908V70.5684H12.1006V54.747L26.8841 34.1976Z" />
<path d="M25.408 33.124C24.6224 32.3255 24.0783 31.2904 23.8929 30.136H11.0922L0 41.3114L11.3443 52.738L25.408 33.124Z" />
<path d="M24.8757 26.0177C24.4011 26.6698 24.0662 27.4293 23.9143 28.2525H12.2266V13.3101L24.8757 26.0177Z" />
<path d="M26.2022 24.7209C26.8711 24.2565 27.6475 23.9353 28.4868 23.8016V12.0544H13.4871L26.2022 24.7209Z" />
</svg>
