<svg width="60" height="58" viewBox="0 0 60 58" fill="none" xmlns="http://www.w3.org/2000/svg">
<g class="default">
    <path fill-rule="evenodd" clip-rule="evenodd" d="M5.34826 0.0151367H28.4518C29.8691 0.0192995 31.2272 0.563174 32.2294 1.528C33.2316 2.49283 33.7966 3.80021 33.8009 5.16468V6.02046H13.3297C12.394 6.02143 11.4678 6.20005 10.604 6.5461C9.74015 6.89216 8.95575 7.39883 8.29563 8.03713L8.29015 8.04329C7.62706 8.67875 7.10074 9.43388 6.74127 10.2655C6.3818 11.097 6.19626 11.9887 6.19531 12.8894V32.5565H5.34915C3.93165 32.5528 2.57331 32.009 1.57098 31.0441C0.568649 30.0792 0.00384606 28.7715 0 27.4069V5.16468C0.00408402 3.80029 0.568842 2.49291 1.57092 1.52805C2.57301 0.563202 3.93099 0.0193007 5.34826 0.0151367Z" fill="#4EC1F1"/>
    <path fill-rule="evenodd" clip-rule="evenodd" d="M13.3297 7.53369H37.354C38.8279 7.53786 40.2402 8.10335 41.2823 9.10666C42.3245 10.11 42.912 11.4695 42.9163 12.8884V13.5232H21.7856C20.6953 13.4695 19.6062 13.6488 18.5963 14.0481C17.5865 14.4474 16.6809 15.0568 15.9446 15.8328C14.5165 17.5702 13.797 19.7502 13.9217 21.9626V41.371H13.3333C11.8595 41.3666 10.4474 40.801 9.40521 39.7978C8.36307 38.7945 7.77556 37.4351 7.771 36.0163V12.8893C7.77508 11.4709 8.36188 10.1116 9.40332 9.10821C10.4448 8.10481 11.8563 7.53878 13.3297 7.53369Z" fill="#71B164"/>
    <path fill-rule="evenodd" clip-rule="evenodd" d="M21.7816 15.0386H53.7081C55.3753 15.0433 56.9729 15.6829 58.1518 16.8178C59.3307 17.9527 59.9951 19.4907 59.9999 21.0957V51.8281C59.9951 53.4332 59.3307 54.9711 58.1518 56.106C56.9729 57.241 55.3753 57.8806 53.7081 57.8852H21.7816C20.1144 57.8806 18.5168 57.241 17.3379 56.106C16.159 54.9711 15.4946 53.4332 15.4897 51.8281V21.9637C15.4897 17.6314 17.6274 15.0369 21.7816 15.0369V15.0386ZM31.0208 43.11C30.5982 42.6566 29.2957 39.1073 27.353 38.1375C26.3711 37.6474 23.5868 39.9026 23.2717 41.1573C23.1086 41.8088 23.7908 42.3471 24.1142 42.7575C25.3302 44.1839 26.3621 45.747 27.1872 47.4125C27.9987 48.8303 28.1099 49.4292 30.0954 49.6721C32.5045 49.5949 32.6685 49.7738 33.6476 48.2744C34.4082 47.2948 35.1036 46.2698 35.7297 45.2056C41.0624 36.2752 45.5664 31.194 53.2855 24.0532L53.8238 22.0988C45.4247 27.2436 38.1373 33.9024 32.3624 41.7088C32.0181 42.1919 31.7149 43.0503 31.0208 43.11Z" fill="#008DDB"/>
</g>
<g class="hover">
    <path fill-rule="evenodd" clip-rule="evenodd" d="M5.34828 0H28.4519C29.8692 0.00416313 31.2273 0.54808 32.2295 1.51298C33.2317 2.47789 33.7967 3.78537 33.801 5.14994V6.0058H13.3297C12.3941 6.00676 11.4678 6.1854 10.604 6.53148C9.74018 6.87756 8.95577 7.38427 8.29565 8.02263L8.29017 8.02878C7.62709 8.66429 7.10076 9.41948 6.74129 10.2511C6.38182 11.0828 6.19628 11.9745 6.19532 12.8753V32.5439H5.34917C3.93166 32.5402 2.57332 31.9964 1.57098 31.0314C0.568651 30.0664 0.00384607 28.7586 0 27.3939V5.14994C0.00408403 3.78545 0.568843 2.47796 1.57093 1.51304C2.57301 0.548109 3.931 0.00416428 5.34828 0Z" fill="#0E3C47"/>
    <path fill-rule="evenodd" clip-rule="evenodd" d="M13.3297 7.52036H37.3541C38.828 7.52452 40.2402 8.09006 41.2824 9.09344C42.3246 10.0968 42.912 11.4565 42.9164 12.8755V13.5104H21.7856C20.6953 13.4567 19.6062 13.6359 18.5963 14.0352C17.5865 14.4346 16.6809 15.0441 15.9446 15.8201C14.5165 17.5577 13.7971 19.7378 13.9217 21.9504V41.3603H13.3333C11.8595 41.3559 10.4474 40.7903 9.40521 39.787C8.36306 38.7836 7.77555 37.4241 7.77099 36.0052V12.8764C7.77507 11.4578 8.36188 10.0985 9.40332 9.095C10.4448 8.09152 11.8563 7.52545 13.3297 7.52036Z" fill="#0E3C47"/>
    <path fill-rule="evenodd" clip-rule="evenodd" d="M21.7816 15.0246H53.7081C55.3754 15.0292 56.973 15.6689 58.1519 16.8039C59.3308 17.9389 59.9952 19.477 60 21.0821V51.817C59.9952 53.4221 59.3308 54.9602 58.1519 56.0952C56.973 57.2302 55.3754 57.8699 53.7081 57.8745H21.7816C20.1143 57.8699 18.5168 57.2302 17.3379 56.0952C16.1589 54.9602 15.4945 53.4221 15.4897 51.817V21.9502C15.4897 17.6175 17.6274 15.0228 21.7816 15.0228V15.0246ZM31.0208 43.0981C30.5982 42.6447 29.2957 39.0951 27.353 38.1253C26.3711 37.6351 23.5868 39.8904 23.2717 41.1453C23.1086 41.7968 23.7908 42.3352 24.1141 42.7456C25.3302 44.1721 26.362 45.7353 27.1872 47.401C27.9987 48.8189 28.1099 49.4178 30.0954 49.6607C32.5045 49.5835 32.6685 49.7624 33.6476 48.263C34.4082 47.2833 35.1036 46.2582 35.7297 45.1939C41.0625 36.2628 45.5664 31.1812 53.2855 24.0398L53.8238 22.0853C45.4247 27.2305 38.1373 33.8898 32.3624 41.6968C32.0181 42.18 31.7148 43.0385 31.0208 43.0981Z" fill="#0E3C47"/>
</g>
</svg>
