<svg width="66" height="59" viewBox="0 0 66 59" xmlns="http://www.w3.org/2000/svg">
<path d="M9.8212 5.41329C9.8212 8.19965 7.62264 10.4584 4.9106 10.4584C2.19856 10.4584 0 8.19965 0 5.41329C0 2.62694 2.19856 0.368164 4.9106 0.368164C7.62264 0.368164 9.8212 2.62694 9.8212 5.41329Z" />
<path d="M20.379 29.3777C20.379 32.164 18.1804 34.4228 15.4684 34.4228C12.7564 34.4228 10.5578 32.164 10.5578 29.3777C10.5578 26.5913 12.7564 24.3325 15.4684 24.3325C18.1804 24.3325 20.379 26.5913 20.379 29.3777Z" />
<path d="M4.9106 58.3871C7.62264 58.3871 9.8212 56.1284 9.8212 53.342C9.8212 50.5557 7.62264 48.2969 4.9106 48.2969C2.19856 48.2969 0 50.5557 0 53.342C0 56.1284 2.19856 58.3871 4.9106 58.3871Z" />
<path d="M32.1644 6.42232C32.1644 9.76593 29.5262 12.4765 26.2717 12.4765C23.0172 12.4765 20.379 9.76593 20.379 6.42232C20.379 3.0787 23.0172 0.368164 26.2717 0.368164C29.5262 0.368164 32.1644 3.0787 32.1644 6.42232Z" />
<path d="M37.075 35.4318C40.3295 35.4318 42.9678 32.7213 42.9678 29.3777C42.9678 26.034 40.3295 23.3235 37.075 23.3235C33.8206 23.3235 31.1823 26.034 31.1823 29.3777C31.1823 32.7213 33.8206 35.4318 37.075 35.4318Z" />
<path d="M32.1644 52.333C32.1644 55.6766 29.5262 58.3871 26.2717 58.3871C23.0172 58.3871 20.379 55.6766 20.379 52.333C20.379 48.9894 23.0172 46.2788 26.2717 46.2788C29.5262 46.2788 32.1644 48.9894 32.1644 52.333Z" />
<path d="M47.7556 14.2423C51.4846 14.2423 54.5077 11.1364 54.5077 7.30522C54.5077 3.47399 51.4846 0.368164 47.7556 0.368164C44.0265 0.368164 41.0035 3.47399 41.0035 7.30522C41.0035 11.1364 44.0265 14.2423 47.7556 14.2423Z" />
<path d="M65.311 29.2515C65.311 33.0827 62.288 36.1886 58.5589 36.1886C54.8299 36.1886 51.8068 33.0827 51.8068 29.2515C51.8068 25.4203 54.8299 22.3145 58.5589 22.3145C62.288 22.3145 65.311 25.4203 65.311 29.2515Z" />
<path d="M47.7556 58.3871C51.4846 58.3871 54.5077 55.2813 54.5077 51.4501C54.5077 47.6189 51.4846 44.513 47.7556 44.513C44.0265 44.513 41.0035 47.6189 41.0035 51.4501C41.0035 55.2813 44.0265 58.3871 47.7556 58.3871Z" />
</svg>
