<svg width="24" height="24" viewBox="0 0 24 24" fill="none" xmlns="http://www.w3.org/2000/svg">
    <mask id="mask0_884_1009" style="mask-type:alpha" x="14" y="2" width="9" height="9">
        <path id="Clip 2" fill-rule="evenodd" clip-rule="evenodd" d="M14.3535 2.00049H22.8925V10.5333H14.3535V2.00049Z" />
    </mask>
    <path id="Fill 1" fill-rule="evenodd" clip-rule="evenodd" d="M22.1422 10.5333C21.7652 10.5333 21.4412 10.2503 21.3982 9.8673C21.0192 6.4913 18.3972 3.8713 15.0202 3.4963C14.6092 3.4503 14.3122 3.0803 14.3582 2.6683C14.4032 2.2573 14.7702 1.9543 15.1862 2.0063C19.2642 2.4593 22.4312 5.6223 22.8882 9.6993C22.9342 10.1113 22.6382 10.4823 22.2272 10.5283C22.1992 10.5313 22.1702 10.5333 22.1422 10.5333Z" />
    <path id="Fill 4" fill-rule="evenodd" clip-rule="evenodd" d="M18.6024 10.5442C18.2504 10.5442 17.9374 10.2962 17.8674 9.93815C17.5794 8.45815 16.4384 7.31715 14.9604 7.03015C14.5534 6.95115 14.2884 6.55815 14.3674 6.15115C14.4464 5.74415 14.8464 5.47815 15.2464 5.55815C17.3274 5.96215 18.9344 7.56815 19.3394 9.65015C19.4184 10.0582 19.1534 10.4512 18.7474 10.5302C18.6984 10.5392 18.6504 10.5442 18.6024 10.5442Z" />
    <mask id="mask1_884_1009" style="mask-type:alpha" x="2" y="2" width="21" height="21">
        <path id="Clip 7" fill-rule="evenodd" clip-rule="evenodd" d="M2 2H22.5002V22.5005H2V2Z" />
    </mask>
    <path id="Fill 6" fill-rule="evenodd" clip-rule="evenodd" d="M4.35908 5.06154C4.36108 5.06154 4.31108 5.11354 4.24808 5.17554C4.00608 5.41054 3.50508 5.89954 3.50008 6.92254C3.49208 8.35354 4.43308 11.0105 8.96408 15.5405C13.4731 20.0485 16.1261 21.0005 17.5611 21.0005H17.5821C18.6051 20.9945 19.0931 20.4935 19.3281 20.2525C19.3991 20.1795 19.4571 20.1245 19.4981 20.0915C20.4951 19.0885 21.0051 18.3435 21.0001 17.8645C20.9941 17.3765 20.3871 16.8005 19.5481 16.0015C19.2811 15.7485 18.9911 15.4715 18.6851 15.1655C17.8911 14.3745 17.5001 14.5095 16.6351 14.8135C15.4401 15.2325 13.8031 15.8065 11.2521 13.2535C8.70008 10.7025 9.27208 9.06554 9.68908 7.86954C9.99108 7.00554 10.1291 6.61254 9.33608 5.81854C9.02608 5.50854 8.74708 5.21454 8.49008 4.94454C7.69608 4.11054 7.12308 3.50754 6.63808 3.50054H6.63008C6.15108 3.50054 5.40708 4.01254 4.35408 5.06554C4.35708 5.06254 4.35808 5.06154 4.35908 5.06154ZM17.5611 22.5005C15.0691 22.5005 11.8201 20.5165 7.90408 16.6015C3.97208 12.6705 1.98508 9.41154 2.00008 6.91454C2.00908 5.26454 2.87408 4.41954 3.19908 4.10254C3.21608 4.08154 3.27408 4.02454 3.29408 4.00454C4.72908 2.56954 5.71508 1.97954 6.65708 2.00054C7.77408 2.01554 8.57008 2.85254 9.57708 3.91154C9.82608 4.17254 10.0951 4.45754 10.3961 4.75754C11.8551 6.21754 11.4401 7.40854 11.1051 8.36454C10.7411 9.40754 10.4261 10.3075 12.3121 12.1935C14.1981 14.0795 15.0971 13.7645 16.1391 13.3975C17.0961 13.0635 18.2841 12.6455 19.7461 14.1055C20.0431 14.4025 20.3231 14.6685 20.5831 14.9155C21.6461 15.9275 22.4861 16.7265 22.5001 17.8465C22.5111 18.8005 21.9311 19.7745 20.4991 21.2065L19.8651 20.7765L20.4021 21.2995C20.0851 21.6245 19.2421 22.4905 17.5911 22.5005H17.5611Z" />
</svg>
