<svg width="24" height="24" viewBox="0 0 24 24" xmlns="http://www.w3.org/2000/svg">
<path d="M9.02464 7.79534L9.27113 7.78765L9.02464 7.79534C9.03408 8.09831 9.28331 8.3466 9.58638 8.35474L14.7052 8.49232L7.56868 15.6288C7.34436 15.8531 7.36938 16.2073 7.58136 16.4193C7.79334 16.6313 8.14754 16.6563 8.37186 16.432L15.508 9.29582L15.646 14.4144C15.6542 14.7175 15.9025 14.9667 16.2055 14.9761C16.5197 14.9859 16.7723 14.7346 16.7638 14.4202L16.59 7.97201C16.586 7.82388 16.5235 7.6838 16.42 7.58022C16.3164 7.47663 16.1763 7.41423 16.0282 7.41025L16.0214 7.66016L16.0281 7.41025L9.58054 7.23696C9.26613 7.22851 9.01484 7.48105 9.02464 7.79534Z"/>
</svg>
