<svg width="28" height="28" viewBox="0 0 28 28"  xmlns="http://www.w3.org/2000/svg">
<path fill-rule="evenodd" clip-rule="evenodd" d="M0.6875 12.7817C0.6875 6.10221 6.10234 0.687378 12.7818 0.687378C19.4613 0.687378 24.8761 6.10221 24.8761 12.7817C24.8761 15.6632 23.8689 18.3085 22.1869 20.386C22.0601 20.5426 22.0721 20.7697 22.2145 20.9122L27.043 25.7406C27.4026 26.1002 27.4026 26.6832 27.043 27.0429C26.6834 27.4025 26.1003 27.4025 25.7407 27.0429L20.9123 22.2144C20.7698 22.0719 20.5428 22.06 20.3862 22.1868C18.3086 23.8688 15.6634 24.876 12.7818 24.876C6.10234 24.876 0.6875 19.4612 0.6875 12.7817ZM12.7818 2.52902C7.11945 2.52902 2.52914 7.11933 2.52914 12.7817C2.52914 18.4441 7.11945 23.0344 12.7818 23.0344C18.4442 23.0344 23.0345 18.4441 23.0345 12.7817C23.0345 7.11933 18.4442 2.52902 12.7818 2.52902Z" />
</svg>
