<svg width="24" height="24" viewBox="0 0 24 24" xmlns="http://www.w3.org/2000/svg">
<path fill-rule="evenodd" clip-rule="evenodd" d="M5.15002 11.5278C5.15002 8.00546 8.00548 5.15 11.5278 5.15C15.0502 5.15 17.9056 8.00546 17.9056 11.5278C17.9056 13.0472 17.3744 14.4424 16.4874 15.538L18.9534 18.0039C19.2156 18.2661 19.2156 18.6912 18.9534 18.9534C18.6912 19.2155 18.2661 19.2155 18.004 18.9534L15.538 16.4874C14.4425 17.3743 13.0472 17.9056 11.5278 17.9056C8.00548 17.9056 5.15002 15.0502 5.15002 11.5278ZM11.5278 6.4927C8.74703 6.4927 6.49272 8.74701 6.49272 11.5278C6.49272 14.3086 8.74703 16.5629 11.5278 16.5629C14.3086 16.5629 16.563 14.3086 16.563 11.5278C16.563 8.74701 14.3086 6.4927 11.5278 6.4927Z" />
<path fill-rule="evenodd" clip-rule="evenodd" d="M5 11.5278C5 7.92261 7.92261 5 11.5278 5C15.133 5 18.0556 7.92261 18.0556 11.5278C18.0556 13.0342 17.5452 14.4217 16.688 15.5264L19.0594 17.8979C19.3802 18.2186 19.3802 18.7387 19.0594 19.0594C18.7387 19.3802 18.2186 19.3802 17.8979 19.0594L15.5264 16.688C14.4217 17.5452 13.0342 18.0556 11.5278 18.0556C7.92261 18.0556 5 15.133 5 11.5278ZM11.5278 5.3C8.0883 5.3 5.3 8.0883 5.3 11.5278C5.3 14.9673 8.0883 17.7556 11.5278 17.7556C13.0116 17.7556 14.3738 17.2369 15.4436 16.3708C15.5033 16.3225 15.5898 16.3271 15.644 16.3813L18.11 18.8473C18.3136 19.0509 18.6437 19.0509 18.8473 18.8473C19.0509 18.6437 19.0509 18.3136 18.8473 18.11L16.3813 15.644C16.3271 15.5898 16.3225 15.5033 16.3708 15.4436C17.2369 14.3738 17.7556 13.0116 17.7556 11.5278C17.7556 8.0883 14.9673 5.3 11.5278 5.3ZM11.5278 6.6427C8.82985 6.6427 6.6427 8.82985 6.6427 11.5278C6.6427 14.2258 8.82985 16.4129 11.5278 16.4129C14.2258 16.4129 16.4129 14.2258 16.4129 11.5278C16.4129 8.82985 14.2258 6.6427 11.5278 6.6427ZM6.3427 11.5278C6.3427 8.66417 8.66417 6.3427 11.5278 6.3427C14.3915 6.3427 16.7129 8.66417 16.7129 11.5278C16.7129 14.3915 14.3915 16.7129 11.5278 16.7129C8.66417 16.7129 6.3427 14.3915 6.3427 11.5278Z" />
</svg>
