<svg width="24" height="24" viewBox="0 0 24 24" xmlns="http://www.w3.org/2000/svg">
<path fill-rule="evenodd" clip-rule="evenodd" d="M18.7768 5.22318C18.9838 5.43014 19.0539 5.73736 18.9572 6.01362L13.8905 20.4898C13.7873 20.7846 13.5146 20.9866 13.2025 20.9994C12.8903 21.0121 12.6021 20.833 12.4752 20.5475L9.69896 14.301L3.45247 11.5248C3.167 11.3979 2.9879 11.1097 3.00064 10.7975C3.01337 10.4854 3.21536 10.2127 3.51021 10.1095L17.9864 5.0428C18.2626 4.94611 18.5699 5.01622 18.7768 5.22318ZM11.1849 13.8926L13.0871 18.1725L16.416 8.66149L11.1849 13.8926ZM15.3385 7.58399L5.82749 10.9129L10.1074 12.8151L15.3385 7.58399Z" />
</svg>
