<svg width="24" height="24" viewBox="0 0 24 24" fill="none" xmlns="http://www.w3.org/2000/svg">
<path id="Fill 1" fill-rule="evenodd" clip-rule="evenodd" d="M12 3.5C7.313 3.5 3.5 7.313 3.5 12C3.5 16.687 7.313 20.5 12 20.5C16.687 20.5 20.5 16.687 20.5 12C20.5 7.313 16.687 3.5 12 3.5ZM12 22C6.486 22 2 17.514 2 12C2 6.486 6.486 2 12 2C17.514 2 22 6.486 22 12C22 17.514 17.514 22 12 22Z" />
<path id="Fill 3" fill-rule="evenodd" clip-rule="evenodd" d="M15.4321 15.6922C15.3011 15.6922 15.1691 15.6582 15.0481 15.5872L11.2781 13.3382C11.0521 13.2022 10.9121 12.9572 10.9121 12.6932V7.84521C10.9121 7.43121 11.2481 7.09521 11.6621 7.09521C12.0771 7.09521 12.4121 7.43121 12.4121 7.84521V12.2672L15.8171 14.2972C16.1721 14.5102 16.2891 14.9702 16.0771 15.3262C15.9361 15.5612 15.6871 15.6922 15.4321 15.6922Z" />
</svg>
