<svg width="500" height="500" viewBox="0 0 500 500" xmlns="http://www.w3.org/2000/svg">
<path fill-rule="evenodd" clip-rule="evenodd" d="M270.556 73.3927V43.5038C270.556 41.6212 271.502 40.6793 273.396 40.6781H397.236C399.131 40.6781 400.078 41.62 400.076 43.5038V73.7404C400.076 75.6254 399.13 76.568 397.236 76.568H273.749C272.901 76.566 272.089 76.23 271.49 75.6335C270.891 75.037 270.553 74.2286 270.552 73.3853L270.556 73.3927ZM273.753 121.209H383.319C385.211 121.209 386.158 122.151 386.159 124.035V153.994C386.159 155.879 385.213 156.821 383.319 156.82H314.013C312.878 156.82 312.31 157.385 312.309 158.515V195.263C312.309 196.393 312.877 196.958 314.013 196.959H397.236C399.131 196.959 400.078 197.901 400.076 199.785V230.022C400.076 231.905 399.13 232.847 397.236 232.847H273.396C271.502 232.847 270.556 231.905 270.556 230.022V124.382C270.557 123.54 270.894 122.732 271.492 122.136C272.091 121.54 272.902 121.204 273.749 121.202L273.753 121.209Z" fill="#2C87A4"/>
<path fill-rule="evenodd" clip-rule="evenodd" d="M135.753 124.382V194.124C135.753 195.255 136.321 195.82 137.457 195.82H159.328C168.987 195.82 176.75 194.265 182.619 191.156C188.488 188.047 192.655 182.536 195.118 174.625C195.743 173.12 196.218 171.559 196.538 169.963C196.989 167.673 197.321 165.362 197.533 163.039C197.815 160.213 198.004 156.681 198.1 152.442C198.195 148.204 198.243 142.976 198.243 136.758C198.243 130.541 198.195 125.363 198.1 121.224C198.004 117.085 197.815 113.6 197.533 110.768C197.321 108.444 196.989 106.133 196.538 103.844C196.19 102.162 195.715 100.509 195.118 98.8986C192.656 90.9872 188.49 85.4768 182.619 82.3675C176.749 79.2582 168.986 77.7041 159.328 77.7053H97.1972C96.3498 77.7034 95.5378 77.3676 94.9386 76.7715C94.3394 76.1754 94.002 75.3675 94 74.5245V43.5038C94 41.6212 94.9468 40.6793 96.8403 40.6781H168.702C185.744 40.6781 199.946 44.2578 211.308 51.4171C222.671 58.5765 230.718 69.4092 235.451 83.9154C236.209 86.5525 236.919 89.3308 237.581 92.2503C238.326 95.6577 238.894 99.1007 239.286 102.566C239.759 106.522 240.09 111.232 240.28 116.695C240.47 122.158 240.564 128.845 240.564 136.758C240.564 144.671 240.47 151.359 240.28 156.821C240.09 162.284 239.759 166.995 239.286 170.952C238.894 174.417 238.325 177.859 237.581 181.266C236.919 184.185 236.209 186.964 235.451 189.603C230.717 204.103 222.67 214.935 211.308 222.101C199.947 229.266 185.745 232.845 168.702 232.838H96.8403C94.9455 232.838 93.9988 231.896 94 230.012V124.382C94.0015 123.539 94.3388 122.731 94.9381 122.135C95.5373 121.539 96.3497 121.203 97.1972 121.202H132.556C133.403 121.203 134.216 121.539 134.815 122.135C135.414 122.731 135.751 123.539 135.753 124.382Z" fill="#2C87A4"/>
<path fill-rule="evenodd" clip-rule="evenodd" d="M273.375 413.135C272.253 410.166 271.356 407.116 270.694 404.013C269.984 400.583 269.466 397.117 269.143 393.63C268.766 389.795 268.484 385.306 268.295 380.161C268.107 375.017 268.015 368.796 268.02 361.499C268.02 354.202 268.114 347.982 268.303 342.839C268.491 337.695 268.773 333.205 269.15 329.368C269.465 325.927 269.983 322.507 270.701 319.126C271.399 315.987 272.292 312.894 273.375 309.865C278.452 294.15 286.869 282.41 298.626 274.647C310.382 266.884 324.722 263.001 341.646 263C358.009 263 371.881 266.695 383.262 274.085C394.643 281.475 403.066 291.903 408.53 305.369C409.47 307.054 409 308.177 407.119 308.737L376.366 322.487C374.672 323.424 373.356 322.956 372.416 321.084C369.781 314.91 366.066 309.768 361.272 305.658C356.477 301.548 350.035 299.489 341.946 299.483C334.422 299.483 328.262 301.354 323.465 305.096C318.668 308.837 315.235 313.979 313.166 320.522C312.575 322.313 312.103 324.14 311.755 325.993C311.386 327.952 311.057 330.431 310.768 333.43C310.478 336.43 310.291 340.172 310.204 344.655C310.111 349.146 310.063 354.758 310.062 361.492C310.061 368.225 310.108 373.838 310.204 378.33C310.299 382.819 310.487 386.56 310.768 389.555C311.048 392.55 311.377 395.028 311.755 396.991C312.104 398.844 312.575 400.672 313.166 402.463C315.236 409.011 318.669 414.153 323.465 417.89C328.261 421.626 334.421 423.497 341.946 423.502C350.033 423.502 356.475 421.445 361.272 417.33C366.069 413.215 369.783 408.073 372.416 401.903C373.357 400.034 374.673 399.566 376.366 400.5L407.119 414.252C408.999 414.811 409.469 415.933 408.53 417.618C403.073 431.085 394.656 441.515 383.279 448.908C371.901 456.3 358.028 459.998 341.659 460C324.73 460 310.39 456.118 298.639 448.355C286.887 440.592 278.466 428.852 273.375 413.135Z" fill="#207D69"/>
<path fill-rule="evenodd" clip-rule="evenodd" d="M97.1795 346.051H171.036C178.936 346.051 185.237 343.899 189.939 339.596C194.642 335.293 196.994 330.953 196.994 324.096C196.994 317.699 194.642 312.484 189.939 308.181C185.236 303.878 178.936 301.728 171.036 301.728H97.1795C96.3381 301.727 95.5314 301.394 94.9356 300.803C94.3398 300.213 94.0034 299.411 94 298.574V268.893C94 267.024 94.941 266.088 96.8231 266.087H173.283C183.062 266.087 191.95 267.537 199.945 270.438C207.94 273.338 214.805 277.407 220.541 282.645C226.279 287.883 230.803 294.298 233.802 301.447C236.906 308.743 238.457 315.49 238.457 324.096C238.457 336.442 235.447 345.302 229.428 354.469C223.409 363.637 215.039 370.559 204.317 375.234L242.122 453.545C242.56 454.452 242.491 455.275 242.122 455.933C241.753 456.59 241.086 456.915 240.147 456.915H200.08C198.012 456.915 196.678 455.947 195.848 454.109L162.838 381.131H137.169C136.041 381.131 135.477 381.693 135.476 382.815V454.105C135.476 455.976 134.535 456.911 132.654 456.911H96.8231C94.9423 456.911 94.0012 455.976 94 454.105V349.21C94.0015 348.372 94.337 347.569 94.9331 346.976C95.5292 346.384 96.337 346.051 97.1795 346.051Z" fill="#207D69"/>
</svg>
